<svg width="92.50000042mm" height="79.99999748mm" viewBox="0 0 36417323 31496062"  version="1.1" xmlns="http://www.w3.org/2000/svg" xmlns:xlink="http://www.w3.org/1999/xlink">
<desc>
Origin 29527560 39370078 Bound 3937008 3937008 36417323 31496062
</desc>
<g fill-rule="evenodd" fill="rgb(128, 0, 128)" stroke="black" stroke-width="1" transform="translate(0, 31496062) scale(1, -1) translate(-3937008, -3937008)">
<path id="N" d="M 40354330.00 34545759.00 L 40354331.00 20314960.00 L 40292587.00 20311926.00 A 629921.82 629921.82 0 0 1 40354331.00 19055118.00 L 40354331.00 8320836.00 A 986983.00 986983.00 0 0 0 39803731.00 7507582.00 L 30930291.00 3958206.00 A 394230.61 394230.61 0 0 0 30820214.00 3937007.00 L 12387978.00 3937007.00 A 1970149.97 1970149.97 0 0 0 11349460.00 4283179.00 L 4633038.00 9320496.00 A 1971759.27 1971759.27 0 0 0 3937008.00 10712556.00 L 3937008.00 28657521.00 A 1971797.85 1971797.85 0 0 0 4633038.00 30049581.00 L 11349460.00 35086898.00 A 1970083.76 1970083.76 0 0 0 12387978.00 35433070.00 L 39467019.00 35433070.00 A 989027.50 989027.50 0 0 0 40354330.00 34545759.00  zM 6385819.00 9607471.00 L 5722401.00 8727086.00 L 6036823.00 8490151.00 L 6700241.00 9370536.00 L 6385819.00 9607471.00  zM 7362204.13 10039371.07 m -150528.93 0 a 150528.93 150528.93 0 1 1 301057.86 0a 150528.93 150528.93 0 1 1 -301057.86 0M 7693804.00 10002140.00 L 7291015.00 9467621.00 L 7479668.00 9325460.00 L 7882457.00 9859979.00 L 7693804.00 10002140.00  zM 6496064.00 11222440.00 L 5393702.00 11222440.00 L 5393702.00 10828740.00 L 6496064.00 10828740.00 L 6496064.00 11222440.00  zM 7598425.00 11872046.00 L 6929135.00 11872046.00 L 6929135.00 11635826.00 L 7598425.00 11635826.00 L 7598425.00 11872046.00  zM 7598425.00 12364172.00 L 6929135.00 12364172.00 L 6929135.00 12127952.00 L 7598425.00 12127952.00 L 7598425.00 12364172.00  zM 7942215.00 8434644.00 L 7278797.00 7554259.00 L 7593219.00 7317324.00 L 8256637.00 8197709.00 L 7942215.00 8434644.00  zM 8086833.00 9705971.00 L 7684044.00 9171452.00 L 7872697.00 9029291.00 L 8275486.00 9563810.00 L 8086833.00 9705971.00  zM 9133858.13 11574804.07 m -150528.93 0 a 150528.93 150528.93 0 1 1 301057.86 0a 150528.93 150528.93 0 1 1 -301057.86 0M 9724409.13 11614174.07 m -150528.93 0 a 150528.93 150528.93 0 1 1 301057.86 0a 150528.93 150528.93 0 1 1 -301057.86 0M 10354330.13 11968505.07 m -150528.93 0 a 150528.93 150528.93 0 1 1 301057.86 0a 150528.93 150528.93 0 1 1 -301057.86 0M 4329799.00 13691285.00 L 4190605.00 13552091.00 A 130461.68 130461.68 0 0 1 4190605.00 13367593.00 L 4329799.00 13228399.00 A 130461.68 130461.68 0 0 1 4514297.00 13228399.00 L 4653491.00 13367593.00 A 130461.68 130461.68 0 0 1 4653491.00 13552091.00 L 4514297.00 13691285.00 A 130461.68 130461.68 0 0 1 4329799.00 13691285.00  zM 6496064.00 14647636.00 L 5393702.00 14647636.00 L 5393702.00 14253936.00 L 6496064.00 14253936.00 L 6496064.00 14647636.00  zM 6692913.13 13740158.07 m -150528.93 0 a 150528.93 150528.93 0 1 1 301057.86 0a 150528.93 150528.93 0 1 1 -301057.86 0M 7598425.00 12856298.00 L 6929135.00 12856298.00 L 6929135.00 12620078.00 L 7598425.00 12620078.00 L 7598425.00 12856298.00  zM 7598425.00 13348424.00 L 6929135.00 13348424.00 L 6929135.00 13112204.00 L 7598425.00 13112204.00 L 7598425.00 13348424.00  zM 7598425.00 13840550.00 L 6929135.00 13840550.00 L 6929135.00 13604330.00 L 7598425.00 13604330.00 L 7598425.00 13840550.00  zM 8031496.13 12755906.07 m -150528.93 0 a 150528.93 150528.93 0 1 1 301057.86 0a 150528.93 150528.93 0 1 1 -301057.86 0M 8031496.13 13228347.07 m -150528.93 0 a 150528.93 150528.93 0 1 1 301057.86 0a 150528.93 150528.93 0 1 1 -301057.86 0M 8561417.13 12755906.07 m -150528.93 0 a 150528.93 150528.93 0 1 1 301057.86 0a 150528.93 150528.93 0 1 1 -301057.86 0M 8800787.13 13425197.07 m -150528.93 0 a 150528.93 150528.93 0 1 1 301057.86 0a 150528.93 150528.93 0 1 1 -301057.86 0M 8307086.13 14094489.07 m -150528.93 0 a 150528.93 150528.93 0 1 1 301057.86 0a 150528.93 150528.93 0 1 1 -301057.86 0M 11122044.19 7614188.36 m -565849.64 0 a 565849.64 565849.64 0 1 1 1131699.28 0a 565849.64 565849.64 0 1 1 -1131699.28 0M 14015748.13 4842520.07 m -150528.93 0 a 150528.93 150528.93 0 1 1 301057.86 0a 150528.93 150528.93 0 1 1 -301057.86 0M 14763779.13 8307087.07 m -150528.93 0 a 150528.93 150528.93 0 1 1 301057.86 0a 150528.93 150528.93 0 1 1 -301057.86 0M 15015611.70 5498813.23 m -357393.77 0 a 357393.77 357393.77 0 1 1 714787.55 0a 357393.77 357393.77 0 1 1 -714787.55 0M 15015611.70 6498813.23 m -357393.77 0 a 357393.77 357393.77 0 1 1 714787.55 0a 357393.77 357393.77 0 1 1 -714787.55 0M 15015611.70 7498813.23 m -357393.77 0 a 357393.77 357393.77 0 1 1 714787.55 0a 357393.77 357393.77 0 1 1 -714787.55 0M 11122043.22 9173250.70 m -565842.30 0 a 565842.30 565842.30 0 1 1 1131684.61 0a 565842.30 565842.30 0 1 1 -1131684.61 0M 14327993.00 8705433.00 L 13616891.00 8705433.00 L 13616891.00 7975157.00 L 14327993.00 7975157.00 L 14327993.00 8705433.00  zM 14327993.00 9591771.00 L 13616891.00 9591771.00 L 13616891.00 8861495.00 L 14327993.00 8861495.00 L 14327993.00 9591771.00  zM 11122044.19 10732298.36 m -565849.64 0 a 565849.64 565849.64 0 1 1 1131699.28 0a 565849.64 565849.64 0 1 1 -1131699.28 0M 11122043.22 12291360.70 m -565842.30 0 a 565842.30 565842.30 0 1 1 1131684.61 0a 565842.30 565842.30 0 1 1 -1131684.61 0M 11683072.00 14411417.00 L 10561024.00 14411417.00 L 10561024.00 13289369.00 L 11683072.00 13289369.00 L 11683072.00 14411417.00  zM 14529529.00 15033462.00 L 14057087.00 15033462.00 L 14057087.00 14836612.00 L 14529529.00 14836612.00 L 14529529.00 15033462.00  zM 14736221.00 14826770.00 L 14539371.00 14826770.00 L 14539371.00 14354328.00 L 14736221.00 14354328.00 L 14736221.00 14826770.00  zM 15393700.13 14173229.07 m -150528.93 0 a 150528.93 150528.93 0 1 1 301057.86 0a 150528.93 150528.93 0 1 1 -301057.86 0M 15248032.00 14826770.00 L 15051182.00 14826770.00 L 15051182.00 14354328.00 L 15248032.00 14354328.00 L 15248032.00 14826770.00  zM 14992126.00 14826770.00 L 14795276.00 14826770.00 L 14795276.00 14354328.00 L 14992126.00 14354328.00 L 14992126.00 14826770.00  zM 15708661.13 13343308.07 m -150528.93 0 a 150528.93 150528.93 0 1 1 301057.86 0a 150528.93 150528.93 0 1 1 -301057.86 0M 15748031.13 13937009.07 m -150528.93 0 a 150528.93 150528.93 0 1 1 301057.86 0a 150528.93 150528.93 0 1 1 -301057.86 0M 15503937.00 14826770.00 L 15307087.00 14826770.00 L 15307087.00 14354328.00 L 15503937.00 14354328.00 L 15503937.00 14826770.00  zM 15986221.00 15033462.00 L 15513779.00 15033462.00 L 15513779.00 14836612.00 L 15986221.00 14836612.00 L 15986221.00 15033462.00  zM 15986221.00 15289367.00 L 15513779.00 15289367.00 L 15513779.00 15092517.00 L 15986221.00 15092517.00 L 15986221.00 15289367.00  zM 6344726.00 16425393.00 L 5929412.00 16425393.00 L 5929412.00 16029251.00 L 6344726.00 16029251.00 L 6344726.00 16425393.00  zM 6916104.00 16425393.00 L 6500790.00 16425393.00 L 6500790.00 16029251.00 L 6916104.00 16029251.00 L 6916104.00 16425393.00  zM 6450789.00 18169290.00 L 5348427.00 18169290.00 L 5348427.00 17775590.00 L 6450789.00 17775590.00 L 6450789.00 18169290.00  zM 4328618.00 19920615.00 L 4189424.00 19781421.00 A 130461.68 130461.68 0 0 1 4189424.00 19596923.00 L 4328618.00 19457729.00 A 130461.68 130461.68 0 0 1 4513116.00 19457729.00 L 4652310.00 19596923.00 A 130461.68 130461.68 0 0 1 4652310.00 19781421.00 L 4513116.00 19920615.00 A 130461.68 130461.68 0 0 1 4328618.00 19920615.00  zM 7553150.00 18818896.00 L 6883860.00 18818896.00 L 6883860.00 18582676.00 L 7553150.00 18582676.00 L 7553150.00 18818896.00  zM 7553150.00 19311022.00 L 6883860.00 19311022.00 L 6883860.00 19074802.00 L 7553150.00 19074802.00 L 7553150.00 19311022.00  zM 7553150.00 19803148.00 L 6883860.00 19803148.00 L 6883860.00 19566928.00 L 7553150.00 19566928.00 L 7553150.00 19803148.00  zM 7992126.13 19645670.07 m -150528.93 0 a 150528.93 150528.93 0 1 1 301057.86 0a 150528.93 150528.93 0 1 1 -301057.86 0M 8582677.13 19645670.07 m -150528.93 0 a 150528.93 150528.93 0 1 1 301057.86 0a 150528.93 150528.93 0 1 1 -301057.86 0M 11122043.22 16667344.70 m -565842.30 0 a 565842.30 565842.30 0 1 1 1131684.61 0a 565842.30 565842.30 0 1 1 -1131684.61 0M 11122044.19 18226392.36 m -565849.64 0 a 565849.64 565849.64 0 1 1 1131699.28 0a 565849.64 565849.64 0 1 1 -1131699.28 0M 12026283.00 15454206.00 L 12000753.00 15470480.00 A 150533.33 150533.33 0 1 1 12082220.00 15389013.00 L 12107750.00 15372739.00 A 150533.33 150533.33 0 1 1 12026283.00 15454206.00  zM 12401574.13 15708662.07 m -150528.93 0 a 150528.93 150528.93 0 1 1 301057.86 0a 150528.93 150528.93 0 1 1 -301057.86 0M 11947244.13 16653544.07 m -150528.93 0 a 150528.93 150528.93 0 1 1 301057.86 0a 150528.93 150528.93 0 1 1 -301057.86 0M 12165354.13 16889764.07 m -150528.93 0 a 150528.93 150528.93 0 1 1 301057.86 0a 150528.93 150528.93 0 1 1 -301057.86 0M 12401574.13 17125985.07 m -150528.93 0 a 150528.93 150528.93 0 1 1 301057.86 0a 150528.93 150528.93 0 1 1 -301057.86 0M 13334788.00 18161275.00 L 13362534.00 18202800.04 L 13362534.00 18153064.00 L 14002298.00 18153064.00 L 14002298.00 18389284.00 L 13362534.00 18389284.00 L 13362534.00 18332631.96 L 13334788.00 18374157.00 A 150528.93 150528.93 0 1 1 13334788.00 18161275.00  zM 14002298.00 18645190.00 L 13362534.00 18645190.00 L 13362534.00 18408970.00 L 14002298.00 18408970.00 L 14002298.00 18645190.00  zM 14002298.00 18901095.00 L 13362534.00 18901095.00 L 13362534.00 18664875.00 L 14002298.00 18664875.00 L 14002298.00 18901095.00  zM 14002298.00 19157001.00 L 13362534.00 19157001.00 L 13362534.00 18920781.00 L 14002298.00 18920781.00 L 14002298.00 19157001.00  zM 14002298.00 19412906.00 L 13362534.00 19412906.00 L 13362534.00 19176686.00 L 14002298.00 19176686.00 L 14002298.00 19412906.00  zM 14002298.00 19668812.00 L 13362534.00 19668812.00 L 13362534.00 19432592.00 L 14002298.00 19432592.00 L 14002298.00 19668812.00  zM 14529529.00 15289367.00 L 14057087.00 15289367.00 L 14057087.00 15092517.00 L 14529529.00 15092517.00 L 14529529.00 15289367.00  zM 14529529.00 15545273.00 L 14057087.00 15545273.00 L 14057087.00 15348423.00 L 14529529.00 15348423.00 L 14529529.00 15545273.00  zM 14529529.00 15801178.00 L 14057087.00 15801178.00 L 14057087.00 15604328.00 L 14529529.00 15604328.00 L 14529529.00 15801178.00  zM 15484253.00 15781494.00 L 14559055.00 15781494.00 L 14559055.00 14856296.00 L 15484253.00 14856296.00 L 15484253.00 15781494.00  zM 14992126.00 16283462.00 L 14795276.00 16283462.00 L 14795276.00 15811020.00 L 14992126.00 15811020.00 L 14992126.00 16283462.00  zM 14736221.00 16283462.00 L 14539371.00 16283462.00 L 14539371.00 15811020.00 L 14736221.00 15811020.00 L 14736221.00 16283462.00  zM 15248032.00 16283462.00 L 15051182.00 16283462.00 L 15051182.00 15811020.00 L 15248032.00 15811020.00 L 15248032.00 16283462.00  zM 15986221.00 15801178.00 L 15513779.00 15801178.00 L 15513779.00 15604328.00 L 15986221.00 15604328.00 L 15986221.00 15801178.00  zM 15986221.00 15545273.00 L 15513779.00 15545273.00 L 15513779.00 15348423.00 L 15986221.00 15348423.00 L 15986221.00 15545273.00  zM 15503937.00 16283462.00 L 15307087.00 16283462.00 L 15307087.00 15811020.00 L 15503937.00 15811020.00 L 15503937.00 16283462.00  zM 15748031.13 16356694.07 m -150528.93 0 a 150528.93 150528.93 0 1 1 301057.86 0a 150528.93 150528.93 0 1 1 -301057.86 0M 14645669.13 16574804.07 m -150528.93 0 a 150528.93 150528.93 0 1 1 301057.86 0a 150528.93 150528.93 0 1 1 -301057.86 0M 14251968.13 17036615.07 m -150528.93 0 a 150528.93 150528.93 0 1 1 301057.86 0a 150528.93 150528.93 0 1 1 -301057.86 0M 15748031.13 16979134.07 m -150528.93 0 a 150528.93 150528.93 0 1 1 301057.86 0a 150528.93 150528.93 0 1 1 -301057.86 0M 15196850.13 17036615.07 m -150528.93 0 a 150528.93 150528.93 0 1 1 301057.86 0a 150528.93 150528.93 0 1 1 -301057.86 0M 14251968.13 18267717.07 m -150528.93 0 a 150528.93 150528.93 0 1 1 301057.86 0a 150528.93 150528.93 0 1 1 -301057.86 0M 14645669.13 18267717.07 m -150528.93 0 a 150528.93 150528.93 0 1 1 301057.86 0a 150528.93 150528.93 0 1 1 -301057.86 0M 14251968.13 19173229.07 m -150528.93 0 a 150528.93 150528.93 0 1 1 301057.86 0a 150528.93 150528.93 0 1 1 -301057.86 0M 15196850.13 18779528.07 m -150528.93 0 a 150528.93 150528.93 0 1 1 301057.86 0a 150528.93 150528.93 0 1 1 -301057.86 0M 16315684.00 18389284.00 L 15675920.00 18389284.00 L 15675920.00 18153064.00 L 16315684.00 18153064.00 L 16315684.00 18389284.00  zM 16315684.00 19157001.00 L 15675920.00 19157001.00 L 15675920.00 18920781.00 L 16315684.00 18920781.00 L 16315684.00 19157001.00  zM 16315684.00 19668812.00 L 15675920.00 19668812.00 L 15675920.00 19432592.00 L 16315684.00 19432592.00 L 16315684.00 19668812.00  zM 17137627.66 5498805.89 m -357401.11 0 a 357401.11 357401.11 0 1 1 714802.22 0a 357401.11 357401.11 0 1 1 -714802.22 0M 17137627.66 6498805.89 m -357401.11 0 a 357401.11 357401.11 0 1 1 714802.22 0a 357401.11 357401.11 0 1 1 -714802.22 0M 19259641.70 5498813.23 m -357393.77 0 a 357393.77 357393.77 0 1 1 714787.55 0a 357393.77 357393.77 0 1 1 -714787.55 0M 17137627.66 7498805.89 m -357401.11 0 a 357401.11 357401.11 0 1 1 714802.22 0a 357401.11 357401.11 0 1 1 -714802.22 0M 19015748.13 8307087.07 m -150528.93 0 a 150528.93 150528.93 0 1 1 301057.86 0a 150528.93 150528.93 0 1 1 -301057.86 0M 19259641.70 7498813.23 m -357393.77 0 a 357393.77 357393.77 0 1 1 714787.55 0a 357393.77 357393.77 0 1 1 -714787.55 0M 19259641.70 6498813.23 m -357393.77 0 a 357393.77 357393.77 0 1 1 714787.55 0a 357393.77 357393.77 0 1 1 -714787.55 0M 22519685.13 8307087.07 m -150528.93 0 a 150528.93 150528.93 0 1 1 301057.86 0a 150528.93 150528.93 0 1 1 -301057.86 0M 22795141.70 6498813.23 m -357393.77 0 a 357393.77 357393.77 0 1 1 714787.55 0a 357393.77 357393.77 0 1 1 -714787.55 0M 22795141.70 5498813.23 m -357393.77 0 a 357393.77 357393.77 0 1 1 714787.55 0a 357393.77 357393.77 0 1 1 -714787.55 0M 22795141.70 7498813.23 m -357393.77 0 a 357393.77 357393.77 0 1 1 714787.55 0a 357393.77 357393.77 0 1 1 -714787.55 0M 16422477.00 8705433.00 L 15711375.00 8705433.00 L 15711375.00 7975157.00 L 16422477.00 7975157.00 L 16422477.00 8705433.00  zM 17086614.13 8307087.07 m -150528.93 0 a 150528.93 150528.93 0 1 1 301057.86 0a 150528.93 150528.93 0 1 1 -301057.86 0M 18560273.00 8705433.00 L 17849171.00 8705433.00 L 17849171.00 7975157.00 L 18560273.00 7975157.00 L 18560273.00 8705433.00  zM 16422477.00 9591771.00 L 15711375.00 9591771.00 L 15711375.00 8861495.00 L 16422477.00 8861495.00 L 16422477.00 9591771.00  zM 18560273.00 9591771.00 L 17849171.00 9591771.00 L 17849171.00 8861495.00 L 18560273.00 8861495.00 L 18560273.00 9591771.00  zM 16181102.13 12873086.07 m -150528.93 0 a 150528.93 150528.93 0 1 1 301057.86 0a 150528.93 150528.93 0 1 1 -301057.86 0M 22091771.00 8705433.00 L 21380669.00 8705433.00 L 21380669.00 7975157.00 L 22091771.00 7975157.00 L 22091771.00 8705433.00  zM 22091771.00 9591771.00 L 21380669.00 9591771.00 L 21380669.00 8861495.00 L 22091771.00 8861495.00 L 22091771.00 9591771.00  zM 19409448.13 13110237.07 m -150528.93 0 a 150528.93 150528.93 0 1 1 301057.86 0a 150528.93 150528.93 0 1 1 -301057.86 0M 18661417.13 14015749.07 m -150528.93 0 a 150528.93 150528.93 0 1 1 301057.86 0a 150528.93 150528.93 0 1 1 -301057.86 0M 19685039.13 13779528.07 m -150528.93 0 a 150528.93 150528.93 0 1 1 301057.86 0a 150528.93 150528.93 0 1 1 -301057.86 0M 16811023.13 14173229.07 m -150528.93 0 a 150528.93 150528.93 0 1 1 301057.86 0a 150528.93 150528.93 0 1 1 -301057.86 0M 17333708.00 15022072.00 L 16918262.00 15022072.00 L 16918262.00 14662966.00 L 17333708.00 14662966.00 L 17333708.00 15022072.00  zM 17888011.00 15854356.00 L 17472565.00 15854356.00 L 17472565.00 15495250.00 L 17888011.00 15495250.00 L 17888011.00 15854356.00  zM 17904954.00 15022072.00 L 17489508.00 15022072.00 L 17489508.00 14662966.00 L 17904954.00 14662966.00 L 17904954.00 15022072.00  zM 18346456.13 14251969.07 m -150528.93 0 a 150528.93 150528.93 0 1 1 301057.86 0a 150528.93 150528.93 0 1 1 -301057.86 0M 18212977.13 15673229.07 m -150528.93 0 a 150528.93 150528.93 0 1 1 301057.86 0a 150528.93 150528.93 0 1 1 -301057.86 0M 19350397.00 15072832.00 L 18877955.00 15072832.00 L 18877955.00 14875982.00 L 19350397.00 14875982.00 L 19350397.00 15072832.00  zM 19557089.00 14866140.00 L 19360239.00 14866140.00 L 19360239.00 14393698.00 L 19557089.00 14393698.00 L 19557089.00 14866140.00  zM 19812994.00 14866140.00 L 19616144.00 14866140.00 L 19616144.00 14393698.00 L 19812994.00 14393698.00 L 19812994.00 14866140.00  zM 19350397.00 15328737.00 L 18877955.00 15328737.00 L 18877955.00 15131887.00 L 19350397.00 15131887.00 L 19350397.00 15328737.00  zM 19350397.00 15584643.00 L 18877955.00 15584643.00 L 18877955.00 15387793.00 L 19350397.00 15387793.00 L 19350397.00 15584643.00  zM 20324805.00 14866140.00 L 20127955.00 14866140.00 L 20127955.00 14393698.00 L 20191979.07 14393698.00 L 20178616.00 14391040.00 A 150529.62 150529.62 0 1 1 20293826.00 14391040.00 L 20280462.93 14393698.00 L 20324805.00 14393698.00 L 20324805.00 14866140.00  zM 20068900.00 14866140.00 L 19872050.00 14866140.00 L 19872050.00 14393698.00 L 20068900.00 14393698.00 L 20068900.00 14866140.00  zM 20807089.00 15072832.00 L 20334647.00 15072832.00 L 20334647.00 14875982.00 L 20807089.00 14875982.00 L 20807089.00 15072832.00  zM 20305121.00 15820864.00 L 19379923.00 15820864.00 L 19379923.00 14895666.00 L 20305121.00 14895666.00 L 20305121.00 15820864.00  zM 20807089.00 15328737.00 L 20334647.00 15328737.00 L 20334647.00 15131887.00 L 20807089.00 15131887.00 L 20807089.00 15328737.00  zM 20807089.00 15584643.00 L 20334647.00 15584643.00 L 20334647.00 15387793.00 L 20807089.00 15387793.00 L 20807089.00 15584643.00  zM 21181102.13 14291339.07 m -150528.93 0 a 150528.93 150528.93 0 1 1 301057.86 0a 150528.93 150528.93 0 1 1 -301057.86 0M 21626825.00 15092936.00 L 21211379.00 15092936.00 L 21211379.00 14733830.00 L 21626825.00 14733830.00 L 21626825.00 15092936.00  zM 22198071.00 15092936.00 L 21782625.00 15092936.00 L 21782625.00 14733830.00 L 22198071.00 14733830.00 L 22198071.00 15092936.00  zM 22992126.13 15669292.07 m -150528.93 0 a 150528.93 150528.93 0 1 1 301057.86 0a 150528.93 150528.93 0 1 1 -301057.86 0M 23307086.13 15669292.07 m -150528.93 0 a 150528.93 150528.93 0 1 1 301057.86 0a 150528.93 150528.93 0 1 1 -301057.86 0M 17316765.00 15854356.00 L 16901319.00 15854356.00 L 16901319.00 15495250.00 L 17316765.00 15495250.00 L 17316765.00 15854356.00  zM 18976377.86 17519686.28 m -327604.72 0 a 327604.72 327604.72 0 1 1 655209.45 0a 327604.72 327604.72 0 1 1 -655209.45 0M 19350397.00 15840548.00 L 18877955.00 15840548.00 L 18877955.00 15643698.00 L 19350397.00 15643698.00 L 19350397.00 15840548.00  zM 17327661.00 18696627.00 L 16931519.00 18696627.00 L 16931519.00 18281313.00 L 17327661.00 18281313.00 L 17327661.00 18696627.00  zM 17952755.13 18464568.07 m -150528.93 0 a 150528.93 150528.93 0 1 1 301057.86 0a 150528.93 150528.93 0 1 1 -301057.86 0M 18993995.00 18657093.00 L 18612807.00 18657093.00 L 18612807.00 18260833.00 L 18993995.00 18260833.00 L 18993995.00 18657093.00  zM 16315684.00 18645190.00 L 15675920.00 18645190.00 L 15675920.00 18408970.00 L 16315684.00 18408970.00 L 16315684.00 18645190.00  zM 16315684.00 18901095.00 L 15675920.00 18901095.00 L 15675920.00 18664875.00 L 16315684.00 18664875.00 L 16315684.00 18901095.00  zM 16315684.00 19412906.00 L 15675920.00 19412906.00 L 15675920.00 19176686.00 L 16315684.00 19176686.00 L 16315684.00 19412906.00  zM 17327661.00 19268005.00 L 16931519.00 19268005.00 L 16931519.00 18852691.00 L 17327661.00 18852691.00 L 17327661.00 19268005.00  zM 18993995.00 19228633.00 L 18612807.00 19228633.00 L 18612807.00 18832373.00 L 18993995.00 18832373.00 L 18993995.00 19228633.00  zM 19557089.00 16322832.00 L 19360239.00 16322832.00 L 19360239.00 15850390.00 L 19557089.00 15850390.00 L 19557089.00 16322832.00  zM 20068900.00 16322832.00 L 19872050.00 16322832.00 L 19872050.00 15850390.00 L 20068900.00 15850390.00 L 20068900.00 16322832.00  zM 20324805.00 16322832.00 L 20127955.00 16322832.00 L 20127955.00 15850390.00 L 20324805.00 15850390.00 L 20324805.00 16322832.00  zM 19812994.00 16322832.00 L 19616144.00 16322832.00 L 19616144.00 15850390.00 L 19812994.00 15850390.00 L 19812994.00 16322832.00  zM 19488189.13 16761024.07 m -150528.93 0 a 150528.93 150528.93 0 1 1 301057.86 0a 150528.93 150528.93 0 1 1 -301057.86 0M 19960629.13 16761024.07 m -150528.93 0 a 150528.93 150528.93 0 1 1 301057.86 0a 150528.93 150528.93 0 1 1 -301057.86 0M 19645671.68 18385824.06 m -230814.94 0 a 230814.94 230814.94 0 1 1 461629.88 0a 230814.94 230814.94 0 1 1 -461629.88 0M 20000000.13 18818898.07 m -150528.93 0 a 150528.93 150528.93 0 1 1 301057.86 0a 150528.93 150528.93 0 1 1 -301057.86 0M 19722441.00 19448818.00 L 19505907.00 19448818.00 L 19505907.00 19133858.00 L 19722441.00 19133858.00 L 19722441.00 19448818.00  zM 20096457.00 19448818.00 L 19879923.00 19448818.00 L 19879923.00 19133858.00 L 20096457.00 19133858.00 L 20096457.00 19448818.00  zM 20470473.00 19448818.00 L 20253939.00 19448818.00 L 20253939.00 19133858.00 L 20470473.00 19133858.00 L 20470473.00 19448818.00  zM 20807089.00 15840548.00 L 20334647.00 15840548.00 L 20334647.00 15643698.00 L 20807089.00 15643698.00 L 20807089.00 15840548.00  zM 21621313.00 15917346.00 L 21205867.00 15917346.00 L 21205867.00 15558240.00 L 21621313.00 15558240.00 L 21621313.00 15917346.00  zM 22192559.00 15917346.00 L 21777113.00 15917346.00 L 21777113.00 15558240.00 L 22192559.00 15558240.00 L 22192559.00 15917346.00  zM 22755905.13 15984253.07 m -150528.93 0 a 150528.93 150528.93 0 1 1 301057.86 0a 150528.93 150528.93 0 1 1 -301057.86 0M 22755905.13 16299213.07 m -150528.93 0 a 150528.93 150528.93 0 1 1 301057.86 0a 150528.93 150528.93 0 1 1 -301057.86 0M 23449252.00 16745650.00 L 23053110.00 16745650.00 L 23053110.00 16310588.00 L 23449252.00 16310588.00 L 23449252.00 16745650.00  zM 22755905.13 16614174.07 m -150528.93 0 a 150528.93 150528.93 0 1 1 301057.86 0a 150528.93 150528.93 0 1 1 -301057.86 0M 23449252.00 17297281.00 L 23053110.00 17297281.00 L 23053110.00 16862219.00 L 23449252.00 16862219.00 L 23449252.00 17297281.00  zM 22992126.13 17519686.07 m -150528.93 0 a 150528.93 150528.93 0 1 1 301057.86 0a 150528.93 150528.93 0 1 1 -301057.86 0M 20905511.86 17519686.28 m -327604.72 0 a 327604.72 327604.72 0 1 1 655209.45 0a 327604.72 327604.72 0 1 1 -655209.45 0M 22923229.00 19340551.00 L 22746063.00 19340551.00 L 22746063.00 19084645.00 L 22923229.00 19084645.00 L 22923229.00 19340551.00  zM 21692913.13 19527560.07 m -150528.93 0 a 150528.93 150528.93 0 1 1 301057.86 0a 150528.93 150528.93 0 1 1 -301057.86 0M 22293308.00 19379921.00 L 22037402.00 19379921.00 L 22037402.00 19202755.00 L 22293308.00 19202755.00 L 22293308.00 19379921.00  zM 22293308.00 19576772.00 L 22037402.00 19576772.00 L 22037402.00 19399606.00 L 22293308.00 19399606.00 L 22293308.00 19576772.00  zM 22529529.00 19340551.00 L 22352363.00 19340551.00 L 22352363.00 19084645.00 L 22529529.00 19084645.00 L 22529529.00 19340551.00  zM 22293308.00 19773622.00 L 22037402.00 19773622.00 L 22037402.00 19596456.00 L 22293308.00 19596456.00 L 22293308.00 19773622.00  zM 22726379.00 19340551.00 L 22549213.00 19340551.00 L 22549213.00 19084645.00 L 22726379.00 19084645.00 L 22726379.00 19340551.00  zM 22637795.13 19685040.07 m -150528.93 0 a 150528.93 150528.93 0 1 1 301057.86 0a 150528.93 150528.93 0 1 1 -301057.86 0M 23238190.00 19379921.00 L 22982284.00 19379921.00 L 22982284.00 19202755.00 L 23238190.00 19202755.00 L 23238190.00 19379921.00  zM 23238190.00 19576772.00 L 22982284.00 19576772.00 L 22982284.00 19399606.00 L 23238190.00 19399606.00 L 23238190.00 19576772.00  zM 23238190.00 19773622.00 L 22982284.00 19773622.00 L 22982284.00 19596456.00 L 23238190.00 19596456.00 L 23238190.00 19773622.00  zM 6653543.13 20669292.07 m -150528.93 0 a 150528.93 150528.93 0 1 1 301057.86 0a 150528.93 150528.93 0 1 1 -301057.86 0M 7553150.00 20787400.00 L 6883860.00 20787400.00 L 6883860.00 20551180.00 L 7553150.00 20551180.00 L 7553150.00 20787400.00  zM 7553150.00 20295274.00 L 6883860.00 20295274.00 L 6883860.00 20059054.00 L 7553150.00 20059054.00 L 7553150.00 20295274.00  zM 6450789.00 21594486.00 L 5348427.00 21594486.00 L 5348427.00 21200786.00 L 6450789.00 21200786.00 L 6450789.00 21594486.00  zM 6916104.00 23114566.00 L 6500790.00 23114566.00 L 6500790.00 22718424.00 L 6916104.00 22718424.00 L 6916104.00 23114566.00  zM 6344726.00 23114566.00 L 5929412.00 23114566.00 L 5929412.00 22718424.00 L 6344726.00 22718424.00 L 6344726.00 23114566.00  zM 7795275.13 20157481.07 m -150528.93 0 a 150528.93 150528.93 0 1 1 301057.86 0a 150528.93 150528.93 0 1 1 -301057.86 0M 8818897.13 20157481.07 m -150528.93 0 a 150528.93 150528.93 0 1 1 301057.86 0a 150528.93 150528.93 0 1 1 -301057.86 0M 7677165.13 21338583.07 m -150528.93 0 a 150528.93 150528.93 0 1 1 301057.86 0a 150528.93 150528.93 0 1 1 -301057.86 0M 11122043.22 19785454.70 m -565842.30 0 a 565842.30 565842.30 0 1 1 1131684.61 0a 565842.30 565842.30 0 1 1 -1131684.61 0M 11122044.19 21344502.36 m -565849.64 0 a 565849.64 565849.64 0 1 1 1131699.28 0a 565849.64 565849.64 0 1 1 -1131699.28 0M 14002298.00 19924717.00 L 13362534.00 19924717.00 L 13362534.00 19688497.00 L 14002298.00 19688497.00 L 14002298.00 19924717.00  zM 14002298.00 20948339.00 L 13362534.00 20948339.00 L 13362534.00 20712119.00 L 14002298.00 20712119.00 L 14002298.00 20948339.00  zM 14002298.00 21204245.00 L 13362534.00 21204245.00 L 13362534.00 20968025.00 L 14002298.00 20968025.00 L 14002298.00 21204245.00  zM 14002298.00 21460150.00 L 13362534.00 21460150.00 L 13362534.00 21223930.00 L 14002298.00 21223930.00 L 14002298.00 21460150.00  zM 14002298.00 21716056.00 L 13362534.00 21716056.00 L 13362534.00 21479836.00 L 14002298.00 21479836.00 L 14002298.00 21716056.00  zM 13661417.13 22047244.07 m -150528.93 0 a 150528.93 150528.93 0 1 1 301057.86 0a 150528.93 150528.93 0 1 1 -301057.86 0M 11683072.00 23464566.00 L 10561024.00 23464566.00 L 10561024.00 22342518.00 L 11683072.00 22342518.00 L 11683072.00 23464566.00  zM 12362204.13 24488190.07 m -150528.93 0 a 150528.93 150528.93 0 1 1 301057.86 0a 150528.93 150528.93 0 1 1 -301057.86 0M 13385826.13 22834646.07 m -150528.93 0 a 150528.93 150528.93 0 1 1 301057.86 0a 150528.93 150528.93 0 1 1 -301057.86 0M 13407568.13 23167235.07 m -150528.93 0 a 150528.93 150528.93 0 1 1 301057.86 0a 150528.93 150528.93 0 1 1 -301057.86 0M 13537722.13 23509521.07 m -150528.93 0 a 150528.93 150528.93 0 1 1 301057.86 0a 150528.93 150528.93 0 1 1 -301057.86 0M 14002298.00 20180623.00 L 13362534.00 20180623.00 L 13362534.00 19944403.00 L 14002298.00 19944403.00 L 14002298.00 20180623.00  zM 14002298.00 20436528.00 L 13362534.00 20436528.00 L 13362534.00 20200308.00 L 14002298.00 20200308.00 L 14002298.00 20436528.00  zM 14002298.00 20692434.00 L 13362534.00 20692434.00 L 13362534.00 20456214.00 L 14002298.00 20456214.00 L 14002298.00 20692434.00  zM 15293701.13 20826772.07 m -150528.93 0 a 150528.93 150528.93 0 1 1 301057.86 0a 150528.93 150528.93 0 1 1 -301057.86 0M 16315684.00 20692434.00 L 15675920.00 20692434.00 L 15675920.00 20456214.00 L 16315684.00 20456214.00 L 16315684.00 20692434.00  zM 16315684.00 20436528.00 L 15675920.00 20436528.00 L 15675920.00 20200308.00 L 16315684.00 20200308.00 L 16315684.00 20436528.00  zM 16315684.00 19924717.00 L 15675920.00 19924717.00 L 15675920.00 19688497.00 L 16315684.00 19688497.00 L 16315684.00 19924717.00  zM 16315684.00 20180623.00 L 15675920.00 20180623.00 L 15675920.00 19944403.00 L 16315684.00 19944403.00 L 16315684.00 20180623.00  zM 16315684.00 20948339.00 L 15675920.00 20948339.00 L 15675920.00 20712119.00 L 16315684.00 20712119.00 L 16315684.00 20948339.00  zM 16315684.00 21204245.00 L 15675920.00 21204245.00 L 15675920.00 20968025.00 L 16315684.00 20968025.00 L 16315684.00 21204245.00  zM 16315684.00 21460150.00 L 15675920.00 21460150.00 L 15675920.00 21223930.00 L 16315684.00 21223930.00 L 16315684.00 21460150.00  zM 15493700.13 21377953.07 m -150528.93 0 a 150528.93 150528.93 0 1 1 301057.86 0a 150528.93 150528.93 0 1 1 -301057.86 0M 15039370.13 23503938.07 m -150528.93 0 a 150528.93 150528.93 0 1 1 301057.86 0a 150528.93 150528.93 0 1 1 -301057.86 0M 13754258.13 23726057.07 m -150528.93 0 a 150528.93 150528.93 0 1 1 301057.86 0a 150528.93 150528.93 0 1 1 -301057.86 0M 16315684.00 21716056.00 L 15675920.00 21716056.00 L 15675920.00 21479836.00 L 16315684.00 21479836.00 L 16315684.00 21716056.00  zM 15787401.13 22322835.07 m -150528.93 0 a 150528.93 150528.93 0 1 1 301057.86 0a 150528.93 150528.93 0 1 1 -301057.86 0M 16692701.00 24079723.00 L 16220259.00 24079723.00 L 16220259.00 23882873.00 L 16692701.00 23882873.00 L 16692701.00 24079723.00  zM 14010163.13 23981962.07 m -150528.93 0 a 150528.93 150528.93 0 1 1 301057.86 0a 150528.93 150528.93 0 1 1 -301057.86 0M 14246384.13 24218183.07 m -150528.93 0 a 150528.93 150528.93 0 1 1 301057.86 0a 150528.93 150528.93 0 1 1 -301057.86 0M 15040021.00 24165773.00 L 14624575.00 24165773.00 L 14624575.00 23806667.00 L 15040021.00 23806667.00 L 15040021.00 24165773.00  zM 15611267.00 24165773.00 L 15195821.00 24165773.00 L 15195821.00 23806667.00 L 15611267.00 23806667.00 L 15611267.00 24165773.00  zM 15944881.13 24015749.07 m -150528.93 0 a 150528.93 150528.93 0 1 1 301057.86 0a 150528.93 150528.93 0 1 1 -301057.86 0M 4328618.00 26182229.00 L 4189424.00 26043035.00 A 130461.68 130461.68 0 0 1 4189424.00 25858537.00 L 4328618.00 25719343.00 A 130461.68 130461.68 0 0 1 4513116.00 25719343.00 L 4652310.00 25858537.00 A 130461.68 130461.68 0 0 1 4652310.00 26043035.00 L 4513116.00 26182229.00 A 130461.68 130461.68 0 0 1 4328618.00 26182229.00  zM 5669291.13 25984253.07 m -150528.93 0 a 150528.93 150528.93 0 1 1 301057.86 0a 150528.93 150528.93 0 1 1 -301057.86 0M 6496064.00 25116140.00 L 5393702.00 25116140.00 L 5393702.00 24722440.00 L 6496064.00 24722440.00 L 6496064.00 25116140.00  zM 6102362.13 25669292.07 m -150528.93 0 a 150528.93 150528.93 0 1 1 301057.86 0a 150528.93 150528.93 0 1 1 -301057.86 0M 7598425.00 25765746.00 L 6929135.00 25765746.00 L 6929135.00 25529526.00 L 7598425.00 25529526.00 L 7598425.00 25765746.00  zM 7598425.00 26257872.00 L 6929135.00 26257872.00 L 6929135.00 26021652.00 L 7598425.00 26021652.00 L 7598425.00 26257872.00  zM 7598425.00 26749998.00 L 6929135.00 26749998.00 L 6929135.00 26513778.00 L 7598425.00 26513778.00 L 7598425.00 26749998.00  zM 8582677.13 26614174.07 m -150528.93 0 a 150528.93 150528.93 0 1 1 301057.86 0a 150528.93 150528.93 0 1 1 -301057.86 0M 11122043.22 25519706.70 m -565842.30 0 a 565842.30 565842.30 0 1 1 1131684.61 0a 565842.30 565842.30 0 1 1 -1131684.61 0M 12086614.13 25708662.07 m -150528.93 0 a 150528.93 150528.93 0 1 1 301057.86 0a 150528.93 150528.93 0 1 1 -301057.86 0M 11122044.19 27078754.36 m -565849.64 0 a 565849.64 565849.64 0 1 1 1131699.28 0a 565849.64 565849.64 0 1 1 -1131699.28 0M 6496064.00 28541336.00 L 5393702.00 28541336.00 L 5393702.00 28147636.00 L 6496064.00 28147636.00 L 6496064.00 28541336.00  zM 7598425.00 27734250.00 L 6929135.00 27734250.00 L 6929135.00 27498030.00 L 7598425.00 27498030.00 L 7598425.00 27734250.00  zM 7598425.00 27242124.00 L 6929135.00 27242124.00 L 6929135.00 27005904.00 L 7598425.00 27005904.00 L 7598425.00 27242124.00  zM 7480314.13 28031497.07 m -150528.93 0 a 150528.93 150528.93 0 1 1 301057.86 0a 150528.93 150528.93 0 1 1 -301057.86 0M 8818897.13 27086615.07 m -150528.93 0 a 150528.93 150528.93 0 1 1 301057.86 0a 150528.93 150528.93 0 1 1 -301057.86 0M 11122043.22 28637816.70 m -565842.30 0 a 565842.30 565842.30 0 1 1 1131684.61 0a 565842.30 565842.30 0 1 1 -1131684.61 0M 8582677.13 29370079.07 m -150528.93 0 a 150528.93 150528.93 0 1 1 301057.86 0a 150528.93 150528.93 0 1 1 -301057.86 0M 11122044.19 30196864.36 m -565849.64 0 a 565849.64 565849.64 0 1 1 1131699.28 0a 565849.64 565849.64 0 1 1 -1131699.28 0M 11683072.00 32316928.00 L 10561024.00 32316928.00 L 10561024.00 31194880.00 L 11683072.00 31194880.00 L 11683072.00 32316928.00  zM 11692913.13 33503938.07 m -150528.93 0 a 150528.93 150528.93 0 1 1 301057.86 0a 150528.93 150528.93 0 1 1 -301057.86 0M 11968503.13 34094489.07 m -150528.93 0 a 150528.93 150528.93 0 1 1 301057.86 0a 150528.93 150528.93 0 1 1 -301057.86 0M 12598425.13 24803150.07 m -150528.93 0 a 150528.93 150528.93 0 1 1 301057.86 0a 150528.93 150528.93 0 1 1 -301057.86 0M 12322834.13 25984253.07 m -150528.93 0 a 150528.93 150528.93 0 1 1 301057.86 0a 150528.93 150528.93 0 1 1 -301057.86 0M 12582056.13 26276211.07 m -150528.93 0 a 150528.93 150528.93 0 1 1 301057.86 0a 150528.93 150528.93 0 1 1 -301057.86 0M 13110236.13 25275591.07 m -150528.93 0 a 150528.93 150528.93 0 1 1 301057.86 0a 150528.93 150528.93 0 1 1 -301057.86 0M 14488189.86 25629922.28 m -327604.72 0 a 327604.72 327604.72 0 1 1 655209.45 0a 327604.72 327604.72 0 1 1 -655209.45 0M 15629921.13 26614174.07 m -150528.93 0 a 150528.93 150528.93 0 1 1 301057.86 0a 150528.93 150528.93 0 1 1 -301057.86 0M 16692701.00 24591534.00 L 16220259.00 24591534.00 L 16220259.00 24394684.00 L 16692701.00 24394684.00 L 16692701.00 24591534.00  zM 16102362.13 25039371.07 m -150528.93 0 a 150528.93 150528.93 0 1 1 301057.86 0a 150528.93 150528.93 0 1 1 -301057.86 0M 16478766.00 25985091.00 L 16119660.00 25985091.00 L 16119660.00 25569645.00 L 16478766.00 25569645.00 L 16478766.00 25985091.00  zM 15944881.13 26377953.07 m -150528.93 0 a 150528.93 150528.93 0 1 1 301057.86 0a 150528.93 150528.93 0 1 1 -301057.86 0M 16478766.00 26556337.00 L 16119660.00 26556337.00 L 16119660.00 26140891.00 L 16478766.00 26140891.00 L 16478766.00 26556337.00  zM 14367363.00 30746516.00 L 13656261.00 30746516.00 L 13656261.00 30016240.00 L 14367363.00 30016240.00 L 14367363.00 30746516.00  zM 14367363.00 31632854.00 L 13656261.00 31632854.00 L 13656261.00 30902578.00 L 14367363.00 30902578.00 L 14367363.00 31632854.00  zM 14690200.13 31268938.07 m -150528.93 0 a 150528.93 150528.93 0 1 1 301057.86 0a 150528.93 150528.93 0 1 1 -301057.86 0M 16540591.00 30746516.00 L 15829489.00 30746516.00 L 15829489.00 30016240.00 L 16540591.00 30016240.00 L 16540591.00 30746516.00  zM 16540591.00 31632854.00 L 15829489.00 31632854.00 L 15829489.00 30902578.00 L 16540591.00 30902578.00 L 16540591.00 31632854.00  zM 12874015.13 33464568.07 m -150528.93 0 a 150528.93 150528.93 0 1 1 301057.86 0a 150528.93 150528.93 0 1 1 -301057.86 0M 15015611.70 32879128.23 m -357393.77 0 a 357393.77 357393.77 0 1 1 714787.55 0a 357393.77 357393.77 0 1 1 -714787.55 0M 15015611.70 31879128.23 m -357393.77 0 a 357393.77 357393.77 0 1 1 714787.55 0a 357393.77 357393.77 0 1 1 -714787.55 0M 13149606.13 34094489.07 m -150528.93 0 a 150528.93 150528.93 0 1 1 301057.86 0a 150528.93 150528.93 0 1 1 -301057.86 0M 15015611.70 33879128.23 m -357393.77 0 a 357393.77 357393.77 0 1 1 714787.55 0a 357393.77 357393.77 0 1 1 -714787.55 0M 17290626.00 20912857.00 L 16931520.00 20912857.00 L 16931520.00 20515851.00 L 17290626.00 20515851.00 L 17290626.00 20912857.00  zM 17290626.00 21465508.00 L 16931520.00 21465508.00 L 16931520.00 21068502.00 L 17290626.00 21068502.00 L 17290626.00 21465508.00  zM 17952755.13 21259843.07 m -150528.93 0 a 150528.93 150528.93 0 1 1 301057.86 0a 150528.93 150528.93 0 1 1 -301057.86 0M 17047244.13 23249607.07 m -150528.93 0 a 150528.93 150528.93 0 1 1 301057.86 0a 150528.93 150528.93 0 1 1 -301057.86 0M 17667109.00 23873031.00 L 17470259.00 23873031.00 L 17470259.00 23400589.00 L 17500717.66 23400589.00 A 149399.58 149399.58 0 1 1 17617394.34 23400589.00 L 17667109.00 23400589.00 L 17667109.00 23873031.00  zM 18346456.13 23543308.07 m -150528.93 0 a 150528.93 150528.93 0 1 1 301057.86 0a 150528.93 150528.93 0 1 1 -301057.86 0M 16899393.00 23873031.00 L 16702543.00 23873031.00 L 16702543.00 23400589.00 L 16899393.00 23400589.00 L 16899393.00 23873031.00  zM 16692701.00 24335628.00 L 16220259.00 24335628.00 L 16220259.00 24138778.00 L 16692701.00 24138778.00 L 16692701.00 24335628.00  zM 17155298.00 23873031.00 L 16958448.00 23873031.00 L 16958448.00 23400589.00 L 17155298.00 23400589.00 L 17155298.00 23873031.00  zM 17411204.00 23873031.00 L 17214354.00 23873031.00 L 17214354.00 23400589.00 L 17411204.00 23400589.00 L 17411204.00 23873031.00  zM 18149393.00 24079723.00 L 17676951.00 24079723.00 L 17676951.00 23882873.00 L 18149393.00 23882873.00 L 18149393.00 24079723.00  zM 18993995.00 20872742.00 L 18612807.00 20872742.00 L 18612807.00 20476482.00 L 18993995.00 20476482.00 L 18993995.00 20872742.00  zM 19722441.00 20393700.00 L 19505907.00 20393700.00 L 19505907.00 20078740.00 L 19722441.00 20078740.00 L 19722441.00 20393700.00  zM 19803149.13 21102363.07 m -150528.93 0 a 150528.93 150528.93 0 1 1 301057.86 0a 150528.93 150528.93 0 1 1 -301057.86 0M 20470473.00 20393700.00 L 20253939.00 20393700.00 L 20253939.00 20078740.00 L 20470473.00 20078740.00 L 20470473.00 20393700.00  zM 20821233.13 20191313.07 m -150528.93 0 a 150528.93 150528.93 0 1 1 301057.86 0a 150528.93 150528.93 0 1 1 -301057.86 0M 20669291.13 21102363.07 m -150528.93 0 a 150528.93 150528.93 0 1 1 301057.86 0a 150528.93 150528.93 0 1 1 -301057.86 0M 18993995.00 21444282.00 L 18612807.00 21444282.00 L 18612807.00 21048022.00 L 18993995.00 21048022.00 L 18993995.00 21444282.00  zM 20355065.13 22593112.07 m -150528.93 0 a 150528.93 150528.93 0 1 1 301057.86 0a 150528.93 150528.93 0 1 1 -301057.86 0M 20708661.13 21535434.07 m -150528.93 0 a 150528.93 150528.93 0 1 1 301057.86 0a 150528.93 150528.93 0 1 1 -301057.86 0M 20354330.13 23149607.07 m -150528.93 0 a 150528.93 150528.93 0 1 1 301057.86 0a 150528.93 150528.93 0 1 1 -301057.86 0M 20669291.13 23779528.07 m -150528.93 0 a 150528.93 150528.93 0 1 1 301057.86 0a 150528.93 150528.93 0 1 1 -301057.86 0M 21692913.13 19842520.07 m -150528.93 0 a 150528.93 150528.93 0 1 1 301057.86 0a 150528.93 150528.93 0 1 1 -301057.86 0M 22293308.00 19970472.00 L 22037402.00 19970472.00 L 22037402.00 19793306.00 L 22293308.00 19793306.00 L 22293308.00 19970472.00  zM 22293308.00 20167323.00 L 22037402.00 20167323.00 L 22037402.00 19990157.00 L 22293308.00 19990157.00 L 22293308.00 20167323.00  zM 21141732.13 20275591.07 m -150528.93 0 a 150528.93 150528.93 0 1 1 301057.86 0a 150528.93 150528.93 0 1 1 -301057.86 0M 21419206.00 21144055.00 L 21041954.00 21144055.00 L 21041954.00 20747795.00 L 21419206.00 20747795.00 L 21419206.00 21144055.00  zM 22128373.00 21144350.00 L 21769267.00 21144350.00 L 21769267.00 20728904.00 L 22128373.00 20728904.00 L 22128373.00 21144350.00  zM 22529529.00 20285433.00 L 22352363.00 20285433.00 L 22352363.00 20029527.00 L 22529529.00 20029527.00 L 22529529.00 20285433.00  zM 22726379.00 20285433.00 L 22549213.00 20285433.00 L 22549213.00 20029527.00 L 22726379.00 20029527.00 L 22726379.00 20285433.00  zM 22923229.00 20285433.00 L 22746063.00 20285433.00 L 22746063.00 20029527.00 L 22923229.00 20029527.00 L 22923229.00 20285433.00  zM 23238190.00 19970472.00 L 22982284.00 19970472.00 L 22982284.00 19793306.00 L 23238190.00 19793306.00 L 23238190.00 19970472.00  zM 23238190.00 20167323.00 L 22982284.00 20167323.00 L 22982284.00 19990157.00 L 23238190.00 19990157.00 L 23238190.00 20167323.00  zM 21419206.00 21715595.00 L 21041954.00 21715595.00 L 21041954.00 21319335.00 L 21419206.00 21319335.00 L 21419206.00 21715595.00  zM 22128373.00 21715596.00 L 21769267.00 21715596.00 L 21769267.00 21300150.00 L 22128373.00 21300150.00 L 22128373.00 21715596.00  zM 22844908.00 21143386.00 L 22485802.00 21143386.00 L 22485802.00 20765940.00 L 22844908.00 20765940.00 L 22844908.00 21143386.00  zM 22844908.00 21715596.00 L 22485802.00 21715596.00 L 22485802.00 21338150.00 L 22844908.00 21338150.00 L 22844908.00 21715596.00  zM 23213724.00 23761378.00 L 23016874.00 23761378.00 L 23016874.00 23288936.00 L 23213724.00 23288936.00 L 23213724.00 23761378.00  zM 22701913.00 23761378.00 L 22505063.00 23761378.00 L 22505063.00 23288936.00 L 22701913.00 23288936.00 L 22701913.00 23761378.00  zM 21237051.00 24070497.00 L 20821605.00 24070497.00 L 20821605.00 23711391.00 L 21237051.00 23711391.00 L 21237051.00 24070497.00  zM 21808297.00 24070497.00 L 21392851.00 24070497.00 L 21392851.00 23711391.00 L 21808297.00 23711391.00 L 21808297.00 24070497.00  zM 22495221.00 23968070.00 L 22022779.00 23968070.00 L 22022779.00 23771220.00 L 22495221.00 23771220.00 L 22495221.00 23968070.00  zM 22495221.00 24223975.00 L 22022779.00 24223975.00 L 22022779.00 24027125.00 L 22495221.00 24027125.00 L 22495221.00 24223975.00  zM 22957818.00 23761378.00 L 22760968.00 23761378.00 L 22760968.00 23288936.00 L 22957818.00 23288936.00 L 22957818.00 23761378.00  zM 16692701.00 24847439.00 L 16220259.00 24847439.00 L 16220259.00 24650589.00 L 16692701.00 24650589.00 L 16692701.00 24847439.00  zM 16899393.00 25329723.00 L 16702543.00 25329723.00 L 16702543.00 24857281.00 L 16899393.00 24857281.00 L 16899393.00 25329723.00  zM 17155298.00 25329723.00 L 16958448.00 25329723.00 L 16958448.00 24857281.00 L 17155298.00 24857281.00 L 17155298.00 25329723.00  zM 17647425.00 24827755.00 L 16722227.00 24827755.00 L 16722227.00 23902557.00 L 17647425.00 23902557.00 L 17647425.00 24827755.00  zM 17411204.00 25329723.00 L 17214354.00 25329723.00 L 17214354.00 24857281.00 L 17411204.00 24857281.00 L 17411204.00 25329723.00  zM 17667109.00 25329723.00 L 17470259.00 25329723.00 L 17470259.00 24857281.00 L 17667109.00 24857281.00 L 17667109.00 25329723.00  zM 18149393.00 24335628.00 L 17676951.00 24335628.00 L 17676951.00 24138778.00 L 18149393.00 24138778.00 L 18149393.00 24335628.00  zM 18149393.00 24591534.00 L 17676951.00 24591534.00 L 17676951.00 24394684.00 L 18149393.00 24394684.00 L 18149393.00 24591534.00  zM 18149393.00 24847439.00 L 17676951.00 24847439.00 L 17676951.00 24650589.00 L 18149393.00 24650589.00 L 18149393.00 24847439.00  zM 18661417.86 25748032.28 m -327604.72 0 a 327604.72 327604.72 0 1 1 655209.45 0a 327604.72 327604.72 0 1 1 -655209.45 0M 20157480.86 24566930.28 m -327604.72 0 a 327604.72 327604.72 0 1 1 655209.45 0a 327604.72 327604.72 0 1 1 -655209.45 0M 22495221.00 24479881.00 L 22022779.00 24479881.00 L 22022779.00 24283031.00 L 22495221.00 24283031.00 L 22495221.00 24479881.00  zM 22495221.00 24735786.00 L 22022779.00 24735786.00 L 22022779.00 24538936.00 L 22495221.00 24538936.00 L 22495221.00 24735786.00  zM 22701913.00 25218070.00 L 22505063.00 25218070.00 L 22505063.00 24745628.00 L 22701913.00 24745628.00 L 22701913.00 25218070.00  zM 20866141.13 25984253.07 m -150528.93 0 a 150528.93 150528.93 0 1 1 301057.86 0a 150528.93 150528.93 0 1 1 -301057.86 0M 21614173.13 25975197.07 m -150528.93 0 a 150528.93 150528.93 0 1 1 301057.86 0a 150528.93 150528.93 0 1 1 -301057.86 0M 21956835.00 26232141.00 L 21963348.00 26241888.44 L 21963348.00 25918871.00 L 22378794.00 25918871.00 L 22378794.00 26277977.00 L 21987461.47 26277977.00 L 21989466.00 26280977.00 A 150533.33 150533.33 0 1 1 21956835.00 26232141.00  zM 23449945.00 24716102.00 L 22524747.00 24716102.00 L 22524747.00 23790904.00 L 23449945.00 23790904.00 L 23449945.00 24716102.00  zM 22957818.00 25218070.00 L 22760968.00 25218070.00 L 22760968.00 24745628.00 L 22957818.00 24745628.00 L 22957818.00 25218070.00  zM 23213724.00 25218070.00 L 23016874.00 25218070.00 L 23016874.00 24745628.00 L 23213724.00 24745628.00 L 23213724.00 25218070.00  zM 22950040.00 26277977.00 L 22534594.00 26277977.00 L 22534594.00 25918871.00 L 22950040.00 25918871.00 L 22950040.00 26277977.00  zM 23188976.13 26102363.07 m -150528.93 0 a 150528.93 150528.93 0 1 1 301057.86 0a 150528.93 150528.93 0 1 1 -301057.86 0M 17322834.13 26574804.07 m -150528.93 0 a 150528.93 150528.93 0 1 1 301057.86 0a 150528.93 150528.93 0 1 1 -301057.86 0M 18031496.13 26535434.07 m -150528.93 0 a 150528.93 150528.93 0 1 1 301057.86 0a 150528.93 150528.93 0 1 1 -301057.86 0M 18646890.00 30746516.00 L 17935788.00 30746516.00 L 17935788.00 30016240.00 L 18646890.00 30016240.00 L 18646890.00 30746516.00  zM 16790054.13 31164863.07 m -150528.93 0 a 150528.93 150528.93 0 1 1 301057.86 0a 150528.93 150528.93 0 1 1 -301057.86 0M 17137627.66 31879120.89 m -357401.11 0 a 357401.11 357401.11 0 1 1 714802.22 0a 357401.11 357401.11 0 1 1 -714802.22 0M 18646890.00 31632854.00 L 17935788.00 31632854.00 L 17935788.00 30902578.00 L 18646890.00 30902578.00 L 18646890.00 31632854.00  zM 22519685.13 26653544.07 m -150528.93 0 a 150528.93 150528.93 0 1 1 301057.86 0a 150528.93 150528.93 0 1 1 -301057.86 0M 22132427.00 30746516.00 L 21421325.00 30746516.00 L 21421325.00 30016240.00 L 22132427.00 30016240.00 L 22132427.00 30746516.00  zM 18933008.13 31163642.07 m -150528.93 0 a 150528.93 150528.93 0 1 1 301057.86 0a 150528.93 150528.93 0 1 1 -301057.86 0M 22132427.00 31632854.00 L 21421325.00 31632854.00 L 21421325.00 30902578.00 L 22132427.00 30902578.00 L 22132427.00 31632854.00  zM 22559055.13 31181103.07 m -150528.93 0 a 150528.93 150528.93 0 1 1 301057.86 0a 150528.93 150528.93 0 1 1 -301057.86 0M 17137627.66 32879120.89 m -357401.11 0 a 357401.11 357401.11 0 1 1 714802.22 0a 357401.11 357401.11 0 1 1 -714802.22 0M 17137627.66 33879120.89 m -357401.11 0 a 357401.11 357401.11 0 1 1 714802.22 0a 357401.11 357401.11 0 1 1 -714802.22 0M 19259641.70 32879128.23 m -357393.77 0 a 357393.77 357393.77 0 1 1 714787.55 0a 357393.77 357393.77 0 1 1 -714787.55 0M 19259641.70 31879128.23 m -357393.77 0 a 357393.77 357393.77 0 1 1 714787.55 0a 357393.77 357393.77 0 1 1 -714787.55 0M 19259641.70 33879128.23 m -357393.77 0 a 357393.77 357393.77 0 1 1 714787.55 0a 357393.77 357393.77 0 1 1 -714787.55 0M 22795141.70 31879128.23 m -357393.77 0 a 357393.77 357393.77 0 1 1 714787.55 0a 357393.77 357393.77 0 1 1 -714787.55 0M 22795141.70 32879128.23 m -357393.77 0 a 357393.77 357393.77 0 1 1 714787.55 0a 357393.77 357393.77 0 1 1 -714787.55 0M 22795141.70 33879128.23 m -357393.77 0 a 357393.77 357393.77 0 1 1 714787.55 0a 357393.77 357393.77 0 1 1 -714787.55 0M 21889763.13 34409449.07 m -150528.93 0 a 150528.93 150528.93 0 1 1 301057.86 0a 150528.93 150528.93 0 1 1 -301057.86 0M 21889763.13 34763780.07 m -150528.93 0 a 150528.93 150528.93 0 1 1 301057.86 0a 150528.93 150528.93 0 1 1 -301057.86 0M 24917325.66 5498805.89 m -357401.11 0 a 357401.11 357401.11 0 1 1 714802.22 0a 357401.11 357401.11 0 1 1 -714802.22 0M 24917325.66 6498805.89 m -357401.11 0 a 357401.11 357401.11 0 1 1 714802.22 0a 357401.11 357401.11 0 1 1 -714802.22 0M 24917325.66 7498805.89 m -357401.11 0 a 357401.11 357401.11 0 1 1 714802.22 0a 357401.11 357401.11 0 1 1 -714802.22 0M 24217755.00 8705433.00 L 23506653.00 8705433.00 L 23506653.00 7975157.00 L 24217755.00 7975157.00 L 24217755.00 8705433.00  zM 24763779.13 8267717.07 m -150528.93 0 a 150528.93 150528.93 0 1 1 301057.86 0a 150528.93 150528.93 0 1 1 -301057.86 0M 26261063.00 8705433.00 L 25549961.00 8705433.00 L 25549961.00 7975157.00 L 26261063.00 7975157.00 L 26261063.00 8705433.00  zM 26946459.66 5498805.89 m -357401.11 0 a 357401.11 357401.11 0 1 1 714802.22 0a 357401.11 357401.11 0 1 1 -714802.22 0M 26946459.66 6498805.89 m -357401.11 0 a 357401.11 357401.11 0 1 1 714802.22 0a 357401.11 357401.11 0 1 1 -714802.22 0M 29232048.00 6413779.00 L 28582442.00 6413779.00 L 28582442.00 5488581.00 L 29232048.00 5488581.00 L 29232048.00 6413779.00  zM 26946459.66 7498805.89 m -357401.11 0 a 357401.11 357401.11 0 1 1 714802.22 0a 357401.11 357401.11 0 1 1 -714802.22 0M 26889763.13 8267717.07 m -150528.93 0 a 150528.93 150528.93 0 1 1 301057.86 0a 150528.93 150528.93 0 1 1 -301057.86 0M 24217755.00 9591771.00 L 23506653.00 9591771.00 L 23506653.00 8861495.00 L 24217755.00 8861495.00 L 24217755.00 9591771.00  zM 26261063.00 9591771.00 L 25549961.00 9591771.00 L 25549961.00 8861495.00 L 26261063.00 8861495.00 L 26261063.00 9591771.00  zM 26456692.13 13425197.07 m -150528.93 0 a 150528.93 150528.93 0 1 1 301057.86 0a 150528.93 150528.93 0 1 1 -301057.86 0M 25553150.00 13753936.00 L 25061024.00 13753936.00 L 25061024.00 13301180.00 L 25553150.00 13301180.00 L 25553150.00 13753936.00  zM 26210630.00 13608267.00 L 25757874.00 13608267.00 L 25757874.00 13273621.00 L 26210630.00 13273621.00 L 26210630.00 13608267.00  zM 27155512.00 13982283.00 L 26702756.00 13982283.00 L 26702756.00 13647637.00 L 27155512.00 13647637.00 L 27155512.00 13982283.00  zM 25553150.00 14305117.00 L 25061024.00 14305117.00 L 25061024.00 13852361.00 L 25553150.00 13852361.00 L 25553150.00 14305117.00  zM 25444882.00 14748030.00 L 25129922.00 14748030.00 L 25129922.00 14393700.00 L 25444882.00 14393700.00 L 25444882.00 14748030.00  zM 26210630.00 14356299.00 L 25757874.00 14356299.00 L 25757874.00 14021653.00 L 26210630.00 14021653.00 L 26210630.00 14356299.00  zM 28014987.00 14505135.00 L 27655881.00 14505135.00 L 27655881.00 14089689.00 L 28014987.00 14089689.00 L 28014987.00 14505135.00  zM 28889177.00 14495247.00 L 28507989.00 14495247.00 L 28507989.00 14098987.00 L 28889177.00 14098987.00 L 28889177.00 14495247.00  zM 23622047.13 15669292.07 m -150528.93 0 a 150528.93 150528.93 0 1 1 301057.86 0a 150528.93 150528.93 0 1 1 -301057.86 0M 23937008.13 15669292.07 m -150528.93 0 a 150528.93 150528.93 0 1 1 301057.86 0a 150528.93 150528.93 0 1 1 -301057.86 0M 24251968.13 15669292.07 m -150528.93 0 a 150528.93 150528.93 0 1 1 301057.86 0a 150528.93 150528.93 0 1 1 -301057.86 0M 25444882.00 15417322.00 L 25129922.00 15417322.00 L 25129922.00 15062992.00 L 25444882.00 15062992.00 L 25444882.00 15417322.00  zM 24842519.13 16338583.07 m -150528.93 0 a 150528.93 150528.93 0 1 1 301057.86 0a 150528.93 150528.93 0 1 1 -301057.86 0M 24537835.00 16750374.00 L 24141693.00 16750374.00 L 24141693.00 16315312.00 L 24537835.00 16315312.00 L 24537835.00 16750374.00  zM 26326208.00 15112593.00 L 25947416.00 15112593.00 L 25947416.00 14736017.00 L 26326208.00 14736017.00 L 26326208.00 15112593.00  zM 26326208.00 15703819.00 L 25947416.00 15703819.00 L 25947416.00 15327243.00 L 26326208.00 15327243.00 L 26326208.00 15703819.00  zM 25520027.00 16097379.00 L 25141235.00 16097379.00 L 25141235.00 15720803.00 L 25520027.00 15720803.00 L 25520027.00 16097379.00  zM 25520027.00 16688605.00 L 25141235.00 16688605.00 L 25141235.00 16312029.00 L 25520027.00 16312029.00 L 25520027.00 16688605.00  zM 26427166.00 16309032.00 L 26316930.00 16309032.00 L 26298851.00 16301543.00 L 26291362.00 16283464.00 L 26291362.00 16122046.00 L 26298851.00 16103967.00 L 26301228.47 16101589.53 A 146741.52 146741.52 0 0 1 26107455.00 15904335.00 A 150529.62 150529.62 0 1 1 26352968.00 16068381.00 L 26334486.32 16080730.00 L 26411418.00 16080730.00 A 53623.08 53623.08 0 0 1 26452734.00 16122046.00 L 26452734.00 16283464.00 L 26445245.00 16301543.00 L 26427166.00 16309032.00  zM 27088885.00 15177827.00 L 26729779.00 15177827.00 L 26729779.00 14732521.00 L 27088885.00 14732521.00 L 27088885.00 15177827.00  zM 27088885.00 15682177.00 L 26729779.00 15682177.00 L 26729779.00 15236871.00 L 27088885.00 15236871.00 L 27088885.00 15682177.00  zM 26781496.00 16309032.00 L 26671260.00 16309032.00 L 26653181.00 16301543.00 L 26645692.00 16283464.00 L 26645692.00 16122046.00 A 53623.08 53623.08 0 0 1 26687008.00 16080730.00 L 26765748.00 16080730.00 A 53623.08 53623.08 0 0 1 26807064.00 16122046.00 L 26807064.00 16283464.00 L 26799575.00 16301543.00 L 26781496.00 16309032.00  zM 26401576.00 16533441.00 L 26240158.00 16533441.00 A 53623.08 53623.08 0 0 1 26198842.00 16492125.00 L 26198842.00 16413385.00 A 53623.08 53623.08 0 0 1 26240158.00 16372069.00 L 26401576.00 16372069.00 L 26419655.00 16379558.00 L 26427144.00 16397637.00 L 26427144.00 16507873.00 L 26419655.00 16525952.00 L 26401576.00 16533441.00  zM 26980315.00 16708661.00 L 26192913.00 16708661.00 L 26192913.00 16551181.00 L 26499746.30 16551181.00 L 26475102.00 16514298.00 A 150533.33 150533.33 0 0 1 26556569.00 16317621.00 L 26599750.13 16309032.00 L 26494095.00 16309032.00 L 26476016.00 16301543.00 L 26468527.00 16283464.00 L 26468527.00 16122046.00 A 53623.08 53623.08 0 0 1 26509843.00 16080730.00 L 26588583.00 16080730.00 A 53623.08 53623.08 0 0 1 26629899.00 16122046.00 L 26629899.00 16283464.00 L 26622410.00 16301543.00 L 26608562.46 16307279.17 L 26614174.00 16306163.00 L 26671779.00 16317621.00 L 26720615.00 16350252.00 L 26732284.00 16367715.98 L 26743953.00 16350252.00 L 26792789.00 16317621.00 L 26844384.59 16307358.31 L 26830346.00 16301543.00 L 26822857.00 16283464.00 L 26822857.00 16122046.00 A 53623.08 53623.08 0 0 1 26864173.00 16080730.00 L 26942913.00 16080730.00 A 53623.08 53623.08 0 0 1 26984229.00 16122046.00 L 26984229.00 16283464.00 L 26976740.00 16301543.00 L 26958661.00 16309032.00 L 26864817.87 16309032.00 L 26907999.00 16317621.00 A 150529.62 150529.62 0 0 1 26989466.00 16514298.00 L 26964821.70 16551181.00 L 26980315.00 16551181.00 L 26980315.00 16708661.00  zM 27135826.00 16309032.00 L 27025590.00 16309032.00 L 27007511.00 16301543.00 L 27000022.00 16283464.00 L 27000022.00 16122046.00 A 53623.08 53623.08 0 0 1 27041338.00 16080730.00 L 27120078.00 16080730.00 A 53623.08 53623.08 0 0 1 27161394.00 16122046.00 L 27161394.00 16283464.00 L 27153905.00 16301543.00 L 27135826.00 16309032.00  zM 28014987.00 15076381.00 L 27655881.00 15076381.00 L 27655881.00 14660935.00 L 28014987.00 14660935.00 L 28014987.00 15076381.00  zM 27312991.00 16309032.00 L 27202755.00 16309032.00 L 27184676.00 16301543.00 L 27177187.00 16283464.00 L 27177187.00 16122046.00 A 53623.08 53623.08 0 0 1 27218503.00 16080730.00 L 27297243.00 16080730.00 A 53623.08 53623.08 0 0 1 27338559.00 16122046.00 L 27338559.00 16283464.00 L 27331070.00 16301543.00 L 27312991.00 16309032.00  zM 28889177.00 15066787.00 L 28507989.00 15066787.00 L 28507989.00 14670527.00 L 28889177.00 14670527.00 L 28889177.00 15066787.00  zM 27405513.00 16533441.00 L 27228347.00 16533441.00 L 27210268.00 16525952.00 L 27202779.00 16507873.00 L 27202779.00 16481153.00 L 27210268.00 16463073.00 L 27293784.00 16379558.00 L 27311863.00 16372069.00 L 27405513.00 16372069.00 L 27423592.00 16379558.00 L 27431081.00 16397637.00 L 27431081.00 16507873.00 L 27423592.00 16525952.00 L 27405513.00 16533441.00  zM 28533481.00 16554785.00 L 28156261.00 16554785.00 L 28156261.00 16195679.00 L 28533481.00 16195679.00 L 28533481.00 16554785.00  zM 23307086.13 17519686.07 m -150528.93 0 a 150528.93 150528.93 0 1 1 301057.86 0a 150528.93 150528.93 0 1 1 -301057.86 0M 23937008.13 17519686.07 m -150528.93 0 a 150528.93 150528.93 0 1 1 301057.86 0a 150528.93 150528.93 0 1 1 -301057.86 0M 24537835.00 17302005.00 L 24141693.00 17302005.00 L 24141693.00 16866943.00 L 24537835.00 16866943.00 L 24537835.00 17302005.00  zM 24842519.13 16653544.07 m -150528.93 0 a 150528.93 150528.93 0 1 1 301057.86 0a 150528.93 150528.93 0 1 1 -301057.86 0M 24566929.13 17519686.07 m -150528.93 0 a 150528.93 150528.93 0 1 1 301057.86 0a 150528.93 150528.93 0 1 1 -301057.86 0M 24881890.13 17519686.07 m -150528.93 0 a 150528.93 150528.93 0 1 1 301057.86 0a 150528.93 150528.93 0 1 1 -301057.86 0M 23622047.13 17519686.07 m -150528.93 0 a 150528.93 150528.93 0 1 1 301057.86 0a 150528.93 150528.93 0 1 1 -301057.86 0M 24251968.13 17519686.07 m -150528.93 0 a 150528.93 150528.93 0 1 1 301057.86 0a 150528.93 150528.93 0 1 1 -301057.86 0M 24881889.13 18618113.07 m -150528.93 0 a 150528.93 150528.93 0 1 1 301057.86 0a 150528.93 150528.93 0 1 1 -301057.86 0M 25196850.13 17559056.07 m -150528.93 0 a 150528.93 150528.93 0 1 1 301057.86 0a 150528.93 150528.93 0 1 1 -301057.86 0M 24881889.13 18275594.07 m -150528.93 0 a 150528.93 150528.93 0 1 1 301057.86 0a 150528.93 150528.93 0 1 1 -301057.86 0M 24606298.13 18813655.07 m -150528.93 0 a 150528.93 150528.93 0 1 1 301057.86 0a 150528.93 150528.93 0 1 1 -301057.86 0M 24881889.13 18960632.07 m -150528.93 0 a 150528.93 150528.93 0 1 1 301057.86 0a 150528.93 150528.93 0 1 1 -301057.86 0M 24606298.13 19154862.07 m -150528.93 0 a 150528.93 150528.93 0 1 1 301057.86 0a 150528.93 150528.93 0 1 1 -301057.86 0M 24606298.13 19496069.07 m -150528.93 0 a 150528.93 150528.93 0 1 1 301057.86 0a 150528.93 150528.93 0 1 1 -301057.86 0M 24881889.13 19303151.07 m -150528.93 0 a 150528.93 150528.93 0 1 1 301057.86 0a 150528.93 150528.93 0 1 1 -301057.86 0M 24881889.13 19645670.07 m -150528.93 0 a 150528.93 150528.93 0 1 1 301057.86 0a 150528.93 150528.93 0 1 1 -301057.86 0M 24606298.13 19837276.07 m -150528.93 0 a 150528.93 150528.93 0 1 1 301057.86 0a 150528.93 150528.93 0 1 1 -301057.86 0M 24881889.13 19988189.07 m -150528.93 0 a 150528.93 150528.93 0 1 1 301057.86 0a 150528.93 150528.93 0 1 1 -301057.86 0M 24606298.13 20178483.07 m -150528.93 0 a 150528.93 150528.93 0 1 1 301057.86 0a 150528.93 150528.93 0 1 1 -301057.86 0M 24606298.13 20519690.07 m -150528.93 0 a 150528.93 150528.93 0 1 1 301057.86 0a 150528.93 150528.93 0 1 1 -301057.86 0M 24881889.13 20330708.07 m -150528.93 0 a 150528.93 150528.93 0 1 1 301057.86 0a 150528.93 150528.93 0 1 1 -301057.86 0M 25787401.13 16614174.07 m -150528.93 0 a 150528.93 150528.93 0 1 1 301057.86 0a 150528.93 150528.93 0 1 1 -301057.86 0M 25866141.13 17125985.07 m -150528.93 0 a 150528.93 150528.93 0 1 1 301057.86 0a 150528.93 150528.93 0 1 1 -301057.86 0M 26704583.00 17019543.00 L 26742704.74 16994071.00 L 26564383.26 16994071.00 L 26602505.00 17019543.00 A 150528.93 150528.93 0 1 1 26389623.00 17019543.00 L 26427744.74 16994071.00 L 26249422.26 16994071.00 L 26287544.00 17019543.00 A 150528.93 150528.93 0 1 1 26181103.00 16975454.00 L 26218360.82 16982864.82 L 26206330.00 16970834.00 L 26198841.00 16952755.00 L 26198841.00 16874015.00 A 53623.08 53623.08 0 0 1 26240157.00 16832699.00 L 26984253.00 16832699.00 L 27002332.00 16840188.00 L 27009821.00 16858267.00 L 27009821.00 16968503.00 L 27002332.00 16986582.00 L 26984253.00 16994071.00 L 26879343.26 16994071.00 L 26917465.00 17019543.00 A 150528.93 150528.93 0 1 1 26704583.00 17019543.00  zM 25433071.13 17755906.07 m -150528.93 0 a 150528.93 150528.93 0 1 1 301057.86 0a 150528.93 150528.93 0 1 1 -301057.86 0M 27165354.13 19330709.07 m -150528.93 0 a 150528.93 150528.93 0 1 1 301057.86 0a 150528.93 150528.93 0 1 1 -301057.86 0M 26929133.13 19566930.07 m -150528.93 0 a 150528.93 150528.93 0 1 1 301057.86 0a 150528.93 150528.93 0 1 1 -301057.86 0M 27419292.00 16814960.00 L 27013780.00 16814960.00 L 27013780.00 16657480.00 L 27419292.00 16657480.00 L 27419292.00 16814960.00  zM 28303860.00 18270590.00 L 27378662.00 18270590.00 L 27378662.00 17171237.00 L 27011811.00 17171237.00 L 26993732.00 17163748.00 L 26986243.00 17145669.00 L 26986243.00 17035433.00 L 26993732.00 17017354.00 L 27011811.00 17009865.00 L 27389765.00 17009865.00 A 53623.08 53623.08 0 0 1 27431081.00 17051181.00 L 27431081.00 17129921.00 L 27423050.00 17148542.00 L 28132273.00 17148542.00 L 28132273.00 16852887.00 L 28547719.00 16852887.00 L 28547719.00 17211993.00 L 28303860.00 17211993.00 L 28303860.00 18270590.00  zM 29118965.00 17211993.00 L 28703519.00 17211993.00 L 28703519.00 16852887.00 L 29118965.00 16852887.00 L 29118965.00 17211993.00  zM 28543307.13 19330709.07 m -150528.93 0 a 150528.93 150528.93 0 1 1 301057.86 0a 150528.93 150528.93 0 1 1 -301057.86 0M 28740157.13 19566930.07 m -150528.93 0 a 150528.93 150528.93 0 1 1 301057.86 0a 150528.93 150528.93 0 1 1 -301057.86 0M 26771653.13 19842520.07 m -150528.93 0 a 150528.93 150528.93 0 1 1 301057.86 0a 150528.93 150528.93 0 1 1 -301057.86 0M 26574803.13 20118111.07 m -150528.93 0 a 150528.93 150528.93 0 1 1 301057.86 0a 150528.93 150528.93 0 1 1 -301057.86 0M 26617389.00 20772900.00 L 26258283.00 20772900.00 L 26258283.00 20395680.00 L 26617389.00 20395680.00 L 26617389.00 20772900.00  zM 27125984.13 19842520.07 m -150528.93 0 a 150528.93 150528.93 0 1 1 301057.86 0a 150528.93 150528.93 0 1 1 -301057.86 0M 26929133.13 20118111.07 m -150528.93 0 a 150528.93 150528.93 0 1 1 301057.86 0a 150528.93 150528.93 0 1 1 -301057.86 0M 27503215.00 20772900.00 L 27144109.00 20772900.00 L 27144109.00 20395680.00 L 27503215.00 20395680.00 L 27503215.00 20772900.00  zM 28303860.00 20278464.00 L 27378662.00 20278464.00 L 27378662.00 20232063.96 L 27341070.00 20257182.00 A 150533.33 150533.33 0 1 1 27341070.00 19979038.00 L 27378662.00 20004156.04 L 27378662.00 19156416.00 L 28303860.00 19156416.00 L 28303860.00 19976052.81 L 28346457.00 19967580.00 A 150528.93 150528.93 0 0 1 28346457.00 20268640.00 L 28303860.00 20260167.19 L 28303860.00 20278464.00  zM 28543307.13 19842520.07 m -150528.93 0 a 150528.93 150528.93 0 1 1 301057.86 0a 150528.93 150528.93 0 1 1 -301057.86 0M 28404790.00 20772900.00 L 28045684.00 20772900.00 L 28045684.00 20395680.00 L 28404790.00 20395680.00 L 28404790.00 20772900.00  zM 28897637.13 19842520.07 m -150528.93 0 a 150528.93 150528.93 0 1 1 301057.86 0a 150528.93 150528.93 0 1 1 -301057.86 0M 28700787.13 20118111.07 m -150528.93 0 a 150528.93 150528.93 0 1 1 301057.86 0a 150528.93 150528.93 0 1 1 -301057.86 0M 30452520.00 6413779.00 L 29802914.00 6413779.00 L 29802914.00 5488581.00 L 30452520.00 5488581.00 L 30452520.00 6413779.00  zM 29375748.13 7986614.07 m -150528.93 0 a 150528.93 150528.93 0 1 1 301057.86 0a 150528.93 150528.93 0 1 1 -301057.86 0M 29685039.13 7992127.07 m -150528.93 0 a 150528.93 150528.93 0 1 1 301057.86 0a 150528.93 150528.93 0 1 1 -301057.86 0M 32502997.00 5234088.00 L 32320481.00 5160347.00 A 130465.66 130465.66 0 0 1 32248392.00 4990515.00 L 32322133.00 4807999.00 A 130465.66 130465.66 0 0 1 32491965.00 4735910.00 L 32674481.00 4809651.00 A 130465.66 130465.66 0 0 1 32746570.00 4979483.00 L 32672829.00 5161999.00 A 130465.66 130465.66 0 0 1 32502997.00 5234088.00  zM 32480304.13 5905511.07 m -150528.93 0 a 150528.93 150528.93 0 1 1 301057.86 0a 150528.93 150528.93 0 1 1 -301057.86 0M 32480304.13 7086613.07 m -150528.93 0 a 150528.93 150528.93 0 1 1 301057.86 0a 150528.93 150528.93 0 1 1 -301057.86 0M 33661406.13 5905511.07 m -150528.93 0 a 150528.93 150528.93 0 1 1 301057.86 0a 150528.93 150528.93 0 1 1 -301057.86 0M 33396733.00 7303109.00 L 32766813.00 7303109.00 L 32766813.00 6043267.00 L 33396733.00 6043267.00 L 33396733.00 7303109.00  zM 33661406.13 7086613.07 m -150528.93 0 a 150528.93 150528.93 0 1 1 301057.86 0a 150528.93 150528.93 0 1 1 -301057.86 0M 33956681.13 6496062.07 m -150528.93 0 a 150528.93 150528.93 0 1 1 301057.86 0a 150528.93 150528.93 0 1 1 -301057.86 0M 34251957.13 7086613.07 m -150528.93 0 a 150528.93 150528.93 0 1 1 301057.86 0a 150528.93 150528.93 0 1 1 -301057.86 0M 34842508.13 5905511.07 m -150528.93 0 a 150528.93 150528.93 0 1 1 301057.86 0a 150528.93 150528.93 0 1 1 -301057.86 0M 34547232.13 6496062.07 m -150528.93 0 a 150528.93 150528.93 0 1 1 301057.86 0a 150528.93 150528.93 0 1 1 -301057.86 0M 34842508.13 7086613.07 m -150528.93 0 a 150528.93 150528.93 0 1 1 301057.86 0a 150528.93 150528.93 0 1 1 -301057.86 0M 35137783.13 6496062.07 m -150528.93 0 a 150528.93 150528.93 0 1 1 301057.86 0a 150528.93 150528.93 0 1 1 -301057.86 0M 35433059.13 7086613.07 m -150528.93 0 a 150528.93 150528.93 0 1 1 301057.86 0a 150528.93 150528.93 0 1 1 -301057.86 0M 35728334.13 6496062.07 m -150528.93 0 a 150528.93 150528.93 0 1 1 301057.86 0a 150528.93 150528.93 0 1 1 -301057.86 0M 36318885.13 6496062.07 m -150528.93 0 a 150528.93 150528.93 0 1 1 301057.86 0a 150528.93 150528.93 0 1 1 -301057.86 0M 36023610.13 7086613.07 m -150528.93 0 a 150528.93 150528.93 0 1 1 301057.86 0a 150528.93 150528.93 0 1 1 -301057.86 0M 36614161.13 7086613.07 m -150528.93 0 a 150528.93 150528.93 0 1 1 301057.86 0a 150528.93 150528.93 0 1 1 -301057.86 0M 37204712.13 7086613.07 m -150528.93 0 a 150528.93 150528.93 0 1 1 301057.86 0a 150528.93 150528.93 0 1 1 -301057.86 0M 37795263.13 7086613.07 m -150528.93 0 a 150528.93 150528.93 0 1 1 301057.86 0a 150528.93 150528.93 0 1 1 -301057.86 0M 30196850.13 8622048.07 m -150528.93 0 a 150528.93 150528.93 0 1 1 301057.86 0a 150528.93 150528.93 0 1 1 -301057.86 0M 31299202.13 9448817.07 m -150528.93 0 a 150528.93 150528.93 0 1 1 301057.86 0a 150528.93 150528.93 0 1 1 -301057.86 0M 31373937.13 8485827.07 m -150528.93 0 a 150528.93 150528.93 0 1 1 301057.86 0a 150528.93 150528.93 0 1 1 -301057.86 0M 31594477.13 10039368.07 m -150528.93 0 a 150528.93 150528.93 0 1 1 301057.86 0a 150528.93 150528.93 0 1 1 -301057.86 0M 31299202.13 10629919.07 m -150528.93 0 a 150528.93 150528.93 0 1 1 301057.86 0a 150528.93 150528.93 0 1 1 -301057.86 0M 31889753.13 10629919.07 m -150528.93 0 a 150528.93 150528.93 0 1 1 301057.86 0a 150528.93 150528.93 0 1 1 -301057.86 0M 29392598.13 13054017.07 m -150528.93 0 a 150528.93 150528.93 0 1 1 301057.86 0a 150528.93 150528.93 0 1 1 -301057.86 0M 31299202.13 11811021.07 m -150528.93 0 a 150528.93 150528.93 0 1 1 301057.86 0a 150528.93 150528.93 0 1 1 -301057.86 0M 31299202.13 12992123.07 m -150528.93 0 a 150528.93 150528.93 0 1 1 301057.86 0a 150528.93 150528.93 0 1 1 -301057.86 0M 31594477.13 11220470.07 m -150528.93 0 a 150528.93 150528.93 0 1 1 301057.86 0a 150528.93 150528.93 0 1 1 -301057.86 0M 31594477.13 12401572.07 m -150528.93 0 a 150528.93 150528.93 0 1 1 301057.86 0a 150528.93 150528.93 0 1 1 -301057.86 0M 31889753.13 9448817.07 m -150528.93 0 a 150528.93 150528.93 0 1 1 301057.86 0a 150528.93 150528.93 0 1 1 -301057.86 0M 32185028.13 10039368.07 m -150528.93 0 a 150528.93 150528.93 0 1 1 301057.86 0a 150528.93 150528.93 0 1 1 -301057.86 0M 32185028.13 11220470.07 m -150528.93 0 a 150528.93 150528.93 0 1 1 301057.86 0a 150528.93 150528.93 0 1 1 -301057.86 0M 31889753.13 11811021.07 m -150528.93 0 a 150528.93 150528.93 0 1 1 301057.86 0a 150528.93 150528.93 0 1 1 -301057.86 0M 32185028.13 12401572.07 m -150528.93 0 a 150528.93 150528.93 0 1 1 301057.86 0a 150528.93 150528.93 0 1 1 -301057.86 0M 31889753.13 12992123.07 m -150528.93 0 a 150528.93 150528.93 0 1 1 301057.86 0a 150528.93 150528.93 0 1 1 -301057.86 0M 33396733.00 9271613.00 L 32766813.00 9271613.00 L 32766813.00 8011771.00 L 33396733.00 8011771.00 L 33396733.00 9271613.00  zM 36318702.00 8680695.00 L 36121852.00 8680695.00 A 130461.68 130461.68 0 0 1 35991392.00 8550235.00 L 35991392.00 8353385.00 A 130461.68 130461.68 0 0 1 36121852.00 8222925.00 L 36318702.00 8222925.00 A 130461.68 130461.68 0 0 1 36449162.00 8353385.00 L 36449162.00 8550235.00 A 130461.68 130461.68 0 0 1 36318702.00 8680695.00  zM 32913385.13 12637796.07 m -150528.93 0 a 150528.93 150528.93 0 1 1 301057.86 0a 150528.93 150528.93 0 1 1 -301057.86 0M 38100392.00 11588723.00 L 35836614.00 11588723.00 A 476529.92 476529.92 0 0 1 35360095.00 11112204.00 L 35360095.00 10226378.00 A 476529.92 476529.92 0 0 1 35836614.00 9749859.00 L 38100392.00 9749859.00 A 476529.92 476529.92 0 0 1 38576911.00 10226378.00 L 38576911.00 11112204.00 A 476529.92 476529.92 0 0 1 38100392.00 11588723.00  zM 40078740.00 9744093.00 L 39409450.00 9744093.00 L 39409450.00 9153543.00 L 40078740.00 9153543.00 L 40078740.00 9744093.00  zM 29685039.13 13346457.07 m -150528.93 0 a 150528.93 150528.93 0 1 1 301057.86 0a 150528.93 150528.93 0 1 1 -301057.86 0M 29566929.13 13818898.07 m -150528.93 0 a 150528.93 150528.93 0 1 1 301057.86 0a 150528.93 150528.93 0 1 1 -301057.86 0M 29755709.00 14519204.00 L 29359567.00 14519204.00 L 29359567.00 14084142.00 L 29755709.00 14084142.00 L 29755709.00 14519204.00  zM 29960629.13 13582678.07 m -150528.93 0 a 150528.93 150528.93 0 1 1 301057.86 0a 150528.93 150528.93 0 1 1 -301057.86 0M 31299202.13 14173225.07 m -150528.93 0 a 150528.93 150528.93 0 1 1 301057.86 0a 150528.93 150528.93 0 1 1 -301057.86 0M 31594477.13 13582674.07 m -150528.93 0 a 150528.93 150528.93 0 1 1 301057.86 0a 150528.93 150528.93 0 1 1 -301057.86 0M 29755709.00 15070835.00 L 29359567.00 15070835.00 L 29359567.00 14635773.00 L 29755709.00 14635773.00 L 29755709.00 15070835.00  zM 29566929.13 15551178.07 m -150528.93 0 a 150528.93 150528.93 0 1 1 301057.86 0a 150528.93 150528.93 0 1 1 -301057.86 0M 30472440.13 15590552.07 m -150528.93 0 a 150528.93 150528.93 0 1 1 301057.86 0a 150528.93 150528.93 0 1 1 -301057.86 0M 31594477.13 14763776.07 m -150528.93 0 a 150528.93 150528.93 0 1 1 301057.86 0a 150528.93 150528.93 0 1 1 -301057.86 0M 31299202.13 15354327.07 m -150528.93 0 a 150528.93 150528.93 0 1 1 301057.86 0a 150528.93 150528.93 0 1 1 -301057.86 0M 29105917.00 16554785.00 L 28728697.00 16554785.00 L 28728697.00 16195679.00 L 29105917.00 16195679.00 L 29105917.00 16554785.00  zM 31299202.13 16535429.07 m -150528.93 0 a 150528.93 150528.93 0 1 1 301057.86 0a 150528.93 150528.93 0 1 1 -301057.86 0M 31299202.13 17716531.07 m -150528.93 0 a 150528.93 150528.93 0 1 1 301057.86 0a 150528.93 150528.93 0 1 1 -301057.86 0M 31594477.13 15944878.07 m -150528.93 0 a 150528.93 150528.93 0 1 1 301057.86 0a 150528.93 150528.93 0 1 1 -301057.86 0M 31594477.13 17125980.07 m -150528.93 0 a 150528.93 150528.93 0 1 1 301057.86 0a 150528.93 150528.93 0 1 1 -301057.86 0M 31594477.13 18307082.07 m -150528.93 0 a 150528.93 150528.93 0 1 1 301057.86 0a 150528.93 150528.93 0 1 1 -301057.86 0M 29055118.13 20118111.07 m -150528.93 0 a 150528.93 150528.93 0 1 1 301057.86 0a 150528.93 150528.93 0 1 1 -301057.86 0M 29286680.00 20772900.00 L 28927574.00 20772900.00 L 28927574.00 20395680.00 L 29286680.00 20395680.00 L 29286680.00 20772900.00  zM 31299202.13 20078735.07 m -150528.93 0 a 150528.93 150528.93 0 1 1 301057.86 0a 150528.93 150528.93 0 1 1 -301057.86 0M 31299202.13 18897633.07 m -150528.93 0 a 150528.93 150528.93 0 1 1 301057.86 0a 150528.93 150528.93 0 1 1 -301057.86 0M 31594477.13 19488184.07 m -150528.93 0 a 150528.93 150528.93 0 1 1 301057.86 0a 150528.93 150528.93 0 1 1 -301057.86 0M 32185028.13 13582674.07 m -150528.93 0 a 150528.93 150528.93 0 1 1 301057.86 0a 150528.93 150528.93 0 1 1 -301057.86 0M 31889753.13 14173225.07 m -150528.93 0 a 150528.93 150528.93 0 1 1 301057.86 0a 150528.93 150528.93 0 1 1 -301057.86 0M 32185028.13 14763776.07 m -150528.93 0 a 150528.93 150528.93 0 1 1 301057.86 0a 150528.93 150528.93 0 1 1 -301057.86 0M 31889753.13 15354327.07 m -150528.93 0 a 150528.93 150528.93 0 1 1 301057.86 0a 150528.93 150528.93 0 1 1 -301057.86 0M 31889753.13 16535429.07 m -150528.93 0 a 150528.93 150528.93 0 1 1 301057.86 0a 150528.93 150528.93 0 1 1 -301057.86 0M 32185028.13 17125980.07 m -150528.93 0 a 150528.93 150528.93 0 1 1 301057.86 0a 150528.93 150528.93 0 1 1 -301057.86 0M 31889753.13 17716531.07 m -150528.93 0 a 150528.93 150528.93 0 1 1 301057.86 0a 150528.93 150528.93 0 1 1 -301057.86 0M 32185028.13 18307082.07 m -150528.93 0 a 150528.93 150528.93 0 1 1 301057.86 0a 150528.93 150528.93 0 1 1 -301057.86 0M 31889753.13 18897633.07 m -150528.93 0 a 150528.93 150528.93 0 1 1 301057.86 0a 150528.93 150528.93 0 1 1 -301057.86 0M 32185028.13 19488184.07 m -150528.93 0 a 150528.93 150528.93 0 1 1 301057.86 0a 150528.93 150528.93 0 1 1 -301057.86 0M 31889753.13 20078735.07 m -150528.93 0 a 150528.93 150528.93 0 1 1 301057.86 0a 150528.93 150528.93 0 1 1 -301057.86 0M 32185028.13 15944878.07 m -150528.93 0 a 150528.93 150528.93 0 1 1 301057.86 0a 150528.93 150528.93 0 1 1 -301057.86 0M 36466536.00 17372047.00 L 35305118.00 17372047.00 L 35305118.00 16683071.00 L 36466536.00 16683071.00 L 36466536.00 17372047.00  zM 38100393.00 14423369.00 L 35836615.00 14423369.00 A 476522.59 476522.59 0 0 1 35360096.00 13946850.00 L 35360096.00 13061024.00 A 476529.92 476529.92 0 0 1 35836615.00 12584505.00 L 38100393.00 12584505.00 A 476522.59 476522.59 0 0 1 38576912.00 13061024.00 L 38576912.00 13946850.00 A 476529.92 476529.92 0 0 1 38100393.00 14423369.00  zM 40078740.00 15019684.00 L 39409450.00 15019684.00 L 39409450.00 14429134.00 L 40078740.00 14429134.00 L 40078740.00 15019684.00  zM 38828740.00 17372047.00 L 37667322.00 17372047.00 L 37667322.00 16683071.00 L 38828740.00 16683071.00 L 38828740.00 17372047.00  zM 34524017.00 18907480.00 L 33421655.00 18907480.00 L 33421655.00 18513780.00 L 34524017.00 18513780.00 L 34524017.00 18907480.00  zM 35626378.00 19557086.00 L 34957088.00 19557086.00 L 34957088.00 19320866.00 L 35626378.00 19320866.00 L 35626378.00 19557086.00  zM 35626378.00 20049212.00 L 34957088.00 20049212.00 L 34957088.00 19812992.00 L 35626378.00 19812992.00 L 35626378.00 20049212.00  zM 34524017.00 20856298.00 L 33421655.00 20856298.00 L 33421655.00 20462598.00 L 34524017.00 20462598.00 L 34524017.00 20856298.00  zM 35433070.13 20314961.07 m -150528.93 0 a 150528.93 150528.93 0 1 1 301057.86 0a 150528.93 150528.93 0 1 1 -301057.86 0M 23565381.00 21143386.00 L 23206275.00 21143386.00 L 23206275.00 20765940.00 L 23565381.00 20765940.00 L 23565381.00 21143386.00  zM 23565381.00 21715596.00 L 23206275.00 21715596.00 L 23206275.00 21338150.00 L 23565381.00 21338150.00 L 23565381.00 21715596.00  zM 24606298.13 21202104.07 m -150528.93 0 a 150528.93 150528.93 0 1 1 301057.86 0a 150528.93 150528.93 0 1 1 -301057.86 0M 24606298.13 20860897.07 m -150528.93 0 a 150528.93 150528.93 0 1 1 301057.86 0a 150528.93 150528.93 0 1 1 -301057.86 0M 24881889.13 20673227.07 m -150528.93 0 a 150528.93 150528.93 0 1 1 301057.86 0a 150528.93 150528.93 0 1 1 -301057.86 0M 24606298.13 21543311.07 m -150528.93 0 a 150528.93 150528.93 0 1 1 301057.86 0a 150528.93 150528.93 0 1 1 -301057.86 0M 24881889.13 21015746.07 m -150528.93 0 a 150528.93 150528.93 0 1 1 301057.86 0a 150528.93 150528.93 0 1 1 -301057.86 0M 24881889.13 21358265.07 m -150528.93 0 a 150528.93 150528.93 0 1 1 301057.86 0a 150528.93 150528.93 0 1 1 -301057.86 0M 24881889.13 21700784.07 m -150528.93 0 a 150528.93 150528.93 0 1 1 301057.86 0a 150528.93 150528.93 0 1 1 -301057.86 0M 25590551.13 21889764.07 m -150528.93 0 a 150528.93 150528.93 0 1 1 301057.86 0a 150528.93 150528.93 0 1 1 -301057.86 0M 26220472.13 21889764.07 m -150528.93 0 a 150528.93 150528.93 0 1 1 301057.86 0a 150528.93 150528.93 0 1 1 -301057.86 0M 23469629.00 23761378.00 L 23272779.00 23761378.00 L 23272779.00 23288936.00 L 23469629.00 23288936.00 L 23469629.00 23761378.00  zM 23951913.00 23968070.00 L 23479471.00 23968070.00 L 23479471.00 23771220.00 L 23951913.00 23771220.00 L 23951913.00 23968070.00  zM 23951913.00 24223975.00 L 23479471.00 24223975.00 L 23479471.00 24027125.00 L 23951913.00 24027125.00 L 23951913.00 24223975.00  zM 25905511.13 21889764.07 m -150528.93 0 a 150528.93 150528.93 0 1 1 301057.86 0a 150528.93 150528.93 0 1 1 -301057.86 0M 23951913.00 24479881.00 L 23479471.00 24479881.00 L 23479471.00 24283031.00 L 23951913.00 24283031.00 L 23951913.00 24479881.00  zM 26525553.00 23116023.00 L 26131851.00 23116023.00 L 26131851.00 22820747.00 L 26525553.00 22820747.00 L 26525553.00 23116023.00  zM 23469629.00 25218070.00 L 23272779.00 25218070.00 L 23272779.00 24745628.00 L 23469629.00 24745628.00 L 23469629.00 25218070.00  zM 23951913.00 24735786.00 L 23479471.00 24735786.00 L 23479471.00 24538936.00 L 23951913.00 24538936.00 L 23951913.00 24735786.00  zM 24094488.13 26377953.07 m -150528.93 0 a 150528.93 150528.93 0 1 1 301057.86 0a 150528.93 150528.93 0 1 1 -301057.86 0M 25236220.86 25314961.28 m -327604.72 0 a 327604.72 327604.72 0 1 1 655209.45 0a 327604.72 327604.72 0 1 1 -655209.45 0M 26062992.13 26062993.07 m -150528.93 0 a 150528.93 150528.93 0 1 1 301057.86 0a 150528.93 150528.93 0 1 1 -301057.86 0M 26617389.00 21345336.00 L 26258283.00 21345336.00 L 26258283.00 20968116.00 L 26617389.00 20968116.00 L 26617389.00 21345336.00  zM 26535433.13 21889764.07 m -150528.93 0 a 150528.93 150528.93 0 1 1 301057.86 0a 150528.93 150528.93 0 1 1 -301057.86 0M 26850393.13 21889764.07 m -150528.93 0 a 150528.93 150528.93 0 1 1 301057.86 0a 150528.93 150528.93 0 1 1 -301057.86 0M 27503215.00 21345336.00 L 27144109.00 21345336.00 L 27144109.00 20968116.00 L 27503215.00 20968116.00 L 27503215.00 21345336.00  zM 27480315.13 21889764.07 m -150528.93 0 a 150528.93 150528.93 0 1 1 301057.86 0a 150528.93 150528.93 0 1 1 -301057.86 0M 28404790.00 21345336.00 L 28045684.00 21345336.00 L 28045684.00 20968116.00 L 28404790.00 20968116.00 L 28404790.00 21345336.00  zM 27165354.13 21889764.07 m -150528.93 0 a 150528.93 150528.93 0 1 1 301057.86 0a 150528.93 150528.93 0 1 1 -301057.86 0M 27795275.13 21889764.07 m -150528.93 0 a 150528.93 150528.93 0 1 1 301057.86 0a 150528.93 150528.93 0 1 1 -301057.86 0M 28110236.13 21889764.07 m -150528.93 0 a 150528.93 150528.93 0 1 1 301057.86 0a 150528.93 150528.93 0 1 1 -301057.86 0M 27509805.00 22742007.00 L 27116103.00 22742007.00 L 27116103.00 22446731.00 L 27509805.00 22446731.00 L 27509805.00 22742007.00  zM 27509805.00 23490039.00 L 27116103.00 23490039.00 L 27116103.00 23194763.00 L 27509805.00 23194763.00 L 27509805.00 23490039.00  zM 28425197.13 21889764.07 m -150528.93 0 a 150528.93 150528.93 0 1 1 301057.86 0a 150528.93 150528.93 0 1 1 -301057.86 0M 28740157.13 21889764.07 m -150528.93 0 a 150528.93 150528.93 0 1 1 301057.86 0a 150528.93 150528.93 0 1 1 -301057.86 0M 29055118.13 21889764.07 m -150528.93 0 a 150528.93 150528.93 0 1 1 301057.86 0a 150528.93 150528.93 0 1 1 -301057.86 0M 29286680.00 21345336.00 L 28927574.00 21345336.00 L 28927574.00 20968116.00 L 29286680.00 20968116.00 L 29286680.00 21345336.00  zM 31299202.13 21259837.07 m -150528.93 0 a 150528.93 150528.93 0 1 1 301057.86 0a 150528.93 150528.93 0 1 1 -301057.86 0M 31299202.13 22440939.07 m -150528.93 0 a 150528.93 150528.93 0 1 1 301057.86 0a 150528.93 150528.93 0 1 1 -301057.86 0M 28779527.13 22992127.07 m -150528.93 0 a 150528.93 150528.93 0 1 1 301057.86 0a 150528.93 150528.93 0 1 1 -301057.86 0M 29212598.13 22952757.07 m -150528.93 0 a 150528.93 150528.93 0 1 1 301057.86 0a 150528.93 150528.93 0 1 1 -301057.86 0M 31299202.13 23622041.07 m -150528.93 0 a 150528.93 150528.93 0 1 1 301057.86 0a 150528.93 150528.93 0 1 1 -301057.86 0M 31299202.13 24803143.07 m -150528.93 0 a 150528.93 150528.93 0 1 1 301057.86 0a 150528.93 150528.93 0 1 1 -301057.86 0M 31299202.13 25984245.07 m -150528.93 0 a 150528.93 150528.93 0 1 1 301057.86 0a 150528.93 150528.93 0 1 1 -301057.86 0M 25000000.13 26535434.07 m -150528.93 0 a 150528.93 150528.93 0 1 1 301057.86 0a 150528.93 150528.93 0 1 1 -301057.86 0M 24253189.00 30746516.00 L 23542087.00 30746516.00 L 23542087.00 30016240.00 L 24253189.00 30016240.00 L 24253189.00 30746516.00  zM 24590523.13 31163642.07 m -150528.93 0 a 150528.93 150528.93 0 1 1 301057.86 0a 150528.93 150528.93 0 1 1 -301057.86 0M 26375236.00 30746516.00 L 25664134.00 30746516.00 L 25664134.00 30016240.00 L 26375236.00 30016240.00 L 26375236.00 30746516.00  zM 26711928.13 31164253.07 m -150528.93 0 a 150528.93 150528.93 0 1 1 301057.86 0a 150528.93 150528.93 0 1 1 -301057.86 0M 28976377.13 29645670.07 m -150528.93 0 a 150528.93 150528.93 0 1 1 301057.86 0a 150528.93 150528.93 0 1 1 -301057.86 0M 24253189.00 31632854.00 L 23542087.00 31632854.00 L 23542087.00 30902578.00 L 24253189.00 30902578.00 L 24253189.00 31632854.00  zM 24917157.66 31879120.89 m -357401.11 0 a 357401.11 357401.11 0 1 1 714802.22 0a 357401.11 357401.11 0 1 1 -714802.22 0M 26375236.00 31632854.00 L 25664134.00 31632854.00 L 25664134.00 30902578.00 L 26375236.00 30902578.00 L 26375236.00 31632854.00  zM 27039171.70 31879128.23 m -357393.77 0 a 357393.77 357393.77 0 1 1 714787.55 0a 357393.77 357393.77 0 1 1 -714787.55 0M 29002388.00 32079783.00 L 28643282.00 32079783.00 L 28643282.00 31702337.00 L 29002388.00 31702337.00 L 29002388.00 32079783.00  zM 30039370.13 27913386.07 m -150528.93 0 a 150528.93 150528.93 0 1 1 301057.86 0a 150528.93 150528.93 0 1 1 -301057.86 0M 30993623.00 27465000.00 L 30698347.00 27465000.00 L 30698347.00 27071298.00 L 30993623.00 27071298.00 L 30993623.00 27231927.47 L 31002661.00 27186489.00 A 150529.62 150529.62 0 1 1 31002661.00 27301699.00 L 30993623.00 27256260.53 L 30993623.00 27465000.00  zM 31367639.00 28449252.00 L 31072363.00 28449252.00 L 31072363.00 28055550.00 L 31367639.00 28055550.00 L 31367639.00 28449252.00  zM 29370078.13 28503938.07 m -150528.93 0 a 150528.93 150528.93 0 1 1 301057.86 0a 150528.93 150528.93 0 1 1 -301057.86 0M 29213819.00 30365138.00 L 28817677.00 30365138.00 L 28817677.00 29949824.00 L 29213819.00 29949824.00 L 29213819.00 30365138.00  zM 30162638.00 30365138.00 L 29766496.00 30365138.00 L 29766496.00 29949824.00 L 30162638.00 29949824.00 L 30162638.00 30365138.00  zM 29213819.00 30936516.00 L 28817677.00 30936516.00 L 28817677.00 30521202.00 L 29213819.00 30521202.00 L 29213819.00 30936516.00  zM 30162638.00 30936516.00 L 29766496.00 30936516.00 L 29766496.00 30521202.00 L 30162638.00 30521202.00 L 30162638.00 30936516.00  zM 31136728.00 31674846.00 L 30693450.00 31674846.00 L 30693450.00 31297594.00 L 31136728.00 31297594.00 L 31136728.00 31674846.00  zM 31188976.00 32513778.00 L 31031496.00 32513778.00 L 31031496.00 32226376.00 L 31188976.00 32226376.00 L 31188976.00 32513778.00  zM 31395670.00 32513778.00 L 31218504.00 32513778.00 L 31218504.00 32226376.00 L 31395670.00 32226376.00 L 31395670.00 32513778.00  zM 24917157.66 32879120.89 m -357401.11 0 a 357401.11 357401.11 0 1 1 714802.22 0a 357401.11 357401.11 0 1 1 -714802.22 0M 24917157.66 33879120.89 m -357401.11 0 a 357401.11 357401.11 0 1 1 714802.22 0a 357401.11 357401.11 0 1 1 -714802.22 0M 25590551.13 34842520.07 m -150528.93 0 a 150528.93 150528.93 0 1 1 301057.86 0a 150528.93 150528.93 0 1 1 -301057.86 0M 27039171.70 32879128.23 m -357393.77 0 a 357393.77 357393.77 0 1 1 714787.55 0a 357393.77 357393.77 0 1 1 -714787.55 0M 27039171.70 33879128.23 m -357393.77 0 a 357393.77 357393.77 0 1 1 714787.55 0a 357393.77 357393.77 0 1 1 -714787.55 0M 25590551.13 34409449.07 m -150528.93 0 a 150528.93 150528.93 0 1 1 301057.86 0a 150528.93 150528.93 0 1 1 -301057.86 0M 28307086.13 32480316.07 m -150528.93 0 a 150528.93 150528.93 0 1 1 301057.86 0a 150528.93 150528.93 0 1 1 -301057.86 0M 29002388.00 32651993.00 L 28643282.00 32651993.00 L 28643282.00 32274547.00 L 29002388.00 32274547.00 L 29002388.00 32651993.00  zM 28837032.00 34059040.00 L 28477926.00 34059040.00 L 28477926.00 33681594.00 L 28837032.00 33681594.00 L 28837032.00 34059040.00  zM 28110236.13 34488190.07 m -150528.93 0 a 150528.93 150528.93 0 1 1 301057.86 0a 150528.93 150528.93 0 1 1 -301057.86 0M 28837032.00 34631250.00 L 28477926.00 34631250.00 L 28477926.00 34253804.00 L 28837032.00 34253804.00 L 28837032.00 34631250.00  zM 30805118.00 32513778.00 L 30627952.00 32513778.00 L 30627952.00 32226376.00 L 30805118.00 32226376.00 L 30805118.00 32513778.00  zM 30992126.00 32513778.00 L 30834646.00 32513778.00 L 30834646.00 32226376.00 L 30992126.00 32226376.00 L 30992126.00 32513778.00  zM 30826771.00 32720471.00 L 30519685.00 32720471.00 L 30519685.00 32523621.00 L 30826771.00 32523621.00 L 30826771.00 32720471.00  zM 30805118.00 33017716.00 L 30627952.00 33017716.00 L 30627952.00 32730314.00 L 30805118.00 32730314.00 L 30805118.00 33017716.00  zM 31188976.00 33017716.00 L 31031496.00 33017716.00 L 31031496.00 32730314.00 L 31188976.00 32730314.00 L 31188976.00 33017716.00  zM 30992126.00 33017716.00 L 30834646.00 33017716.00 L 30834646.00 32730314.00 L 30992126.00 32730314.00 L 30992126.00 33017716.00  zM 30282132.00 34096908.00 L 29885990.00 34096908.00 L 29885990.00 33681594.00 L 30282132.00 33681594.00 L 30282132.00 34096908.00  zM 31395670.00 33017716.00 L 31218504.00 33017716.00 L 31218504.00 32730314.00 L 31395670.00 32730314.00 L 31395670.00 33017716.00  zM 30282132.00 34668286.00 L 29885990.00 34668286.00 L 29885990.00 34252972.00 L 30282132.00 34252972.00 L 30282132.00 34668286.00  zM 30748031.13 33897638.07 m -150528.93 0 a 150528.93 150528.93 0 1 1 301057.86 0a 150528.93 150528.93 0 1 1 -301057.86 0M 31594477.13 20669286.07 m -150528.93 0 a 150528.93 150528.93 0 1 1 301057.86 0a 150528.93 150528.93 0 1 1 -301057.86 0M 31889753.13 21259837.07 m -150528.93 0 a 150528.93 150528.93 0 1 1 301057.86 0a 150528.93 150528.93 0 1 1 -301057.86 0M 31594477.13 21850388.07 m -150528.93 0 a 150528.93 150528.93 0 1 1 301057.86 0a 150528.93 150528.93 0 1 1 -301057.86 0M 31889753.13 22440939.07 m -150528.93 0 a 150528.93 150528.93 0 1 1 301057.86 0a 150528.93 150528.93 0 1 1 -301057.86 0M 31594477.13 23031490.07 m -150528.93 0 a 150528.93 150528.93 0 1 1 301057.86 0a 150528.93 150528.93 0 1 1 -301057.86 0M 32185028.13 23031490.07 m -150528.93 0 a 150528.93 150528.93 0 1 1 301057.86 0a 150528.93 150528.93 0 1 1 -301057.86 0M 31889753.13 23622041.07 m -150528.93 0 a 150528.93 150528.93 0 1 1 301057.86 0a 150528.93 150528.93 0 1 1 -301057.86 0M 31594477.13 24212592.07 m -150528.93 0 a 150528.93 150528.93 0 1 1 301057.86 0a 150528.93 150528.93 0 1 1 -301057.86 0M 31889753.13 24803143.07 m -150528.93 0 a 150528.93 150528.93 0 1 1 301057.86 0a 150528.93 150528.93 0 1 1 -301057.86 0M 31594477.13 25393694.07 m -150528.93 0 a 150528.93 150528.93 0 1 1 301057.86 0a 150528.93 150528.93 0 1 1 -301057.86 0M 31741655.00 27465000.00 L 31446379.00 27465000.00 L 31446379.00 27071298.00 L 31741655.00 27071298.00 L 31741655.00 27465000.00  zM 32185028.13 20669286.07 m -150528.93 0 a 150528.93 150528.93 0 1 1 301057.86 0a 150528.93 150528.93 0 1 1 -301057.86 0M 32185028.13 21850388.07 m -150528.93 0 a 150528.93 150528.93 0 1 1 301057.86 0a 150528.93 150528.93 0 1 1 -301057.86 0M 32185028.13 24212592.07 m -150528.93 0 a 150528.93 150528.93 0 1 1 301057.86 0a 150528.93 150528.93 0 1 1 -301057.86 0M 33070859.13 28110232.07 m -150528.93 0 a 150528.93 150528.93 0 1 1 301057.86 0a 150528.93 150528.93 0 1 1 -301057.86 0M 33622040.13 28110232.07 m -150528.93 0 a 150528.93 150528.93 0 1 1 301057.86 0a 150528.93 150528.93 0 1 1 -301057.86 0M 34173221.13 28110232.07 m -150528.93 0 a 150528.93 150528.93 0 1 1 301057.86 0a 150528.93 150528.93 0 1 1 -301057.86 0M 36466536.00 22687007.00 L 35305118.00 22687007.00 L 35305118.00 21998031.00 L 36466536.00 21998031.00 L 36466536.00 22687007.00  zM 38828740.00 22687007.00 L 37667322.00 22687007.00 L 37667322.00 21998031.00 L 38828740.00 21998031.00 L 38828740.00 22687007.00  zM 40011811.00 24968502.00 L 39342521.00 24968502.00 L 39342521.00 24377952.00 L 40011811.00 24377952.00 L 40011811.00 24968502.00  zM 34724402.13 28110232.07 m -150528.93 0 a 150528.93 150528.93 0 1 1 301057.86 0a 150528.93 150528.93 0 1 1 -301057.86 0M 38033464.00 26813132.00 L 35769686.00 26813132.00 A 476529.92 476529.92 0 0 1 35293167.00 26336613.00 L 35293167.00 25450787.00 A 476522.59 476522.59 0 0 1 35769686.00 24974268.00 L 38033464.00 24974268.00 A 476529.92 476529.92 0 0 1 38509983.00 25450787.00 L 38509983.00 26336613.00 A 476522.59 476522.59 0 0 1 38033464.00 26813132.00  zM 32519678.13 28110232.07 m -150528.93 0 a 150528.93 150528.93 0 1 1 301057.86 0a 150528.93 150528.93 0 1 1 -301057.86 0M 32244087.13 28661413.07 m -150528.93 0 a 150528.93 150528.93 0 1 1 301057.86 0a 150528.93 150528.93 0 1 1 -301057.86 0M 32795268.13 28661413.07 m -150528.93 0 a 150528.93 150528.93 0 1 1 301057.86 0a 150528.93 150528.93 0 1 1 -301057.86 0M 32519678.13 29212594.07 m -150528.93 0 a 150528.93 150528.93 0 1 1 301057.86 0a 150528.93 150528.93 0 1 1 -301057.86 0M 33070859.13 29212594.07 m -150528.93 0 a 150528.93 150528.93 0 1 1 301057.86 0a 150528.93 150528.93 0 1 1 -301057.86 0M 33346449.13 29763775.07 m -150528.93 0 a 150528.93 150528.93 0 1 1 301057.86 0a 150528.93 150528.93 0 1 1 -301057.86 0M 33346449.13 28661413.07 m -150528.93 0 a 150528.93 150528.93 0 1 1 301057.86 0a 150528.93 150528.93 0 1 1 -301057.86 0M 33622040.13 29212594.07 m -150528.93 0 a 150528.93 150528.93 0 1 1 301057.86 0a 150528.93 150528.93 0 1 1 -301057.86 0M 33897630.13 28661413.07 m -150528.93 0 a 150528.93 150528.93 0 1 1 301057.86 0a 150528.93 150528.93 0 1 1 -301057.86 0M 34448811.13 28661413.07 m -150528.93 0 a 150528.93 150528.93 0 1 1 301057.86 0a 150528.93 150528.93 0 1 1 -301057.86 0M 34173221.13 29212594.07 m -150528.93 0 a 150528.93 150528.93 0 1 1 301057.86 0a 150528.93 150528.93 0 1 1 -301057.86 0M 34999992.13 28661413.07 m -150528.93 0 a 150528.93 150528.93 0 1 1 301057.86 0a 150528.93 150528.93 0 1 1 -301057.86 0M 34724402.13 29212594.07 m -150528.93 0 a 150528.93 150528.93 0 1 1 301057.86 0a 150528.93 150528.93 0 1 1 -301057.86 0M 34999992.13 29763775.07 m -150528.93 0 a 150528.93 150528.93 0 1 1 301057.86 0a 150528.93 150528.93 0 1 1 -301057.86 0M 38033463.00 29647778.00 L 35769685.00 29647778.00 A 476522.59 476522.59 0 0 1 35293166.00 29171259.00 L 35293166.00 28285433.00 A 476522.59 476522.59 0 0 1 35769685.00 27808914.00 L 38033463.00 27808914.00 A 476522.59 476522.59 0 0 1 38509982.00 28285433.00 L 38509982.00 29171259.00 A 476522.59 476522.59 0 0 1 38033463.00 29647778.00  zM 38858259.13 28661413.07 m -150528.93 0 a 150528.93 150528.93 0 1 1 301057.86 0a 150528.93 150528.93 0 1 1 -301057.86 0M 39133850.13 29212594.07 m -150528.93 0 a 150528.93 150528.93 0 1 1 301057.86 0a 150528.93 150528.93 0 1 1 -301057.86 0M 39133850.13 28110232.07 m -150528.93 0 a 150528.93 150528.93 0 1 1 301057.86 0a 150528.93 150528.93 0 1 1 -301057.86 0M 39685031.13 28110232.07 m -150528.93 0 a 150528.93 150528.93 0 1 1 301057.86 0a 150528.93 150528.93 0 1 1 -301057.86 0M 39960621.13 28661413.07 m -150528.93 0 a 150528.93 150528.93 0 1 1 301057.86 0a 150528.93 150528.93 0 1 1 -301057.86 0M 39409440.13 28661413.07 m -150528.93 0 a 150528.93 150528.93 0 1 1 301057.86 0a 150528.93 150528.93 0 1 1 -301057.86 0M 39685031.13 29212594.07 m -150528.93 0 a 150528.93 150528.93 0 1 1 301057.86 0a 150528.93 150528.93 0 1 1 -301057.86 0M 32244087.13 29763775.07 m -150528.93 0 a 150528.93 150528.93 0 1 1 301057.86 0a 150528.93 150528.93 0 1 1 -301057.86 0M 32519678.13 30314956.07 m -150528.93 0 a 150528.93 150528.93 0 1 1 301057.86 0a 150528.93 150528.93 0 1 1 -301057.86 0M 31456692.13 30984253.07 m -150528.93 0 a 150528.93 150528.93 0 1 1 301057.86 0a 150528.93 150528.93 0 1 1 -301057.86 0M 31668755.00 31674846.00 L 31225477.00 31674846.00 L 31225477.00 31297594.00 L 31668755.00 31297594.00 L 31668755.00 31674846.00  zM 31889763.13 32086615.07 m -150528.93 0 a 150528.93 150528.93 0 1 1 301057.86 0a 150528.93 150528.93 0 1 1 -301057.86 0M 32660408.00 32081678.00 L 32282962.00 32081678.00 L 32282962.00 31722572.00 L 32660408.00 31722572.00 L 32660408.00 32081678.00  zM 32795268.13 29763775.07 m -150528.93 0 a 150528.93 150528.93 0 1 1 301057.86 0a 150528.93 150528.93 0 1 1 -301057.86 0M 33070859.13 30314956.07 m -150528.93 0 a 150528.93 150528.93 0 1 1 301057.86 0a 150528.93 150528.93 0 1 1 -301057.86 0M 33897630.13 29763775.07 m -150528.93 0 a 150528.93 150528.93 0 1 1 301057.86 0a 150528.93 150528.93 0 1 1 -301057.86 0M 33622040.13 30314956.07 m -150528.93 0 a 150528.93 150528.93 0 1 1 301057.86 0a 150528.93 150528.93 0 1 1 -301057.86 0M 33232618.00 32081678.00 L 32855172.00 32081678.00 L 32855172.00 31722572.00 L 33232618.00 31722572.00 L 33232618.00 32081678.00  zM 31503937.00 32720471.00 L 31196851.00 32720471.00 L 31196851.00 32523621.00 L 31503937.00 32523621.00 L 31503937.00 32720471.00  zM 31811023.13 32834646.07 m -150528.93 0 a 150528.93 150528.93 0 1 1 301057.86 0a 150528.93 150528.93 0 1 1 -301057.86 0M 31889763.13 32480316.07 m -150528.93 0 a 150528.93 150528.93 0 1 1 301057.86 0a 150528.93 150528.93 0 1 1 -301057.86 0M 31690197.00 34096908.00 L 31294055.00 34096908.00 L 31294055.00 33681594.00 L 31690197.00 33681594.00 L 31690197.00 34096908.00  zM 31690197.00 34668286.00 L 31294055.00 34668286.00 L 31294055.00 34252972.00 L 31690197.00 34252972.00 L 31690197.00 34668286.00  zM 32086614.13 34842520.07 m -150528.93 0 a 150528.93 150528.93 0 1 1 301057.86 0a 150528.93 150528.93 0 1 1 -301057.86 0M 32661241.00 33099763.00 L 32245927.00 33099763.00 L 32245927.00 32703621.00 L 32661241.00 32703621.00 L 32661241.00 33099763.00  zM 33232619.00 33099763.00 L 32817305.00 33099763.00 L 32817305.00 32703621.00 L 33232619.00 32703621.00 L 33232619.00 33099763.00  zM 32322834.13 34251969.07 m -150528.93 0 a 150528.93 150528.93 0 1 1 301057.86 0a 150528.93 150528.93 0 1 1 -301057.86 0M 34163385.00 33225393.00 L 33710629.00 33225393.00 L 33710629.00 32575787.00 L 34163385.00 32575787.00 L 34163385.00 33225393.00  zM 34143701.00 34226377.00 L 33690945.00 34226377.00 L 33690945.00 33576771.00 L 34143701.00 33576771.00 L 34143701.00 34226377.00  zM 34448811.13 29763775.07 m -150528.93 0 a 150528.93 150528.93 0 1 1 301057.86 0a 150528.93 150528.93 0 1 1 -301057.86 0M 34173221.13 30314956.07 m -150528.93 0 a 150528.93 150528.93 0 1 1 301057.86 0a 150528.93 150528.93 0 1 1 -301057.86 0M 34724402.13 30314956.07 m -150528.93 0 a 150528.93 150528.93 0 1 1 301057.86 0a 150528.93 150528.93 0 1 1 -301057.86 0M 35275583.13 30314956.07 m -150528.93 0 a 150528.93 150528.93 0 1 1 301057.86 0a 150528.93 150528.93 0 1 1 -301057.86 0M 35826764.13 30314956.07 m -150528.93 0 a 150528.93 150528.93 0 1 1 301057.86 0a 150528.93 150528.93 0 1 1 -301057.86 0M 36377945.13 30314956.07 m -150528.93 0 a 150528.93 150528.93 0 1 1 301057.86 0a 150528.93 150528.93 0 1 1 -301057.86 0M 33937007.13 31220473.07 m -150528.93 0 a 150528.93 150528.93 0 1 1 301057.86 0a 150528.93 150528.93 0 1 1 -301057.86 0M 34163385.00 32224409.00 L 33710629.00 32224409.00 L 33710629.00 31574803.00 L 34163385.00 31574803.00 L 34163385.00 32224409.00  zM 35029527.00 32224409.00 L 34576771.00 32224409.00 L 34576771.00 31574803.00 L 35029527.00 31574803.00 L 35029527.00 32224409.00  zM 35029527.00 33225393.00 L 34576771.00 33225393.00 L 34576771.00 32575787.00 L 35029527.00 32575787.00 L 35029527.00 33225393.00  zM 35009843.00 34226377.00 L 34557087.00 34226377.00 L 34557087.00 33576771.00 L 35009843.00 33576771.00 L 35009843.00 34226377.00  zM 38307078.13 29763775.07 m -150528.93 0 a 150528.93 150528.93 0 1 1 301057.86 0a 150528.93 150528.93 0 1 1 -301057.86 0M 38031488.13 30314956.07 m -150528.93 0 a 150528.93 150528.93 0 1 1 301057.86 0a 150528.93 150528.93 0 1 1 -301057.86 0M 38582669.13 30314956.07 m -150528.93 0 a 150528.93 150528.93 0 1 1 301057.86 0a 150528.93 150528.93 0 1 1 -301057.86 0M 38858259.13 29763775.07 m -150528.93 0 a 150528.93 150528.93 0 1 1 301057.86 0a 150528.93 150528.93 0 1 1 -301057.86 0M 40011811.00 30244093.00 L 39342521.00 30244093.00 L 39342521.00 29653543.00 L 40011811.00 29653543.00 L 40011811.00 30244093.00  zM 36929126.13 30314956.07 m -150528.93 0 a 150528.93 150528.93 0 1 1 301057.86 0a 150528.93 150528.93 0 1 1 -301057.86 0M 37480307.13 30314956.07 m -150528.93 0 a 150528.93 150528.93 0 1 1 301057.86 0a 150528.93 150528.93 0 1 1 -301057.86 0M 37086611.00 32246157.00 L 36377949.00 32246157.00 L 36377949.00 31537495.00 L 37086611.00 31537495.00 L 37086611.00 32246157.00  zM 36732281.70 32876073.23 m -357393.77 0 a 357393.77 357393.77 0 1 1 714787.55 0a 357393.77 357393.77 0 1 1 -714787.55 0M 36732281.70 33860325.23 m -357393.77 0 a 357393.77 357393.77 0 1 1 714787.55 0a 357393.77 357393.77 0 1 1 -714787.55 0"/>
</g>
</svg>
