<svg width="92.50000042mm" height="79.99999748mm" viewBox="0 0 36417323 31496062"  version="1.1" xmlns="http://www.w3.org/2000/svg" xmlns:xlink="http://www.w3.org/1999/xlink">
<desc>
Origin 29527560 39370078 Bound 3937008 3937008 36417323 31496062
</desc>
<g fill-rule="evenodd" fill="rgb(0, 0, 255)" stroke="black" stroke-width="1" transform="translate(0, 31496062) scale(1, -1) translate(-3937008, -3937008)">
<path id="N" d="M 22795141.97 5498823.69 m -327599.99 0 a 327599.99 327599.99 0 1 1 655199.97 0a 327599.99 327599.99 0 1 1 -655199.97 0M 22795141.22 5498814.65 m -220780.35 0 a 220780.35 220780.35 0 1 1 441560.70 0a 220780.35 220780.35 0 1 1 -441560.70 0"/>
<path id="N" d="M 12486728.00 17040831.00 L 12455695.00 17020096.26 L 12455695.00 15814548.74 L 12486728.00 15793814.00 A 120431.73 120431.73 0 1 0 12316422.00 15793814.00 L 12347455.00 15814548.74 L 12347455.00 17020096.26 L 12316422.00 17040831.00 A 120431.73 120431.73 0 1 0 12486728.00 17040831.00  z"/>
<path id="N" d="M 19787591.00 18243905.00 L 19746023.00 18216130.01 L 19746023.00 17797653.00 L 20804995.26 17797653.00 L 20828430.00 17807360.00 A 297823.05 297823.05 0 1 0 20828430.00 17232010.00 L 20804995.26 17241717.00 L 19076894.74 17241717.00 L 19053460.00 17232010.00 A 297823.05 297823.05 0 1 0 19053460.00 17807360.00 L 19076894.74 17797653.00 L 19545317.00 17797653.00 L 19545317.00 18216130.01 L 19503749.00 18243905.00 A 200706.53 200706.53 0 1 0 19787591.00 18243905.00  z"/>
<path id="N" d="M 32998539.00 12552642.00 L 32967506.00 12531907.26 L 32967507.00 9556502.00 L 32951655.00 9518233.00 L 32320295.00 8886873.00 L 32282023.59 8871022.00 L 31835671.04 8871022.00 L 31487080.60 8522430.77 L 31494362.00 8485826.00 A 120431.73 120431.73 0 1 0 31373938.00 8606250.00 L 31410542.77 8598968.60 L 31774985.00 8963411.00 L 31813256.41 8979262.00 L 32259608.00 8979262.00 L 32859266.00 9578920.00 L 32859266.00 12531907.26 L 32828233.00 12552642.00 A 120431.73 120431.73 0 1 0 32998539.00 12552642.00  z"/>
<path id="N" d="M 10400415.00 11857247.00 L 10382387.00 11853660.88 L 10382388.00 11761874.00 L 10366534.29 11723604.29 L 10218835.00 11575904.00 L 10180563.59 11560053.00 L 9830297.74 11560053.00 L 9809563.00 11529020.00 A 120431.73 120431.73 0 1 0 9809563.00 11699326.00 L 9830297.74 11668293.00 L 10158148.11 11668293.00 L 10274147.00 11784291.11 L 10274147.00 11880030.96 L 10269178.00 11883351.00 A 120431.73 120431.73 0 1 0 10400415.00 11857247.00  z"/>
<path id="N" d="M 25236221.00 24818587.00 L 21018388.00 24818587.00 L 20636009.03 24436208.03 A 491706.53 491706.53 0 0 0 20285952.00 24087469.00 A 496388.80 496388.80 0 0 0 19661108.00 24566929.00 L 19661108.00 24659658.00 A 496366.14 496366.14 0 0 0 19806492.00 25010647.00 L 20461794.00 25665949.00 A 496370.60 496370.60 0 0 0 20812783.00 25811333.00 L 25236221.00 25811333.00 A 496370.60 496370.60 0 1 0 25236221.00 24818587.00  z"/>
<path id="N" d="M 30045783.00 13497524.00 L 30014750.00 13476789.26 L 30014750.00 8917547.00 L 30190991.56 8741305.44 L 30196851.00 8742471.00 A 120431.73 120431.73 0 1 0 30085594.00 8668131.00 L 30095806.01 8683414.99 L 29922361.00 8856860.00 L 29906510.00 8895131.41 L 29906510.00 13476789.26 L 29875477.00 13497524.00 A 120431.73 120431.73 0 1 0 30045783.00 13497524.00  z"/>
<path id="N" d="M 19012407.00 25397042.00 L 18963982.00 25348617.00 A 496370.60 496370.60 0 0 0 18612993.00 25203233.00 L 14740526.46 25203233.00 L 14736377.00 25200049.00 A 496393.52 496393.52 0 0 0 14137201.00 25980910.00 L 14206886.00 26050595.00 A 496370.60 496370.60 0 0 0 14557875.00 26195979.00 L 18456870.83 26195979.00 L 18532946.00 26227490.00 A 496364.25 496364.25 0 0 0 19012407.00 25397042.00  z"/>
<path id="N" d="M 11653544.00 31224408.00 L 10590552.00 31224408.00 L 10590552.00 32287400.00 L 11653544.00 32287400.00 L 11653544.00 31224408.00  zM 11122049.70 31755897.23 m -357393.77 0 a 357393.77 357393.77 0 1 1 714787.55 0a 357393.77 357393.77 0 1 1 -714787.55 0"/>
<path id="N" d="M 11653544.00 22372046.00 L 10590552.00 22372046.00 L 10590552.00 23435038.00 L 11653544.00 23435038.00 L 11653544.00 22372046.00  zM 11122049.70 22903535.23 m -357393.77 0 a 357393.77 357393.77 0 1 1 714787.55 0a 357393.77 357393.77 0 1 1 -714787.55 0"/>
<path id="N" d="M 11653544.00 13318897.00 L 10590552.00 13318897.00 L 10590552.00 14381889.00 L 11653544.00 14381889.00 L 11653544.00 13318897.00  zM 11122048.73 13850393.56 m -357386.44 0 a 357386.44 357386.44 0 1 1 714772.87 0a 357386.44 357386.44 0 1 1 -714772.87 0"/>
<path id="N" d="M 25039370.00 20708660.26 L 29370079.00 20708657.00 L 29370079.00 19803145.00 L 28740159.00 19173224.00 L 26968505.00 19173224.00 L 26940217.52 19201511.56 L 26922118.23 19173224.00 L 25039370.00 19173224.00 L 25039370.00 18155662.00 L 24518474.00 18155662.00 L 24448819.00 18225317.00 L 24448819.00 21771653.00 L 24566929.00 21889763.00 L 25039370.00 21889763.00 L 25039370.00 20708660.26  z"/>
<path id="N" d="M 15408548.00 21292799.00 L 15387813.26 21323832.00 L 15179898.00 21323832.00 L 13739056.00 19882990.00 L 13700784.59 19867139.00 L 11647372.79 19867139.00 L 11658130.00 19785432.00 A 536100.68 536100.68 0 0 0 10657787.00 19517391.00 L 10616274.40 19617613.00 L 8697521.12 19617613.00 L 8693935.00 19599585.00 A 120412.98 120412.98 0 0 0 8497525.00 19560516.00 L 8476790.26 19591549.00 L 8098014.74 19591549.00 L 8077280.00 19560516.00 A 120431.73 120431.73 0 1 0 8077280.00 19730822.00 L 8098014.74 19699789.00 L 8476790.26 19699789.00 L 8497525.00 19730822.00 A 120431.73 120431.73 0 0 0 8667831.00 19730822.00 L 8671151.04 19725853.00 L 10593809.93 19725853.00 L 10585966.00 19785432.00 A 536100.68 536100.68 0 0 0 11586309.00 20053473.00 L 11618656.04 19975379.00 L 13678369.00 19975379.00 L 15119211.00 21416221.00 L 15157482.41 21432072.00 L 15387813.26 21432072.00 L 15408548.00 21463105.00 A 120431.73 120431.73 0 1 0 15408548.00 21292799.00  zM 11122049.70 19785425.23 m -357393.77 0 a 357393.77 357393.77 0 1 1 714787.55 0a 357393.77 357393.77 0 1 1 -714787.55 0"/>
<path id="N" d="M 10604233.00 28499046.00 L 10593091.22 28583674.00 L 10084041.01 28583674.00 L 8636798.00 27136430.01 L 8636798.00 26720060.74 L 8667831.00 26699326.00 A 120431.73 120431.73 0 1 0 8497525.00 26699326.00 L 8528558.00 26720060.74 L 8528557.00 27158848.00 L 8544409.00 27197117.00 L 10023355.00 28676063.00 L 10061624.00 28691914.00 L 10593091.22 28691914.00 L 10604233.00 28776542.00 A 536061.18 536061.18 0 1 0 10604233.00 28499046.00  zM 11122049.70 28637787.23 m -357393.77 0 a 357393.77 357393.77 0 1 1 714787.55 0a 357393.77 357393.77 0 1 1 -714787.55 0"/>
<path id="N" d="M 11122058.88 10732301.13 m -536061.18 0 a 536061.18 536061.18 0 1 1 1072122.35 0a 536061.18 536061.18 0 1 1 -1072122.35 0M 11122048.73 10732283.56 m -357386.44 0 a 357386.44 357386.44 0 1 1 714772.87 0a 357386.44 357386.44 0 1 1 -714772.87 0"/>
<path id="N" d="M 20941658.00 20191312.00 L 20936214.29 20163945.60 L 21495881.02 19604278.00 L 21602125.81 19604278.00 L 21607761.00 19612712.00 A 120431.73 120431.73 0 1 0 21581657.00 19481475.00 L 21578760.14 19496038.00 L 21473464.00 19496037.00 L 21435194.29 19511890.71 L 20867077.04 20080007.07 A 120104.58 120104.58 0 1 0 20941658.00 20191312.00  z"/>
<path id="N" d="M 32407988.00 34166815.00 L 32376955.00 34146080.26 L 32376956.00 32519685.00 L 32361104.00 32481416.00 L 32002906.63 32123218.63 L 32010188.00 32086614.00 A 120431.73 120431.73 0 1 0 31889764.00 32207038.00 L 31926368.63 32199756.63 L 32268715.00 32542103.00 L 32268715.00 34146080.26 L 32237682.00 34166815.00 A 120431.73 120431.73 0 1 0 32407988.00 34166815.00  z"/>
<path id="N" d="M 11804171.00 33550021.00 L 11806488.21 33538372.00 L 12781280.82 33538372.00 L 12788863.00 33549720.00 A 120431.73 120431.73 0 1 0 12762759.00 33418483.00 L 12760441.79 33430132.00 L 11785649.18 33430132.00 L 11778067.00 33418784.00 A 120431.73 120431.73 0 1 0 11804171.00 33550021.00  z"/>
<path id="N" d="M 25505399.00 34324295.00 L 25484664.26 34355328.00 L 21995651.74 34355328.00 L 21974917.00 34324295.00 A 120431.73 120431.73 0 1 0 21974917.00 34494601.00 L 21995651.74 34463568.00 L 25484664.26 34463568.00 L 25505399.00 34494601.00 A 120431.73 120431.73 0 1 0 25505399.00 34324295.00  z"/>
<path id="N" d="M 8476265.00 12670752.00 L 8455530.26 12701785.00 L 8137384.74 12701785.00 L 8116650.00 12670752.00 A 120431.73 120431.73 0 1 0 8116650.00 12841058.00 L 8137384.74 12810025.00 L 8455530.26 12810025.00 L 8476265.00 12841058.00 A 120431.73 120431.73 0 1 0 8476265.00 12670752.00  z"/>
<path id="N" d="M 15833185.00 16893980.00 L 15802152.00 16873245.26 L 15802152.00 16462580.74 L 15833185.00 16441846.00 A 120431.73 120431.73 0 1 0 15662879.00 16441846.00 L 15693912.00 16462580.74 L 15693912.00 16873245.26 L 15662879.00 16893980.00 A 120431.73 120431.73 0 1 0 15833185.00 16893980.00  z"/>
<path id="N" d="M 24505371.00 31078488.00 L 24496319.56 31092035.00 L 24420544.02 31092035.00 L 23615551.00 30287041.02 L 23615551.00 26736578.00 L 23893993.00 26458136.00 L 24006015.96 26458136.00 L 24009336.00 26463105.00 A 120431.73 120431.73 0 1 0 23983232.00 26331868.00 L 23979645.88 26349896.00 L 23871575.00 26349895.00 L 23833306.00 26365747.00 L 23523162.00 26675891.00 L 23507311.00 26714162.41 L 23507310.00 30309459.00 L 23523162.00 30347728.00 L 24359858.00 31184424.00 L 24398129.41 31200275.00 L 24477387.21 31200275.00 L 24479267.00 31209725.00 A 120412.98 120412.98 0 1 0 24505371.00 31078488.00  z"/>
<path id="N" d="M 24917156.97 32879138.69 m -327599.99 0 a 327599.99 327599.99 0 1 1 655199.97 0a 327599.99 327599.99 0 1 1 -655199.97 0M 24917156.22 32879129.65 m -220780.35 0 a 220780.35 220780.35 0 1 1 441560.70 0a 220780.35 220780.35 0 1 1 -441560.70 0"/>
<path id="N" d="M 16266256.00 12787932.00 L 16240383.00 12770644.92 L 16240383.00 12411893.00 L 16224530.29 12373623.29 L 15999002.00 12148094.07 L 15999002.00 8819915.91 L 16142750.09 8676167.00 L 18700788.00 8676168.00 L 18739057.00 8660316.00 L 18979144.37 8420228.63 L 19015749.00 8427510.00 A 120431.73 120431.73 0 1 0 18895325.00 8307086.00 L 18902606.37 8343690.63 L 18678370.00 8567927.00 L 16120333.00 8567927.00 L 16082063.29 8583779.71 L 15906613.00 8759229.00 L 15890762.00 8797500.41 L 15890761.00 12170512.00 L 15906613.00 12208781.00 L 16132143.00 12434310.07 L 16132143.00 12763749.60 A 115984.33 115984.33 0 0 0 16095950.00 12958238.00 A 120431.73 120431.73 0 1 0 16266256.00 12787932.00  z"/>
<path id="N" d="M 19259641.97 6498823.69 m -327599.99 0 a 327599.99 327599.99 0 1 1 655199.97 0a 327599.99 327599.99 0 1 1 -655199.97 0M 19259641.22 6498814.65 m -220780.35 0 a 220780.35 220780.35 0 1 1 441560.70 0a 220780.35 220780.35 0 1 1 -441560.70 0"/>
<path id="N" d="M 40274052.00 34537854.22 L 40274052.99 20390089.53 L 40155812.00 20366570.00 L 40140753.00 20362002.00 L 40026667.00 20314747.00 L 40012787.00 20307328.00 L 39910113.00 20238723.00 L 39897947.00 20228739.00 L 39810630.00 20141422.00 L 39800646.00 20129256.00 L 39732041.00 20026582.00 L 39724622.00 20012702.00 L 39677367.00 19898617.00 L 39672799.00 19883557.00 L 39648708.00 19762445.00 L 39647165.00 19746782.00 L 39647165.00 19623295.00 L 39648708.00 19607633.00 L 39672799.00 19486520.00 L 39677367.00 19471461.00 L 39724622.00 19357375.00 L 39732041.00 19343495.00 L 39800646.00 19240821.00 L 39810630.00 19228655.00 L 39897947.00 19141338.00 L 39910113.00 19131354.00 L 40012787.00 19062749.00 L 40026667.00 19055330.00 L 40140752.00 19008075.00 L 40155812.00 19003507.00 L 40274053.00 18979987.28 L 40274053.00 8326819.56 A 906491.59 906491.59 0 0 0 39768359.00 7579894.20 L 30917877.87 4039702.35 L 30875394.94 4025761.76 L 30846097.50 4020119.28 L 30816394.60 4017285.20 L 12391203.19 4017285.04 A 1889717.58 1889717.58 0 0 0 11395044.27 4349338.08 L 4684931.27 9381923.59 A 1891404.34 1891404.34 0 0 0 4017286.00 10717211.68 L 4017286.00 28652865.32 A 1891361.68 1891361.68 0 0 0 4684932.87 29988154.94 L 11395044.19 35020738.87 A 1889922.30 1889922.30 0 0 0 12391203.19 35352791.96 L 39459114.02 35352792.00 A 908381.26 908381.26 0 0 0 40274052.00 34537854.22  zM 14619756.00 5334850.00 L 14625465.32 5324961.32 L 14270512.00 4970008.00 L 14196714.00 4970008.00 L 14139298.00 5027424.00 A 222382.84 222382.84 0 1 1 14139298.00 4657614.00 L 14145814.00 4664130.00 L 14333861.00 4664130.00 L 14392388.00 4675772.00 L 14442005.00 4708925.00 L 14841753.32 5108673.32 L 14851642.00 5102964.00 A 428478.63 428478.63 0 1 1 14619756.00 5334850.00  zM 15015610.00 6498807.84 m -428478.63 0 a 428478.63 428478.63 0 1 1 856957.26 0a 428478.63 428478.63 0 1 1 -856957.26 0M 15015611.22 7498814.65 m -220780.35 0 a 220780.35 220780.35 0 1 1 441560.70 0a 220780.35 220780.35 0 1 1 -441560.70 0M 11122048.73 7614173.56 m -357386.44 0 a 357386.44 357386.44 0 1 1 714772.87 0a 357386.44 357386.44 0 1 1 -714772.87 0M 11122048.00 10732279.14 m -634555.39 0 a 634555.39 634555.39 0 1 1 1269110.78 0a 634555.39 634555.39 0 1 1 -1269110.78 0M 17137625.00 5498807.84 m -428478.63 0 a 428478.63 428478.63 0 1 1 856957.26 0a 428478.63 428478.63 0 1 1 -856957.26 0M 17137625.00 6498807.84 m -428478.63 0 a 428478.63 428478.63 0 1 1 856957.26 0a 428478.63 428478.63 0 1 1 -856957.26 0M 17137626.22 7498814.65 m -220780.35 0 a 220780.35 220780.35 0 1 1 441560.70 0a 220780.35 220780.35 0 1 1 -441560.70 0M 19259640.00 5498807.84 m -428478.63 0 a 428478.63 428478.63 0 1 1 856957.26 0a 428478.63 428478.63 0 1 1 -856957.26 0M 19259640.00 6498807.84 m -428478.63 0 a 428478.63 428478.63 0 1 1 856957.26 0a 428478.63 428478.63 0 1 1 -856957.26 0M 11753544.00 14481889.00 L 10490552.00 14481889.00 L 10490552.00 13218897.00 L 11753544.00 13218897.00 L 11753544.00 14481889.00  zM 12183465.00 17169369.00 L 12183465.00 17107873.00 L 12121970.00 17107873.00 A 222383.27 222383.27 0 0 1 11947245.00 16933148.00 L 11947245.00 16871653.00 L 11903860.00 16871653.00 A 222383.27 222383.27 0 0 1 11762340.00 16529994.00 L 11794306.00 16498028.00 L 11794306.00 15491020.00 L 11758243.00 15454957.00 A 222382.84 222382.84 0 1 1 12161258.00 15288023.00 L 12161258.00 15293701.00 L 12208740.00 15293701.00 A 222383.27 222383.27 0 0 1 12383465.00 15468426.00 L 12383465.00 15490551.00 L 12444960.00 15490551.00 A 222383.27 222383.27 0 0 1 12586480.00 15832210.00 L 12554514.00 15864176.00 L 12554514.00 16970469.00 L 12586480.00 17002435.00 A 222382.84 222382.84 0 1 1 12183465.00 17169369.00  zM 11122049.70 16667315.23 m -357393.77 0 a 357393.77 357393.77 0 1 1 714787.55 0a 357393.77 357393.77 0 1 1 -714787.55 0M 16687475.00 14358133.00 L 16655509.00 14326167.00 L 15549216.00 14326167.00 L 15517250.00 14358133.00 A 222382.84 222382.84 0 0 1 15175591.00 14216613.00 L 15175591.00 14171406.91 L 14149249.96 13145065.00 L 9787758.00 13145065.00 L 8730191.00 14202632.00 L 8680574.00 14235785.00 L 8622047.00 14247427.00 L 8462602.00 14247427.00 L 8430636.00 14279393.00 A 222382.84 222382.84 0 1 1 8430636.00 13909583.00 L 8462602.00 13941549.00 L 8558698.00 13941549.00 L 8806940.57 13693306.43 L 8786229.72 13643306.00 L 8757403.00 13643306.00 L 8677239.00 13610101.00 L 8619209.00 13552071.00 L 8607586.00 13552071.00 L 8549059.00 13540429.00 L 8499442.00 13507276.00 L 8373451.00 13381285.00 L 8187012.00 13381285.00 L 8155046.00 13413251.00 A 222382.84 222382.84 0 1 1 7907948.00 13043441.00 L 7966505.91 13019185.53 L 7966505.91 12965065.47 L 7907948.00 12940810.00 A 222383.27 222383.27 0 1 1 8155046.00 12571000.00 L 8187012.00 12602966.00 L 8405903.00 12602966.00 L 8437869.00 12571000.00 L 8518033.00 12537795.00 L 8604802.15 12537795.00 L 8626589.00 12523237.49 L 8626589.00 11515748.00 L 8638231.00 11457221.00 L 8671384.00 11407604.00 L 10580131.16 9498856.03 L 10562423.00 9472354.00 A 634561.22 634561.22 0 1 1 10822922.00 9732853.00 L 10796419.97 9715144.84 L 9199692.74 11311871.39 L 9211424.52 11370851.03 L 9257408.00 11389898.00 L 9318764.00 11451254.00 L 9351969.00 11531418.00 L 9351969.00 11576624.85 L 9465811.59 11690467.27 L 9508199.75 11662144.40 L 9506300.00 11657558.00 A 222382.84 222382.84 0 0 1 9847959.00 11429268.00 L 9879925.00 11461234.00 L 10180566.00 11461234.00 L 10239093.00 11472876.00 L 10288710.00 11506029.00 L 10436411.00 11653730.00 L 10469564.00 11703347.00 L 10481206.00 11761874.00 L 10481206.00 11786925.00 L 10539236.00 11844955.00 L 10562750.39 11901723.79 L 10618635.30 11908084.69 L 10631533.00 11888782.00 A 634556.27 634556.27 0 1 1 11524604.00 12781853.00 L 11510406.28 12791339.65 L 11524920.67 12839187.00 L 14212599.00 12839187.00 L 14271126.00 12850829.00 L 14320743.00 12883982.00 L 15391879.91 13955118.00 L 15437086.00 13955118.00 L 15440776.01 13956646.45 L 15494170.54 13924642.99 L 15496430.74 13901694.74 L 15128077.00 13533341.00 L 15094924.00 13483724.00 L 15083282.00 13425197.00 L 15083282.00 12485474.00 L 15094924.00 12426947.00 L 15128077.00 12377330.00 L 15358873.00 12146533.16 L 15358873.00 8527916.00 L 15290982.00 8460025.00 L 14919295.00 8460025.00 L 14887329.00 8491991.00 A 222382.84 222382.84 0 1 1 14887329.00 8122181.00 L 14919295.00 8154147.00 L 15354331.00 8154147.00 L 15412858.00 8165789.00 L 15462475.00 8198942.00 L 15619956.00 8356423.00 L 15657664.86 8411952.26 L 15706202.45 8421459.55 L 15928720.00 8198942.00 L 15978337.00 8165789.00 L 16036864.00 8154147.00 L 16931100.00 8154147.00 L 16963066.00 8122181.00 A 222382.84 222382.84 0 0 1 17304725.00 8350471.00 L 17276294.85 8419107.50 L 17298375.75 8469108.00 L 18637439.00 8469108.00 L 18797639.00 8308908.00 L 18797639.00 8263701.00 A 222383.27 222383.27 0 1 1 19059134.00 8525196.00 L 19013927.00 8525196.00 L 18808932.00 8730191.00 L 18759315.00 8763344.00 L 18700788.00 8774986.00 L 16183682.00 8774986.00 L 16097821.00 8860847.00 L 16097821.00 12107163.00 L 16294407.00 12303749.00 L 16327560.00 12353366.00 L 16339202.00 12411893.00 L 16339202.00 12722730.00 L 16366008.00 12749536.00 A 222382.84 222382.84 0 1 1 15996198.00 12749536.00 L 16033324.00 12712410.00 L 16033324.00 12475242.00 L 15907795.40 12349713.40 L 15861601.00 12368847.75 L 15861601.00 13187792.00 L 15893567.00 13219758.00 A 222382.84 222382.84 0 0 1 15665277.00 13561417.00 L 15655312.67 13557289.64 L 15626989.81 13599677.81 L 15746210.00 13718898.00 L 15791417.00 13718898.00 A 222383.27 222383.27 0 0 1 15966142.00 13980392.15 L 15992800.23 14020289.00 L 16655509.00 14020289.00 L 16687475.00 13988323.00 A 222382.84 222382.84 0 1 1 16687475.00 14358133.00  zM 15563127.00 16855584.00 L 15595093.00 16823618.00 L 15595093.00 16512208.00 L 15563127.00 16480242.00 A 222382.84 222382.84 0 1 1 15932937.00 16480242.00 L 15900971.00 16512208.00 L 15900971.00 16823618.00 L 15932937.00 16855584.00 A 222382.84 222382.84 0 1 1 15563127.00 16855584.00  zM 8695349.00 20342385.00 L 8663383.00 20310419.00 L 7950791.00 20310419.00 L 7918825.00 20342385.00 A 222382.84 222382.84 0 1 1 7918825.00 19972575.00 L 7950791.00 20004541.00 L 8663383.00 20004541.00 L 8695349.00 19972575.00 A 222382.84 222382.84 0 1 1 8695349.00 20342385.00  zM 15370152.00 21562857.00 L 15338186.00 21530891.00 L 15157480.00 21530891.00 L 15098953.00 21519249.00 L 15049336.00 21486096.00 L 13637438.00 20074198.00 L 11685964.21 20074198.00 L 11681673.00 20084558.00 A 634556.27 634556.27 0 0 1 10490552.00 19847629.00 L 10490552.00 19824672.00 L 8712129.00 19824672.00 L 8706227.00 19830574.00 A 222382.84 222382.84 0 0 1 8459129.00 19830574.00 L 8427163.00 19798608.00 L 8147642.00 19798608.00 L 8115676.00 19830574.00 A 222382.84 222382.84 0 1 1 8115676.00 19460764.00 L 8147642.00 19492730.00 L 8427163.00 19492730.00 L 8459129.00 19460764.00 A 222382.84 222382.84 0 0 1 8764257.00 19518794.00 L 10548966.17 19518794.00 L 10562423.00 19486306.00 A 634556.27 634556.27 0 0 1 11753544.00 19723235.00 L 11753544.00 19768320.00 L 13700787.00 19768320.00 L 13759314.00 19779962.00 L 13808931.00 19813115.00 L 15220829.00 21225013.00 L 15338186.00 21225013.00 L 15370152.00 21193047.00 A 222382.84 222382.84 0 1 1 15370152.00 21562857.00  zM 14128420.00 19358133.00 L 14096454.00 19326167.00 L 13291981.00 19326167.00 L 13233454.00 19314525.00 L 13183837.00 19281373.00 L 12281780.95 18379316.00 L 11735494.37 18379316.00 L 11729276.00 18410578.00 A 634534.61 634534.61 0 1 1 11729276.00 18042176.00 L 11735494.37 18073438.00 L 12345130.00 18073438.00 L 12403657.00 18085080.00 L 12453274.00 18118233.00 L 13355330.95 19020289.00 L 14096454.00 19020289.00 L 14128420.00 18988323.00 A 222382.84 222382.84 0 1 1 14128420.00 19358133.00  zM 14522121.00 18452621.00 L 14481483.93 18411983.93 L 14448819.50 18396813.63 L 14416155.07 18411983.93 L 14375518.00 18452621.00 A 222382.84 222382.84 0 0 1 14067064.00 18144167.00 L 14099030.00 18112201.00 L 14099030.00 17192129.00 L 14067064.00 17160163.00 A 222382.84 222382.84 0 0 1 14436874.00 16913065.00 L 14442730.75 16927204.46 L 14492731.00 16917258.79 L 14492731.00 16730318.00 L 14460765.00 16698352.00 A 222382.84 222382.84 0 1 1 14830575.00 16698352.00 L 14798609.00 16730318.00 L 14798609.00 18112201.00 L 14830575.00 18144167.00 A 222382.84 222382.84 0 0 1 14522121.00 18452621.00  zM 15011946.00 18655978.00 L 15043912.00 18624012.00 L 15043912.00 17192129.00 L 15011946.00 17160163.00 A 222382.84 222382.84 0 1 1 15381756.00 17160163.00 L 15349790.00 17192129.00 L 15349790.00 18624012.00 L 15381756.00 18655978.00 A 222382.84 222382.84 0 1 1 15011946.00 18655978.00  zM 5625907.00 25766142.00 L 5671114.00 25766142.00 L 5850045.00 25587211.00 L 5899662.00 25554058.00 L 5915302.05 25550946.93 L 5917458.00 25545742.00 A 222383.27 222383.27 0 1 1 6058978.00 25887401.00 L 6004851.09 25864980.91 L 5887402.00 25982430.00 L 5887402.00 26027637.00 A 222383.27 222383.27 0 1 1 5625907.00 25766142.00  zM 10514820.00 28821995.00 L 10508601.63 28790733.00 L 10061624.00 28790733.00 L 10003096.00 28779091.00 L 9953479.00 28745938.00 L 8474534.00 27266992.00 L 8441381.00 27217375.00 L 8429739.00 27158848.00 L 8429739.00 26769688.00 L 8397773.00 26737722.00 A 222382.84 222382.84 0 1 1 8767583.00 26737722.00 L 8735617.00 26769688.00 L 8735617.00 26841845.77 L 8775513.85 26868504.00 L 8862283.00 26868504.00 L 8942447.00 26901709.00 L 8966538.00 26925800.00 L 10508601.63 26925800.00 L 10514820.00 26894538.00 A 634534.61 634534.61 0 1 1 10514820.00 27262940.00 L 10508601.63 27231678.00 L 8982288.00 27231678.00 L 8962397.79 27251568.21 L 8956016.90 27315898.72 L 10124973.97 28484855.00 L 10508601.63 28484855.00 L 10514820.00 28453593.00 A 634534.61 634534.61 0 1 1 10514820.00 28821995.00  zM 11122049.70 25519677.23 m -357393.77 0 a 357393.77 357393.77 0 1 1 714787.55 0a 357393.77 357393.77 0 1 1 -714787.55 0M 11753544.00 23535038.00 L 10490552.00 23535038.00 L 10490552.00 22272046.00 L 11753544.00 22272046.00 L 11753544.00 23535038.00  zM 15663853.00 22507739.00 L 15631887.00 22475773.00 L 13267717.00 22475773.00 L 13209190.00 22464131.00 L 13159573.00 22430978.00 L 12226021.00 21497426.00 L 11735494.37 21497426.00 L 11729276.00 21528688.00 A 634534.61 634534.61 0 0 1 10514820.00 21528688.00 L 10508014.24 21494473.00 L 7829729.00 21494473.00 L 7800715.00 21523487.00 A 222382.84 222382.84 0 1 1 7800715.00 21153677.00 L 7835633.00 21188595.00 L 10509189.01 21188595.00 L 10514820.00 21160286.00 A 634534.61 634534.61 0 0 1 11729276.00 21160286.00 L 11735494.37 21191548.00 L 12289370.00 21191548.00 L 12347897.00 21203190.00 L 12397514.00 21236343.00 L 13331066.00 22169895.00 L 15631887.00 22169895.00 L 15663853.00 22137929.00 A 222382.84 222382.84 0 1 1 15663853.00 22507739.00  zM 10562423.00 29897723.00 L 10580131.49 29871220.49 L 10231928.00 29523017.00 L 8738193.00 29523017.00 L 8706227.00 29554983.00 A 222382.84 222382.84 0 1 1 8706227.00 29185173.00 L 8738193.00 29217139.00 L 10295277.00 29217139.00 L 10353804.00 29228781.00 L 10403421.00 29261934.00 L 10796419.49 29654932.49 L 10822922.00 29637224.00 A 634561.22 634561.22 0 1 1 10562423.00 29897723.00  zM 11753544.00 32387400.00 L 10490552.00 32387400.00 L 10490552.00 31124408.00 L 11753544.00 31124408.00 L 11753544.00 32387400.00  zM 11816463.00 33319032.00 L 11828744.00 33331313.00 L 12698816.00 33331313.00 L 12750467.00 33279662.00 A 222382.84 222382.84 0 1 1 12750467.00 33649472.00 L 12738186.00 33637191.00 L 11868114.00 33637191.00 L 11816463.00 33688842.00 A 222382.84 222382.84 0 1 1 11816463.00 33319032.00  zM 13026058.00 34279393.00 L 12994092.00 34247427.00 L 12124019.00 34247427.00 L 12092053.00 34279393.00 A 222382.84 222382.84 0 1 1 12092053.00 33909583.00 L 12124019.00 33941549.00 L 12994092.00 33941549.00 L 13026058.00 33909583.00 A 222382.84 222382.84 0 1 1 13026058.00 34279393.00  zM 15015610.00 33879122.84 m -428478.63 0 a 428478.63 428478.63 0 1 1 856957.26 0a 428478.63 428478.63 0 1 1 -856957.26 0M 14505296.00 31145388.00 L 14558073.24 31092610.76 L 14582056.00 31056718.00 L 15791943.00 29846831.00 L 15791943.00 27021798.00 L 15602428.00 26832283.00 L 15586537.00 26832283.00 A 222383.27 222383.27 0 0 1 15503569.00 26432072.00 L 15756275.00 26432072.00 L 15814827.00 26490624.00 L 15848032.00 26570788.00 L 15848032.00 26645311.00 L 16053026.00 26850305.00 L 16086179.00 26899922.00 L 16097821.00 26958449.00 L 16097821.00 27148588.25 L 16144015.40 27167722.60 L 16616339.00 26695399.00 L 16665956.00 26662246.00 L 16724483.00 26650604.00 L 17030746.00 26650604.00 L 17104725.00 26576625.00 L 17104725.00 26531418.00 A 222383.27 222383.27 0 1 1 17507740.00 26698352.00 L 17455488.41 26750603.59 L 17466505.28 26793387.16 L 17470816.72 26800604.00 L 17878558.00 26800604.00 L 17878558.00 26690948.00 L 17846592.00 26658982.00 A 222382.84 222382.84 0 0 1 17907948.00 26350528.00 L 17922266.11 26344597.25 L 17912320.45 26294597.00 L 16031236.34 26294597.00 A 117995.46 117995.46 0 0 0 15858527.66 26294597.00 L 14557875.00 26294597.00 A 595009.48 595009.48 0 0 1 14137152.00 26120328.00 L 14067468.00 26050643.00 A 594988.04 594988.04 0 0 1 13904371.77 25516486.09 L 13901505.11 25513356.16 L 13854586.14 25495560.54 L 12965792.00 26384354.00 L 12916175.00 26417507.00 L 12857648.00 26429149.00 L 12737572.00 26429149.00 L 12705606.00 26461115.00 A 222382.84 222382.84 0 0 1 12363947.00 26232825.77 L 12322445.05 26202362.00 L 12279450.00 26202362.00 A 222383.27 222383.27 0 0 1 12104725.00 25940867.85 L 12095305.79 25926771.00 L 12043230.00 25926771.00 A 222383.27 222383.27 0 1 1 12210164.00 25523756.00 L 12242130.00 25555722.00 L 12922271.00 25555722.00 L 12973118.23 25504874.77 L 12966737.29 25440544.29 L 12925332.00 25399139.00 A 222382.84 222382.84 0 0 1 13066852.00 25057480.00 L 13112059.00 25057480.00 L 13250999.00 24918540.00 L 13250999.00 23680166.00 L 13262641.00 23621639.00 L 13291063.69 23579101.41 L 13290424.10 23571378.21 L 13248612.67 23553707.92 L 13236797.68 23554293.32 L 12751365.00 24039726.00 L 12751365.00 24647634.00 L 12783331.00 24679600.00 A 222382.84 222382.84 0 1 1 12380316.00 24759764.00 L 12385241.41 24747873.00 L 12357462.55 24706299.00 L 12318820.00 24706299.00 A 222383.27 222383.27 0 0 1 12177300.00 24364640.00 L 12209266.00 24332674.00 L 12209266.00 23530183.00 L 12220908.00 23471656.00 L 12254061.00 23422039.00 L 12949599.00 22726501.00 L 12999216.00 22693348.00 L 13057743.00 22681706.00 L 13230312.00 22681706.00 L 13262278.00 22649740.00 A 222382.84 222382.84 0 0 1 13570732.00 22958194.00 L 13538857.50 22990068.50 L 13592474.00 23043685.00 L 13625679.00 23123849.00 L 13625679.00 23210619.00 L 13609200.05 23250402.71 L 13634895.78 23313689.62 L 13661272.00 23324615.00 L 13722628.00 23385971.00 L 13755833.00 23466135.00 L 13755833.00 23507946.00 L 13797644.00 23507946.00 A 222383.27 222383.27 0 0 1 13972369.00 23763851.00 L 14053549.00 23763851.00 A 222383.27 222383.27 0 0 1 14228274.00 23938576.00 L 14228274.00 24000072.00 L 14289770.00 24000072.00 A 222383.27 222383.27 0 0 1 14431290.00 24341731.00 L 14376170.00 24396851.00 L 14376170.00 24486292.00 L 14364528.00 24544819.00 L 14331376.00 24594436.00 L 14326168.00 24599643.90 L 14326168.00 24960629.00 L 14316129.52 25011094.91 L 14334008.00 25036161.10 L 14352508.96 25052309.76 L 14372113.00 25046363.00 A 594969.97 594969.97 0 0 1 14715883.00 25080221.00 L 14761520.98 25104615.00 L 15869646.05 25104615.00 L 15884253.00 25082754.15 L 15884253.00 25000687.00 L 15836738.00 24953172.00 L 15803585.00 24903555.00 L 15791943.00 24845028.00 L 15791943.00 24171263.00 L 15759977.00 24139297.00 A 222382.84 222382.84 0 0 1 15901497.00 23797638.00 L 15946703.77 23797638.00 L 16309178.00 23435163.00 L 16358795.00 23402010.00 L 16417323.00 23390368.00 L 16815349.68 23390368.00 L 16848758.97 23340367.48 L 16829135.00 23292991.00 A 222382.84 222382.84 0 0 1 17170794.00 23064701.00 L 17208960.00 23102867.00 L 17409742.00 23102867.00 L 17435507.00 23077102.00 A 222382.84 222382.84 0 0 1 17777166.00 23305392.00 L 17762678.69 23340367.48 L 17796087.98 23390368.00 L 18190942.00 23390368.00 L 18222908.00 23358402.00 A 222382.84 222382.84 0 1 1 18222908.00 23728212.00 L 18190942.00 23696246.00 L 16480672.91 23696246.00 L 16162992.00 24013926.23 L 16162992.00 24059133.00 L 16129787.00 24139297.00 L 16097821.00 24171263.00 L 16097821.00 24781679.00 L 16137402.00 24821260.00 L 16145748.00 24821260.00 A 222383.27 222383.27 0 0 1 16320473.00 25082754.15 L 16335079.95 25104615.00 L 18612993.00 25104615.00 A 595009.48 595009.48 0 0 1 19033715.00 25278884.00 L 19082140.00 25327309.00 A 595040.45 595040.45 0 0 1 18433724.00 26297731.00 L 18427860.86 26294597.00 L 18150673.55 26294597.00 L 18140727.89 26344597.25 L 18155046.00 26350528.00 A 222383.27 222383.27 0 0 1 18216402.00 26658982.00 L 18184436.00 26690948.00 L 18184436.00 26894964.00 L 18172794.00 26953491.00 L 18139641.00 27003108.00 L 18081062.00 27061687.00 L 18031445.00 27094840.00 L 17972918.00 27106482.00 L 16849964.91 27106482.00 L 16452152.00 27504294.09 L 16452152.00 30172871.00 L 17289983.00 31010702.00 L 18777494.00 31010702.00 L 18809460.00 30978736.00 A 222382.84 222382.84 0 1 1 18809460.00 31348546.00 L 18777494.00 31316580.00 L 17226634.00 31316580.00 L 17168107.00 31304938.00 L 17118490.00 31271785.00 L 17054359.39 31207654.39 L 17001157.71 31225164.11 L 16974960.00 31288411.00 A 222383.27 222383.27 0 0 1 16666506.00 31349767.00 L 16620647.67 31303908.67 L 16565570.00 31292953.00 L 16515953.00 31259800.00 L 16026109.00 30769955.00 L 15992956.00 30720338.00 L 15981314.00 30661811.00 L 15981314.00 30155364.75 L 15935119.60 30136230.40 L 14890001.37 31181348.63 L 14908311.00 31225552.00 A 222382.84 222382.84 0 1 1 14505296.00 31145388.00  zM 19259641.22 31879129.65 m -220780.35 0 a 220780.35 220780.35 0 1 1 441560.70 0a 220780.35 220780.35 0 1 1 -441560.70 0M 15015611.22 31879129.65 m -220780.35 0 a 220780.35 220780.35 0 1 1 441560.70 0a 220780.35 220780.35 0 1 1 -441560.70 0M 17137626.22 31879129.65 m -220780.35 0 a 220780.35 220780.35 0 1 1 441560.70 0a 220780.35 220780.35 0 1 1 -441560.70 0M 17137625.00 32879122.84 m -428478.63 0 a 428478.63 428478.63 0 1 1 856957.26 0a 428478.63 428478.63 0 1 1 -856957.26 0M 15015610.00 32879122.84 m -428478.63 0 a 428478.63 428478.63 0 1 1 856957.26 0a 428478.63 428478.63 0 1 1 -856957.26 0M 17137625.00 33879122.84 m -428478.63 0 a 428478.63 428478.63 0 1 1 856957.26 0a 428478.63 428478.63 0 1 1 -856957.26 0M 19259640.00 32879122.84 m -428478.63 0 a 428478.63 428478.63 0 1 1 856957.26 0a 428478.63 428478.63 0 1 1 -856957.26 0M 19259640.00 33879122.84 m -428478.63 0 a 428478.63 428478.63 0 1 1 856957.26 0a 428478.63 428478.63 0 1 1 -856957.26 0M 22795140.00 5498807.84 m -428478.63 0 a 428478.63 428478.63 0 1 1 856957.26 0a 428478.63 428478.63 0 1 1 -856957.26 0M 22795140.00 6498807.84 m -428478.63 0 a 428478.63 428478.63 0 1 1 856957.26 0a 428478.63 428478.63 0 1 1 -856957.26 0M 22795141.22 7498814.65 m -220780.35 0 a 220780.35 220780.35 0 1 1 441560.70 0a 220780.35 220780.35 0 1 1 -441560.70 0M 19259641.22 7498814.65 m -220780.35 0 a 220780.35 220780.35 0 1 1 441560.70 0a 220780.35 220780.35 0 1 1 -441560.70 0M 21057554.00 14476243.00 L 21005903.00 14424592.00 L 20372051.00 14424592.00 L 20359770.00 14436873.00 A 222382.84 222382.84 0 0 1 20112672.00 14436873.00 L 20080706.00 14404907.00 L 18501972.00 14404907.00 L 18470006.00 14436873.00 A 222382.84 222382.84 0 1 1 18389842.00 14033858.00 L 18401734.00 14038783.82 L 18443308.00 14011004.96 L 18443308.00 13972363.00 A 222383.27 222383.27 0 0 1 18784967.00 13830843.00 L 18816933.00 13862809.00 L 19440271.11 13862809.00 L 19466930.00 13822911.15 L 19466930.00 13736142.00 L 19500135.00 13655978.00 L 19532101.00 13624012.00 L 19532101.00 13340511.92 L 19490527.00 13312733.06 L 19452834.00 13328346.00 A 222382.84 222382.84 0 0 1 19224544.00 12986687.00 L 19256510.00 12954721.00 L 19256510.00 9055118.00 L 19268152.00 8996591.00 L 19301305.00 8946974.00 L 20049337.00 8198942.00 L 20098954.00 8165789.00 L 20157481.00 8154147.00 L 22364171.00 8154147.00 L 22396137.00 8122181.00 A 222382.84 222382.84 0 0 1 22737796.00 8350471.00 L 22735895.32 8355059.65 L 22778283.48 8383382.52 L 23002094.00 8159572.00 L 23051711.00 8126419.00 L 23110238.00 8114777.00 L 24608265.00 8114777.00 L 24640231.00 8082811.00 A 222382.84 222382.84 0 0 1 24981890.00 8311101.00 L 24953459.85 8379737.50 L 24975540.75 8429738.00 L 26553333.00 8429738.00 L 26608514.42 8374556.58 L 26618619.00 8359434.00 L 26671654.00 8306399.00 L 26671654.00 8224331.00 A 222383.27 222383.27 0 1 1 26933149.00 8485826.00 L 26924803.00 8485826.00 L 26845011.58 8565617.42 L 26834907.00 8580740.00 L 26724826.00 8690821.00 L 26675209.00 8723974.00 L 26616682.00 8735616.00 L 23252327.00 8735616.00 L 22942791.00 9045152.00 L 22893174.00 9078305.00 L 22834647.00 9089947.00 L 20299570.84 9089947.00 L 20113569.00 9275948.16 L 20113569.00 13957169.00 L 20101927.00 14015696.00 L 20100358.49 14018043.44 L 20133505.69 14058433.41 L 20192836.00 14033858.00 L 20279606.00 14033858.00 L 20359770.00 14067063.00 L 20411421.00 14118714.00 L 21045273.00 14118714.00 L 21057554.00 14106433.00 A 222382.84 222382.84 0 1 1 21057554.00 14476243.00  zM 19837081.00 16945928.00 L 19805115.00 16913962.00 L 19643705.00 16913962.00 L 19611739.00 16945928.00 A 222382.84 222382.84 0 1 1 19611739.00 16576118.00 L 19643705.00 16608084.00 L 19805115.00 16608084.00 L 19837081.00 16576118.00 A 222382.84 222382.84 0 1 1 19837081.00 16945928.00  zM 19408130.00 18203556.00 L 19443358.00 18168328.00 L 19443358.00 17898516.00 L 19089787.91 17898516.00 L 19028417.00 17914960.00 A 398693.35 398693.35 0 1 1 19028417.00 17124410.00 L 19089787.91 17140854.00 L 20792102.09 17140854.00 L 20853473.00 17124410.00 A 398693.35 398693.35 0 1 1 20853473.00 17914960.00 L 20792102.09 17898516.00 L 19847982.00 17898516.00 L 19847982.00 18168328.00 L 19883210.00 18203556.00 A 299396.26 299396.26 0 1 1 19408130.00 18203556.00  zM 20956828.57 20399139.57 L 20900765.45 20394449.66 L 20864619.00 20409422.00 A 222382.84 222382.84 0 0 1 20777849.00 19973202.00 L 20834132.00 19973202.00 L 21365320.00 19442014.00 L 21414937.00 19408861.00 L 21473464.00 19397219.00 L 21514800.00 19397219.00 L 21569365.00 19342654.00 A 222382.84 222382.84 0 0 1 21877819.00 19651108.00 L 21843888.00 19685039.00 L 21877819.00 19718970.00 A 222382.84 222382.84 0 0 1 21649529.00 20060629.00 L 21595402.09 20038208.91 L 21359843.00 20273768.00 L 21359843.00 20318975.00 A 222383.27 222383.27 0 0 1 20956828.57 20399139.57  zM 25112672.00 13019550.00 L 25080706.00 12987584.00 L 22360240.00 12987584.00 L 22328274.00 13019550.00 A 222382.84 222382.84 0 1 1 22328274.00 12649740.00 L 22360240.00 12681706.00 L 25080706.00 12681706.00 L 25112672.00 12649740.00 A 222382.84 222382.84 0 1 1 25112672.00 13019550.00  zM 26968504.00 16873612.00 L 22677166.00 16873612.00 L 22638148.00 16865851.00 L 22605070.00 16843749.00 L 22526330.00 16765009.00 L 22504228.00 16731931.00 L 22496467.00 16692913.00 L 22496467.00 15433070.00 A 101958.15 101958.15 0 0 1 22598426.00 15331111.00 L 24724410.00 15331111.00 A 101958.15 101958.15 0 0 1 24826369.00 15433070.00 L 24826369.00 15807134.19 L 24935172.04 16079143.00 L 25590552.00 16079143.00 L 25629570.00 16086904.00 L 25662648.00 16109006.00 L 26026486.00 16472844.00 L 26394105.00 16472844.00 L 26394105.00 16338582.00 A 101958.15 101958.15 0 0 1 26496064.00 16236623.00 L 26968504.00 16236623.00 A 101958.15 101958.15 0 0 1 27070463.00 16338582.00 L 27070463.00 16771653.00 A 101958.15 101958.15 0 0 1 26968504.00 16873612.00  zM 24917323.00 5498807.84 m -428478.63 0 a 428478.63 428478.63 0 1 1 856957.26 0a 428478.63 428478.63 0 1 1 -856957.26 0M 24917323.00 6498807.84 m -428478.63 0 a 428478.63 428478.63 0 1 1 856957.26 0a 428478.63 428478.63 0 1 1 -856957.26 0M 24917324.22 7498814.65 m -220780.35 0 a 220780.35 220780.35 0 1 1 441560.70 0a 220780.35 220780.35 0 1 1 -441560.70 0M 26946457.00 5498807.84 m -428478.63 0 a 428478.63 428478.63 0 1 1 856957.26 0a 428478.63 428478.63 0 1 1 -856957.26 0M 26946457.00 6498807.84 m -428478.63 0 a 428478.63 428478.63 0 1 1 856957.26 0a 428478.63 428478.63 0 1 1 -856957.26 0M 26946458.22 7498814.65 m -220780.35 0 a 220780.35 220780.35 0 1 1 441560.70 0a 220780.35 220780.35 0 1 1 -441560.70 0M 29742520.00 13626062.00 L 29742520.00 13573984.55 L 29728424.15 13564566.00 A 222381.75 222381.75 0 0 1 29466930.00 13389841.00 L 29466930.00 13313427.89 L 29449238.13 13289816.12 L 29425627.70 13272126.00 L 29349214.00 13272126.00 A 222383.27 222383.27 0 0 1 29207694.00 12930467.00 L 29239660.00 12898501.00 L 29239660.00 8158978.00 L 29190844.00 8110162.00 A 222382.84 222382.84 0 0 1 29499298.00 7801708.00 L 29533151.00 7835561.00 L 29561491.00 7807221.00 A 222382.84 222382.84 0 0 1 29869945.00 8115675.00 L 29837979.00 8147641.00 L 29837979.00 8730780.72 L 29887979.43 8751491.57 L 29978741.00 8660730.00 L 29978741.00 8578662.00 A 222383.27 222383.27 0 1 1 30240236.00 8840157.00 L 30231890.00 8840157.00 L 30113569.00 8958478.00 L 30113569.00 13427162.00 L 30145535.00 13459128.00 A 222382.84 222382.84 0 1 1 29742520.00 13626062.00  zM 40177165.00 9842518.00 L 39311025.00 9842518.00 L 39311025.00 9055118.00 L 40177165.00 9055118.00 L 40177165.00 9842518.00  zM 40177165.00 15118109.00 L 39311025.00 15118109.00 L 39311025.00 14330709.00 L 40177165.00 14330709.00 L 40177165.00 15118109.00  zM 30794578.00 26780287.00 L 30748384.00 26761152.00 A 101962.77 101962.77 0 0 1 30685443.00 26666954.00 L 30685443.00 15756714.28 L 30635442.57 15736003.43 L 30595990.00 15775456.00 A 222382.84 222382.84 0 0 1 30348892.00 15775456.00 L 30297239.00 15723803.00 L 29702758.00 15723803.00 L 29690479.00 15736082.00 A 222382.84 222382.84 0 1 1 29690479.00 15366272.00 L 29742132.00 15417925.00 L 30336613.00 15417925.00 L 30348892.00 15405646.00 A 222382.84 222382.84 0 0 1 30595990.00 15405646.00 L 30635442.57 15445098.57 L 30685443.00 15424387.72 L 30685443.00 9448819.00 L 30693204.00 9409801.00 L 30715306.00 9376723.00 L 30990897.00 9101132.00 L 31023975.00 9079030.00 L 31062993.00 9071269.00 L 31674931.86 9071269.00 L 31676969.52 9068704.27 L 31693092.58 9021268.58 L 31375760.00 8703936.00 L 31330553.00 8703936.00 A 222383.27 222383.27 0 1 1 31592048.00 8442441.00 L 31592048.00 8487648.00 L 31876603.00 8772203.00 L 32282026.00 8772203.00 L 32340553.00 8783845.00 L 32390170.00 8816998.00 L 33021530.00 9448358.00 L 33054683.00 9497975.00 L 33066325.00 9556502.00 L 33066325.00 12482280.00 L 33098291.00 12514246.00 A 222382.84 222382.84 0 0 1 32870001.00 12855905.00 L 32829125.52 12838973.83 L 32779125.00 12872383.12 L 32779125.00 24842519.00 L 32771364.00 24881537.00 L 32749262.00 24914615.00 L 30905692.00 26758185.00 A 101958.15 101958.15 0 0 1 30794578.00 26780287.00  zM 20545743.00 21287267.00 L 20513777.00 21255301.00 L 19958665.00 21255301.00 L 19926699.00 21287267.00 A 222382.84 222382.84 0 1 1 19926699.00 20917457.00 L 19958665.00 20949423.00 L 20513777.00 20949423.00 L 20545743.00 20917457.00 A 222382.84 222382.84 0 1 1 20545743.00 21287267.00  zM 20169426.00 23026057.00 L 20201760.00 22993723.00 L 20201760.00 22748259.00 L 20170161.00 22716660.00 A 222382.84 222382.84 0 1 1 20539971.00 22716660.00 L 20507638.00 22748993.00 L 20507638.00 22994459.00 L 20539236.00 23026057.00 A 222382.84 222382.84 0 1 1 20169426.00 23026057.00  zM 25039370.00 21991722.00 L 24566929.00 21991722.00 L 24527911.00 21983961.00 L 24494833.00 21961859.00 L 24376723.00 21843749.00 L 24354621.00 21810671.00 L 24346860.00 21771653.00 L 24346860.00 18225317.00 L 24354621.00 18186299.00 L 24376723.00 18153221.00 L 24446378.00 18083566.00 L 24479456.00 18061464.00 L 24518474.00 18053703.00 L 25039370.00 18053703.00 A 101958.15 101958.15 0 0 1 25141329.00 18155662.00 L 25141329.00 19071265.00 L 26922118.00 19071265.00 L 26943991.00 19073639.00 L 26947921.35 19075359.26 L 26968505.00 19071265.00 L 28740159.00 19071265.00 L 28779177.00 19079026.00 L 28812255.00 19101128.00 L 29442175.00 19731049.00 L 29464277.00 19764127.00 L 29472038.00 19803145.00 L 29472038.00 20708657.00 A 101958.15 101958.15 0 0 1 29370079.00 20810616.00 L 25141329.00 20810618.99 L 25141329.00 21889763.00 A 101958.15 101958.15 0 0 1 25039370.00 21991722.00  zM 22515671.00 30962992.00 L 22560878.00 30962992.00 L 23172272.00 30351598.00 L 23172272.00 26853126.00 L 23151692.00 26832546.00 L 22649137.00 26832546.00 L 22643235.00 26838448.00 A 222382.84 222382.84 0 1 1 22701265.00 26526668.00 L 23215041.00 26526668.00 L 23273568.00 26538310.00 L 23323185.00 26571463.00 L 23378967.07 26627245.07 L 23443338.47 26620905.03 L 23453287.00 26606016.00 L 23763431.00 26295872.00 L 23781136.84 26284041.35 L 23765969.40 26234041.00 L 23365752.00 26234041.00 L 23312526.00 26287267.00 A 222382.84 222382.84 0 0 1 23004072.00 25978813.00 L 23022933.57 25959951.43 L 23002222.72 25909951.00 L 21846890.95 25909951.00 L 21832284.00 25931811.85 A 222381.75 222381.75 0 0 1 21490625.00 26160101.00 L 21463187.00 26132663.00 L 21026185.00 26132663.00 L 20989691.00 26169157.00 A 222382.84 222382.84 0 0 1 20648032.00 25940867.00 L 20654802.33 25924521.97 L 20633424.20 25879321.87 L 20585090.00 25864660.00 L 20482224.00 25809677.00 L 20392061.00 25735682.00 L 19736759.00 25080380.00 A 594988.04 594988.04 0 0 1 19562490.00 24659658.00 L 19562490.00 24566929.00 A 595009.48 595009.48 0 0 1 20707181.00 24339236.00 L 20719668.20 24380401.20 L 21059236.00 24719969.00 L 25236221.00 24719969.00 A 595009.48 595009.48 0 0 1 25463914.00 25864660.00 L 25419400.75 25878162.81 L 25426817.51 25928163.00 L 25889368.00 25928163.00 L 25939444.00 25878087.00 A 222382.84 222382.84 0 1 1 25939444.00 26247897.00 L 25925588.00 26234041.00 L 24324360.71 26234041.00 L 24291670.67 26284041.52 L 24312599.00 26334567.00 L 24312599.00 26377594.84 L 24318568.67 26382494.00 L 24844486.00 26382494.00 L 24876452.00 26350528.00 A 222382.84 222382.84 0 1 1 24876452.00 26720338.00 L 24844486.00 26688372.00 L 24381917.91 26688372.00 L 23950591.00 27119698.09 L 23950591.00 29931150.00 L 25024642.00 31005201.00 L 26562526.00 31005201.00 L 26588380.00 30979347.00 A 222382.84 222382.84 0 1 1 26588380.00 31349157.00 L 26550302.00 31311079.00 L 24961293.00 31311079.00 L 24902766.00 31299437.00 L 24853149.00 31266284.00 L 24836135.25 31249270.25 L 24787095.37 31259024.89 L 24775429.00 31287190.00 A 222383.27 222383.27 0 0 1 24466975.00 31348546.00 L 24417523.00 31299094.00 L 24398127.00 31299094.00 L 24339600.00 31287452.00 L 24289983.00 31254299.00 L 23512869.24 30477185.24 L 23455268.17 30490295.60 L 23433355.00 30523091.00 L 22777166.00 31179280.00 L 22777166.00 31224487.00 A 222383.27 222383.27 0 1 1 22515671.00 30962992.00  zM 24917156.22 31879129.65 m -220780.35 0 a 220780.35 220780.35 0 1 1 441560.70 0a 220780.35 220780.35 0 1 1 -441560.70 0M 22795141.22 31879129.65 m -220780.35 0 a 220780.35 220780.35 0 1 1 441560.70 0a 220780.35 220780.35 0 1 1 -441560.70 0M 22795140.00 32879122.84 m -428478.63 0 a 428478.63 428478.63 0 1 1 856957.26 0a 428478.63 428478.63 0 1 1 -856957.26 0M 25405647.00 34966068.00 L 25385205.57 34916718.00 L 22045279.00 34916718.00 L 22013313.00 34948684.00 A 222382.84 222382.84 0 0 1 21704859.00 34640230.00 L 21758475.50 34586613.50 L 21704859.00 34532997.00 A 222382.84 222382.84 0 0 1 22013313.00 34224543.00 L 22045279.00 34256509.00 L 22504003.59 34256509.00 L 22521753.58 34206508.58 L 22455213.00 34139968.00 A 428448.36 428448.36 0 1 1 23135067.00 34139968.00 L 23068526.42 34206508.58 L 23086276.41 34256509.00 L 24626018.59 34256509.00 L 24643768.58 34206508.58 L 24577228.00 34139968.00 A 428448.36 428448.36 0 1 1 25257082.00 34139968.00 L 25190541.42 34206508.58 L 25208291.41 34256509.00 L 25435037.00 34256509.00 L 25467003.00 34224543.00 A 222382.84 222382.84 0 0 1 25714101.00 34594353.00 L 25698094.10 34600983.27 L 25698094.10 34650983.73 L 25714101.00 34657614.00 A 222383.27 222383.27 0 1 1 25405647.00 34966068.00  zM 24917155.00 32879122.84 m -428478.63 0 a 428478.63 428478.63 0 1 1 856957.26 0a 428478.63 428478.63 0 1 1 -856957.26 0M 27039170.00 33879122.84 m -428478.63 0 a 428478.63 428478.63 0 1 1 856957.26 0a 428478.63 428478.63 0 1 1 -856957.26 0M 29326694.00 28285827.00 L 29371901.00 28285827.00 L 29532101.00 28125627.00 L 29532101.00 23960987.00 L 28781350.00 23210236.00 L 28736143.00 23210236.00 A 222383.27 222383.27 0 1 1 28903077.00 22807221.00 L 28959365.36 22863509.36 L 28989471.22 22864290.63 L 29014969.73 22859926.12 L 29027694.00 22829207.00 A 222383.27 222383.27 0 0 1 29430709.00 22909371.00 L 29430709.00 22954578.00 L 30147515.00 23671384.00 L 30180668.00 23721001.00 L 30192310.00 23779528.00 L 30192310.00 27757870.00 L 30224276.00 27789836.00 A 222382.84 222382.84 0 0 1 29915822.00 28098290.00 L 29887979.43 28070447.43 L 29837979.00 28091158.28 L 29837979.00 28188976.00 L 29826337.00 28247503.00 L 29793184.00 28297120.00 L 29588189.00 28502115.00 L 29588189.00 28547322.00 A 222383.27 222383.27 0 1 1 29326694.00 28285827.00  zM 27039171.22 31879129.65 m -220780.35 0 a 220780.35 220780.35 0 1 1 441560.70 0a 220780.35 220780.35 0 1 1 -441560.70 0M 27039170.00 32879122.84 m -428478.63 0 a 428478.63 428478.63 0 1 1 856957.26 0a 428478.63 428478.63 0 1 1 -856957.26 0M 31901710.00 34718970.00 L 31933676.00 34687004.00 L 31933676.00 32777376.00 L 31854725.00 32698425.00 L 31846379.00 32698425.00 A 222383.27 222383.27 0 0 1 31704859.00 32356766.00 L 31745496.07 32316128.93 L 31760666.37 32283464.50 L 31745496.07 32250800.07 L 31704859.00 32210163.00 A 222382.84 222382.84 0 1 1 32107874.00 32043229.00 L 32107874.00 32088436.00 L 32430979.00 32411541.00 L 32464132.00 32461158.00 L 32475774.00 32519685.00 L 32475774.00 34096453.00 L 32507740.00 34128419.00 A 222382.84 222382.84 0 0 1 32279450.85 34470078.00 L 32239554.00 34496736.23 L 32239554.00 34687004.00 L 32271520.00 34718970.00 A 222382.84 222382.84 0 1 1 31901710.00 34718970.00  zM 36732280.00 33860319.84 m -428478.63 0 a 428478.63 428478.63 0 1 1 856957.26 0a 428478.63 428478.63 0 1 1 -856957.26 0M 40110236.00 25066927.00 L 39244096.00 25066927.00 L 39244096.00 24279527.00 L 40110236.00 24279527.00 L 40110236.00 25066927.00  zM 40110236.00 30342518.00 L 39244096.00 30342518.00 L 39244096.00 29555118.00 L 40110236.00 29555118.00 L 40110236.00 30342518.00  zM 37157083.00 32316629.00 L 36307477.00 32316629.00 L 36307477.00 31467023.00 L 37157083.00 31467023.00 L 37157083.00 32316629.00  zM 36732280.00 32876067.84 m -428478.63 0 a 428478.63 428478.63 0 1 1 856957.26 0a 428478.63 428478.63 0 1 1 -856957.26 0"/>
<path id="N" d="M 9616265.00 12883982.00 L 9665882.00 12850829.00 L 9724409.00 12839187.00 L 10719175.33 12839187.00 L 10733689.72 12791339.65 L 10719492.00 12781853.00 A 634556.27 634556.27 0 0 1 10514820.00 12475539.00 L 10508601.63 12444277.00 L 9850394.00 12444277.00 L 9791867.00 12432635.00 L 9742250.00 12399483.00 L 9135680.85 11792913.00 L 9090474.00 11792913.00 L 9010310.00 11759708.00 L 8982467.43 11731865.43 L 8932467.00 11752576.28 L 8932467.00 13248421.00 L 8985693.00 13301647.00 L 9018898.00 13381811.00 L 9018898.00 13410637.72 L 9068898.43 13431348.57 L 9616265.00 12883982.00  z"/>
<path id="N" d="M 19259641.97 33879138.69 m -327599.99 0 a 327599.99 327599.99 0 1 1 655199.97 0a 327599.99 327599.99 0 1 1 -655199.97 0M 19259641.22 33879129.65 m -220780.35 0 a 220780.35 220780.35 0 1 1 441560.70 0a 220780.35 220780.35 0 1 1 -441560.70 0"/>
<path id="N" d="M 12447358.00 24403036.00 L 12416325.00 24382301.26 L 12416325.00 23552600.98 L 13080160.02 22888765.00 L 13279939.26 22888765.00 L 13300674.00 22919798.00 A 120431.73 120431.73 0 1 0 13300674.00 22749492.00 L 13279939.26 22780525.00 L 13057743.00 22780525.00 L 13019473.29 22796377.71 L 12323936.00 23491914.00 L 12308085.00 23530185.41 L 12308085.00 24382301.26 L 12277052.00 24403036.00 A 120431.73 120431.73 0 1 0 12447358.00 24403036.00  z"/>
<path id="N" d="M 22795141.97 6498823.69 m -327599.99 0 a 327599.99 327599.99 0 1 1 655199.97 0a 327599.99 327599.99 0 1 1 -655199.97 0M 22795141.22 6498814.65 m -220780.35 0 a 220780.35 220780.35 0 1 1 441560.70 0a 220780.35 220780.35 0 1 1 -441560.70 0"/>
<path id="N" d="M 19494602.00 13025083.00 L 19463569.00 13004348.26 L 19463569.00 9077536.00 L 20179899.00 8361206.00 L 22413798.26 8361206.00 L 22434533.00 8392239.00 A 120431.73 120431.73 0 1 0 22434533.00 8221933.00 L 22413798.26 8252966.00 L 20157481.00 8252965.00 L 20119212.00 8268817.00 L 19371180.00 9016849.00 L 19355329.00 9055120.41 L 19355329.00 13004348.26 L 19324296.00 13025083.00 A 120431.73 120431.73 0 1 0 19494602.00 13025083.00  z"/>
<path id="N" d="M 36732281.97 32876083.69 m -327599.99 0 a 327599.99 327599.99 0 1 1 655199.97 0a 327599.99 327599.99 0 1 1 -655199.97 0M 36732281.68 32876076.06 m -230814.94 0 a 230814.94 230814.94 0 1 1 461629.88 0a 230814.94 230814.94 0 1 1 -461629.88 0"/>
<path id="N" d="M 29477752.00 12968863.00 L 29446719.00 12948128.26 L 29446719.00 8081242.39 L 29460902.00 8071766.00 A 120431.73 120431.73 0 1 0 29329665.00 8097870.00 L 29338479.00 8099623.28 L 29338479.00 12948128.26 L 29307446.00 12968863.00 A 120431.73 120431.73 0 1 0 29477752.00 12968863.00  z"/>
<path id="N" d="M 19259641.97 5498823.69 m -327599.99 0 a 327599.99 327599.99 0 1 1 655199.97 0a 327599.99 327599.99 0 1 1 -655199.97 0M 19259641.22 5498814.65 m -220780.35 0 a 220780.35 220780.35 0 1 1 441560.70 0a 220780.35 220780.35 0 1 1 -441560.70 0"/>
<path id="N" d="M 14730823.00 18182563.00 L 14699790.00 18161828.26 L 14699790.00 16680690.74 L 14730823.00 16659956.00 A 120431.73 120431.73 0 1 0 14560517.00 16659956.00 L 14591550.00 16680690.74 L 14591550.00 18161828.26 L 14560517.00 18182563.00 A 120431.73 120431.73 0 1 0 14730823.00 18182563.00  z"/>
<path id="N" d="M 17137626.97 5498823.69 m -327599.99 0 a 327599.99 327599.99 0 1 1 655199.97 0a 327599.99 327599.99 0 1 1 -655199.97 0M 17137626.22 5498814.65 m -220780.35 0 a 220780.35 220780.35 0 1 1 441560.70 0a 220780.35 220780.35 0 1 1 -441560.70 0"/>
<path id="N" d="M 15282004.00 18694374.00 L 15250971.00 18673639.26 L 15250971.00 17142501.74 L 15282004.00 17121767.00 A 120431.73 120431.73 0 1 0 15111698.00 17121767.00 L 15142731.00 17142501.74 L 15142731.00 18673639.26 L 15111698.00 18694374.00 A 120431.73 120431.73 0 1 0 15282004.00 18694374.00  z"/>
<path id="N" d="M 12667210.00 26361363.00 L 12687944.74 26330330.00 L 12857648.00 26330331.00 L 12895917.00 26314479.00 L 14211498.00 24998898.00 L 14227349.00 24960629.00 L 14227349.00 24558711.68 L 14261500.00 24524561.00 L 14277351.00 24486289.59 L 14277351.00 24332446.26 L 14292469.00 24329439.00 A 120412.98 120412.98 0 1 0 14161232.00 24303335.00 L 14169111.00 24308599.36 L 14169111.00 24463874.68 L 14134960.00 24498025.00 L 14119109.00 24536296.41 L 14119109.00 24938211.99 L 12835230.01 26222090.00 L 12687944.74 26222090.00 L 12667210.00 26191057.00 A 120431.73 120431.73 0 1 0 12667210.00 26361363.00  z"/>
<path id="N" d="M 22795141.97 33879138.69 m -327599.99 0 a 327599.99 327599.99 0 1 1 655199.97 0a 327599.99 327599.99 0 1 1 -655199.97 0M 22795141.22 33879129.65 m -220780.35 0 a 220780.35 220780.35 0 1 1 441560.70 0a 220780.35 220780.35 0 1 1 -441560.70 0"/>
<path id="N" d="M 12407988.00 26069405.00 L 12428722.74 26038372.00 L 12922161.00 26038373.00 L 12960430.00 26022521.00 L 13935907.00 25047044.00 L 13951758.00 25008772.59 L 13951758.00 24322490.82 L 14022369.00 24251880.00 L 14038220.00 24213608.59 L 14038220.00 24096804.12 L 14056248.00 24093218.00 A 120412.98 120412.98 0 1 0 13925011.00 24067114.00 L 13929980.00 24070434.04 L 13929980.00 24191193.82 L 13859369.00 24261804.00 L 13843518.00 24300075.41 L 13843518.00 24986357.98 L 12899743.02 25930132.00 L 12428722.74 25930132.00 L 12407988.00 25899099.00 A 120431.73 120431.73 0 1 0 12407988.00 26069405.00  z"/>
<path id="N" d="M 24917156.97 33879138.69 m -327599.99 0 a 327599.99 327599.99 0 1 1 655199.97 0a 327599.99 327599.99 0 1 1 -655199.97 0M 24917156.22 33879129.65 m -220780.35 0 a 220780.35 220780.35 0 1 1 441560.70 0a 220780.35 220780.35 0 1 1 -441560.70 0"/>
<path id="N" d="M 16704902.00 31079709.00 L 16692990.87 31097536.00 L 16646515.03 31097536.00 L 16188373.00 30639393.03 L 16188373.00 27416190.97 L 16746900.03 26857663.00 L 17094095.00 26857664.00 L 17132364.00 26841812.00 L 17286229.81 26687945.52 L 17322835.00 26695227.00 A 120431.73 120431.73 0 1 0 17202411.00 26574803.00 L 17209692.48 26611408.19 L 17071677.07 26749423.00 L 16724483.00 26749423.00 L 16686213.29 26765275.71 L 16095984.00 27355504.00 L 16080133.00 27393775.41 L 16080132.00 30661811.00 L 16095984.00 30700080.00 L 16585829.00 31189925.00 L 16624098.00 31205776.00 L 16677769.59 31205776.00 L 16678798.00 31210946.00 A 120412.98 120412.98 0 1 0 16704902.00 31079709.00  z"/>
<path id="N" d="M 17137626.97 32879138.69 m -327599.99 0 a 327599.99 327599.99 0 1 1 655199.97 0a 327599.99 327599.99 0 1 1 -655199.97 0M 17137626.22 32879129.65 m -220780.35 0 a 220780.35 220780.35 0 1 1 441560.70 0a 220780.35 220780.35 0 1 1 -441560.70 0"/>
<path id="N" d="M 15015611.97 33879138.69 m -327599.99 0 a 327599.99 327599.99 0 1 1 655199.97 0a 327599.99 327599.99 0 1 1 -655199.97 0M 15015611.22 33879129.65 m -220780.35 0 a 220780.35 220780.35 0 1 1 441560.70 0a 220780.35 220780.35 0 1 1 -441560.70 0"/>
<path id="N" d="M 13230661.00 25275590.00 L 13223379.63 25238985.37 L 13442207.00 25020158.00 L 13458058.00 24981886.59 L 13458058.00 23702583.88 L 13531863.00 23628778.33 L 13537723.00 23629944.00 A 120431.73 120431.73 0 1 0 13426466.00 23555604.00 L 13436678.23 23570888.30 L 13365669.00 23641897.00 L 13349818.00 23680168.41 L 13349818.00 24959471.00 L 13146841.63 25162447.37 L 13110237.00 25155166.00 A 120431.73 120431.73 0 1 0 13230661.00 25275590.00  z"/>
<path id="N" d="M 26946458.97 5498823.69 m -327599.99 0 a 327599.99 327599.99 0 1 1 655199.97 0a 327599.99 327599.99 0 1 1 -655199.97 0M 26946458.22 5498814.65 m -220780.35 0 a 220780.35 220780.35 0 1 1 441560.70 0a 220780.35 220780.35 0 1 1 -441560.70 0"/>
<path id="N" d="M 12032398.00 16568390.00 L 12001365.00 16547655.26 L 12001365.00 15443884.25 L 12006773.00 15438477.00 L 12011086.53 15428062.87 L 12028301.00 15416561.00 A 120431.73 120431.73 0 1 0 11857995.00 15416561.00 L 11893125.00 15440033.15 L 11893125.00 16547655.26 L 11862092.00 16568390.00 A 120431.73 120431.73 0 1 0 12032398.00 16568390.00  z"/>
<path id="N" d="M 29490503.00 28503937.00 L 29483221.63 28467332.37 L 29723309.00 28227245.00 L 29739160.00 28188976.00 L 29739160.00 23897638.00 L 29723307.29 23859368.29 L 28892670.62 23028730.70 L 28899952.00 22992126.00 A 120431.73 120431.73 0 1 0 28779528.00 23112550.00 L 28816132.70 23105268.62 L 29630920.00 23920055.02 L 29630920.00 28166558.00 L 29406683.63 28390794.37 L 29370079.00 28383513.00 A 120431.73 120431.73 0 1 0 29490503.00 28503937.00  z"/>
<path id="N" d="M 16725871.00 14088075.00 L 16705136.26 14119108.00 L 15499588.74 14119108.00 L 15478854.00 14088075.00 L 15439785.00 14061971.00 L 15393701.00 14052804.00 L 15357095.59 14060085.53 L 14250868.00 12953857.00 L 14212596.59 12938006.00 L 9724409.00 12938006.00 L 9686139.29 12953858.71 L 8599629.01 14040368.00 L 8412974.74 14040368.00 L 8392240.00 14009335.00 A 120431.73 120431.73 0 1 0 8392240.00 14179641.00 L 8412974.74 14148608.00 L 8622047.00 14148609.00 L 8660316.00 14132757.00 L 9746826.01 13046246.00 L 14190181.01 13046246.00 L 15280558.53 14136622.59 L 15273277.00 14173228.00 A 120431.73 120431.73 0 0 0 15478854.00 14258381.00 L 15499588.74 14227348.00 L 16705136.26 14227348.00 L 16725871.00 14258381.00 A 120431.73 120431.73 0 1 0 16725871.00 14088075.00  z"/>
<path id="N" d="M 16102363.00 24918946.00 L 16096502.96 24920111.68 L 15999002.00 24822610.10 L 15999002.00 24121635.74 L 16030035.00 24100901.00 L 16056139.00 24061832.00 L 16065306.00 24015748.00 L 16058024.60 23979143.24 L 16439740.03 23597427.00 L 18240569.26 23597427.00 L 18261304.00 23628460.00 A 120431.73 120431.73 0 1 0 18261304.00 23458154.00 L 18240569.26 23489187.00 L 16417323.00 23489187.00 L 16379053.29 23505039.71 L 15981486.76 23902605.40 L 15944882.00 23895324.00 A 120431.73 120431.73 0 0 0 15859729.00 24100901.00 L 15890762.00 24121635.74 L 15890761.00 24845028.00 L 15906613.00 24883297.00 L 16001318.25 24978001.65 L 15991106.00 24993286.00 A 120419.38 120419.38 0 1 0 16102363.00 24918946.00  z"/>
<path id="N" d="M 21095950.00 14206185.00 L 21088367.82 14217533.00 L 20349795.21 14217533.00 L 20347478.00 14205884.00 A 120412.98 120412.98 0 0 0 20151068.00 14166815.00 L 20130333.26 14197848.00 L 18452344.74 14197848.00 L 18431610.00 14166815.00 A 120431.73 120431.73 0 1 0 18431610.00 14337121.00 L 18452344.74 14306088.00 L 20130333.26 14306088.00 L 20151068.00 14337121.00 A 120431.73 120431.73 0 0 0 20321374.00 14337121.00 L 20328956.18 14325773.00 L 21067528.79 14325773.00 L 21069846.00 14337422.00 A 120412.98 120412.98 0 1 0 21095950.00 14206185.00  z"/>
<path id="N" d="M 5789716.00 25984252.00 L 5782434.63 25947647.37 L 5980607.00 25749475.00 L 6013889.96 25749475.00 L 6017210.00 25754444.00 A 120431.73 120431.73 0 1 0 5991106.00 25623207.00 L 5987519.88 25641235.00 L 5958189.00 25641235.00 L 5919920.00 25657086.00 L 5705896.63 25871109.37 L 5669292.00 25863828.00 A 120431.73 120431.73 0 1 0 5789716.00 25984252.00  z"/>
<path id="N" d="M 30124524.00 27828232.00 L 30093491.00 27807497.26 L 30093491.00 23779528.00 L 30077638.29 23741258.29 L 29325741.62 22989360.71 L 29333023.00 22952756.00 A 120431.73 120431.73 0 1 0 29212599.00 23073180.00 L 29249203.71 23065898.62 L 29985251.00 23801945.02 L 29985251.00 27807497.26 L 29954218.00 27828232.00 A 120431.73 120431.73 0 1 0 30124524.00 27828232.00  z"/>
<path id="N" d="M 30387288.00 15505398.00 L 30379707.16 15516744.00 L 29680504.61 15516744.00 L 29678187.00 15505093.00 A 120412.98 120412.98 0 1 0 29652083.00 15636330.00 L 29659663.84 15624984.00 L 30358866.39 15624984.00 L 30361184.00 15636635.00 A 120412.98 120412.98 0 1 0 30387288.00 15505398.00  z"/>
<path id="N" d="M 23300234.00 26148446.00 L 23302864.51 26135222.00 L 25969205.48 26135222.00 L 25977840.00 26148145.00 A 120431.73 120431.73 0 1 0 25951736.00 26016908.00 L 25949732.09 26026982.00 L 23280659.84 26026982.00 L 23274130.00 26017209.00 A 120431.73 120431.73 0 1 0 23300234.00 26148446.00  z"/>
<path id="N" d="M 25151068.00 12749492.00 L 25130333.26 12780525.00 L 22310612.74 12780525.00 L 22289878.00 12749492.00 A 120431.73 120431.73 0 1 0 22289878.00 12919798.00 L 22310612.74 12888765.00 L 25130333.26 12888765.00 L 25151068.00 12919798.00 A 120431.73 120431.73 0 1 0 25151068.00 12749492.00  z"/>
<path id="N" d="M 20951295.00 26069405.00 L 20975055.13 26033844.00 L 21511311.65 26033844.00 L 21529021.00 26060349.00 A 120431.73 120431.73 0 1 0 21505260.87 25925604.00 L 20969004.35 25925604.00 L 20951295.00 25899099.00 A 120431.73 120431.73 0 1 0 20951295.00 26069405.00  z"/>
<path id="N" d="M 24917324.97 5498823.69 m -327599.99 0 a 327599.99 327599.99 0 1 1 655199.97 0a 327599.99 327599.99 0 1 1 -655199.97 0M 24917324.22 5498814.65 m -220780.35 0 a 220780.35 220780.35 0 1 1 441560.70 0a 220780.35 220780.35 0 1 1 -441560.70 0"/>
<path id="N" d="M 12250508.00 16804610.00 L 12219475.00 16783875.26 L 12219475.00 15617698.74 L 12250508.00 15596964.00 A 120431.73 120431.73 0 1 0 12080202.00 15596964.00 L 12111235.00 15617698.74 L 12111235.00 16783875.26 L 12080202.00 16804610.00 A 120431.73 120431.73 0 1 0 12250508.00 16804610.00  z"/>
<path id="N" d="M 27039171.97 33879138.69 m -327599.99 0 a 327599.99 327599.99 0 1 1 655199.97 0a 327599.99 327599.99 0 1 1 -655199.97 0M 27039171.22 33879129.65 m -220780.35 0 a 220780.35 220780.35 0 1 1 441560.70 0a 220780.35 220780.35 0 1 1 -441560.70 0"/>
<path id="N" d="M 12171768.00 25793814.00 L 12192502.74 25762781.00 L 12985620.00 25762782.00 L 13023889.00 25746930.00 L 13660317.00 25110502.00 L 13676168.00 25072233.00 L 13676168.00 23917545.88 L 13748399.00 23845314.33 L 13754259.00 23846480.00 A 120431.73 120431.73 0 1 0 13643002.00 23772140.00 L 13653214.22 23787424.30 L 13583779.00 23856859.00 L 13567928.00 23895130.41 L 13567928.00 25049815.00 L 12963202.00 25654541.00 L 12192502.74 25654541.00 L 12171768.00 25623508.00 A 120431.73 120431.73 0 1 0 12171768.00 25793814.00  z"/>
<path id="N" d="M 26626776.00 31079099.00 L 26610125.00 31104020.00 L 24983711.00 31104020.00 L 23851772.00 29972081.00 L 23851772.00 27078766.97 L 24340985.03 26589553.00 L 24894113.26 26589553.00 L 24914848.00 26620586.00 A 120431.73 120431.73 0 1 0 24914848.00 26450280.00 L 24894113.26 26481313.00 L 24318568.00 26481313.00 L 24280298.29 26497165.71 L 23759383.00 27018080.00 L 23743532.00 27056351.41 L 23743531.00 29994499.00 L 23759383.00 30032768.00 L 24923024.00 31196409.00 L 24961295.41 31212260.00 L 26601957.52 31212260.00 A 117449.52 117449.52 0 1 0 26626776.00 31079099.00  z"/>
<path id="N" d="M 27039171.97 32879138.69 m -327599.99 0 a 327599.99 327599.99 0 1 1 655199.97 0a 327599.99 327599.99 0 1 1 -655199.97 0M 27039171.22 32879129.65 m -220780.35 0 a 220780.35 220780.35 0 1 1 441560.70 0a 220780.35 220780.35 0 1 1 -441560.70 0"/>
<path id="N" d="M 14851807.00 5215103.00 L 14827264.60 5233935.27 L 14372130.00 4778800.00 L 14333858.59 4762949.00 L 14104632.29 4762949.00 L 14100902.00 4757366.00 A 120431.73 120431.73 0 1 0 14127006.00 4888603.00 L 14130469.98 4871189.00 L 14311443.02 4871189.00 L 14750727.27 5310472.60 L 14731895.00 5335015.00 A 327604.72 327604.72 0 1 0 14851807.00 5215103.00  zM 15015611.22 5498814.65 m -220780.35 0 a 220780.35 220780.35 0 1 1 441560.70 0a 220780.35 220780.35 0 1 1 -441560.70 0"/>
<path id="N" d="M 14337122.00 18182563.00 L 14306089.00 18161828.26 L 14306089.00 17142501.74 L 14337122.00 17121767.00 A 120431.73 120431.73 0 1 0 14166816.00 17121767.00 L 14197849.00 17142501.74 L 14197849.00 18161828.26 L 14166816.00 18182563.00 A 120431.73 120431.73 0 1 0 14337122.00 18182563.00  z"/>
<path id="N" d="M 8846872.00 13313939.00 L 8833648.00 13311308.49 L 8833648.00 11538165.99 L 10786287.57 9585525.59 L 10854007.00 9637489.00 A 536100.68 536100.68 0 1 0 10657787.00 9441269.00 L 10709750.41 9508988.43 L 8741259.00 11477479.00 L 8725408.00 11515750.41 L 8725408.00 13333513.16 L 8715635.00 13340043.00 L 8712314.96 13345012.00 L 8630004.00 13345012.00 L 8475069.00 13190077.00 L 8436797.59 13174226.00 L 8137384.74 13174226.00 L 8116650.00 13143193.00 A 120431.73 120431.73 0 1 0 8116650.00 13313499.00 L 8137384.74 13282466.00 L 8414382.00 13282466.00 L 8569317.00 13437401.00 L 8607588.41 13453252.00 L 8685944.88 13453252.00 L 8689531.00 13471280.00 A 120412.98 120412.98 0 1 0 8846872.00 13313939.00  zM 11122049.70 9173221.23 m -357393.77 0 a 357393.77 357393.77 0 1 1 714787.55 0a 357393.77 357393.77 0 1 1 -714787.55 0"/>
<path id="N" d="M 14166816.00 19088075.00 L 14146081.26 19119108.00 L 13314398.02 19119108.00 L 12383399.00 18188108.00 L 12345127.59 18172257.00 L 11651004.78 18172257.00 L 11639863.00 18087629.00 A 536061.18 536061.18 0 1 0 11639863.00 18365125.00 L 11651004.78 18280497.00 L 12322712.02 18280497.00 L 13253712.00 19211497.00 L 13291983.41 19227348.00 L 14146081.26 19227348.00 L 14166816.00 19258381.00 A 120431.73 120431.73 0 1 0 14166816.00 19088075.00  zM 11122048.73 18226377.56 m -357386.44 0 a 357386.44 357386.44 0 1 1 714772.87 0a 357386.44 357386.44 0 1 1 -714772.87 0"/>
<path id="N" d="M 10604233.00 26939991.00 L 10593091.22 27024619.00 L 8919524.05 27024619.00 L 8904051.00 27001461.00 A 120431.73 120431.73 0 1 0 8930047.43 27132859.00 L 10593091.22 27132859.00 L 10604233.00 27217487.00 A 536061.18 536061.18 0 1 0 10604233.00 26939991.00  zM 11122048.73 27078739.56 m -357386.44 0 a 357386.44 357386.44 0 1 1 714772.87 0a 357386.44 357386.44 0 1 1 -714772.87 0"/>
<path id="N" d="M 21262157.00 20275590.00 L 21254875.63 20238985.37 L 21574623.00 19919238.00 L 21602125.81 19919238.00 L 21607761.00 19927672.00 A 120431.73 120431.73 0 1 0 21581657.00 19796435.00 L 21578760.14 19810998.00 L 21552205.00 19810998.00 L 21513936.00 19826849.00 L 21178337.63 20162447.37 L 21141733.00 20155166.00 A 120431.73 120431.73 0 1 0 21262157.00 20275590.00  z"/>
<path id="N" d="M 32171768.00 34757366.00 L 32140735.00 34736631.26 L 32140735.00 32714027.00 L 32124882.29 32675757.29 L 31990808.86 32541683.18 L 32001021.00 32526399.00 A 120419.38 120419.38 0 1 0 31889764.00 32600739.00 L 31895623.63 32599573.41 L 32032495.00 32736444.08 L 32032495.00 34736631.26 L 32001462.00 34757366.00 A 120431.73 120431.73 0 1 0 32171768.00 34757366.00  z"/>
<path id="N" d="M 25544468.00 34731262.00 L 25529183.89 34741474.10 L 25513220.00 34725510.00 L 25474948.59 34709659.00 L 21995651.74 34709659.00 L 21974917.00 34678626.00 A 120431.73 120431.73 0 1 0 21974917.00 34848932.00 L 21995651.74 34817899.00 L 25452533.20 34817899.00 L 25471293.63 34836659.19 L 25470128.00 34842519.00 A 120431.73 120431.73 0 1 0 25544468.00 34731262.00  z"/>
<path id="N" d="M 8733745.00 20072327.00 L 8713010.26 20103360.00 L 7901163.74 20103360.00 L 7880429.00 20072327.00 A 120431.73 120431.73 0 1 0 7880429.00 20242633.00 L 7901163.74 20211600.00 L 8713010.26 20211600.00 L 8733745.00 20242633.00 A 120431.73 120431.73 0 1 0 8733745.00 20072327.00  z"/>
<path id="N" d="M 13064454.00 34009335.00 L 13043719.26 34040368.00 L 12074391.74 34040368.00 L 12053657.00 34009335.00 A 120431.73 120431.73 0 1 0 12053657.00 34179641.00 L 12074391.74 34148608.00 L 13043719.26 34148608.00 L 13064454.00 34179641.00 A 120431.73 120431.73 0 1 0 13064454.00 34009335.00  z"/>
<path id="N" d="M 19875477.00 16675870.00 L 19854742.26 16706903.00 L 19594077.74 16706903.00 L 19573343.00 16675870.00 A 120431.73 120431.73 0 1 0 19573343.00 16846176.00 L 19594077.74 16815143.00 L 19854742.26 16815143.00 L 19875477.00 16846176.00 A 120431.73 120431.73 0 1 0 19875477.00 16675870.00  z"/>
<path id="N" d="M 17473903.00 23176854.00 L 17457311.47 23201686.00 L 17157275.27 23201686.00 A 117585.00 117585.00 0 1 0 17132398.00 23334759.00 L 17148990.20 23309926.00 L 17449025.06 23309926.00 A 117586.54 117586.54 0 1 0 17473903.00 23176854.00  z"/>
<path id="N" d="M 20439484.00 23064453.00 L 20408819.00 23043964.14 L 20408819.00 22699243.95 L 20440219.00 22678264.00 A 120431.73 120431.73 0 1 0 20269913.00 22678264.00 L 20300579.00 22698753.53 L 20300579.00 23043472.38 L 20269178.00 23064453.00 A 120431.73 120431.73 0 1 0 20439484.00 23064453.00  z"/>
<path id="N" d="M 17137626.97 33879138.69 m -327599.99 0 a 327599.99 327599.99 0 1 1 655199.97 0a 327599.99 327599.99 0 1 1 -655199.97 0M 17137626.22 33879129.65 m -220780.35 0 a 220780.35 220780.35 0 1 1 441560.70 0a 220780.35 220780.35 0 1 1 -441560.70 0"/>
<path id="N" d="M 12683579.00 24717996.00 L 12652546.00 24697261.26 L 12652546.00 23998795.00 L 13370964.37 23280376.63 L 13407569.00 23287658.00 A 120431.73 120431.73 0 1 0 13287145.00 23167234.00 L 13294426.37 23203838.63 L 12560157.00 23938108.00 L 12544306.00 23976379.41 L 12544306.00 24697261.26 L 12513273.00 24717996.00 A 120431.73 120431.73 0 1 0 12683579.00 24717996.00  z"/>
<path id="N" d="M 24854152.85 16771653.00 L 26968504.00 16771653.00 L 26968504.00 16468325.85 L 26970818.00 16456693.00 L 26968504.00 16445060.15 L 26968504.00 16338582.00 L 26862021.83 16338582.00 L 26850394.00 16336269.00 L 26838766.17 16338582.00 L 26625801.83 16338582.00 L 26614174.00 16336269.00 L 26602546.17 16338582.00 L 26496064.00 16338582.00 L 26496064.00 16445060.15 L 26493750.00 16456693.00 L 26496064.00 16468325.85 L 26496064.00 16574803.00 L 25984253.00 16574803.00 L 25590552.00 16181102.00 L 24866142.00 16181102.00 L 24724410.00 15826771.00 L 24724410.00 15433070.00 L 22598426.00 15433070.00 L 22598426.00 16692913.00 L 22677166.00 16771653.00 L 24830887.15 16771653.00 L 24842520.00 16773967.00 L 24854152.85 16771653.00  z"/>
<path id="N" d="M 32677166.00 24842519.00 L 32677166.00 9536570.00 L 32313824.00 9173228.00 L 31062993.00 9173228.00 L 30787402.00 9448819.00 L 30787402.00 26666954.25 L 30833596.40 26686088.60 L 32677166.00 24842519.00  z"/>
<path id="N" d="M 22795141.97 32879138.69 m -327599.99 0 a 327599.99 327599.99 0 1 1 655199.97 0a 327599.99 327599.99 0 1 1 -655199.97 0M 22795141.22 32879129.65 m -220780.35 0 a 220780.35 220780.35 0 1 1 441560.70 0a 220780.35 220780.35 0 1 1 -441560.70 0"/>
<path id="N" d="M 22679480.00 31181102.00 L 22672198.61 31144497.29 L 23363480.00 30453216.00 L 23379331.00 30414944.59 L 23379332.00 26789777.00 L 23363480.00 26751508.00 L 23253310.00 26641338.00 L 23215038.59 26625487.00 L 22634529.12 26625487.00 L 22630943.00 26607459.00 A 120412.98 120412.98 0 1 0 22604839.00 26738696.00 L 22608159.04 26733727.00 L 23192623.00 26733727.00 L 23271091.00 26812195.00 L 23271091.00 30392529.98 L 22595660.71 31067959.39 L 22559056.00 31060678.00 A 120431.73 120431.73 0 1 0 22679480.00 31181102.00  z"/>
<path id="N" d="M 15748032.00 13816584.00 L 15711427.37 13823865.37 L 15290341.00 13402779.00 L 15290341.00 12507891.94 L 15550081.00 12248152.00 L 15565932.00 12209880.59 L 15565933.00 8464567.00 L 15550079.29 8426297.29 L 15392600.00 8268817.00 L 15354328.59 8252966.00 L 14869667.74 8252966.00 L 14848933.00 8221933.00 A 120431.73 120431.73 0 1 0 14848933.00 8392239.00 L 14869667.74 8361206.00 L 15331913.10 8361206.00 L 15457692.00 8486984.10 L 15457692.00 12187465.94 L 15197952.00 12447205.00 L 15182101.00 12485476.41 L 15182100.00 13425197.00 L 15197952.00 13463466.00 L 15634889.37 13900403.37 L 15627608.00 13937008.00 A 120431.73 120431.73 0 1 0 15748032.00 13816584.00  z"/>
<path id="N" d="M 15015611.97 6498823.69 m -327599.99 0 a 327599.99 327599.99 0 1 1 655199.97 0a 327599.99 327599.99 0 1 1 -655199.97 0M 15015611.22 6498814.65 m -220780.35 0 a 220780.35 220780.35 0 1 1 441560.70 0a 220780.35 220780.35 0 1 1 -441560.70 0"/>
<path id="N" d="M 15702249.00 22237681.00 L 15681514.26 22268714.00 L 13290134.02 22268714.00 L 12327639.00 21306218.00 L 12289367.59 21290367.00 L 11651004.78 21290367.00 L 11639863.00 21205739.00 A 536061.18 536061.18 0 0 0 10604233.00 21205739.00 L 10593480.00 21287414.00 L 7785026.12 21287414.00 L 7762319.00 21253429.00 A 120431.73 120431.73 0 1 0 7762319.00 21423735.00 L 7781081.35 21395654.00 L 10592702.44 21395654.00 L 10604233.00 21483235.00 A 536061.18 536061.18 0 0 0 11639863.00 21483235.00 L 11651004.78 21398607.00 L 12266952.02 21398607.00 L 13229448.00 22361103.00 L 13267719.41 22376954.00 L 15681514.26 22376954.00 L 15702249.00 22407987.00 A 120431.73 120431.73 0 1 0 15702249.00 22237681.00  zM 11122048.73 21344487.56 m -357386.44 0 a 357386.44 357386.44 0 1 1 714772.87 0a 357386.44 357386.44 0 1 1 -714772.87 0"/>
<path id="N" d="M 10604233.00 12152590.00 L 10593091.22 12237218.00 L 9872811.02 12237218.00 L 9247001.61 11611407.72 L 9254283.00 11574803.00 A 120431.73 120431.73 0 1 0 9133859.00 11695227.00 L 9170463.72 11687945.61 L 9812125.00 12329607.00 L 9850396.41 12345458.00 L 10593091.22 12345458.00 L 10604233.00 12430086.00 A 536061.18 536061.18 0 1 0 10604233.00 12152590.00  zM 11122049.70 12291331.23 m -357393.77 0 a 357393.77 357393.77 0 1 1 714787.55 0a 357393.77 357393.77 0 1 1 -714787.55 0"/>
<path id="N" d="M 10854007.00 29732588.00 L 10786287.73 29784551.28 L 10333546.00 29331809.00 L 10295274.59 29315958.00 L 8688565.74 29315958.00 L 8667831.00 29284925.00 A 120431.73 120431.73 0 1 0 8667831.00 29455231.00 L 8688565.74 29424198.00 L 10272859.02 29424198.00 L 10709750.28 29861088.73 L 10657787.00 29928808.00 A 536100.68 536100.68 0 1 0 10854007.00 29732588.00  zM 11122048.73 30196849.56 m -357386.44 0 a 357386.44 357386.44 0 1 1 714772.87 0a 357386.44 357386.44 0 1 1 -714772.87 0"/>
<path id="N" d="M 20584139.00 21017209.00 L 20563404.26 21048242.00 L 19909037.74 21048242.00 L 19888303.00 21017209.00 A 120431.73 120431.73 0 1 0 19888303.00 21187515.00 L 19909037.74 21156482.00 L 20563404.26 21156482.00 L 20584139.00 21187515.00 A 120431.73 120431.73 0 1 0 20584139.00 21017209.00  z"/>
<path id="N" d="M 37057083.00 31567023.00 L 36407477.00 31567023.00 L 36407477.00 32216629.00 L 37057083.00 32216629.00 L 37057083.00 31567023.00  zM 36732281.68 31891824.06 m -230814.94 0 a 230814.94 230814.94 0 1 1 461629.88 0a 230814.94 230814.94 0 1 1 -461629.88 0"/>
<path id="N" d="M 19770193.00 13694374.00 L 19739160.00 13673639.26 L 19739160.00 9156276.97 L 20219269.03 8676167.00 L 22755907.00 8676168.00 L 22794176.00 8660316.00 L 23132655.04 8321836.00 L 24657892.26 8321836.00 L 24678627.00 8352869.00 A 120431.73 120431.73 0 1 0 24678627.00 8182563.00 L 24657892.26 8213596.00 L 23110238.00 8213595.00 L 23071968.29 8229448.71 L 22733489.04 8567927.00 L 20196852.00 8567927.00 L 20158582.29 8583779.71 L 19646771.00 9095590.00 L 19630920.00 9133861.41 L 19630920.00 13673639.26 L 19599887.00 13694374.00 A 120431.73 120431.73 0 1 0 19770193.00 13694374.00  z"/>
<path id="N" d="M 24917324.97 6498823.69 m -327599.99 0 a 327599.99 327599.99 0 1 1 655199.97 0a 327599.99 327599.99 0 1 1 -655199.97 0M 24917324.22 6498814.65 m -220780.35 0 a 220780.35 220780.35 0 1 1 441560.70 0a 220780.35 220780.35 0 1 1 -441560.70 0"/>
<path id="N" d="M 18746571.00 14100901.00 L 18767305.74 14069868.00 L 19902051.00 14069869.00 L 19940320.00 14054017.00 L 19998899.00 13995438.00 L 20014750.00 13957169.00 L 20014750.00 9235016.94 L 20258638.06 8991128.00 L 22834647.00 8991129.00 L 22872916.00 8975277.00 L 23211395.04 8636797.00 L 26616682.00 8636798.00 L 26654951.00 8620946.00 L 26765032.00 8510865.00 L 26768580.45 8502298.52 L 26883903.95 8386974.32 L 26889764.00 8388140.00 A 120431.73 120431.73 0 1 0 26778507.00 8313800.00 L 26788719.26 8329084.35 L 26688494.00 8429309.00 L 26684945.56 8437875.44 L 26594264.00 8528557.00 L 23188978.00 8528556.00 L 23150708.29 8544409.71 L 22812229.04 8882888.00 L 20236221.00 8882887.00 L 20197951.29 8898740.71 L 19922361.00 9174330.00 L 19906510.00 9212601.41 L 19906510.00 13934751.73 L 19879633.27 13961628.00 L 18767305.74 13961628.00 L 18746571.00 13930595.00 A 120431.73 120431.73 0 1 0 18746571.00 14100901.00  z"/>
<path id="N" d="M 26946458.97 6498823.69 m -327599.99 0 a 327599.99 327599.99 0 1 1 655199.97 0a 327599.99 327599.99 0 1 1 -655199.97 0M 26946458.22 6498814.65 m -220780.35 0 a 220780.35 220780.35 0 1 1 441560.70 0a 220780.35 220780.35 0 1 1 -441560.70 0"/>
<path id="N" d="M 17137626.97 6498823.69 m -327599.99 0 a 327599.99 327599.99 0 1 1 655199.97 0a 327599.99 327599.99 0 1 1 -655199.97 0M 17137626.22 6498814.65 m -220780.35 0 a 220780.35 220780.35 0 1 1 441560.70 0a 220780.35 220780.35 0 1 1 -441560.70 0"/>
<path id="N" d="M 15793815.00 13258154.00 L 15762782.00 13237419.26 L 15762782.00 8657705.95 L 16059281.05 8361206.00 L 16980727.26 8361206.00 L 17001462.00 8392239.00 A 120431.73 120431.73 0 1 0 17001462.00 8221933.00 L 16980727.26 8252966.00 L 16036864.00 8252965.00 L 15998594.29 8268818.71 L 15670393.00 8597019.00 L 15654542.00 8635290.41 L 15654542.00 13237419.26 L 15623509.00 13258154.00 A 120431.73 120431.73 0 1 0 15793815.00 13258154.00  z"/>
<path id="N" d="M 29770193.00 13261303.00 L 29739160.00 13240568.26 L 29739160.00 8098013.74 L 29770193.00 8077279.00 A 120431.73 120431.73 0 1 0 29599887.00 8077279.00 L 29630920.00 8098013.74 L 29630920.00 13240568.26 L 29599887.00 13261303.00 A 120431.73 120431.73 0 1 0 29770193.00 13261303.00  z"/>
<path id="N" d="M 36732281.97 33860335.69 m -327599.99 0 a 327599.99 327599.99 0 1 1 655199.97 0a 327599.99 327599.99 0 1 1 -655199.97 0M 36732281.68 33860328.06 m -230814.94 0 a 230814.94 230814.94 0 1 1 461629.88 0a 230814.94 230814.94 0 1 1 -461629.88 0"/>
<path id="N" d="M 18847856.00 31078488.00 L 18827121.26 31109521.00 L 17249051.02 31109521.00 L 16353333.00 30213802.02 L 16353333.00 27463362.97 L 16809032.03 27007663.00 L 17972918.00 27007664.00 L 18011187.00 26991812.00 L 18069766.00 26933233.00 L 18085617.00 26894964.00 L 18085617.00 26641320.74 L 18116650.00 26620586.00 A 120431.73 120431.73 0 1 0 17946344.00 26620586.00 L 17977377.00 26641320.74 L 17977377.00 26872546.73 L 17950500.27 26899423.00 L 16786615.00 26899422.00 L 16748345.29 26915275.71 L 16260944.00 27402676.00 L 16245093.00 27440947.41 L 16245092.00 30236220.00 L 16260944.00 30274489.00 L 17188365.00 31201910.00 L 17226634.00 31217761.00 L 18827121.26 31217761.00 L 18847856.00 31248794.00 A 120431.73 120431.73 0 1 0 18847856.00 31078488.00  z"/>
<path id="N" d="M 19259641.97 32879138.69 m -327599.99 0 a 327599.99 327599.99 0 1 1 655199.97 0a 327599.99 327599.99 0 1 1 -655199.97 0M 19259641.22 32879129.65 m -220780.35 0 a 220780.35 220780.35 0 1 1 441560.70 0a 220780.35 220780.35 0 1 1 -441560.70 0"/>
<path id="N" d="M 15015611.97 32879138.69 m -327599.99 0 a 327599.99 327599.99 0 1 1 655199.97 0a 327599.99 327599.99 0 1 1 -655199.97 0M 15015611.22 32879129.65 m -220780.35 0 a 220780.35 220780.35 0 1 1 441560.70 0a 220780.35 220780.35 0 1 1 -441560.70 0"/>
<path id="N" d="M 14775354.00 31183784.00 L 14758845.89 31172754.09 L 15983151.00 29948449.00 L 15999002.00 29910180.00 L 15999003.00 26958449.00 L 15983149.29 26920179.29 L 15733988.93 26671018.14 L 15741179.00 26660257.00 A 120419.38 120419.38 0 1 0 15629922.00 26734597.00 L 15642074.74 26732179.58 L 15890762.00 26980866.05 L 15890762.00 29887762.99 L 14651931.00 31126593.00 L 14637116.46 31162357.42 L 14605048.00 31183784.00 A 120431.73 120431.73 0 1 0 14775354.00 31183784.00  z"/>
</g>
</svg>
