<svg width="92.50000042mm" height="79.99999748mm" viewBox="0 0 36417323 31496062"  version="1.1" xmlns="http://www.w3.org/2000/svg" xmlns:xlink="http://www.w3.org/1999/xlink">
<desc>
Origin 29527560 39370078 Bound 3937008 3937008 36417323 31496062
</desc>
<g fill-rule="evenodd" fill="rgb(255, 0, 255)" stroke="black" stroke-width="1" transform="translate(0, 31496062) scale(1, -1) translate(-3937008, -3937008)">
<path id="N" d="M 40354330.00 34545759.00 L 40354331.00 20314960.00 L 40292587.00 20311926.00 A 629921.82 629921.82 0 0 1 40354331.00 19055118.00 L 40354331.00 8320836.00 A 986983.00 986983.00 0 0 0 39803731.00 7507582.00 L 30930291.00 3958206.00 A 394230.61 394230.61 0 0 0 30820214.00 3937007.00 L 12387978.00 3937007.00 A 1970149.97 1970149.97 0 0 0 11349460.00 4283179.00 L 4633038.00 9320496.00 A 1971759.27 1971759.27 0 0 0 3937008.00 10712556.00 L 3937008.00 28657521.00 A 1971797.85 1971797.85 0 0 0 4633038.00 30049581.00 L 11349460.00 35086898.00 A 1970083.76 1970083.76 0 0 0 12387978.00 35433070.00 L 39467019.00 35433070.00 A 989027.50 989027.50 0 0 0 40354330.00 34545759.00  zM 7362204.13 10039371.07 m -150528.93 0 a 150528.93 150528.93 0 1 1 301057.86 0a 150528.93 150528.93 0 1 1 -301057.86 0M 11122044.19 7614188.36 m -565849.64 0 a 565849.64 565849.64 0 1 1 1131699.28 0a 565849.64 565849.64 0 1 1 -1131699.28 0M 11122043.22 9173250.70 m -565842.30 0 a 565842.30 565842.30 0 1 1 1131684.61 0a 565842.30 565842.30 0 1 1 -1131684.61 0M 11122044.19 10732298.36 m -565849.64 0 a 565849.64 565849.64 0 1 1 1131699.28 0a 565849.64 565849.64 0 1 1 -1131699.28 0M 9133858.13 11574804.07 m -150528.93 0 a 150528.93 150528.93 0 1 1 301057.86 0a 150528.93 150528.93 0 1 1 -301057.86 0M 9724409.13 11614174.07 m -150528.93 0 a 150528.93 150528.93 0 1 1 301057.86 0a 150528.93 150528.93 0 1 1 -301057.86 0M 10354330.13 11968505.07 m -150528.93 0 a 150528.93 150528.93 0 1 1 301057.86 0a 150528.93 150528.93 0 1 1 -301057.86 0M 4422048.00 13501601.00 L 4380289.00 13459842.00 L 4422048.00 13418083.00 L 4463807.00 13459842.00 L 4422048.00 13501601.00  zM 6692913.13 13740158.07 m -150528.93 0 a 150528.93 150528.93 0 1 1 301057.86 0a 150528.93 150528.93 0 1 1 -301057.86 0M 8031496.13 12755906.07 m -150528.93 0 a 150528.93 150528.93 0 1 1 301057.86 0a 150528.93 150528.93 0 1 1 -301057.86 0M 8031496.13 13228347.07 m -150528.93 0 a 150528.93 150528.93 0 1 1 301057.86 0a 150528.93 150528.93 0 1 1 -301057.86 0M 8561417.13 12755906.07 m -150528.93 0 a 150528.93 150528.93 0 1 1 301057.86 0a 150528.93 150528.93 0 1 1 -301057.86 0M 8800787.13 13425197.07 m -150528.93 0 a 150528.93 150528.93 0 1 1 301057.86 0a 150528.93 150528.93 0 1 1 -301057.86 0M 11683072.00 14411417.00 L 10561024.00 14411417.00 L 10561024.00 13289369.00 L 11683072.00 13289369.00 L 11683072.00 14411417.00  zM 14015748.13 4842520.07 m -150528.93 0 a 150528.93 150528.93 0 1 1 301057.86 0a 150528.93 150528.93 0 1 1 -301057.86 0M 15015611.70 5498813.23 m -357393.77 0 a 357393.77 357393.77 0 1 1 714787.55 0a 357393.77 357393.77 0 1 1 -714787.55 0M 15015611.70 6498813.23 m -357393.77 0 a 357393.77 357393.77 0 1 1 714787.55 0a 357393.77 357393.77 0 1 1 -714787.55 0M 15015611.70 7498813.23 m -357393.77 0 a 357393.77 357393.77 0 1 1 714787.55 0a 357393.77 357393.77 0 1 1 -714787.55 0M 17137627.66 5498805.89 m -357401.11 0 a 357401.11 357401.11 0 1 1 714802.22 0a 357401.11 357401.11 0 1 1 -714802.22 0M 17137627.66 6498805.89 m -357401.11 0 a 357401.11 357401.11 0 1 1 714802.22 0a 357401.11 357401.11 0 1 1 -714802.22 0M 17137627.66 7498805.89 m -357401.11 0 a 357401.11 357401.11 0 1 1 714802.22 0a 357401.11 357401.11 0 1 1 -714802.22 0M 14763779.13 8307087.07 m -150528.93 0 a 150528.93 150528.93 0 1 1 301057.86 0a 150528.93 150528.93 0 1 1 -301057.86 0M 11122043.22 12291360.70 m -565842.30 0 a 565842.30 565842.30 0 1 1 1131684.61 0a 565842.30 565842.30 0 1 1 -1131684.61 0M 15708661.13 13343308.07 m -150528.93 0 a 150528.93 150528.93 0 1 1 301057.86 0a 150528.93 150528.93 0 1 1 -301057.86 0M 17086614.13 8307087.07 m -150528.93 0 a 150528.93 150528.93 0 1 1 301057.86 0a 150528.93 150528.93 0 1 1 -301057.86 0M 16181102.13 12873086.07 m -150528.93 0 a 150528.93 150528.93 0 1 1 301057.86 0a 150528.93 150528.93 0 1 1 -301057.86 0M 15748031.13 13937009.07 m -150528.93 0 a 150528.93 150528.93 0 1 1 301057.86 0a 150528.93 150528.93 0 1 1 -301057.86 0M 8307086.13 14094489.07 m -150528.93 0 a 150528.93 150528.93 0 1 1 301057.86 0a 150528.93 150528.93 0 1 1 -301057.86 0M 7992126.13 19645670.07 m -150528.93 0 a 150528.93 150528.93 0 1 1 301057.86 0a 150528.93 150528.93 0 1 1 -301057.86 0M 4420867.00 19730931.00 L 4379108.00 19689172.00 L 4420867.00 19647413.00 L 4462626.00 19689172.00 L 4420867.00 19730931.00  zM 8582677.13 19645670.07 m -150528.93 0 a 150528.93 150528.93 0 1 1 301057.86 0a 150528.93 150528.93 0 1 1 -301057.86 0M 11122043.22 16667344.70 m -565842.30 0 a 565842.30 565842.30 0 1 1 1131684.61 0a 565842.30 565842.30 0 1 1 -1131684.61 0M 11122044.19 18226392.36 m -565849.64 0 a 565849.64 565849.64 0 1 1 1131699.28 0a 565849.64 565849.64 0 1 1 -1131699.28 0M 11122043.22 19785454.70 m -565842.30 0 a 565842.30 565842.30 0 1 1 1131684.61 0a 565842.30 565842.30 0 1 1 -1131684.61 0M 12026283.00 15454206.00 L 12000753.00 15470480.00 A 150533.33 150533.33 0 1 1 12082220.00 15389013.00 L 12107750.00 15372739.00 A 150533.33 150533.33 0 1 1 12026283.00 15454206.00  zM 12401574.13 15708662.07 m -150528.93 0 a 150528.93 150528.93 0 1 1 301057.86 0a 150528.93 150528.93 0 1 1 -301057.86 0M 11947244.13 16653544.07 m -150528.93 0 a 150528.93 150528.93 0 1 1 301057.86 0a 150528.93 150528.93 0 1 1 -301057.86 0M 12165354.13 16889764.07 m -150528.93 0 a 150528.93 150528.93 0 1 1 301057.86 0a 150528.93 150528.93 0 1 1 -301057.86 0M 12401574.13 17125985.07 m -150528.93 0 a 150528.93 150528.93 0 1 1 301057.86 0a 150528.93 150528.93 0 1 1 -301057.86 0M 13228346.13 18267717.07 m -150528.93 0 a 150528.93 150528.93 0 1 1 301057.86 0a 150528.93 150528.93 0 1 1 -301057.86 0M 15393700.13 14173229.07 m -150528.93 0 a 150528.93 150528.93 0 1 1 301057.86 0a 150528.93 150528.93 0 1 1 -301057.86 0M 15748031.13 16356694.07 m -150528.93 0 a 150528.93 150528.93 0 1 1 301057.86 0a 150528.93 150528.93 0 1 1 -301057.86 0M 14645669.13 16574804.07 m -150528.93 0 a 150528.93 150528.93 0 1 1 301057.86 0a 150528.93 150528.93 0 1 1 -301057.86 0M 15196850.13 17036615.07 m -150528.93 0 a 150528.93 150528.93 0 1 1 301057.86 0a 150528.93 150528.93 0 1 1 -301057.86 0M 16811023.13 14173229.07 m -150528.93 0 a 150528.93 150528.93 0 1 1 301057.86 0a 150528.93 150528.93 0 1 1 -301057.86 0M 18212977.13 15673229.07 m -150528.93 0 a 150528.93 150528.93 0 1 1 301057.86 0a 150528.93 150528.93 0 1 1 -301057.86 0M 15748031.13 16979134.07 m -150528.93 0 a 150528.93 150528.93 0 1 1 301057.86 0a 150528.93 150528.93 0 1 1 -301057.86 0M 14251968.13 17036615.07 m -150528.93 0 a 150528.93 150528.93 0 1 1 301057.86 0a 150528.93 150528.93 0 1 1 -301057.86 0M 14251968.13 18267717.07 m -150528.93 0 a 150528.93 150528.93 0 1 1 301057.86 0a 150528.93 150528.93 0 1 1 -301057.86 0M 14251968.13 19173229.07 m -150528.93 0 a 150528.93 150528.93 0 1 1 301057.86 0a 150528.93 150528.93 0 1 1 -301057.86 0M 14645669.13 18267717.07 m -150528.93 0 a 150528.93 150528.93 0 1 1 301057.86 0a 150528.93 150528.93 0 1 1 -301057.86 0M 15196850.13 18779528.07 m -150528.93 0 a 150528.93 150528.93 0 1 1 301057.86 0a 150528.93 150528.93 0 1 1 -301057.86 0M 17952755.13 18464568.07 m -150528.93 0 a 150528.93 150528.93 0 1 1 301057.86 0a 150528.93 150528.93 0 1 1 -301057.86 0M 19259641.70 5498813.23 m -357393.77 0 a 357393.77 357393.77 0 1 1 714787.55 0a 357393.77 357393.77 0 1 1 -714787.55 0M 19259641.70 6498813.23 m -357393.77 0 a 357393.77 357393.77 0 1 1 714787.55 0a 357393.77 357393.77 0 1 1 -714787.55 0M 22795141.70 6498813.23 m -357393.77 0 a 357393.77 357393.77 0 1 1 714787.55 0a 357393.77 357393.77 0 1 1 -714787.55 0M 22795141.70 7498813.23 m -357393.77 0 a 357393.77 357393.77 0 1 1 714787.55 0a 357393.77 357393.77 0 1 1 -714787.55 0M 22795141.70 5498813.23 m -357393.77 0 a 357393.77 357393.77 0 1 1 714787.55 0a 357393.77 357393.77 0 1 1 -714787.55 0M 24917325.66 6498805.89 m -357401.11 0 a 357401.11 357401.11 0 1 1 714802.22 0a 357401.11 357401.11 0 1 1 -714802.22 0M 24917325.66 5498805.89 m -357401.11 0 a 357401.11 357401.11 0 1 1 714802.22 0a 357401.11 357401.11 0 1 1 -714802.22 0M 19259641.70 7498813.23 m -357393.77 0 a 357393.77 357393.77 0 1 1 714787.55 0a 357393.77 357393.77 0 1 1 -714787.55 0M 19015748.13 8307087.07 m -150528.93 0 a 150528.93 150528.93 0 1 1 301057.86 0a 150528.93 150528.93 0 1 1 -301057.86 0M 24917325.66 7498805.89 m -357401.11 0 a 357401.11 357401.11 0 1 1 714802.22 0a 357401.11 357401.11 0 1 1 -714802.22 0M 24763779.13 8267717.07 m -150528.93 0 a 150528.93 150528.93 0 1 1 301057.86 0a 150528.93 150528.93 0 1 1 -301057.86 0M 22519685.13 8307087.07 m -150528.93 0 a 150528.93 150528.93 0 1 1 301057.86 0a 150528.93 150528.93 0 1 1 -301057.86 0M 19409448.13 13110237.07 m -150528.93 0 a 150528.93 150528.93 0 1 1 301057.86 0a 150528.93 150528.93 0 1 1 -301057.86 0M 19685039.13 13779528.07 m -150528.93 0 a 150528.93 150528.93 0 1 1 301057.86 0a 150528.93 150528.93 0 1 1 -301057.86 0M 18346456.13 14251969.07 m -150528.93 0 a 150528.93 150528.93 0 1 1 301057.86 0a 150528.93 150528.93 0 1 1 -301057.86 0M 18661417.13 14015749.07 m -150528.93 0 a 150528.93 150528.93 0 1 1 301057.86 0a 150528.93 150528.93 0 1 1 -301057.86 0M 20236220.13 14251969.07 m -150528.93 0 a 150528.93 150528.93 0 1 1 301057.86 0a 150528.93 150528.93 0 1 1 -301057.86 0M 21181102.13 14291339.07 m -150528.93 0 a 150528.93 150528.93 0 1 1 301057.86 0a 150528.93 150528.93 0 1 1 -301057.86 0M 22755905.13 15984253.07 m -150528.93 0 a 150528.93 150528.93 0 1 1 301057.86 0a 150528.93 150528.93 0 1 1 -301057.86 0M 22755905.13 16299213.07 m -150528.93 0 a 150528.93 150528.93 0 1 1 301057.86 0a 150528.93 150528.93 0 1 1 -301057.86 0M 22755905.13 16614174.07 m -150528.93 0 a 150528.93 150528.93 0 1 1 301057.86 0a 150528.93 150528.93 0 1 1 -301057.86 0M 22992126.13 15669292.07 m -150528.93 0 a 150528.93 150528.93 0 1 1 301057.86 0a 150528.93 150528.93 0 1 1 -301057.86 0M 23307086.13 15669292.07 m -150528.93 0 a 150528.93 150528.93 0 1 1 301057.86 0a 150528.93 150528.93 0 1 1 -301057.86 0M 23622047.13 15669292.07 m -150528.93 0 a 150528.93 150528.93 0 1 1 301057.86 0a 150528.93 150528.93 0 1 1 -301057.86 0M 23937008.13 15669292.07 m -150528.93 0 a 150528.93 150528.93 0 1 1 301057.86 0a 150528.93 150528.93 0 1 1 -301057.86 0M 24251968.13 15669292.07 m -150528.93 0 a 150528.93 150528.93 0 1 1 301057.86 0a 150528.93 150528.93 0 1 1 -301057.86 0M 24842519.13 16338583.07 m -150528.93 0 a 150528.93 150528.93 0 1 1 301057.86 0a 150528.93 150528.93 0 1 1 -301057.86 0M 19488189.13 16761024.07 m -150528.93 0 a 150528.93 150528.93 0 1 1 301057.86 0a 150528.93 150528.93 0 1 1 -301057.86 0M 19960629.13 16761024.07 m -150528.93 0 a 150528.93 150528.93 0 1 1 301057.86 0a 150528.93 150528.93 0 1 1 -301057.86 0M 18976377.86 17519686.28 m -327604.72 0 a 327604.72 327604.72 0 1 1 655209.45 0a 327604.72 327604.72 0 1 1 -655209.45 0M 19645671.68 18385824.06 m -230814.94 0 a 230814.94 230814.94 0 1 1 461629.88 0a 230814.94 230814.94 0 1 1 -461629.88 0M 20905511.86 17519686.28 m -327604.72 0 a 327604.72 327604.72 0 1 1 655209.45 0a 327604.72 327604.72 0 1 1 -655209.45 0M 20000000.13 18818898.07 m -150528.93 0 a 150528.93 150528.93 0 1 1 301057.86 0a 150528.93 150528.93 0 1 1 -301057.86 0M 21692913.13 19527560.07 m -150528.93 0 a 150528.93 150528.93 0 1 1 301057.86 0a 150528.93 150528.93 0 1 1 -301057.86 0M 22992126.13 17519686.07 m -150528.93 0 a 150528.93 150528.93 0 1 1 301057.86 0a 150528.93 150528.93 0 1 1 -301057.86 0M 23307086.13 17519686.07 m -150528.93 0 a 150528.93 150528.93 0 1 1 301057.86 0a 150528.93 150528.93 0 1 1 -301057.86 0M 23622047.13 17519686.07 m -150528.93 0 a 150528.93 150528.93 0 1 1 301057.86 0a 150528.93 150528.93 0 1 1 -301057.86 0M 23937008.13 17519686.07 m -150528.93 0 a 150528.93 150528.93 0 1 1 301057.86 0a 150528.93 150528.93 0 1 1 -301057.86 0M 24251968.13 17519686.07 m -150528.93 0 a 150528.93 150528.93 0 1 1 301057.86 0a 150528.93 150528.93 0 1 1 -301057.86 0M 22637795.13 19685040.07 m -150528.93 0 a 150528.93 150528.93 0 1 1 301057.86 0a 150528.93 150528.93 0 1 1 -301057.86 0M 24842519.13 16653544.07 m -150528.93 0 a 150528.93 150528.93 0 1 1 301057.86 0a 150528.93 150528.93 0 1 1 -301057.86 0M 24566929.13 17519686.07 m -150528.93 0 a 150528.93 150528.93 0 1 1 301057.86 0a 150528.93 150528.93 0 1 1 -301057.86 0M 24881890.13 17519686.07 m -150528.93 0 a 150528.93 150528.93 0 1 1 301057.86 0a 150528.93 150528.93 0 1 1 -301057.86 0M 25196850.13 17559056.07 m -150528.93 0 a 150528.93 150528.93 0 1 1 301057.86 0a 150528.93 150528.93 0 1 1 -301057.86 0M 24881889.13 18275594.07 m -150528.93 0 a 150528.93 150528.93 0 1 1 301057.86 0a 150528.93 150528.93 0 1 1 -301057.86 0M 25433071.13 17755906.07 m -150528.93 0 a 150528.93 150528.93 0 1 1 301057.86 0a 150528.93 150528.93 0 1 1 -301057.86 0M 24881889.13 18618113.07 m -150528.93 0 a 150528.93 150528.93 0 1 1 301057.86 0a 150528.93 150528.93 0 1 1 -301057.86 0M 24606298.13 18813655.07 m -150528.93 0 a 150528.93 150528.93 0 1 1 301057.86 0a 150528.93 150528.93 0 1 1 -301057.86 0M 24881889.13 18960632.07 m -150528.93 0 a 150528.93 150528.93 0 1 1 301057.86 0a 150528.93 150528.93 0 1 1 -301057.86 0M 24606298.13 19154862.07 m -150528.93 0 a 150528.93 150528.93 0 1 1 301057.86 0a 150528.93 150528.93 0 1 1 -301057.86 0M 24606298.13 19496069.07 m -150528.93 0 a 150528.93 150528.93 0 1 1 301057.86 0a 150528.93 150528.93 0 1 1 -301057.86 0M 24881889.13 19303151.07 m -150528.93 0 a 150528.93 150528.93 0 1 1 301057.86 0a 150528.93 150528.93 0 1 1 -301057.86 0M 24881889.13 19645670.07 m -150528.93 0 a 150528.93 150528.93 0 1 1 301057.86 0a 150528.93 150528.93 0 1 1 -301057.86 0M 6653543.13 20669292.07 m -150528.93 0 a 150528.93 150528.93 0 1 1 301057.86 0a 150528.93 150528.93 0 1 1 -301057.86 0M 7677165.13 21338583.07 m -150528.93 0 a 150528.93 150528.93 0 1 1 301057.86 0a 150528.93 150528.93 0 1 1 -301057.86 0M 7795275.13 20157481.07 m -150528.93 0 a 150528.93 150528.93 0 1 1 301057.86 0a 150528.93 150528.93 0 1 1 -301057.86 0M 8818897.13 20157481.07 m -150528.93 0 a 150528.93 150528.93 0 1 1 301057.86 0a 150528.93 150528.93 0 1 1 -301057.86 0M 6102362.13 25669292.07 m -150528.93 0 a 150528.93 150528.93 0 1 1 301057.86 0a 150528.93 150528.93 0 1 1 -301057.86 0M 11122043.22 25519706.70 m -565842.30 0 a 565842.30 565842.30 0 1 1 1131684.61 0a 565842.30 565842.30 0 1 1 -1131684.61 0M 11122044.19 21344502.36 m -565849.64 0 a 565849.64 565849.64 0 1 1 1131699.28 0a 565849.64 565849.64 0 1 1 -1131699.28 0M 11683072.00 23464566.00 L 10561024.00 23464566.00 L 10561024.00 22342518.00 L 11683072.00 22342518.00 L 11683072.00 23464566.00  zM 12362204.13 24488190.07 m -150528.93 0 a 150528.93 150528.93 0 1 1 301057.86 0a 150528.93 150528.93 0 1 1 -301057.86 0M 13385826.13 22834646.07 m -150528.93 0 a 150528.93 150528.93 0 1 1 301057.86 0a 150528.93 150528.93 0 1 1 -301057.86 0M 13407568.13 23167235.07 m -150528.93 0 a 150528.93 150528.93 0 1 1 301057.86 0a 150528.93 150528.93 0 1 1 -301057.86 0M 12598425.13 24803150.07 m -150528.93 0 a 150528.93 150528.93 0 1 1 301057.86 0a 150528.93 150528.93 0 1 1 -301057.86 0M 12086614.13 25708662.07 m -150528.93 0 a 150528.93 150528.93 0 1 1 301057.86 0a 150528.93 150528.93 0 1 1 -301057.86 0M 13110236.13 25275591.07 m -150528.93 0 a 150528.93 150528.93 0 1 1 301057.86 0a 150528.93 150528.93 0 1 1 -301057.86 0M 13661417.13 22047244.07 m -150528.93 0 a 150528.93 150528.93 0 1 1 301057.86 0a 150528.93 150528.93 0 1 1 -301057.86 0M 15293701.13 20826772.07 m -150528.93 0 a 150528.93 150528.93 0 1 1 301057.86 0a 150528.93 150528.93 0 1 1 -301057.86 0M 13537722.13 23509521.07 m -150528.93 0 a 150528.93 150528.93 0 1 1 301057.86 0a 150528.93 150528.93 0 1 1 -301057.86 0M 15039370.13 23503938.07 m -150528.93 0 a 150528.93 150528.93 0 1 1 301057.86 0a 150528.93 150528.93 0 1 1 -301057.86 0M 15493700.13 21377953.07 m -150528.93 0 a 150528.93 150528.93 0 1 1 301057.86 0a 150528.93 150528.93 0 1 1 -301057.86 0M 15787401.13 22322835.07 m -150528.93 0 a 150528.93 150528.93 0 1 1 301057.86 0a 150528.93 150528.93 0 1 1 -301057.86 0M 17047244.13 23249607.07 m -150528.93 0 a 150528.93 150528.93 0 1 1 301057.86 0a 150528.93 150528.93 0 1 1 -301057.86 0M 13754258.13 23726057.07 m -150528.93 0 a 150528.93 150528.93 0 1 1 301057.86 0a 150528.93 150528.93 0 1 1 -301057.86 0M 14010163.13 23981962.07 m -150528.93 0 a 150528.93 150528.93 0 1 1 301057.86 0a 150528.93 150528.93 0 1 1 -301057.86 0M 14246384.13 24218183.07 m -150528.93 0 a 150528.93 150528.93 0 1 1 301057.86 0a 150528.93 150528.93 0 1 1 -301057.86 0M 15944881.13 24015749.07 m -150528.93 0 a 150528.93 150528.93 0 1 1 301057.86 0a 150528.93 150528.93 0 1 1 -301057.86 0M 14488189.86 25629922.28 m -327604.72 0 a 327604.72 327604.72 0 1 1 655209.45 0a 327604.72 327604.72 0 1 1 -655209.45 0M 16102362.13 25039371.07 m -150528.93 0 a 150528.93 150528.93 0 1 1 301057.86 0a 150528.93 150528.93 0 1 1 -301057.86 0M 4420867.00 25992545.00 L 4379108.00 25950786.00 L 4420867.00 25909027.00 L 4462626.00 25950786.00 L 4420867.00 25992545.00  zM 5669291.13 25984253.07 m -150528.93 0 a 150528.93 150528.93 0 1 1 301057.86 0a 150528.93 150528.93 0 1 1 -301057.86 0M 8582677.13 26614174.07 m -150528.93 0 a 150528.93 150528.93 0 1 1 301057.86 0a 150528.93 150528.93 0 1 1 -301057.86 0M 7480314.13 28031497.07 m -150528.93 0 a 150528.93 150528.93 0 1 1 301057.86 0a 150528.93 150528.93 0 1 1 -301057.86 0M 8818897.13 27086615.07 m -150528.93 0 a 150528.93 150528.93 0 1 1 301057.86 0a 150528.93 150528.93 0 1 1 -301057.86 0M 11122044.19 27078754.36 m -565849.64 0 a 565849.64 565849.64 0 1 1 1131699.28 0a 565849.64 565849.64 0 1 1 -1131699.28 0M 12322834.13 25984253.07 m -150528.93 0 a 150528.93 150528.93 0 1 1 301057.86 0a 150528.93 150528.93 0 1 1 -301057.86 0M 8582677.13 29370079.07 m -150528.93 0 a 150528.93 150528.93 0 1 1 301057.86 0a 150528.93 150528.93 0 1 1 -301057.86 0M 11122043.22 28637816.70 m -565842.30 0 a 565842.30 565842.30 0 1 1 1131684.61 0a 565842.30 565842.30 0 1 1 -1131684.61 0M 11122044.19 30196864.36 m -565849.64 0 a 565849.64 565849.64 0 1 1 1131699.28 0a 565849.64 565849.64 0 1 1 -1131699.28 0M 11683072.00 32316928.00 L 10561024.00 32316928.00 L 10561024.00 31194880.00 L 11683072.00 31194880.00 L 11683072.00 32316928.00  zM 11692913.13 33503938.07 m -150528.93 0 a 150528.93 150528.93 0 1 1 301057.86 0a 150528.93 150528.93 0 1 1 -301057.86 0M 11968503.13 34094489.07 m -150528.93 0 a 150528.93 150528.93 0 1 1 301057.86 0a 150528.93 150528.93 0 1 1 -301057.86 0M 12582056.13 26276211.07 m -150528.93 0 a 150528.93 150528.93 0 1 1 301057.86 0a 150528.93 150528.93 0 1 1 -301057.86 0M 15944881.13 26377953.07 m -150528.93 0 a 150528.93 150528.93 0 1 1 301057.86 0a 150528.93 150528.93 0 1 1 -301057.86 0M 15629921.13 26614174.07 m -150528.93 0 a 150528.93 150528.93 0 1 1 301057.86 0a 150528.93 150528.93 0 1 1 -301057.86 0M 16790054.13 31164863.07 m -150528.93 0 a 150528.93 150528.93 0 1 1 301057.86 0a 150528.93 150528.93 0 1 1 -301057.86 0M 14690200.13 31268938.07 m -150528.93 0 a 150528.93 150528.93 0 1 1 301057.86 0a 150528.93 150528.93 0 1 1 -301057.86 0M 15015611.70 31879128.23 m -357393.77 0 a 357393.77 357393.77 0 1 1 714787.55 0a 357393.77 357393.77 0 1 1 -714787.55 0M 17137627.66 31879120.89 m -357401.11 0 a 357401.11 357401.11 0 1 1 714802.22 0a 357401.11 357401.11 0 1 1 -714802.22 0M 12874015.13 33464568.07 m -150528.93 0 a 150528.93 150528.93 0 1 1 301057.86 0a 150528.93 150528.93 0 1 1 -301057.86 0M 13149606.13 34094489.07 m -150528.93 0 a 150528.93 150528.93 0 1 1 301057.86 0a 150528.93 150528.93 0 1 1 -301057.86 0M 15015611.70 33879128.23 m -357393.77 0 a 357393.77 357393.77 0 1 1 714787.55 0a 357393.77 357393.77 0 1 1 -714787.55 0M 15015611.70 32879128.23 m -357393.77 0 a 357393.77 357393.77 0 1 1 714787.55 0a 357393.77 357393.77 0 1 1 -714787.55 0M 17137627.66 32879120.89 m -357401.11 0 a 357401.11 357401.11 0 1 1 714802.22 0a 357401.11 357401.11 0 1 1 -714802.22 0M 17137627.66 33879120.89 m -357401.11 0 a 357401.11 357401.11 0 1 1 714802.22 0a 357401.11 357401.11 0 1 1 -714802.22 0M 17952755.13 21259843.07 m -150528.93 0 a 150528.93 150528.93 0 1 1 301057.86 0a 150528.93 150528.93 0 1 1 -301057.86 0M 19803149.13 21102363.07 m -150528.93 0 a 150528.93 150528.93 0 1 1 301057.86 0a 150528.93 150528.93 0 1 1 -301057.86 0M 20355065.13 22593112.07 m -150528.93 0 a 150528.93 150528.93 0 1 1 301057.86 0a 150528.93 150528.93 0 1 1 -301057.86 0M 20354330.13 23149607.07 m -150528.93 0 a 150528.93 150528.93 0 1 1 301057.86 0a 150528.93 150528.93 0 1 1 -301057.86 0M 17559055.13 23262008.07 m -150528.93 0 a 150528.93 150528.93 0 1 1 301057.86 0a 150528.93 150528.93 0 1 1 -301057.86 0M 18346456.13 23543308.07 m -150528.93 0 a 150528.93 150528.93 0 1 1 301057.86 0a 150528.93 150528.93 0 1 1 -301057.86 0M 20157480.86 24566930.28 m -327604.72 0 a 327604.72 327604.72 0 1 1 655209.45 0a 327604.72 327604.72 0 1 1 -655209.45 0M 20821233.13 20191313.07 m -150528.93 0 a 150528.93 150528.93 0 1 1 301057.86 0a 150528.93 150528.93 0 1 1 -301057.86 0M 21141732.13 20275591.07 m -150528.93 0 a 150528.93 150528.93 0 1 1 301057.86 0a 150528.93 150528.93 0 1 1 -301057.86 0M 21692913.13 19842520.07 m -150528.93 0 a 150528.93 150528.93 0 1 1 301057.86 0a 150528.93 150528.93 0 1 1 -301057.86 0M 24606298.13 19837276.07 m -150528.93 0 a 150528.93 150528.93 0 1 1 301057.86 0a 150528.93 150528.93 0 1 1 -301057.86 0M 20669291.13 21102363.07 m -150528.93 0 a 150528.93 150528.93 0 1 1 301057.86 0a 150528.93 150528.93 0 1 1 -301057.86 0M 20708661.13 21535434.07 m -150528.93 0 a 150528.93 150528.93 0 1 1 301057.86 0a 150528.93 150528.93 0 1 1 -301057.86 0M 20669291.13 23779528.07 m -150528.93 0 a 150528.93 150528.93 0 1 1 301057.86 0a 150528.93 150528.93 0 1 1 -301057.86 0M 24606298.13 20178483.07 m -150528.93 0 a 150528.93 150528.93 0 1 1 301057.86 0a 150528.93 150528.93 0 1 1 -301057.86 0M 24881889.13 19988189.07 m -150528.93 0 a 150528.93 150528.93 0 1 1 301057.86 0a 150528.93 150528.93 0 1 1 -301057.86 0M 24606298.13 20519690.07 m -150528.93 0 a 150528.93 150528.93 0 1 1 301057.86 0a 150528.93 150528.93 0 1 1 -301057.86 0M 24881889.13 20330708.07 m -150528.93 0 a 150528.93 150528.93 0 1 1 301057.86 0a 150528.93 150528.93 0 1 1 -301057.86 0M 24606298.13 20860897.07 m -150528.93 0 a 150528.93 150528.93 0 1 1 301057.86 0a 150528.93 150528.93 0 1 1 -301057.86 0M 24881889.13 20673227.07 m -150528.93 0 a 150528.93 150528.93 0 1 1 301057.86 0a 150528.93 150528.93 0 1 1 -301057.86 0M 24881889.13 21015746.07 m -150528.93 0 a 150528.93 150528.93 0 1 1 301057.86 0a 150528.93 150528.93 0 1 1 -301057.86 0M 24606298.13 21202104.07 m -150528.93 0 a 150528.93 150528.93 0 1 1 301057.86 0a 150528.93 150528.93 0 1 1 -301057.86 0M 24881889.13 21358265.07 m -150528.93 0 a 150528.93 150528.93 0 1 1 301057.86 0a 150528.93 150528.93 0 1 1 -301057.86 0M 24606298.13 21543311.07 m -150528.93 0 a 150528.93 150528.93 0 1 1 301057.86 0a 150528.93 150528.93 0 1 1 -301057.86 0M 24881889.13 21700784.07 m -150528.93 0 a 150528.93 150528.93 0 1 1 301057.86 0a 150528.93 150528.93 0 1 1 -301057.86 0M 25590551.13 21889764.07 m -150528.93 0 a 150528.93 150528.93 0 1 1 301057.86 0a 150528.93 150528.93 0 1 1 -301057.86 0M 25236220.86 25314961.28 m -327604.72 0 a 327604.72 327604.72 0 1 1 655209.45 0a 327604.72 327604.72 0 1 1 -655209.45 0M 18661417.86 25748032.28 m -327604.72 0 a 327604.72 327604.72 0 1 1 655209.45 0a 327604.72 327604.72 0 1 1 -655209.45 0M 20866141.13 25984253.07 m -150528.93 0 a 150528.93 150528.93 0 1 1 301057.86 0a 150528.93 150528.93 0 1 1 -301057.86 0M 21614173.13 25975197.07 m -150528.93 0 a 150528.93 150528.93 0 1 1 301057.86 0a 150528.93 150528.93 0 1 1 -301057.86 0M 21850393.13 26338583.07 m -150528.93 0 a 150528.93 150528.93 0 1 1 301057.86 0a 150528.93 150528.93 0 1 1 -301057.86 0M 17322834.13 26574804.07 m -150528.93 0 a 150528.93 150528.93 0 1 1 301057.86 0a 150528.93 150528.93 0 1 1 -301057.86 0M 18031496.13 26535434.07 m -150528.93 0 a 150528.93 150528.93 0 1 1 301057.86 0a 150528.93 150528.93 0 1 1 -301057.86 0M 18933008.13 31163642.07 m -150528.93 0 a 150528.93 150528.93 0 1 1 301057.86 0a 150528.93 150528.93 0 1 1 -301057.86 0M 23188976.13 26102363.07 m -150528.93 0 a 150528.93 150528.93 0 1 1 301057.86 0a 150528.93 150528.93 0 1 1 -301057.86 0M 24094488.13 26377953.07 m -150528.93 0 a 150528.93 150528.93 0 1 1 301057.86 0a 150528.93 150528.93 0 1 1 -301057.86 0M 25000000.13 26535434.07 m -150528.93 0 a 150528.93 150528.93 0 1 1 301057.86 0a 150528.93 150528.93 0 1 1 -301057.86 0M 22519685.13 26653544.07 m -150528.93 0 a 150528.93 150528.93 0 1 1 301057.86 0a 150528.93 150528.93 0 1 1 -301057.86 0M 24590523.13 31163642.07 m -150528.93 0 a 150528.93 150528.93 0 1 1 301057.86 0a 150528.93 150528.93 0 1 1 -301057.86 0M 22559055.13 31181103.07 m -150528.93 0 a 150528.93 150528.93 0 1 1 301057.86 0a 150528.93 150528.93 0 1 1 -301057.86 0M 19259641.70 31879128.23 m -357393.77 0 a 357393.77 357393.77 0 1 1 714787.55 0a 357393.77 357393.77 0 1 1 -714787.55 0M 19259641.70 32879128.23 m -357393.77 0 a 357393.77 357393.77 0 1 1 714787.55 0a 357393.77 357393.77 0 1 1 -714787.55 0M 19259641.70 33879128.23 m -357393.77 0 a 357393.77 357393.77 0 1 1 714787.55 0a 357393.77 357393.77 0 1 1 -714787.55 0M 21889763.13 34763780.07 m -150528.93 0 a 150528.93 150528.93 0 1 1 301057.86 0a 150528.93 150528.93 0 1 1 -301057.86 0M 22795141.70 32879128.23 m -357393.77 0 a 357393.77 357393.77 0 1 1 714787.55 0a 357393.77 357393.77 0 1 1 -714787.55 0M 22795141.70 33879128.23 m -357393.77 0 a 357393.77 357393.77 0 1 1 714787.55 0a 357393.77 357393.77 0 1 1 -714787.55 0M 21889763.13 34409449.07 m -150528.93 0 a 150528.93 150528.93 0 1 1 301057.86 0a 150528.93 150528.93 0 1 1 -301057.86 0M 22795141.70 31879128.23 m -357393.77 0 a 357393.77 357393.77 0 1 1 714787.55 0a 357393.77 357393.77 0 1 1 -714787.55 0M 24917157.66 31879120.89 m -357401.11 0 a 357401.11 357401.11 0 1 1 714802.22 0a 357401.11 357401.11 0 1 1 -714802.22 0M 24917157.66 32879120.89 m -357401.11 0 a 357401.11 357401.11 0 1 1 714802.22 0a 357401.11 357401.11 0 1 1 -714802.22 0M 24917157.66 33879120.89 m -357401.11 0 a 357401.11 357401.11 0 1 1 714802.22 0a 357401.11 357401.11 0 1 1 -714802.22 0M 25590551.13 34409449.07 m -150528.93 0 a 150528.93 150528.93 0 1 1 301057.86 0a 150528.93 150528.93 0 1 1 -301057.86 0M 25590551.13 34842520.07 m -150528.93 0 a 150528.93 150528.93 0 1 1 301057.86 0a 150528.93 150528.93 0 1 1 -301057.86 0M 26946459.66 5498805.89 m -357401.11 0 a 357401.11 357401.11 0 1 1 714802.22 0a 357401.11 357401.11 0 1 1 -714802.22 0M 26946459.66 6498805.89 m -357401.11 0 a 357401.11 357401.11 0 1 1 714802.22 0a 357401.11 357401.11 0 1 1 -714802.22 0M 26946459.66 7498805.89 m -357401.11 0 a 357401.11 357401.11 0 1 1 714802.22 0a 357401.11 357401.11 0 1 1 -714802.22 0M 26889763.13 8267717.07 m -150528.93 0 a 150528.93 150528.93 0 1 1 301057.86 0a 150528.93 150528.93 0 1 1 -301057.86 0M 29375748.13 7986614.07 m -150528.93 0 a 150528.93 150528.93 0 1 1 301057.86 0a 150528.93 150528.93 0 1 1 -301057.86 0M 29685039.13 7992127.07 m -150528.93 0 a 150528.93 150528.93 0 1 1 301057.86 0a 150528.93 150528.93 0 1 1 -301057.86 0M 31373937.13 8485827.07 m -150528.93 0 a 150528.93 150528.93 0 1 1 301057.86 0a 150528.93 150528.93 0 1 1 -301057.86 0M 30196850.13 8622048.07 m -150528.93 0 a 150528.93 150528.93 0 1 1 301057.86 0a 150528.93 150528.93 0 1 1 -301057.86 0M 31299202.13 9448817.07 m -150528.93 0 a 150528.93 150528.93 0 1 1 301057.86 0a 150528.93 150528.93 0 1 1 -301057.86 0M 31889753.13 9448817.07 m -150528.93 0 a 150528.93 150528.93 0 1 1 301057.86 0a 150528.93 150528.93 0 1 1 -301057.86 0M 31594477.13 10039368.07 m -150528.93 0 a 150528.93 150528.93 0 1 1 301057.86 0a 150528.93 150528.93 0 1 1 -301057.86 0M 31299202.13 10629919.07 m -150528.93 0 a 150528.93 150528.93 0 1 1 301057.86 0a 150528.93 150528.93 0 1 1 -301057.86 0M 31594477.13 11220470.07 m -150528.93 0 a 150528.93 150528.93 0 1 1 301057.86 0a 150528.93 150528.93 0 1 1 -301057.86 0M 31889753.13 10629919.07 m -150528.93 0 a 150528.93 150528.93 0 1 1 301057.86 0a 150528.93 150528.93 0 1 1 -301057.86 0M 26456692.13 13425197.07 m -150528.93 0 a 150528.93 150528.93 0 1 1 301057.86 0a 150528.93 150528.93 0 1 1 -301057.86 0M 29392598.13 13054017.07 m -150528.93 0 a 150528.93 150528.93 0 1 1 301057.86 0a 150528.93 150528.93 0 1 1 -301057.86 0M 29685039.13 13346457.07 m -150528.93 0 a 150528.93 150528.93 0 1 1 301057.86 0a 150528.93 150528.93 0 1 1 -301057.86 0M 29566929.13 13818898.07 m -150528.93 0 a 150528.93 150528.93 0 1 1 301057.86 0a 150528.93 150528.93 0 1 1 -301057.86 0M 29960629.13 13582678.07 m -150528.93 0 a 150528.93 150528.93 0 1 1 301057.86 0a 150528.93 150528.93 0 1 1 -301057.86 0M 31299202.13 12992123.07 m -150528.93 0 a 150528.93 150528.93 0 1 1 301057.86 0a 150528.93 150528.93 0 1 1 -301057.86 0M 31299202.13 14173225.07 m -150528.93 0 a 150528.93 150528.93 0 1 1 301057.86 0a 150528.93 150528.93 0 1 1 -301057.86 0M 31299202.13 11811021.07 m -150528.93 0 a 150528.93 150528.93 0 1 1 301057.86 0a 150528.93 150528.93 0 1 1 -301057.86 0M 31594477.13 12401572.07 m -150528.93 0 a 150528.93 150528.93 0 1 1 301057.86 0a 150528.93 150528.93 0 1 1 -301057.86 0M 31889753.13 11811021.07 m -150528.93 0 a 150528.93 150528.93 0 1 1 301057.86 0a 150528.93 150528.93 0 1 1 -301057.86 0M 31889753.13 12992123.07 m -150528.93 0 a 150528.93 150528.93 0 1 1 301057.86 0a 150528.93 150528.93 0 1 1 -301057.86 0M 31594477.13 13582674.07 m -150528.93 0 a 150528.93 150528.93 0 1 1 301057.86 0a 150528.93 150528.93 0 1 1 -301057.86 0M 31889753.13 14173225.07 m -150528.93 0 a 150528.93 150528.93 0 1 1 301057.86 0a 150528.93 150528.93 0 1 1 -301057.86 0M 32513798.00 5023438.00 L 32459042.00 5001316.00 L 32481164.00 4946560.00 L 32535920.00 4968682.00 L 32513798.00 5023438.00  zM 32480304.13 5905511.07 m -150528.93 0 a 150528.93 150528.93 0 1 1 301057.86 0a 150528.93 150528.93 0 1 1 -301057.86 0M 33661406.13 5905511.07 m -150528.93 0 a 150528.93 150528.93 0 1 1 301057.86 0a 150528.93 150528.93 0 1 1 -301057.86 0M 33661406.13 7086613.07 m -150528.93 0 a 150528.93 150528.93 0 1 1 301057.86 0a 150528.93 150528.93 0 1 1 -301057.86 0M 33956681.13 6496062.07 m -150528.93 0 a 150528.93 150528.93 0 1 1 301057.86 0a 150528.93 150528.93 0 1 1 -301057.86 0M 34251957.13 7086613.07 m -150528.93 0 a 150528.93 150528.93 0 1 1 301057.86 0a 150528.93 150528.93 0 1 1 -301057.86 0M 34547232.13 6496062.07 m -150528.93 0 a 150528.93 150528.93 0 1 1 301057.86 0a 150528.93 150528.93 0 1 1 -301057.86 0M 32480304.13 7086613.07 m -150528.93 0 a 150528.93 150528.93 0 1 1 301057.86 0a 150528.93 150528.93 0 1 1 -301057.86 0M 32185028.13 10039368.07 m -150528.93 0 a 150528.93 150528.93 0 1 1 301057.86 0a 150528.93 150528.93 0 1 1 -301057.86 0M 32185028.13 11220470.07 m -150528.93 0 a 150528.93 150528.93 0 1 1 301057.86 0a 150528.93 150528.93 0 1 1 -301057.86 0M 32185028.13 12401572.07 m -150528.93 0 a 150528.93 150528.93 0 1 1 301057.86 0a 150528.93 150528.93 0 1 1 -301057.86 0M 32913385.13 12637796.07 m -150528.93 0 a 150528.93 150528.93 0 1 1 301057.86 0a 150528.93 150528.93 0 1 1 -301057.86 0M 32185028.13 13582674.07 m -150528.93 0 a 150528.93 150528.93 0 1 1 301057.86 0a 150528.93 150528.93 0 1 1 -301057.86 0M 34842508.13 5905511.07 m -150528.93 0 a 150528.93 150528.93 0 1 1 301057.86 0a 150528.93 150528.93 0 1 1 -301057.86 0M 35137783.13 6496062.07 m -150528.93 0 a 150528.93 150528.93 0 1 1 301057.86 0a 150528.93 150528.93 0 1 1 -301057.86 0M 34842508.13 7086613.07 m -150528.93 0 a 150528.93 150528.93 0 1 1 301057.86 0a 150528.93 150528.93 0 1 1 -301057.86 0M 35728334.13 6496062.07 m -150528.93 0 a 150528.93 150528.93 0 1 1 301057.86 0a 150528.93 150528.93 0 1 1 -301057.86 0M 36318885.13 6496062.07 m -150528.93 0 a 150528.93 150528.93 0 1 1 301057.86 0a 150528.93 150528.93 0 1 1 -301057.86 0M 36023610.13 7086613.07 m -150528.93 0 a 150528.93 150528.93 0 1 1 301057.86 0a 150528.93 150528.93 0 1 1 -301057.86 0M 37795263.13 7086613.07 m -150528.93 0 a 150528.93 150528.93 0 1 1 301057.86 0a 150528.93 150528.93 0 1 1 -301057.86 0M 35433059.13 7086613.07 m -150528.93 0 a 150528.93 150528.93 0 1 1 301057.86 0a 150528.93 150528.93 0 1 1 -301057.86 0M 36614161.13 7086613.07 m -150528.93 0 a 150528.93 150528.93 0 1 1 301057.86 0a 150528.93 150528.93 0 1 1 -301057.86 0M 37204712.13 7086613.07 m -150528.93 0 a 150528.93 150528.93 0 1 1 301057.86 0a 150528.93 150528.93 0 1 1 -301057.86 0M 36249805.00 8481338.00 L 36190749.00 8481338.00 L 36190749.00 8422282.00 L 36249805.00 8422282.00 L 36249805.00 8481338.00  zM 40078740.00 9744093.00 L 39409450.00 9744093.00 L 39409450.00 9153543.00 L 40078740.00 9153543.00 L 40078740.00 9744093.00  zM 40078740.00 15019684.00 L 39409450.00 15019684.00 L 39409450.00 14429134.00 L 40078740.00 14429134.00 L 40078740.00 15019684.00  zM 26246526.13 15961941.07 m -150528.93 0 a 150528.93 150528.93 0 1 1 301057.86 0a 150528.93 150528.93 0 1 1 -301057.86 0M 26372048.00 16220449.00 L 26353969.00 16212960.00 L 26346480.00 16194881.00 L 26353969.00 16176802.00 L 26372048.00 16169313.00 L 26390127.00 16176802.00 L 26397616.00 16194881.00 L 26390127.00 16212960.00 L 26372048.00 16220449.00  zM 26561024.00 16218503.00 L 26537402.00 16218503.00 L 26525591.00 16206692.00 L 26525591.00 16183070.00 L 26537402.00 16171259.00 L 26561024.00 16171259.00 L 26572835.00 16183070.00 L 26572835.00 16206692.00 L 26561024.00 16218503.00  zM 26738189.00 16218503.00 L 26714567.00 16218503.00 L 26702756.00 16206692.00 L 26702756.00 16183070.00 L 26714567.00 16171259.00 L 26738189.00 16171259.00 L 26750000.00 16183070.00 L 26750000.00 16206692.00 L 26738189.00 16218503.00  zM 25787401.13 16614174.07 m -150528.93 0 a 150528.93 150528.93 0 1 1 301057.86 0a 150528.93 150528.93 0 1 1 -301057.86 0M 26324804.00 16476377.00 L 26301182.00 16476377.00 L 26289371.00 16464566.00 L 26289371.00 16440944.00 L 26301182.00 16429133.00 L 26324804.00 16429133.00 L 26336615.00 16440944.00 L 26336615.00 16464566.00 L 26324804.00 16476377.00  zM 26616142.00 16937007.00 L 26592520.00 16937007.00 L 26580709.00 16925196.00 L 26580709.00 16901574.00 L 26592520.00 16889763.00 L 26616142.00 16889763.00 L 26627953.00 16901574.00 L 26627953.00 16925196.00 L 26616142.00 16937007.00  zM 26915354.00 16218503.00 L 26891732.00 16218503.00 L 26879921.00 16206692.00 L 26879921.00 16183070.00 L 26891732.00 16171259.00 L 26915354.00 16171259.00 L 26927165.00 16183070.00 L 26927165.00 16206692.00 L 26915354.00 16218503.00  zM 27092519.00 16218503.00 L 27068897.00 16218503.00 L 27057086.00 16206692.00 L 27057086.00 16183070.00 L 27068897.00 16171259.00 L 27092519.00 16171259.00 L 27104330.00 16183070.00 L 27104330.00 16206692.00 L 27092519.00 16218503.00  zM 27269684.00 16218503.00 L 27246062.00 16218503.00 L 27234251.00 16206692.00 L 27234251.00 16183070.00 L 27246062.00 16171259.00 L 27269684.00 16171259.00 L 27281495.00 16183070.00 L 27281495.00 16206692.00 L 27269684.00 16218503.00  zM 27328741.00 16476377.00 L 27305119.00 16476377.00 L 27293308.00 16464566.00 L 27293308.00 16440944.00 L 27305119.00 16429133.00 L 27328741.00 16429133.00 L 27340552.00 16440944.00 L 27340552.00 16464566.00 L 27328741.00 16476377.00  zM 26743953.00 16563134.00 L 26732284.00 16545670.02 L 26720615.00 16563134.00 A 150528.93 150528.93 0 1 1 26720615.00 16350252.00 L 26732284.00 16367715.98 L 26743953.00 16350252.00 A 150528.93 150528.93 0 1 1 26743953.00 16563134.00  zM 27220473.00 17114173.00 L 27196851.00 17114173.00 L 27185040.00 17102362.00 L 27185040.00 17078740.00 L 27196851.00 17066929.00 L 27220473.00 17066929.00 L 27232284.00 17078740.00 L 27232284.00 17102362.00 L 27220473.00 17114173.00  zM 26811023.13 17125985.07 m -150528.93 0 a 150528.93 150528.93 0 1 1 301057.86 0a 150528.93 150528.93 0 1 1 -301057.86 0M 26181102.13 17125985.07 m -150528.93 0 a 150528.93 150528.93 0 1 1 301057.86 0a 150528.93 150528.93 0 1 1 -301057.86 0M 26496063.13 17125985.07 m -150528.93 0 a 150528.93 150528.93 0 1 1 301057.86 0a 150528.93 150528.93 0 1 1 -301057.86 0M 25866141.13 17125985.07 m -150528.93 0 a 150528.93 150528.93 0 1 1 301057.86 0a 150528.93 150528.93 0 1 1 -301057.86 0M 27165354.13 19330709.07 m -150528.93 0 a 150528.93 150528.93 0 1 1 301057.86 0a 150528.93 150528.93 0 1 1 -301057.86 0M 26929133.13 19566930.07 m -150528.93 0 a 150528.93 150528.93 0 1 1 301057.86 0a 150528.93 150528.93 0 1 1 -301057.86 0M 26771653.13 19842520.07 m -150528.93 0 a 150528.93 150528.93 0 1 1 301057.86 0a 150528.93 150528.93 0 1 1 -301057.86 0M 28543307.13 19330709.07 m -150528.93 0 a 150528.93 150528.93 0 1 1 301057.86 0a 150528.93 150528.93 0 1 1 -301057.86 0M 26574803.13 20118111.07 m -150528.93 0 a 150528.93 150528.93 0 1 1 301057.86 0a 150528.93 150528.93 0 1 1 -301057.86 0M 26929133.13 20118111.07 m -150528.93 0 a 150528.93 150528.93 0 1 1 301057.86 0a 150528.93 150528.93 0 1 1 -301057.86 0M 27125984.13 19842520.07 m -150528.93 0 a 150528.93 150528.93 0 1 1 301057.86 0a 150528.93 150528.93 0 1 1 -301057.86 0M 27283464.13 20118111.07 m -150528.93 0 a 150528.93 150528.93 0 1 1 301057.86 0a 150528.93 150528.93 0 1 1 -301057.86 0M 28346456.13 20118111.07 m -150528.93 0 a 150528.93 150528.93 0 1 1 301057.86 0a 150528.93 150528.93 0 1 1 -301057.86 0M 28543307.13 19842520.07 m -150528.93 0 a 150528.93 150528.93 0 1 1 301057.86 0a 150528.93 150528.93 0 1 1 -301057.86 0M 29566929.13 15551178.07 m -150528.93 0 a 150528.93 150528.93 0 1 1 301057.86 0a 150528.93 150528.93 0 1 1 -301057.86 0M 30472440.13 15590552.07 m -150528.93 0 a 150528.93 150528.93 0 1 1 301057.86 0a 150528.93 150528.93 0 1 1 -301057.86 0M 31594477.13 14763776.07 m -150528.93 0 a 150528.93 150528.93 0 1 1 301057.86 0a 150528.93 150528.93 0 1 1 -301057.86 0M 31299202.13 15354327.07 m -150528.93 0 a 150528.93 150528.93 0 1 1 301057.86 0a 150528.93 150528.93 0 1 1 -301057.86 0M 32185028.13 14763776.07 m -150528.93 0 a 150528.93 150528.93 0 1 1 301057.86 0a 150528.93 150528.93 0 1 1 -301057.86 0M 31889753.13 15354327.07 m -150528.93 0 a 150528.93 150528.93 0 1 1 301057.86 0a 150528.93 150528.93 0 1 1 -301057.86 0M 31594477.13 15944878.07 m -150528.93 0 a 150528.93 150528.93 0 1 1 301057.86 0a 150528.93 150528.93 0 1 1 -301057.86 0M 31299202.13 16535429.07 m -150528.93 0 a 150528.93 150528.93 0 1 1 301057.86 0a 150528.93 150528.93 0 1 1 -301057.86 0M 31889753.13 16535429.07 m -150528.93 0 a 150528.93 150528.93 0 1 1 301057.86 0a 150528.93 150528.93 0 1 1 -301057.86 0M 32185028.13 15944878.07 m -150528.93 0 a 150528.93 150528.93 0 1 1 301057.86 0a 150528.93 150528.93 0 1 1 -301057.86 0M 31594477.13 17125980.07 m -150528.93 0 a 150528.93 150528.93 0 1 1 301057.86 0a 150528.93 150528.93 0 1 1 -301057.86 0M 31299202.13 17716531.07 m -150528.93 0 a 150528.93 150528.93 0 1 1 301057.86 0a 150528.93 150528.93 0 1 1 -301057.86 0M 32185028.13 17125980.07 m -150528.93 0 a 150528.93 150528.93 0 1 1 301057.86 0a 150528.93 150528.93 0 1 1 -301057.86 0M 28740157.13 19566930.07 m -150528.93 0 a 150528.93 150528.93 0 1 1 301057.86 0a 150528.93 150528.93 0 1 1 -301057.86 0M 28897637.13 19842520.07 m -150528.93 0 a 150528.93 150528.93 0 1 1 301057.86 0a 150528.93 150528.93 0 1 1 -301057.86 0M 28700787.13 20118111.07 m -150528.93 0 a 150528.93 150528.93 0 1 1 301057.86 0a 150528.93 150528.93 0 1 1 -301057.86 0M 29055118.13 20118111.07 m -150528.93 0 a 150528.93 150528.93 0 1 1 301057.86 0a 150528.93 150528.93 0 1 1 -301057.86 0M 31299202.13 18897633.07 m -150528.93 0 a 150528.93 150528.93 0 1 1 301057.86 0a 150528.93 150528.93 0 1 1 -301057.86 0M 31594477.13 19488184.07 m -150528.93 0 a 150528.93 150528.93 0 1 1 301057.86 0a 150528.93 150528.93 0 1 1 -301057.86 0M 31299202.13 20078735.07 m -150528.93 0 a 150528.93 150528.93 0 1 1 301057.86 0a 150528.93 150528.93 0 1 1 -301057.86 0M 31889753.13 17716531.07 m -150528.93 0 a 150528.93 150528.93 0 1 1 301057.86 0a 150528.93 150528.93 0 1 1 -301057.86 0M 31594477.13 18307082.07 m -150528.93 0 a 150528.93 150528.93 0 1 1 301057.86 0a 150528.93 150528.93 0 1 1 -301057.86 0M 32185028.13 18307082.07 m -150528.93 0 a 150528.93 150528.93 0 1 1 301057.86 0a 150528.93 150528.93 0 1 1 -301057.86 0M 31889753.13 18897633.07 m -150528.93 0 a 150528.93 150528.93 0 1 1 301057.86 0a 150528.93 150528.93 0 1 1 -301057.86 0M 32185028.13 19488184.07 m -150528.93 0 a 150528.93 150528.93 0 1 1 301057.86 0a 150528.93 150528.93 0 1 1 -301057.86 0M 31889753.13 20078735.07 m -150528.93 0 a 150528.93 150528.93 0 1 1 301057.86 0a 150528.93 150528.93 0 1 1 -301057.86 0M 25905511.13 21889764.07 m -150528.93 0 a 150528.93 150528.93 0 1 1 301057.86 0a 150528.93 150528.93 0 1 1 -301057.86 0M 26220472.13 21889764.07 m -150528.93 0 a 150528.93 150528.93 0 1 1 301057.86 0a 150528.93 150528.93 0 1 1 -301057.86 0M 26535433.13 21889764.07 m -150528.93 0 a 150528.93 150528.93 0 1 1 301057.86 0a 150528.93 150528.93 0 1 1 -301057.86 0M 26850393.13 21889764.07 m -150528.93 0 a 150528.93 150528.93 0 1 1 301057.86 0a 150528.93 150528.93 0 1 1 -301057.86 0M 27165354.13 21889764.07 m -150528.93 0 a 150528.93 150528.93 0 1 1 301057.86 0a 150528.93 150528.93 0 1 1 -301057.86 0M 27480315.13 21889764.07 m -150528.93 0 a 150528.93 150528.93 0 1 1 301057.86 0a 150528.93 150528.93 0 1 1 -301057.86 0M 27795275.13 21889764.07 m -150528.93 0 a 150528.93 150528.93 0 1 1 301057.86 0a 150528.93 150528.93 0 1 1 -301057.86 0M 28110236.13 21889764.07 m -150528.93 0 a 150528.93 150528.93 0 1 1 301057.86 0a 150528.93 150528.93 0 1 1 -301057.86 0M 28425197.13 21889764.07 m -150528.93 0 a 150528.93 150528.93 0 1 1 301057.86 0a 150528.93 150528.93 0 1 1 -301057.86 0M 28740157.13 21889764.07 m -150528.93 0 a 150528.93 150528.93 0 1 1 301057.86 0a 150528.93 150528.93 0 1 1 -301057.86 0M 29055118.13 21889764.07 m -150528.93 0 a 150528.93 150528.93 0 1 1 301057.86 0a 150528.93 150528.93 0 1 1 -301057.86 0M 31594477.13 20669286.07 m -150528.93 0 a 150528.93 150528.93 0 1 1 301057.86 0a 150528.93 150528.93 0 1 1 -301057.86 0M 31299202.13 21259837.07 m -150528.93 0 a 150528.93 150528.93 0 1 1 301057.86 0a 150528.93 150528.93 0 1 1 -301057.86 0M 31594477.13 21850388.07 m -150528.93 0 a 150528.93 150528.93 0 1 1 301057.86 0a 150528.93 150528.93 0 1 1 -301057.86 0M 28779527.13 22992127.07 m -150528.93 0 a 150528.93 150528.93 0 1 1 301057.86 0a 150528.93 150528.93 0 1 1 -301057.86 0M 29212598.13 22952757.07 m -150528.93 0 a 150528.93 150528.93 0 1 1 301057.86 0a 150528.93 150528.93 0 1 1 -301057.86 0M 31299202.13 22440939.07 m -150528.93 0 a 150528.93 150528.93 0 1 1 301057.86 0a 150528.93 150528.93 0 1 1 -301057.86 0M 31299202.13 23622041.07 m -150528.93 0 a 150528.93 150528.93 0 1 1 301057.86 0a 150528.93 150528.93 0 1 1 -301057.86 0M 31594477.13 23031490.07 m -150528.93 0 a 150528.93 150528.93 0 1 1 301057.86 0a 150528.93 150528.93 0 1 1 -301057.86 0M 31594477.13 24212592.07 m -150528.93 0 a 150528.93 150528.93 0 1 1 301057.86 0a 150528.93 150528.93 0 1 1 -301057.86 0M 31299202.13 24803143.07 m -150528.93 0 a 150528.93 150528.93 0 1 1 301057.86 0a 150528.93 150528.93 0 1 1 -301057.86 0M 26062992.13 26062993.07 m -150528.93 0 a 150528.93 150528.93 0 1 1 301057.86 0a 150528.93 150528.93 0 1 1 -301057.86 0M 29370078.13 28503938.07 m -150528.93 0 a 150528.93 150528.93 0 1 1 301057.86 0a 150528.93 150528.93 0 1 1 -301057.86 0M 30039370.13 27913386.07 m -150528.93 0 a 150528.93 150528.93 0 1 1 301057.86 0a 150528.93 150528.93 0 1 1 -301057.86 0M 31594477.13 25393694.07 m -150528.93 0 a 150528.93 150528.93 0 1 1 301057.86 0a 150528.93 150528.93 0 1 1 -301057.86 0M 31299202.13 25984245.07 m -150528.93 0 a 150528.93 150528.93 0 1 1 301057.86 0a 150528.93 150528.93 0 1 1 -301057.86 0M 31141732.13 27244095.07 m -150528.93 0 a 150528.93 150528.93 0 1 1 301057.86 0a 150528.93 150528.93 0 1 1 -301057.86 0M 32185028.13 20669286.07 m -150528.93 0 a 150528.93 150528.93 0 1 1 301057.86 0a 150528.93 150528.93 0 1 1 -301057.86 0M 31889753.13 21259837.07 m -150528.93 0 a 150528.93 150528.93 0 1 1 301057.86 0a 150528.93 150528.93 0 1 1 -301057.86 0M 32185028.13 21850388.07 m -150528.93 0 a 150528.93 150528.93 0 1 1 301057.86 0a 150528.93 150528.93 0 1 1 -301057.86 0M 31889753.13 22440939.07 m -150528.93 0 a 150528.93 150528.93 0 1 1 301057.86 0a 150528.93 150528.93 0 1 1 -301057.86 0M 31889753.13 23622041.07 m -150528.93 0 a 150528.93 150528.93 0 1 1 301057.86 0a 150528.93 150528.93 0 1 1 -301057.86 0M 32185028.13 24212592.07 m -150528.93 0 a 150528.93 150528.93 0 1 1 301057.86 0a 150528.93 150528.93 0 1 1 -301057.86 0M 31889753.13 24803143.07 m -150528.93 0 a 150528.93 150528.93 0 1 1 301057.86 0a 150528.93 150528.93 0 1 1 -301057.86 0M 32185028.13 23031490.07 m -150528.93 0 a 150528.93 150528.93 0 1 1 301057.86 0a 150528.93 150528.93 0 1 1 -301057.86 0M 35433070.13 20314961.07 m -150528.93 0 a 150528.93 150528.93 0 1 1 301057.86 0a 150528.93 150528.93 0 1 1 -301057.86 0M 40011811.00 24968502.00 L 39342521.00 24968502.00 L 39342521.00 24377952.00 L 40011811.00 24377952.00 L 40011811.00 24968502.00  zM 33070859.13 28110232.07 m -150528.93 0 a 150528.93 150528.93 0 1 1 301057.86 0a 150528.93 150528.93 0 1 1 -301057.86 0M 34173221.13 28110232.07 m -150528.93 0 a 150528.93 150528.93 0 1 1 301057.86 0a 150528.93 150528.93 0 1 1 -301057.86 0M 34724402.13 28110232.07 m -150528.93 0 a 150528.93 150528.93 0 1 1 301057.86 0a 150528.93 150528.93 0 1 1 -301057.86 0M 32519678.13 28110232.07 m -150528.93 0 a 150528.93 150528.93 0 1 1 301057.86 0a 150528.93 150528.93 0 1 1 -301057.86 0M 32244087.13 28661413.07 m -150528.93 0 a 150528.93 150528.93 0 1 1 301057.86 0a 150528.93 150528.93 0 1 1 -301057.86 0M 32795268.13 28661413.07 m -150528.93 0 a 150528.93 150528.93 0 1 1 301057.86 0a 150528.93 150528.93 0 1 1 -301057.86 0M 33346449.13 28661413.07 m -150528.93 0 a 150528.93 150528.93 0 1 1 301057.86 0a 150528.93 150528.93 0 1 1 -301057.86 0M 33622040.13 28110232.07 m -150528.93 0 a 150528.93 150528.93 0 1 1 301057.86 0a 150528.93 150528.93 0 1 1 -301057.86 0M 33897630.13 28661413.07 m -150528.93 0 a 150528.93 150528.93 0 1 1 301057.86 0a 150528.93 150528.93 0 1 1 -301057.86 0M 34448811.13 28661413.07 m -150528.93 0 a 150528.93 150528.93 0 1 1 301057.86 0a 150528.93 150528.93 0 1 1 -301057.86 0M 34999992.13 28661413.07 m -150528.93 0 a 150528.93 150528.93 0 1 1 301057.86 0a 150528.93 150528.93 0 1 1 -301057.86 0M 38858259.13 28661413.07 m -150528.93 0 a 150528.93 150528.93 0 1 1 301057.86 0a 150528.93 150528.93 0 1 1 -301057.86 0M 39133850.13 28110232.07 m -150528.93 0 a 150528.93 150528.93 0 1 1 301057.86 0a 150528.93 150528.93 0 1 1 -301057.86 0M 39685031.13 28110232.07 m -150528.93 0 a 150528.93 150528.93 0 1 1 301057.86 0a 150528.93 150528.93 0 1 1 -301057.86 0M 39409440.13 28661413.07 m -150528.93 0 a 150528.93 150528.93 0 1 1 301057.86 0a 150528.93 150528.93 0 1 1 -301057.86 0M 39960621.13 28661413.07 m -150528.93 0 a 150528.93 150528.93 0 1 1 301057.86 0a 150528.93 150528.93 0 1 1 -301057.86 0M 26711928.13 31164253.07 m -150528.93 0 a 150528.93 150528.93 0 1 1 301057.86 0a 150528.93 150528.93 0 1 1 -301057.86 0M 28976377.13 29645670.07 m -150528.93 0 a 150528.93 150528.93 0 1 1 301057.86 0a 150528.93 150528.93 0 1 1 -301057.86 0M 27039171.70 31879128.23 m -357393.77 0 a 357393.77 357393.77 0 1 1 714787.55 0a 357393.77 357393.77 0 1 1 -714787.55 0M 28307086.13 32480316.07 m -150528.93 0 a 150528.93 150528.93 0 1 1 301057.86 0a 150528.93 150528.93 0 1 1 -301057.86 0M 27039171.70 32879128.23 m -357393.77 0 a 357393.77 357393.77 0 1 1 714787.55 0a 357393.77 357393.77 0 1 1 -714787.55 0M 27039171.70 33879128.23 m -357393.77 0 a 357393.77 357393.77 0 1 1 714787.55 0a 357393.77 357393.77 0 1 1 -714787.55 0M 28110236.13 34488190.07 m -150528.93 0 a 150528.93 150528.93 0 1 1 301057.86 0a 150528.93 150528.93 0 1 1 -301057.86 0M 31456692.13 30984253.07 m -150528.93 0 a 150528.93 150528.93 0 1 1 301057.86 0a 150528.93 150528.93 0 1 1 -301057.86 0M 31889763.13 32086615.07 m -150528.93 0 a 150528.93 150528.93 0 1 1 301057.86 0a 150528.93 150528.93 0 1 1 -301057.86 0M 31889763.13 32480316.07 m -150528.93 0 a 150528.93 150528.93 0 1 1 301057.86 0a 150528.93 150528.93 0 1 1 -301057.86 0M 30748031.13 33897638.07 m -150528.93 0 a 150528.93 150528.93 0 1 1 301057.86 0a 150528.93 150528.93 0 1 1 -301057.86 0M 31811023.13 32834646.07 m -150528.93 0 a 150528.93 150528.93 0 1 1 301057.86 0a 150528.93 150528.93 0 1 1 -301057.86 0M 32086614.13 34842520.07 m -150528.93 0 a 150528.93 150528.93 0 1 1 301057.86 0a 150528.93 150528.93 0 1 1 -301057.86 0M 32519678.13 29212594.07 m -150528.93 0 a 150528.93 150528.93 0 1 1 301057.86 0a 150528.93 150528.93 0 1 1 -301057.86 0M 32244087.13 29763775.07 m -150528.93 0 a 150528.93 150528.93 0 1 1 301057.86 0a 150528.93 150528.93 0 1 1 -301057.86 0M 33070859.13 29212594.07 m -150528.93 0 a 150528.93 150528.93 0 1 1 301057.86 0a 150528.93 150528.93 0 1 1 -301057.86 0M 32795268.13 29763775.07 m -150528.93 0 a 150528.93 150528.93 0 1 1 301057.86 0a 150528.93 150528.93 0 1 1 -301057.86 0M 33622040.13 29212594.07 m -150528.93 0 a 150528.93 150528.93 0 1 1 301057.86 0a 150528.93 150528.93 0 1 1 -301057.86 0M 33346449.13 29763775.07 m -150528.93 0 a 150528.93 150528.93 0 1 1 301057.86 0a 150528.93 150528.93 0 1 1 -301057.86 0M 33897630.13 29763775.07 m -150528.93 0 a 150528.93 150528.93 0 1 1 301057.86 0a 150528.93 150528.93 0 1 1 -301057.86 0M 32519678.13 30314956.07 m -150528.93 0 a 150528.93 150528.93 0 1 1 301057.86 0a 150528.93 150528.93 0 1 1 -301057.86 0M 33070859.13 30314956.07 m -150528.93 0 a 150528.93 150528.93 0 1 1 301057.86 0a 150528.93 150528.93 0 1 1 -301057.86 0M 33622040.13 30314956.07 m -150528.93 0 a 150528.93 150528.93 0 1 1 301057.86 0a 150528.93 150528.93 0 1 1 -301057.86 0M 33966535.00 31929134.00 L 33907479.00 31929134.00 L 33907479.00 31870078.00 L 33966535.00 31870078.00 L 33966535.00 31929134.00  zM 33946851.00 33931102.00 L 33887795.00 33931102.00 L 33887795.00 33872046.00 L 33946851.00 33872046.00 L 33946851.00 33931102.00  zM 32322834.13 34251969.07 m -150528.93 0 a 150528.93 150528.93 0 1 1 301057.86 0a 150528.93 150528.93 0 1 1 -301057.86 0M 34173221.13 29212594.07 m -150528.93 0 a 150528.93 150528.93 0 1 1 301057.86 0a 150528.93 150528.93 0 1 1 -301057.86 0M 34724402.13 29212594.07 m -150528.93 0 a 150528.93 150528.93 0 1 1 301057.86 0a 150528.93 150528.93 0 1 1 -301057.86 0M 34448811.13 29763775.07 m -150528.93 0 a 150528.93 150528.93 0 1 1 301057.86 0a 150528.93 150528.93 0 1 1 -301057.86 0M 34724402.13 30314956.07 m -150528.93 0 a 150528.93 150528.93 0 1 1 301057.86 0a 150528.93 150528.93 0 1 1 -301057.86 0M 34999992.13 29763775.07 m -150528.93 0 a 150528.93 150528.93 0 1 1 301057.86 0a 150528.93 150528.93 0 1 1 -301057.86 0M 35275583.13 30314956.07 m -150528.93 0 a 150528.93 150528.93 0 1 1 301057.86 0a 150528.93 150528.93 0 1 1 -301057.86 0M 35826764.13 30314956.07 m -150528.93 0 a 150528.93 150528.93 0 1 1 301057.86 0a 150528.93 150528.93 0 1 1 -301057.86 0M 34173221.13 30314956.07 m -150528.93 0 a 150528.93 150528.93 0 1 1 301057.86 0a 150528.93 150528.93 0 1 1 -301057.86 0M 33937007.13 31220473.07 m -150528.93 0 a 150528.93 150528.93 0 1 1 301057.86 0a 150528.93 150528.93 0 1 1 -301057.86 0M 34832677.00 31929134.00 L 34773621.00 31929134.00 L 34773621.00 31870078.00 L 34832677.00 31870078.00 L 34832677.00 31929134.00  zM 33966535.00 32930118.00 L 33907479.00 32930118.00 L 33907479.00 32871062.00 L 33966535.00 32871062.00 L 33966535.00 32930118.00  zM 34832677.00 32930118.00 L 34773621.00 32930118.00 L 34773621.00 32871062.00 L 34832677.00 32871062.00 L 34832677.00 32930118.00  zM 34812993.00 33931102.00 L 34753937.00 33931102.00 L 34753937.00 33872046.00 L 34812993.00 33872046.00 L 34812993.00 33931102.00  zM 38307078.13 29763775.07 m -150528.93 0 a 150528.93 150528.93 0 1 1 301057.86 0a 150528.93 150528.93 0 1 1 -301057.86 0M 38031488.13 30314956.07 m -150528.93 0 a 150528.93 150528.93 0 1 1 301057.86 0a 150528.93 150528.93 0 1 1 -301057.86 0M 38858259.13 29763775.07 m -150528.93 0 a 150528.93 150528.93 0 1 1 301057.86 0a 150528.93 150528.93 0 1 1 -301057.86 0M 38582669.13 30314956.07 m -150528.93 0 a 150528.93 150528.93 0 1 1 301057.86 0a 150528.93 150528.93 0 1 1 -301057.86 0M 39133850.13 29212594.07 m -150528.93 0 a 150528.93 150528.93 0 1 1 301057.86 0a 150528.93 150528.93 0 1 1 -301057.86 0M 39685031.13 29212594.07 m -150528.93 0 a 150528.93 150528.93 0 1 1 301057.86 0a 150528.93 150528.93 0 1 1 -301057.86 0M 40011811.00 30244093.00 L 39342521.00 30244093.00 L 39342521.00 29653543.00 L 40011811.00 29653543.00 L 40011811.00 30244093.00  zM 36377945.13 30314956.07 m -150528.93 0 a 150528.93 150528.93 0 1 1 301057.86 0a 150528.93 150528.93 0 1 1 -301057.86 0M 36929126.13 30314956.07 m -150528.93 0 a 150528.93 150528.93 0 1 1 301057.86 0a 150528.93 150528.93 0 1 1 -301057.86 0M 37480307.13 30314956.07 m -150528.93 0 a 150528.93 150528.93 0 1 1 301057.86 0a 150528.93 150528.93 0 1 1 -301057.86 0M 37086611.00 32246157.00 L 36377949.00 32246157.00 L 36377949.00 31537495.00 L 37086611.00 31537495.00 L 37086611.00 32246157.00  zM 36732281.70 32876073.23 m -357393.77 0 a 357393.77 357393.77 0 1 1 714787.55 0a 357393.77 357393.77 0 1 1 -714787.55 0M 36732281.70 33860325.23 m -357393.77 0 a 357393.77 357393.77 0 1 1 714787.55 0a 357393.77 357393.77 0 1 1 -714787.55 0"/>
</g>
</svg>
