M48
;Layer_Color=9474304
;FILE_FORMAT=2:4
INCH,TZ
;TYPE=PLATED
T01F00S00C0.0118
T02F00S00C0.0236
T03F00S00C0.0433
T04F00S00C0.0453
T06F00S00C0.0709
%
T01
X-22165Y-29331
X-20394Y-27795
X-19803Y-27756
X-19173Y-27402
X-20966Y-26614
X-21496
Y-26142
X-20727Y-25945
X-21220Y-25276
X-22835Y-25630
X-17584Y-24039
X-17362Y-23858
X-14821Y-24051
X-14506
Y-24366
X-14191Y-24051
X-14134Y-25197
X-14764Y-31063
X-15512Y-34528
X-12441Y-31063
X-10512
X-7008
X-4764Y-31102
X-2638
X-152Y-31383
X157Y-31378
X669Y-30748
X433Y-25787
X157Y-26024
X-135Y-26316
X39Y-25551
Y-23819
X945Y-23780
X-3071Y-25945
X-4291Y-26535
X-7323
X-7117Y-24457
X-8346Y-25079
X-9291Y-25118
X-9843Y-25591
X-10118Y-26260
X-10866Y-25354
X-11181Y-25118
X-12717Y-25197
X-13780Y-25433
X-13819Y-26027
X-13346Y-26497
X-10000Y-24012
X-9685
X-9370
X-9685Y-24327
X1772Y-24016
X2362
X2657Y-24606
X2067
X1772Y-25197
X2362
X2657Y-25787
X2067
X1772Y-26378
X2362
X2657Y-26969
X2067
X1772Y-27559
X2362
X2657Y-28150
X2067
X1772Y-28740
X2362
X2657Y-29331
X2067
X1772Y-29921
X2362
X1846Y-30884
X2953Y-32283
X4134
X4724
X5315
X5906
X6496
X7087
X7677
X8268
X6791Y-32874
X6201
X5610
X5020
X4429
X4134Y-33465
X5315
X2953
X3386Y-26732
X2657Y-23425
X2067
X1772Y-22835
X2362
X2657Y-22244
X2067
X1772Y-21654
X2362
X2657Y-21063
X2067
X1772Y-20472
X2362
X2657Y-19882
X2067
X1772Y-19291
X2362
X2657Y-18701
X2067
X1772Y-18110
X2362
X2657Y-17520
X2067
X1772Y-16929
X2362
X2657Y-16339
X2067
X1772Y-15748
X2362
X2657Y-15157
X2067
X1772Y-14567
X2362
X2067Y-13976
X1772Y-13386
X2992Y-11260
X3543
X4094
X4646
X5197
X5472Y-10709
X4921
X4370
X3819
X3268
X2717
X2992Y-10157
X3543
X4094
X4646
X5197
X5472Y-9606
X4921
X4370
X3819
X3268
X2717
X2992Y-9055
X3543
X4094
X4646
X5197
X5748
X6299
X6850
X7402
X7953
X8504
X9055
X9331Y-9606
X8780
X9606Y-10157
X10157
X10433Y-10709
X9882
X9331
X9606Y-11260
X10157
X4409Y-8150
X1929Y-8386
X5906Y-19055
X-472Y-19252
X-827
X-1181
X-984Y-19528
X-630
X-787Y-19803
X-984Y-20039
X-2362
X-2598Y-19803
X-2756Y-19528
X-2402
X-2244Y-19252
X-2598
X-2953
X-2992Y-17480
X-2677
X-2362
X-2047
X-1732
X-1417
X-1102
X-787
X-472
X-315Y-16417
X-748Y-16378
X-3307Y-17480
X-3622
X-3937
X-4646Y-17669
Y-18012
Y-18354
Y-18697
Y-19039
Y-19382
Y-19724
Y-20067
Y-20409
Y-20752
Y-21094
X-4646Y-21850
X-4961
X-5276
X-5591
X-5906
X-6220
X-6535
X-6772Y-22756
Y-23071
Y-23386
X-6535Y-23701
X-6220
X-5906
X-5591
X-5276
X-4685Y-23031
Y-22717
X-3740Y-22756
X-3661Y-22244
X-3346
X-3031
X-2717
X-2677Y-22913
X-2913
X-3281Y-23408
X-4094Y-21614
X-4331Y-21811
X-4921Y-20556
Y-20215
Y-19874
Y-19533
Y-19192
Y-18850
Y-18509
Y-18168
Y-17827
X-6890Y-19685
X-7835Y-19843
Y-19528
X-8386Y-19094
X-8706Y-19179
X-8858Y-18268
X-8819Y-17835
X-9724Y-18268
X-11575Y-18110
X-11968Y-16108
X-12480Y-16120
X-12343Y-15320
Y-15005
Y-14690
X-12028Y-15005
X-12658
X-13583Y-15354
X-13425Y-14331
X-13583Y-12992
X-13898Y-12756
X-12205Y-12795
X-11496Y-12835
X-11181Y-15827
X-9173Y-16220
X-9172Y-16777
X-8858Y-15591
X-8661Y-13386
X-7913Y-13395
X-7677Y-13032
X-7008Y-12717
X-6339Y-13268
X-5433Y-12992
X-4528Y-12835
X-3465Y-13307
X-6225Y-15117
X-6540
Y-14814
Y-15432
X-6855Y-15117
X-6969Y-8189
X-4937Y-8206
X-2816Y-8206
X-551Y-9724
X-157Y-10866
X512Y-11457
X1614Y-12126
X-10595Y-8206
X-12738Y-8205
X-13740Y-17047
X-13780Y-22391
Y-23013
X-11315Y-23697
X-9685Y-23697
X-9567Y-22609
X-10039
X-9528Y-20551
X-11575Y-20906
X-14331Y-20591
X-14882Y-21102
X-15276
Y-20197
X-16299Y-21102
X-17126Y-22244
X-17362Y-22480
X-17580Y-22717
X-17126Y-23661
X-14506Y-23736
X-14882Y-22795
X-15276Y-22333
X-14331
X-14234Y-18543
X-14034Y-17992
X-15866Y-17323
X-16142Y-16535
X-16120Y-16203
X-15990Y-15861
X-15773Y-15644
X-15517Y-15388
X-15281Y-15152
X-14488Y-15866
X-17165Y-14882
X-16929Y-14567
X-16417Y-14094
X-17441Y-13661
X-17205Y-13386
X-16946Y-13094
X-20945Y-12756
X-20709Y-12283
X-22047Y-11339
X-20945Y-10000
X-23425Y-13701
X-23858Y-13386
X-22874Y-18701
X-21732Y-19213
X-21535Y-19724
X-20945
X-20709Y-19213
X-21850Y-18032
X-17835Y-5866
X-17559Y-5276
X-16378
X-16654Y-5906
X-14837Y-8101
X-7638Y-4961
Y-4606
X-3937Y-4528
Y-4961
X-1417Y-4882
X-1220Y-6890
X1220Y-5472
X2795Y-5118
X2559Y-4528
X2283Y-6535
X2362Y-6890
Y-7283
T02
X-10551Y-21850
X-9882Y-20984
X-8622Y-21850
X-9370Y-14803
X-10866Y-13622
X-4291Y-14055
X-15039Y-13740
T03
X-14512Y-33871
Y-32871
Y-31871
X-12390
Y-32871
Y-33871
X-10268
Y-32871
Y-31871
X-6732
Y-32871
Y-33871
X-4610
Y-32871
Y-31871
X-2581
Y-32871
Y-33871
X-14512Y-7491
Y-6491
Y-5491
X-12390
Y-6491
Y-7491
X-10268
Y-6491
Y-5491
X-6732
Y-6491
Y-7491
X-4610
Y-6491
Y-5491
X-2488
Y-6491
Y-7491
T04
X7205Y-7478
Y-6494
Y-5510
T06
X-18406Y-31756
Y-30197
Y-28638
Y-27079
Y-25520
Y-22703
Y-21144
Y-19585
Y-18026
Y-16467
Y-13850
Y-12291
Y-10732
Y-9173
Y-7614
M30
