G04*
G04 #@! TF.GenerationSoftware,Altium Limited,Altium Designer,24.1.2 (44)*
G04*
G04 Layer_Color=16711935*
%FSLAX25Y25*%
%MOIN*%
G70*
G04*
G04 #@! TF.SameCoordinates,2D7E79AC-0914-4B2E-807A-CDA8686B17FA*
G04*
G04*
G04 #@! TF.FilePolarity,Negative*
G04*
G01*
G75*
%ADD60C,0.07087*%
%ADD61C,0.11221*%
%ADD62R,0.11221X0.11221*%
%ADD63R,0.04528X0.04528*%
%ADD64R,0.07087X0.07087*%
%ADD66C,0.02953*%
%ADD67C,0.06496*%
%ADD68C,0.04528*%
G04:AMPARAMS|DCode=113|XSize=5.91mil|YSize=5.91mil|CornerRadius=0mil|HoleSize=0mil|Usage=FLASHONLY|Rotation=112.000|XOffset=0mil|YOffset=0mil|HoleType=Round|Shape=RoundedRectangle|*
%AMROUNDEDRECTD113*
21,1,0.00591,0.00591,0,0,112.0*
21,1,0.00591,0.00591,0,0,112.0*
1,1,0.00000,0.00163,0.00384*
1,1,0.00000,0.00384,-0.00163*
1,1,0.00000,-0.00163,-0.00384*
1,1,0.00000,-0.00384,0.00163*
%
%ADD113ROUNDEDRECTD113*%
G04:AMPARAMS|DCode=114|XSize=5.91mil|YSize=5.91mil|CornerRadius=0mil|HoleSize=0mil|Usage=FLASHONLY|Rotation=135.000|XOffset=0mil|YOffset=0mil|HoleType=Round|Shape=RoundedRectangle|*
%AMROUNDEDRECTD114*
21,1,0.00591,0.00591,0,0,135.0*
21,1,0.00591,0.00591,0,0,135.0*
1,1,0.00000,0.00000,0.00418*
1,1,0.00000,0.00418,0.00000*
1,1,0.00000,0.00000,-0.00418*
1,1,0.00000,-0.00418,0.00000*
%
%ADD114ROUNDEDRECTD114*%
G04:AMPARAMS|DCode=115|XSize=5.91mil|YSize=5.91mil|CornerRadius=0mil|HoleSize=0mil|Usage=FLASHONLY|Rotation=225.000|XOffset=0mil|YOffset=0mil|HoleType=Round|Shape=RoundedRectangle|*
%AMROUNDEDRECTD115*
21,1,0.00591,0.00591,0,0,225.0*
21,1,0.00591,0.00591,0,0,225.0*
1,1,0.00000,-0.00418,0.00000*
1,1,0.00000,0.00000,0.00418*
1,1,0.00000,0.00418,0.00000*
1,1,0.00000,0.00000,-0.00418*
%
%ADD115ROUNDEDRECTD115*%
G04:AMPARAMS|DCode=116|XSize=5.91mil|YSize=5.91mil|CornerRadius=0mil|HoleSize=0mil|Usage=FLASHONLY|Rotation=0.000|XOffset=0mil|YOffset=0mil|HoleType=Round|Shape=RoundedRectangle|*
%AMROUNDEDRECTD116*
21,1,0.00591,0.00591,0,0,0.0*
21,1,0.00591,0.00591,0,0,0.0*
1,1,0.00000,0.00295,-0.00295*
1,1,0.00000,-0.00295,-0.00295*
1,1,0.00000,-0.00295,0.00295*
1,1,0.00000,0.00295,0.00295*
%
%ADD116ROUNDEDRECTD116*%
G04:AMPARAMS|DCode=117|XSize=4.72mil|YSize=4.72mil|CornerRadius=0mil|HoleSize=0mil|Usage=FLASHONLY|Rotation=270.000|XOffset=0mil|YOffset=0mil|HoleType=Round|Shape=Octagon|*
%AMOCTAGOND117*
4,1,8,-0.00118,-0.00236,0.00118,-0.00236,0.00236,-0.00118,0.00236,0.00118,0.00118,0.00236,-0.00118,0.00236,-0.00236,0.00118,-0.00236,-0.00118,-0.00118,-0.00236,0.0*
%
%ADD117OCTAGOND117*%

G04:AMPARAMS|DCode=118|XSize=4.72mil|YSize=4.72mil|CornerRadius=0mil|HoleSize=0mil|Usage=FLASHONLY|Rotation=0.000|XOffset=0mil|YOffset=0mil|HoleType=Round|Shape=Octagon|*
%AMOCTAGOND118*
4,1,8,0.00236,-0.00118,0.00236,0.00118,0.00118,0.00236,-0.00118,0.00236,-0.00236,0.00118,-0.00236,-0.00118,-0.00118,-0.00236,0.00118,-0.00236,0.00236,-0.00118,0.0*
%
%ADD118OCTAGOND118*%

%ADD119C,0.00472*%
%ADD120R,0.00591X0.00591*%
D60*
X-67324Y-74910D02*
D03*
Y-64909D02*
D03*
Y-54909D02*
D03*
X-46102Y-338713D02*
D03*
Y-328713D02*
D03*
Y-318713D02*
D03*
X-145120Y-54909D02*
D03*
Y-64909D02*
D03*
Y-74910D02*
D03*
X-67324Y-338713D02*
D03*
Y-328713D02*
D03*
Y-318713D02*
D03*
X-102679D02*
D03*
Y-328713D02*
D03*
Y-338713D02*
D03*
X-123899D02*
D03*
Y-328713D02*
D03*
Y-318713D02*
D03*
X-145120Y-338713D02*
D03*
Y-328713D02*
D03*
Y-318713D02*
D03*
X-123899Y-74910D02*
D03*
Y-64909D02*
D03*
Y-54909D02*
D03*
X-102679Y-74910D02*
D03*
Y-64909D02*
D03*
Y-54909D02*
D03*
X-24884D02*
D03*
Y-64909D02*
D03*
Y-74910D02*
D03*
X-25811Y-338713D02*
D03*
Y-328713D02*
D03*
Y-318713D02*
D03*
X-46104Y-54909D02*
D03*
Y-64909D02*
D03*
Y-74910D02*
D03*
X72047Y-55098D02*
D03*
Y-64940D02*
D03*
D61*
X-184055Y-138504D02*
D03*
Y-122913D02*
D03*
Y-107323D02*
D03*
Y-91732D02*
D03*
Y-317559D02*
D03*
Y-301969D02*
D03*
Y-286378D02*
D03*
Y-270787D02*
D03*
Y-180256D02*
D03*
Y-195846D02*
D03*
Y-211437D02*
D03*
Y-227028D02*
D03*
D62*
Y-76142D02*
D03*
Y-255197D02*
D03*
Y-164665D02*
D03*
D63*
X102165Y-246457D02*
D03*
Y-299213D02*
D03*
X101496Y-94213D02*
D03*
Y-146968D02*
D03*
D64*
X72047Y-74783D02*
D03*
D66*
X12205Y-54724D02*
D03*
X25591Y-45276D02*
D03*
X27953Y-51181D02*
D03*
X-1350Y-263161D02*
D03*
X1575Y-260236D02*
D03*
X4331Y-257874D02*
D03*
X394Y-255512D02*
D03*
X18464Y-308842D02*
D03*
X59055Y-190551D02*
D03*
X33858Y-267323D02*
D03*
X6693Y-307480D02*
D03*
X9449Y-237795D02*
D03*
X-238583Y-133858D02*
D03*
X-234252Y-137008D02*
D03*
X-221654Y-293307D02*
D03*
X-198031Y-277559D02*
D03*
X-191732Y-274016D02*
D03*
X-155118Y-345276D02*
D03*
X-9843Y-200394D02*
D03*
X-23622D02*
D03*
X-7874Y-198031D02*
D03*
X-25984D02*
D03*
X-76378Y-46063D02*
D03*
X-30709Y-259449D02*
D03*
X-1518Y-313835D02*
D03*
X1575Y-313779D02*
D03*
X82677Y-322835D02*
D03*
X76771D02*
D03*
X70866D02*
D03*
X64960D02*
D03*
X67913Y-328740D02*
D03*
X59055Y-322835D02*
D03*
X62008Y-328740D02*
D03*
X53149Y-322835D02*
D03*
X56102Y-328740D02*
D03*
X53149Y-334646D02*
D03*
X47244Y-322835D02*
D03*
X50197Y-328740D02*
D03*
X41339Y-322835D02*
D03*
X44291Y-328740D02*
D03*
X41339Y-334646D02*
D03*
X29527Y-322835D02*
D03*
Y-334646D02*
D03*
X101575Y-101575D02*
D03*
X104331Y-107087D02*
D03*
X101575Y-112599D02*
D03*
X96063Y-101575D02*
D03*
X98819Y-107087D02*
D03*
X96063Y-112599D02*
D03*
X90551Y-90551D02*
D03*
X93307Y-96063D02*
D03*
Y-107087D02*
D03*
X85039Y-90551D02*
D03*
X87795Y-96063D02*
D03*
X79527Y-90551D02*
D03*
X74016D02*
D03*
X68504D02*
D03*
X62992D02*
D03*
X57480D02*
D03*
X51968D02*
D03*
X54724Y-96063D02*
D03*
X51968Y-101575D02*
D03*
X54724Y-107087D02*
D03*
X51968Y-112599D02*
D03*
X46457Y-90551D02*
D03*
X49213Y-96063D02*
D03*
X46457Y-101575D02*
D03*
X49213Y-107087D02*
D03*
X46457Y-112599D02*
D03*
X40945Y-90551D02*
D03*
X43701Y-96063D02*
D03*
X40945Y-101575D02*
D03*
X43701Y-107087D02*
D03*
X40945Y-112599D02*
D03*
X35433Y-90551D02*
D03*
X38189Y-96063D02*
D03*
X35433Y-101575D02*
D03*
X38189Y-107087D02*
D03*
X35433Y-112599D02*
D03*
X29921Y-90551D02*
D03*
X32677Y-96063D02*
D03*
X29921Y-101575D02*
D03*
X32677Y-107087D02*
D03*
X29921Y-112599D02*
D03*
X27165Y-96063D02*
D03*
Y-107087D02*
D03*
X-88583Y-155905D02*
D03*
X-86614Y-133858D02*
D03*
X-114961Y-128347D02*
D03*
X-76772Y-130315D02*
D03*
X-79134Y-133949D02*
D03*
X-3150Y-164173D02*
D03*
X-7480Y-163779D02*
D03*
X-63386Y-132677D02*
D03*
X-54331Y-129921D02*
D03*
X-34646Y-133071D02*
D03*
X-45276Y-128347D02*
D03*
X-138976Y-127559D02*
D03*
X-135827Y-129921D02*
D03*
X-155174Y-153881D02*
D03*
X-161200Y-162028D02*
D03*
X-159898Y-158606D02*
D03*
X-152812Y-151519D02*
D03*
X-157733Y-156440D02*
D03*
X-122047Y-127953D02*
D03*
X22835Y-65354D02*
D03*
X23622Y-68898D02*
D03*
X16142Y-121260D02*
D03*
X19291Y-83858D02*
D03*
X-1575Y-108661D02*
D03*
X-5512Y-97244D02*
D03*
X-12205Y-68898D02*
D03*
X-218504Y-180315D02*
D03*
X-217323Y-192126D02*
D03*
X-207087D02*
D03*
X-162992Y-211024D02*
D03*
X-220472Y-113386D02*
D03*
X-209449Y-100000D02*
D03*
X-166535Y-59055D02*
D03*
X-163779Y-52756D02*
D03*
X-175591D02*
D03*
X-158661Y-173228D02*
D03*
X-137795Y-223909D02*
D03*
X-69685Y-81890D02*
D03*
X5118Y-114567D02*
D03*
X-39370Y-174803D02*
D03*
X-46457Y-200669D02*
D03*
X-49213Y-181680D02*
D03*
Y-185092D02*
D03*
X-46457Y-197244D02*
D03*
X-49213Y-188504D02*
D03*
X-46457Y-193819D02*
D03*
X-49213Y-191916D02*
D03*
X-46457Y-190394D02*
D03*
Y-186969D02*
D03*
X-49213Y-178268D02*
D03*
Y-205564D02*
D03*
X-46457Y-183543D02*
D03*
Y-204095D02*
D03*
X-49213Y-202152D02*
D03*
X-46457Y-180118D02*
D03*
Y-207520D02*
D03*
X-49213Y-198740D02*
D03*
X-46457Y-176693D02*
D03*
Y-210945D02*
D03*
X-49213Y-195328D02*
D03*
X-70079Y-127165D02*
D03*
X-171653Y-148819D02*
D03*
X-174409Y-136614D02*
D03*
X-178347Y-58661D02*
D03*
X-169455Y-130939D02*
D03*
X-172047Y-133858D02*
D03*
X-164173Y-140945D02*
D03*
X-169291Y-145669D02*
D03*
X-161417Y-165354D02*
D03*
X-207268Y-259449D02*
D03*
X-76378Y-49606D02*
D03*
X-39370D02*
D03*
Y-45276D02*
D03*
X-203937Y-277953D02*
D03*
X-137402Y-170472D02*
D03*
X-140339Y-179921D02*
D03*
X-142339Y-185433D02*
D03*
X-152756Y-201969D02*
D03*
X-209661Y-266142D02*
D03*
X-214961Y-261417D02*
D03*
X-212205Y-252756D02*
D03*
X-214961Y-266142D02*
D03*
X-215354Y-197244D02*
D03*
X-209449D02*
D03*
Y-127559D02*
D03*
X-207087Y-122835D02*
D03*
X-144882Y-158661D02*
D03*
X-171260Y-222441D02*
D03*
X-173622Y-224803D02*
D03*
X-175803Y-227165D02*
D03*
X-171260Y-236614D02*
D03*
X-173622Y-238583D02*
D03*
X-175844Y-240387D02*
D03*
X-148819Y-211024D02*
D03*
X-152756D02*
D03*
X-148819Y-227953D02*
D03*
X-143307Y-223335D02*
D03*
X-124409Y-310630D02*
D03*
X-152756Y-223335D02*
D03*
X-228740Y-187008D02*
D03*
X-228346Y-256299D02*
D03*
X44094Y-81496D02*
D03*
X23622Y-145669D02*
D03*
X26575Y-151575D02*
D03*
X23622Y-157480D02*
D03*
X26575Y-163386D02*
D03*
X23622Y-169291D02*
D03*
X26575Y-175197D02*
D03*
X23622Y-181102D02*
D03*
X26575Y-187008D02*
D03*
X23622Y-192913D02*
D03*
X26575Y-198819D02*
D03*
X23622Y-204725D02*
D03*
X26575Y-210630D02*
D03*
X23622Y-216535D02*
D03*
X26575Y-222441D02*
D03*
X23622Y-228346D02*
D03*
X26575Y-234252D02*
D03*
X23622Y-240158D02*
D03*
X26575Y-246063D02*
D03*
X23622Y-251969D02*
D03*
X26575Y-257874D02*
D03*
X23622Y-263780D02*
D03*
X26575Y-269685D02*
D03*
X23622Y-275591D02*
D03*
X26575Y-281496D02*
D03*
X23622Y-287402D02*
D03*
X26575Y-293307D02*
D03*
X23622Y-299213D02*
D03*
X17716Y-133858D02*
D03*
X20669Y-139764D02*
D03*
X17716Y-145669D02*
D03*
X20669Y-151575D02*
D03*
X17716Y-157480D02*
D03*
X20669Y-163386D02*
D03*
X17716Y-169291D02*
D03*
X20669Y-175197D02*
D03*
X17716Y-181102D02*
D03*
X20669Y-187008D02*
D03*
X17716Y-192913D02*
D03*
X20669Y-198819D02*
D03*
X17716Y-204725D02*
D03*
X20669Y-210630D02*
D03*
X17716Y-216535D02*
D03*
X20669Y-222441D02*
D03*
X17716Y-228346D02*
D03*
X20669Y-234252D02*
D03*
X17716Y-240158D02*
D03*
X20669Y-246063D02*
D03*
X17716Y-251969D02*
D03*
X20669Y-257874D02*
D03*
X17716Y-263780D02*
D03*
X20669Y-269685D02*
D03*
X17716Y-275591D02*
D03*
X20669Y-281496D02*
D03*
X17716Y-287402D02*
D03*
X20669Y-293307D02*
D03*
X17716Y-299213D02*
D03*
X-32810Y-234081D02*
D03*
X-137795Y-230134D02*
D03*
X-100394Y-226091D02*
D03*
X-95669D02*
D03*
X-143307Y-205906D02*
D03*
X-95276Y-205512D02*
D03*
X-6299Y-195276D02*
D03*
X-9843D02*
D03*
X-24016D02*
D03*
X-27559D02*
D03*
X-4724Y-192520D02*
D03*
X-8268D02*
D03*
X-11811D02*
D03*
X-22441D02*
D03*
X-25984D02*
D03*
X-29528D02*
D03*
X-40945Y-216142D02*
D03*
X-11024Y-174803D02*
D03*
X-29921D02*
D03*
X-33071D02*
D03*
X-26772D02*
D03*
X-36220D02*
D03*
X-23622D02*
D03*
X-7874D02*
D03*
X-14173D02*
D03*
X-17323D02*
D03*
X-20472D02*
D03*
X-4724D02*
D03*
X-30315Y-222441D02*
D03*
X-33465D02*
D03*
X-36614D02*
D03*
X-59055Y-218504D02*
D03*
X-62205D02*
D03*
X-65354D02*
D03*
X-43307Y-218110D02*
D03*
X-49606Y-218504D02*
D03*
X-46457D02*
D03*
X-55905D02*
D03*
X-52756D02*
D03*
X-27165Y-222441D02*
D03*
X-83465Y-250787D02*
D03*
X-135827Y-153543D02*
D03*
X-111811Y-158268D02*
D03*
X-134252Y-143307D02*
D03*
X394Y-238189D02*
D03*
X-111811Y-251181D02*
D03*
X-92913D02*
D03*
X-108661Y-253543D02*
D03*
X-127165Y-251969D02*
D03*
X-141339D02*
D03*
X-137795Y-254331D02*
D03*
X-115748Y-209055D02*
D03*
X-124803Y-161205D02*
D03*
X-88189Y-178347D02*
D03*
X-97244Y-182677D02*
D03*
X-88583D02*
D03*
X-87063Y-191788D02*
D03*
X-101181Y-262598D02*
D03*
X-98425Y-255906D02*
D03*
X-47638Y-311024D02*
D03*
X-26378D02*
D03*
X-70079Y-310630D02*
D03*
X-133465Y-264970D02*
D03*
X-138189Y-260268D02*
D03*
X-127375Y-82052D02*
D03*
X-113146Y-236968D02*
D03*
X-83858Y-190945D02*
D03*
X-67716Y-227559D02*
D03*
Y-233858D02*
D03*
X-78347Y-198425D02*
D03*
X-91725Y-167770D02*
D03*
X-91732Y-162205D02*
D03*
X-78347Y-195276D02*
D03*
X-115748Y-181102D02*
D03*
X-119685Y-161081D02*
D03*
X-147638Y-310630D02*
D03*
X-105118D02*
D03*
X-65354Y-237008D02*
D03*
X-148374Y-81011D02*
D03*
X-105946Y-82064D02*
D03*
X-49370D02*
D03*
X-28156Y-82058D02*
D03*
X-14173Y-48819D02*
D03*
X-55905Y-237008D02*
D03*
X-59055D02*
D03*
X-67716Y-230709D02*
D03*
X-62205Y-237008D02*
D03*
X-52756D02*
D03*
X-46850Y-230315D02*
D03*
Y-227165D02*
D03*
X-37402Y-227559D02*
D03*
X-26772Y-229134D02*
D03*
X-29134D02*
D03*
X-68898Y-196850D02*
D03*
X23622Y-72835D02*
D03*
D67*
X-93701Y-148031D02*
D03*
X-108661Y-136221D02*
D03*
X-42913Y-140551D02*
D03*
X-150394Y-137402D02*
D03*
X-86221Y-218504D02*
D03*
X-105512D02*
D03*
D68*
X-98819Y-209842D02*
D03*
D113*
X29699Y-343851D02*
D03*
D114*
X-251067Y-196809D02*
D03*
Y-134193D02*
D03*
D115*
X-251055Y-259102D02*
D03*
D116*
X66927Y-309183D02*
D03*
D117*
X-29232Y-224567D02*
D03*
X-32146Y-229173D02*
D03*
X-22106D02*
D03*
X-23189Y-222795D02*
D03*
D118*
X-22697Y-231752D02*
D03*
X-24468D02*
D03*
X-26240D02*
D03*
X-28012D02*
D03*
X-29783D02*
D03*
D119*
X-31555D02*
D03*
D120*
X44094Y-64695D02*
D03*
X52756D02*
D03*
X52559Y-54685D02*
D03*
X43898D02*
D03*
X52756Y-74705D02*
D03*
X44094D02*
D03*
M02*
