G04*
G04 #@! TF.GenerationSoftware,Altium Limited,Altium Designer,24.1.2 (44)*
G04*
G04 Layer_Color=65535*
%FSLAX25Y25*%
%MOIN*%
G70*
G04*
G04 #@! TF.SameCoordinates,2D7E79AC-0914-4B2E-807A-CDA8686B17FA*
G04*
G04*
G04 #@! TF.FilePolarity,Positive*
G04*
G01*
G75*
%ADD10C,0.00984*%
%ADD11C,0.00394*%
%ADD12C,0.00787*%
%ADD13C,0.01280*%
%ADD14C,0.01000*%
%ADD15C,0.00591*%
G36*
X-178189Y-49416D02*
X-246935Y-101064D01*
X-251732Y-94678D01*
X-182986Y-43031D01*
X-178189Y-49416D01*
D02*
G37*
G36*
X-213025Y-87275D02*
X-213012Y-87287D01*
X-211387Y-89392D01*
X-211385Y-89395D01*
X-211383Y-89397D01*
X-211378Y-89414D01*
X-211377Y-89426D01*
X-211381Y-89437D01*
X-211389Y-89448D01*
X-211400Y-89461D01*
X-211725Y-89711D01*
X-211732Y-89713D01*
X-211744Y-89718D01*
X-211756Y-89719D01*
X-211761Y-89718D01*
X-211768Y-89715D01*
X-211776Y-89709D01*
X-211787Y-89701D01*
X-213412Y-87595D01*
X-213414Y-87593D01*
X-213418Y-87583D01*
X-213421Y-87573D01*
X-213422Y-87561D01*
X-213421Y-87556D01*
X-213420Y-87547D01*
X-213414Y-87539D01*
X-213406Y-87528D01*
X-213076Y-87274D01*
X-213059Y-87269D01*
X-213047Y-87268D01*
X-213035Y-87267D01*
X-213025Y-87275D01*
D02*
G37*
G36*
X-214567Y-88466D02*
X-214555Y-88477D01*
X-213206Y-90224D01*
X-212331Y-89549D01*
X-212321Y-89546D01*
X-212311Y-89542D01*
X-212295Y-89547D01*
X-212293Y-89549D01*
X-212285Y-89555D01*
X-212279Y-89563D01*
X-212276Y-89577D01*
X-212277Y-90059D01*
X-212278Y-90063D01*
X-212279Y-90072D01*
X-212281Y-90086D01*
X-212285Y-90102D01*
X-212293Y-90124D01*
X-212302Y-90144D01*
X-212319Y-90166D01*
X-212338Y-90184D01*
X-213267Y-90902D01*
X-213274Y-90903D01*
X-213287Y-90908D01*
X-213299Y-90909D01*
X-213303Y-90909D01*
X-213310Y-90905D01*
X-213318Y-90900D01*
X-213329Y-90891D01*
X-214954Y-88786D01*
X-214956Y-88783D01*
X-214960Y-88773D01*
X-214963Y-88763D01*
X-214964Y-88752D01*
X-214964Y-88747D01*
X-214960Y-88740D01*
X-214954Y-88732D01*
X-214946Y-88721D01*
X-214616Y-88467D01*
X-214599Y-88462D01*
X-214576Y-88460D01*
X-214567Y-88466D01*
D02*
G37*
G36*
X-217698Y-90895D02*
X-217668Y-90901D01*
X-214455Y-91752D01*
X-214450Y-91753D01*
X-214441Y-91758D01*
X-214433Y-91764D01*
X-214427Y-91777D01*
X-214428Y-91781D01*
X-214429Y-91786D01*
X-214432Y-91797D01*
X-214443Y-91810D01*
X-214851Y-92124D01*
X-214863Y-92130D01*
X-214881Y-92139D01*
X-214903Y-92143D01*
X-214927Y-92150D01*
X-214952Y-92149D01*
X-214980Y-92145D01*
X-217226Y-91554D01*
X-216092Y-93024D01*
X-216090Y-93026D01*
X-216088Y-93029D01*
X-216083Y-93046D01*
X-216082Y-93058D01*
X-216083Y-93067D01*
X-216091Y-93078D01*
X-216102Y-93090D01*
X-216409Y-93327D01*
X-216421Y-93332D01*
X-216439Y-93342D01*
X-216460Y-93346D01*
X-216485Y-93352D01*
X-216510Y-93351D01*
X-216538Y-93348D01*
X-218779Y-92753D01*
X-217644Y-94222D01*
X-217642Y-94225D01*
X-217640Y-94228D01*
X-217635Y-94245D01*
X-217635Y-94256D01*
X-217638Y-94268D01*
X-217647Y-94278D01*
X-217658Y-94291D01*
X-217982Y-94541D01*
X-217989Y-94543D01*
X-218002Y-94548D01*
X-218014Y-94549D01*
X-218018Y-94548D01*
X-218025Y-94545D01*
X-218034Y-94539D01*
X-218044Y-94531D01*
X-219670Y-92425D01*
X-219672Y-92423D01*
X-219675Y-92413D01*
X-219678Y-92403D01*
X-219679Y-92391D01*
X-219679Y-92387D01*
X-219677Y-92378D01*
X-219672Y-92369D01*
X-219663Y-92358D01*
X-219357Y-92122D01*
X-219344Y-92116D01*
X-219327Y-92107D01*
X-219305Y-92103D01*
X-219281Y-92097D01*
X-219253Y-92096D01*
X-219223Y-92102D01*
X-216977Y-92692D01*
X-218112Y-91223D01*
X-218114Y-91220D01*
X-218116Y-91218D01*
X-218123Y-91198D01*
X-218122Y-91177D01*
X-218116Y-91168D01*
X-218105Y-91156D01*
X-217799Y-90919D01*
X-217787Y-90914D01*
X-217769Y-90904D01*
X-217747Y-90900D01*
X-217723Y-90894D01*
X-217698Y-90895D01*
D02*
G37*
G36*
X-221513Y-93869D02*
X-218297Y-94718D01*
X-218295Y-94721D01*
X-218287Y-94727D01*
X-218281Y-94734D01*
X-218275Y-94747D01*
X-218276Y-94751D01*
X-218277Y-94756D01*
X-218280Y-94767D01*
X-218291Y-94780D01*
X-218696Y-95092D01*
X-218709Y-95098D01*
X-218726Y-95107D01*
X-218748Y-95112D01*
X-218772Y-95118D01*
X-218800Y-95119D01*
X-218828Y-95115D01*
X-219911Y-94829D01*
X-219908Y-95949D01*
X-219908Y-95954D01*
X-219910Y-95963D01*
X-219912Y-95977D01*
X-219918Y-95995D01*
X-219926Y-96017D01*
X-219938Y-96039D01*
X-219952Y-96058D01*
X-219974Y-96079D01*
X-220272Y-96309D01*
X-220280Y-96311D01*
X-220292Y-96316D01*
X-220304Y-96317D01*
X-220308Y-96316D01*
X-220315Y-96313D01*
X-220323Y-96307D01*
X-220334Y-96299D01*
X-221960Y-94193D01*
X-221962Y-94191D01*
X-221965Y-94181D01*
X-221968Y-94171D01*
X-221969Y-94159D01*
X-221969Y-94155D01*
X-221967Y-94145D01*
X-221962Y-94137D01*
X-221953Y-94126D01*
X-221647Y-93890D01*
X-221635Y-93884D01*
X-221617Y-93875D01*
X-221595Y-93871D01*
X-221571Y-93864D01*
X-221543Y-93863D01*
X-221513Y-93869D01*
D02*
G37*
G36*
X-222419Y-94527D02*
X-222406Y-94538D01*
X-220781Y-96644D01*
X-220779Y-96646D01*
X-220777Y-96649D01*
X-220772Y-96666D01*
X-220771Y-96678D01*
X-220775Y-96689D01*
X-220783Y-96699D01*
X-220794Y-96712D01*
X-221119Y-96962D01*
X-221126Y-96964D01*
X-221138Y-96969D01*
X-221150Y-96970D01*
X-221155Y-96969D01*
X-221161Y-96966D01*
X-221170Y-96961D01*
X-221181Y-96952D01*
X-222806Y-94846D01*
X-222808Y-94844D01*
X-222811Y-94834D01*
X-222815Y-94824D01*
X-222816Y-94813D01*
X-222815Y-94808D01*
X-222814Y-94799D01*
X-222808Y-94790D01*
X-222800Y-94779D01*
X-222470Y-94525D01*
X-222453Y-94520D01*
X-222441Y-94519D01*
X-222429Y-94519D01*
X-222419Y-94527D01*
D02*
G37*
G36*
X-223961Y-95717D02*
X-223948Y-95728D01*
X-222600Y-97476D01*
X-221725Y-96800D01*
X-221715Y-96797D01*
X-221705Y-96794D01*
X-221689Y-96798D01*
X-221687Y-96801D01*
X-221678Y-96806D01*
X-221673Y-96814D01*
X-221670Y-96828D01*
X-221671Y-97310D01*
X-221672Y-97315D01*
X-221673Y-97324D01*
X-221674Y-97338D01*
X-221679Y-97353D01*
X-221686Y-97376D01*
X-221696Y-97396D01*
X-221713Y-97417D01*
X-221731Y-97435D01*
X-222661Y-98153D01*
X-222668Y-98154D01*
X-222681Y-98160D01*
X-222692Y-98161D01*
X-222697Y-98160D01*
X-222704Y-98157D01*
X-222712Y-98151D01*
X-222723Y-98143D01*
X-224348Y-96037D01*
X-224350Y-96034D01*
X-224354Y-96025D01*
X-224357Y-96015D01*
X-224358Y-96003D01*
X-224357Y-95998D01*
X-224354Y-95992D01*
X-224348Y-95983D01*
X-224340Y-95973D01*
X-224010Y-95718D01*
X-223993Y-95713D01*
X-223970Y-95712D01*
X-223961Y-95717D01*
D02*
G37*
G36*
X-225503Y-96908D02*
X-225491Y-96919D01*
X-224142Y-98666D01*
X-223267Y-97991D01*
X-223257Y-97987D01*
X-223247Y-97984D01*
X-223231Y-97988D01*
X-223229Y-97991D01*
X-223221Y-97997D01*
X-223215Y-98005D01*
X-223212Y-98019D01*
X-223213Y-98501D01*
X-223214Y-98505D01*
X-223215Y-98514D01*
X-223217Y-98528D01*
X-223221Y-98544D01*
X-223229Y-98566D01*
X-223238Y-98586D01*
X-223255Y-98607D01*
X-223274Y-98626D01*
X-224203Y-99344D01*
X-224211Y-99345D01*
X-224223Y-99350D01*
X-224235Y-99351D01*
X-224239Y-99351D01*
X-224246Y-99347D01*
X-224254Y-99342D01*
X-224265Y-99333D01*
X-225890Y-97228D01*
X-225892Y-97225D01*
X-225896Y-97215D01*
X-225899Y-97205D01*
X-225900Y-97194D01*
X-225900Y-97189D01*
X-225896Y-97182D01*
X-225891Y-97174D01*
X-225882Y-97163D01*
X-225553Y-96909D01*
X-225535Y-96904D01*
X-225512Y-96902D01*
X-225503Y-96908D01*
D02*
G37*
G36*
X-227221Y-98204D02*
X-227216Y-98205D01*
X-227207Y-98206D01*
X-227198Y-98212D01*
X-227188Y-98220D01*
X-225562Y-100326D01*
X-225560Y-100329D01*
X-225558Y-100331D01*
X-225553Y-100348D01*
X-225552Y-100360D01*
X-225554Y-100369D01*
X-225562Y-100380D01*
X-225573Y-100393D01*
X-225879Y-100629D01*
X-225892Y-100635D01*
X-225909Y-100644D01*
X-225931Y-100648D01*
X-225955Y-100654D01*
X-225983Y-100655D01*
X-226011Y-100652D01*
X-228257Y-100061D01*
X-227123Y-101531D01*
X-227121Y-101533D01*
X-227119Y-101536D01*
X-227114Y-101553D01*
X-227113Y-101565D01*
X-227114Y-101574D01*
X-227122Y-101584D01*
X-227133Y-101597D01*
X-227440Y-101834D01*
X-227452Y-101839D01*
X-227467Y-101847D01*
X-227491Y-101853D01*
X-227513Y-101857D01*
X-227541Y-101858D01*
X-227569Y-101854D01*
X-230782Y-101004D01*
X-230787Y-101003D01*
X-230793Y-101000D01*
X-230801Y-100989D01*
X-230807Y-100977D01*
X-230806Y-100972D01*
X-230805Y-100963D01*
X-230801Y-100952D01*
X-230793Y-100941D01*
X-230388Y-100629D01*
X-230376Y-100623D01*
X-230358Y-100614D01*
X-230336Y-100610D01*
X-230312Y-100603D01*
X-230284Y-100602D01*
X-230254Y-100609D01*
X-228008Y-101199D01*
X-229143Y-99730D01*
X-229145Y-99727D01*
X-229148Y-99717D01*
X-229152Y-99708D01*
X-229152Y-99696D01*
X-229152Y-99691D01*
X-229151Y-99682D01*
X-229145Y-99673D01*
X-229136Y-99663D01*
X-228830Y-99426D01*
X-228818Y-99421D01*
X-228800Y-99411D01*
X-228778Y-99407D01*
X-228754Y-99401D01*
X-228726Y-99400D01*
X-228696Y-99406D01*
X-226453Y-99999D01*
X-227587Y-98529D01*
X-227589Y-98527D01*
X-227593Y-98517D01*
X-227596Y-98507D01*
X-227597Y-98495D01*
X-227596Y-98491D01*
X-227595Y-98481D01*
X-227587Y-98471D01*
X-227578Y-98460D01*
X-227254Y-98210D01*
X-227244Y-98206D01*
X-227234Y-98203D01*
X-227221Y-98204D01*
D02*
G37*
G36*
X-226350Y-97561D02*
X-226337Y-97572D01*
X-224712Y-99678D01*
X-224710Y-99681D01*
X-224708Y-99683D01*
X-224703Y-99700D01*
X-224702Y-99712D01*
X-224706Y-99723D01*
X-224714Y-99734D01*
X-224725Y-99746D01*
X-225050Y-99997D01*
X-225057Y-99998D01*
X-225069Y-100004D01*
X-225081Y-100005D01*
X-225086Y-100004D01*
X-225092Y-100001D01*
X-225101Y-99995D01*
X-225112Y-99987D01*
X-226737Y-97881D01*
X-226739Y-97878D01*
X-226742Y-97869D01*
X-226746Y-97859D01*
X-226747Y-97847D01*
X-226746Y-97842D01*
X-226745Y-97833D01*
X-226739Y-97825D01*
X-226731Y-97814D01*
X-226401Y-97559D01*
X-226384Y-97554D01*
X-226372Y-97554D01*
X-226360Y-97553D01*
X-226350Y-97561D01*
D02*
G37*
G36*
X-206679Y-72557D02*
X-206667Y-72556D01*
X-206657Y-72564D01*
X-206644Y-72575D01*
X-205019Y-74681D01*
X-205017Y-74683D01*
X-205015Y-74686D01*
X-205010Y-74703D01*
X-205009Y-74715D01*
X-205010Y-74724D01*
X-205019Y-74735D01*
X-205030Y-74747D01*
X-205336Y-74984D01*
X-205348Y-74989D01*
X-205366Y-74999D01*
X-205388Y-75003D01*
X-205412Y-75009D01*
X-205437Y-75008D01*
X-205465Y-75005D01*
X-207706Y-74410D01*
X-206572Y-75879D01*
X-206569Y-75882D01*
X-206567Y-75885D01*
X-206563Y-75902D01*
X-206562Y-75913D01*
X-206566Y-75925D01*
X-206574Y-75935D01*
X-206585Y-75948D01*
X-206909Y-76198D01*
X-206917Y-76200D01*
X-206929Y-76205D01*
X-206941Y-76206D01*
X-206945Y-76205D01*
X-206952Y-76202D01*
X-206961Y-76196D01*
X-206971Y-76188D01*
X-208597Y-74082D01*
X-208599Y-74080D01*
X-208602Y-74070D01*
X-208606Y-74060D01*
X-208606Y-74048D01*
X-208606Y-74044D01*
X-208605Y-74035D01*
X-208599Y-74026D01*
X-208591Y-74015D01*
X-208284Y-73779D01*
X-208272Y-73773D01*
X-208254Y-73764D01*
X-208232Y-73760D01*
X-208208Y-73754D01*
X-208180Y-73752D01*
X-208151Y-73759D01*
X-205905Y-74349D01*
X-207039Y-72880D01*
X-207041Y-72877D01*
X-207043Y-72875D01*
X-207050Y-72855D01*
X-207049Y-72834D01*
X-207044Y-72825D01*
X-207033Y-72813D01*
X-206708Y-72562D01*
X-206688Y-72556D01*
X-206679Y-72557D01*
D02*
G37*
G36*
X-210441Y-75526D02*
X-207225Y-76375D01*
X-207223Y-76378D01*
X-207214Y-76384D01*
X-207208Y-76392D01*
X-207203Y-76404D01*
X-207203Y-76408D01*
X-207204Y-76413D01*
X-207207Y-76424D01*
X-207218Y-76437D01*
X-207624Y-76750D01*
X-207636Y-76755D01*
X-207653Y-76764D01*
X-207675Y-76769D01*
X-207699Y-76775D01*
X-207727Y-76776D01*
X-207755Y-76772D01*
X-208838Y-76486D01*
X-208835Y-77606D01*
X-208836Y-77611D01*
X-208837Y-77620D01*
X-208839Y-77634D01*
X-208846Y-77652D01*
X-208853Y-77674D01*
X-208865Y-77696D01*
X-208880Y-77715D01*
X-208901Y-77736D01*
X-209200Y-77966D01*
X-209207Y-77968D01*
X-209219Y-77973D01*
X-209231Y-77974D01*
X-209236Y-77973D01*
X-209242Y-77970D01*
X-209251Y-77964D01*
X-209261Y-77956D01*
X-210887Y-75850D01*
X-210889Y-75848D01*
X-210892Y-75838D01*
X-210896Y-75828D01*
X-210896Y-75816D01*
X-210896Y-75812D01*
X-210895Y-75802D01*
X-210889Y-75794D01*
X-210880Y-75783D01*
X-210574Y-75547D01*
X-210562Y-75541D01*
X-210544Y-75532D01*
X-210523Y-75528D01*
X-210498Y-75521D01*
X-210470Y-75520D01*
X-210441Y-75526D01*
D02*
G37*
G36*
X-211153Y-76010D02*
X-211151Y-76013D01*
X-211142Y-76018D01*
X-211139Y-76028D01*
X-211136Y-76043D01*
X-211127Y-79367D01*
X-211127Y-79371D01*
X-211128Y-79381D01*
X-211130Y-79394D01*
X-211135Y-79410D01*
X-211142Y-79432D01*
X-211154Y-79454D01*
X-211168Y-79474D01*
X-211190Y-79494D01*
X-211491Y-79727D01*
X-211508Y-79732D01*
X-211529Y-79731D01*
X-211538Y-79725D01*
X-211550Y-79714D01*
X-212685Y-78245D01*
X-212682Y-80567D01*
X-212683Y-80572D01*
X-212684Y-80581D01*
X-212685Y-80595D01*
X-212692Y-80613D01*
X-212700Y-80635D01*
X-212712Y-80657D01*
X-212726Y-80676D01*
X-212748Y-80697D01*
X-213046Y-80927D01*
X-213053Y-80929D01*
X-213066Y-80934D01*
X-213078Y-80935D01*
X-213082Y-80934D01*
X-213089Y-80931D01*
X-213097Y-80925D01*
X-213108Y-80917D01*
X-214734Y-78811D01*
X-214736Y-78809D01*
X-214739Y-78799D01*
X-214742Y-78789D01*
X-214743Y-78777D01*
X-214742Y-78773D01*
X-214741Y-78764D01*
X-214736Y-78755D01*
X-214727Y-78744D01*
X-214403Y-78494D01*
X-214393Y-78490D01*
X-214383Y-78487D01*
X-214367Y-78487D01*
X-214362Y-78487D01*
X-214353Y-78488D01*
X-214344Y-78494D01*
X-214334Y-78503D01*
X-213199Y-79972D01*
X-213207Y-77654D01*
X-213207Y-77649D01*
X-213205Y-77640D01*
X-213204Y-77626D01*
X-213199Y-77606D01*
X-213194Y-77585D01*
X-213181Y-77564D01*
X-213167Y-77544D01*
X-213146Y-77524D01*
X-212847Y-77293D01*
X-212838Y-77290D01*
X-212828Y-77286D01*
X-212814Y-77288D01*
X-212809Y-77289D01*
X-212800Y-77290D01*
X-212792Y-77296D01*
X-212781Y-77304D01*
X-211647Y-78774D01*
X-211649Y-76451D01*
X-211649Y-76447D01*
X-211648Y-76437D01*
X-211646Y-76424D01*
X-211641Y-76403D01*
X-211636Y-76383D01*
X-211624Y-76361D01*
X-211610Y-76342D01*
X-211588Y-76321D01*
X-211188Y-76012D01*
X-211178Y-76009D01*
X-211169Y-76006D01*
X-211153Y-76010D01*
D02*
G37*
G36*
X-216573Y-80260D02*
X-213357Y-81109D01*
X-213355Y-81112D01*
X-213347Y-81118D01*
X-213341Y-81125D01*
X-213335Y-81138D01*
X-213336Y-81142D01*
X-213336Y-81147D01*
X-213340Y-81158D01*
X-213351Y-81171D01*
X-213756Y-81484D01*
X-213769Y-81489D01*
X-213786Y-81498D01*
X-213808Y-81503D01*
X-213832Y-81509D01*
X-213860Y-81510D01*
X-213888Y-81506D01*
X-214971Y-81220D01*
X-214968Y-82340D01*
X-214968Y-82345D01*
X-214970Y-82354D01*
X-214971Y-82368D01*
X-214978Y-82386D01*
X-214986Y-82408D01*
X-214998Y-82430D01*
X-215012Y-82449D01*
X-215034Y-82470D01*
X-215332Y-82700D01*
X-215339Y-82702D01*
X-215352Y-82707D01*
X-215364Y-82708D01*
X-215368Y-82707D01*
X-215375Y-82704D01*
X-215384Y-82698D01*
X-215394Y-82690D01*
X-217020Y-80584D01*
X-217021Y-80582D01*
X-217025Y-80572D01*
X-217028Y-80562D01*
X-217029Y-80550D01*
X-217029Y-80546D01*
X-217027Y-80536D01*
X-217022Y-80528D01*
X-217013Y-80517D01*
X-216707Y-80281D01*
X-216694Y-80275D01*
X-216677Y-80266D01*
X-216655Y-80262D01*
X-216631Y-80255D01*
X-216603Y-80254D01*
X-216573Y-80260D01*
D02*
G37*
G36*
X-217501Y-80910D02*
X-217489Y-80910D01*
X-217479Y-80918D01*
X-217466Y-80929D01*
X-215841Y-83035D01*
X-215839Y-83037D01*
X-215837Y-83040D01*
X-215832Y-83057D01*
X-215831Y-83069D01*
X-215832Y-83078D01*
X-215841Y-83088D01*
X-215851Y-83101D01*
X-216158Y-83337D01*
X-216170Y-83343D01*
X-216188Y-83352D01*
X-216210Y-83357D01*
X-216234Y-83363D01*
X-216259Y-83362D01*
X-216287Y-83358D01*
X-218528Y-82764D01*
X-217393Y-84233D01*
X-217391Y-84236D01*
X-217389Y-84238D01*
X-217385Y-84255D01*
X-217384Y-84267D01*
X-217387Y-84278D01*
X-217396Y-84289D01*
X-217407Y-84302D01*
X-217731Y-84552D01*
X-217739Y-84553D01*
X-217751Y-84559D01*
X-217763Y-84560D01*
X-217767Y-84559D01*
X-217774Y-84556D01*
X-217782Y-84550D01*
X-217793Y-84542D01*
X-219419Y-82436D01*
X-219421Y-82433D01*
X-219424Y-82424D01*
X-219427Y-82414D01*
X-219428Y-82402D01*
X-219428Y-82398D01*
X-219426Y-82388D01*
X-219421Y-82380D01*
X-219412Y-82369D01*
X-219106Y-82133D01*
X-219094Y-82127D01*
X-219076Y-82118D01*
X-219054Y-82113D01*
X-219030Y-82107D01*
X-219002Y-82106D01*
X-218972Y-82112D01*
X-216726Y-82703D01*
X-217861Y-81234D01*
X-217863Y-81231D01*
X-217865Y-81228D01*
X-217872Y-81209D01*
X-217871Y-81188D01*
X-217865Y-81179D01*
X-217854Y-81167D01*
X-217530Y-80916D01*
X-217510Y-80909D01*
X-217501Y-80910D01*
D02*
G37*
G36*
X-219907Y-82764D02*
X-219903Y-82764D01*
X-219894Y-82766D01*
X-219885Y-82771D01*
X-219874Y-82780D01*
X-218824Y-84140D01*
X-218822Y-84143D01*
X-218818Y-84148D01*
X-218812Y-84156D01*
X-218802Y-84169D01*
X-218793Y-84186D01*
X-218779Y-84205D01*
X-218752Y-84250D01*
X-218722Y-84305D01*
X-218694Y-84367D01*
X-218666Y-84437D01*
X-218642Y-84510D01*
X-218640Y-84512D01*
X-218639Y-84519D01*
X-218638Y-84531D01*
X-218636Y-84546D01*
X-218628Y-84582D01*
X-218621Y-84634D01*
X-218612Y-84694D01*
X-218609Y-84762D01*
X-218609Y-84832D01*
X-218614Y-84906D01*
X-218615Y-84915D01*
X-218618Y-84938D01*
X-218626Y-84977D01*
X-218637Y-85027D01*
X-218653Y-85081D01*
X-218673Y-85146D01*
X-218698Y-85211D01*
X-218732Y-85279D01*
X-218735Y-85281D01*
X-218738Y-85288D01*
X-218744Y-85296D01*
X-218750Y-85310D01*
X-218759Y-85325D01*
X-218771Y-85342D01*
X-218802Y-85387D01*
X-218839Y-85436D01*
X-218883Y-85487D01*
X-218937Y-85540D01*
X-218995Y-85594D01*
X-219023Y-85616D01*
X-219041Y-85625D01*
X-219059Y-85639D01*
X-219107Y-85668D01*
X-219161Y-85701D01*
X-219225Y-85730D01*
X-219297Y-85761D01*
X-219370Y-85784D01*
X-219373Y-85786D01*
X-219380Y-85787D01*
X-219392Y-85788D01*
X-219406Y-85791D01*
X-219447Y-85798D01*
X-219499Y-85805D01*
X-219561Y-85811D01*
X-219629Y-85814D01*
X-219704Y-85814D01*
X-219780Y-85806D01*
X-219782Y-85804D01*
X-219789Y-85805D01*
X-219814Y-85799D01*
X-219853Y-85792D01*
X-219905Y-85778D01*
X-219964Y-85761D01*
X-220031Y-85739D01*
X-220099Y-85709D01*
X-220167Y-85674D01*
X-220169Y-85672D01*
X-220176Y-85669D01*
X-220185Y-85663D01*
X-220198Y-85656D01*
X-220215Y-85645D01*
X-220234Y-85631D01*
X-220275Y-85600D01*
X-220326Y-85560D01*
X-220380Y-85511D01*
X-220434Y-85458D01*
X-220487Y-85395D01*
X-221523Y-84052D01*
X-221525Y-84050D01*
X-221529Y-84040D01*
X-221532Y-84030D01*
X-221533Y-84018D01*
X-221532Y-84014D01*
X-221531Y-84005D01*
X-221525Y-83996D01*
X-221517Y-83985D01*
X-221195Y-83737D01*
X-221185Y-83733D01*
X-221175Y-83730D01*
X-221162Y-83732D01*
X-221157Y-83732D01*
X-221148Y-83734D01*
X-221139Y-83739D01*
X-221129Y-83748D01*
X-220088Y-85095D01*
X-220086Y-85098D01*
X-220076Y-85111D01*
X-220062Y-85124D01*
X-220046Y-85145D01*
X-220020Y-85167D01*
X-219995Y-85189D01*
X-219968Y-85214D01*
X-219935Y-85234D01*
X-219931Y-85235D01*
X-219920Y-85243D01*
X-219902Y-85250D01*
X-219881Y-85262D01*
X-219852Y-85278D01*
X-219818Y-85289D01*
X-219749Y-85310D01*
X-219744Y-85310D01*
X-219730Y-85312D01*
X-219712Y-85314D01*
X-219689Y-85317D01*
X-219659Y-85319D01*
X-219624Y-85321D01*
X-219550Y-85314D01*
X-219546Y-85315D01*
X-219533Y-85309D01*
X-219512Y-85305D01*
X-219490Y-85296D01*
X-219460Y-85286D01*
X-219428Y-85274D01*
X-219396Y-85257D01*
X-219361Y-85238D01*
X-219345Y-85226D01*
X-219322Y-85212D01*
X-219301Y-85192D01*
X-219272Y-85170D01*
X-219245Y-85141D01*
X-219215Y-85109D01*
X-219192Y-85075D01*
X-219192Y-85070D01*
X-219181Y-85058D01*
X-219171Y-85038D01*
X-219159Y-85012D01*
X-219148Y-84983D01*
X-219132Y-84949D01*
X-219112Y-84872D01*
X-219112Y-84868D01*
X-219110Y-84854D01*
X-219107Y-84831D01*
X-219108Y-84803D01*
X-219106Y-84768D01*
X-219109Y-84733D01*
X-219113Y-84695D01*
X-219122Y-84651D01*
X-219121Y-84647D01*
X-219128Y-84632D01*
X-219132Y-84610D01*
X-219143Y-84581D01*
X-219158Y-84551D01*
X-219172Y-84516D01*
X-219195Y-84481D01*
X-219219Y-84445D01*
X-220269Y-83084D01*
X-220271Y-83082D01*
X-220274Y-83072D01*
X-220278Y-83062D01*
X-220279Y-83050D01*
X-220278Y-83046D01*
X-220277Y-83037D01*
X-220269Y-83026D01*
X-220260Y-83015D01*
X-219941Y-82769D01*
X-219931Y-82765D01*
X-219921Y-82762D01*
X-219907Y-82764D01*
D02*
G37*
G36*
X-222142Y-84829D02*
X-222045Y-84836D01*
X-222038Y-84840D01*
X-222023Y-84844D01*
X-222014Y-84850D01*
X-222008Y-84857D01*
X-222005Y-84867D01*
X-222004Y-84884D01*
X-222003Y-85293D01*
X-222004Y-85298D01*
X-222005Y-85307D01*
X-222009Y-85318D01*
X-222018Y-85333D01*
X-222020Y-85335D01*
X-222030Y-85339D01*
X-222042Y-85339D01*
X-222058Y-85340D01*
X-222060Y-85337D01*
X-222067Y-85339D01*
X-222091Y-85336D01*
X-222127Y-85331D01*
X-222176Y-85327D01*
X-222232Y-85325D01*
X-222297Y-85325D01*
X-222368Y-85330D01*
X-222438Y-85342D01*
X-222440Y-85344D01*
X-222445Y-85344D01*
X-222457Y-85345D01*
X-222469Y-85350D01*
X-222507Y-85359D01*
X-222554Y-85379D01*
X-222609Y-85400D01*
X-222669Y-85430D01*
X-222729Y-85464D01*
X-222791Y-85507D01*
X-222817Y-85527D01*
X-222841Y-85550D01*
X-222873Y-85583D01*
X-222911Y-85625D01*
X-222948Y-85674D01*
X-222985Y-85728D01*
X-223019Y-85787D01*
X-223021Y-85789D01*
X-223022Y-85793D01*
X-223031Y-85813D01*
X-223045Y-85849D01*
X-223062Y-85891D01*
X-223078Y-85940D01*
X-223095Y-85999D01*
X-223108Y-86063D01*
X-223116Y-86127D01*
X-223117Y-86137D01*
X-223118Y-86158D01*
X-223120Y-86192D01*
X-223118Y-86237D01*
X-223116Y-86293D01*
X-223108Y-86353D01*
X-223100Y-86417D01*
X-223083Y-86487D01*
X-223081Y-86490D01*
X-223081Y-86494D01*
X-223078Y-86504D01*
X-223073Y-86516D01*
X-223061Y-86553D01*
X-223041Y-86595D01*
X-223017Y-86647D01*
X-222989Y-86705D01*
X-222952Y-86763D01*
X-222911Y-86822D01*
X-222909Y-86825D01*
X-222905Y-86830D01*
X-222899Y-86838D01*
X-222891Y-86848D01*
X-222878Y-86860D01*
X-222866Y-86875D01*
X-222831Y-86910D01*
X-222792Y-86950D01*
X-222743Y-86991D01*
X-222688Y-87031D01*
X-222629Y-87069D01*
X-222627Y-87072D01*
X-222623Y-87072D01*
X-222614Y-87078D01*
X-222601Y-87085D01*
X-222568Y-87100D01*
X-222526Y-87118D01*
X-222472Y-87138D01*
X-222414Y-87160D01*
X-222350Y-87173D01*
X-222285Y-87188D01*
X-222275Y-87190D01*
X-222254Y-87190D01*
X-222217Y-87195D01*
X-222173Y-87193D01*
X-222119Y-87193D01*
X-222058Y-87192D01*
X-221994Y-87184D01*
X-221929Y-87171D01*
X-221927Y-87169D01*
X-221922Y-87170D01*
X-221912Y-87166D01*
X-221900Y-87161D01*
X-221866Y-87151D01*
X-221821Y-87134D01*
X-221772Y-87112D01*
X-221717Y-87086D01*
X-221661Y-87051D01*
X-221605Y-87012D01*
X-221584Y-86996D01*
X-221563Y-86975D01*
X-221535Y-86946D01*
X-221506Y-86914D01*
X-221473Y-86877D01*
X-221439Y-86834D01*
X-221408Y-86789D01*
X-221405Y-86787D01*
X-221405Y-86783D01*
X-221395Y-86767D01*
X-221383Y-86741D01*
X-221364Y-86706D01*
X-221347Y-86664D01*
X-221329Y-86617D01*
X-221311Y-86565D01*
X-221297Y-86513D01*
X-221294Y-86507D01*
X-221292Y-86488D01*
X-221286Y-86459D01*
X-221281Y-86422D01*
X-221275Y-86376D01*
X-221273Y-86325D01*
X-221273Y-86271D01*
X-221275Y-86215D01*
X-221277Y-86207D01*
X-221279Y-86188D01*
X-221282Y-86158D01*
X-221286Y-86120D01*
X-221297Y-86074D01*
X-221309Y-86026D01*
X-221326Y-85972D01*
X-221347Y-85918D01*
X-221957Y-86389D01*
X-221964Y-86390D01*
X-221974Y-86394D01*
X-221988Y-86392D01*
X-221990Y-86389D01*
X-221996Y-86386D01*
X-222005Y-86376D01*
X-222010Y-86363D01*
X-222037Y-85915D01*
X-222036Y-85911D01*
X-222035Y-85902D01*
X-222035Y-85885D01*
X-222030Y-85865D01*
X-222022Y-85843D01*
X-222012Y-85818D01*
X-221995Y-85797D01*
X-221974Y-85776D01*
X-221237Y-85207D01*
X-221235Y-85210D01*
X-221226Y-85215D01*
X-221218Y-85226D01*
X-221205Y-85237D01*
X-221174Y-85267D01*
X-221144Y-85301D01*
X-221142Y-85303D01*
X-221138Y-85309D01*
X-221127Y-85317D01*
X-221117Y-85330D01*
X-221091Y-85364D01*
X-221061Y-85403D01*
X-221059Y-85405D01*
X-221053Y-85413D01*
X-221043Y-85426D01*
X-221033Y-85444D01*
X-221017Y-85464D01*
X-221000Y-85492D01*
X-220981Y-85523D01*
X-220964Y-85555D01*
X-220922Y-85631D01*
X-220879Y-85718D01*
X-220843Y-85814D01*
X-220811Y-85914D01*
X-220809Y-85917D01*
X-220810Y-85926D01*
X-220805Y-85943D01*
X-220800Y-85960D01*
X-220797Y-85986D01*
X-220791Y-86015D01*
X-220779Y-86084D01*
X-220773Y-86167D01*
X-220767Y-86261D01*
X-220770Y-86359D01*
X-220778Y-86461D01*
X-220779Y-86466D01*
X-220780Y-86475D01*
X-220782Y-86488D01*
X-220784Y-86507D01*
X-220790Y-86532D01*
X-220798Y-86559D01*
X-220805Y-86593D01*
X-220812Y-86627D01*
X-220838Y-86706D01*
X-220866Y-86793D01*
X-220906Y-86887D01*
X-220955Y-86978D01*
X-220958Y-86980D01*
X-220963Y-86989D01*
X-220970Y-87002D01*
X-220981Y-87019D01*
X-220995Y-87039D01*
X-221013Y-87064D01*
X-221033Y-87092D01*
X-221055Y-87122D01*
X-221080Y-87154D01*
X-221108Y-87188D01*
X-221174Y-87259D01*
X-221249Y-87334D01*
X-221332Y-87402D01*
X-221356Y-87420D01*
X-221373Y-87430D01*
X-221394Y-87446D01*
X-221422Y-87463D01*
X-221450Y-87481D01*
X-221483Y-87502D01*
X-221559Y-87544D01*
X-221643Y-87584D01*
X-221739Y-87621D01*
X-221839Y-87653D01*
X-221842Y-87655D01*
X-221851Y-87653D01*
X-221868Y-87658D01*
X-221885Y-87663D01*
X-221911Y-87667D01*
X-221940Y-87672D01*
X-222007Y-87682D01*
X-222089Y-87688D01*
X-222181Y-87693D01*
X-222277Y-87692D01*
X-222379Y-87684D01*
X-222383Y-87683D01*
X-222393Y-87682D01*
X-222406Y-87680D01*
X-222427Y-87675D01*
X-222447Y-87670D01*
X-222477Y-87664D01*
X-222508Y-87655D01*
X-222545Y-87646D01*
X-222623Y-87620D01*
X-222708Y-87590D01*
X-222801Y-87550D01*
X-222893Y-87501D01*
X-222895Y-87498D01*
X-222904Y-87492D01*
X-222917Y-87486D01*
X-222934Y-87474D01*
X-222955Y-87458D01*
X-222981Y-87440D01*
X-223009Y-87420D01*
X-223039Y-87398D01*
X-223071Y-87372D01*
X-223106Y-87342D01*
X-223178Y-87277D01*
X-223252Y-87202D01*
X-223323Y-87116D01*
X-223325Y-87113D01*
X-223331Y-87105D01*
X-223341Y-87092D01*
X-223352Y-87072D01*
X-223368Y-87051D01*
X-223386Y-87023D01*
X-223403Y-86995D01*
X-223425Y-86962D01*
X-223468Y-86884D01*
X-223511Y-86797D01*
X-223548Y-86701D01*
X-223579Y-86601D01*
X-223581Y-86598D01*
X-223582Y-86586D01*
X-223585Y-86572D01*
X-223590Y-86555D01*
X-223593Y-86529D01*
X-223599Y-86500D01*
X-223611Y-86431D01*
X-223622Y-86348D01*
X-223626Y-86256D01*
X-223625Y-86160D01*
X-223617Y-86058D01*
X-223616Y-86054D01*
X-223615Y-86044D01*
X-223613Y-86031D01*
X-223611Y-86012D01*
X-223605Y-85987D01*
X-223597Y-85960D01*
X-223591Y-85926D01*
X-223584Y-85892D01*
X-223557Y-85813D01*
X-223530Y-85726D01*
X-223492Y-85635D01*
X-223443Y-85543D01*
X-223441Y-85541D01*
X-223435Y-85532D01*
X-223428Y-85519D01*
X-223417Y-85502D01*
X-223405Y-85480D01*
X-223385Y-85457D01*
X-223365Y-85429D01*
X-223343Y-85399D01*
X-223318Y-85367D01*
X-223290Y-85333D01*
X-223224Y-85262D01*
X-223149Y-85188D01*
X-223066Y-85119D01*
X-223042Y-85101D01*
X-223025Y-85091D01*
X-223004Y-85075D01*
X-222979Y-85060D01*
X-222951Y-85043D01*
X-222916Y-85024D01*
X-222843Y-84984D01*
X-222758Y-84943D01*
X-222667Y-84906D01*
X-222569Y-84877D01*
X-222567Y-84874D01*
X-222559Y-84873D01*
X-222543Y-84868D01*
X-222523Y-84866D01*
X-222499Y-84860D01*
X-222473Y-84856D01*
X-222404Y-84844D01*
X-222325Y-84833D01*
X-222238Y-84828D01*
X-222142Y-84829D01*
D02*
G37*
G36*
X-225181Y-86839D02*
X-225179Y-86841D01*
X-225171Y-86847D01*
X-225167Y-86857D01*
X-225165Y-86871D01*
X-225155Y-90196D01*
X-225156Y-90200D01*
X-225157Y-90210D01*
X-225159Y-90223D01*
X-225163Y-90239D01*
X-225170Y-90262D01*
X-225183Y-90283D01*
X-225197Y-90302D01*
X-225218Y-90323D01*
X-225618Y-90632D01*
X-225625Y-90633D01*
X-225638Y-90639D01*
X-225652Y-90637D01*
X-225654Y-90634D01*
X-225660Y-90631D01*
X-225665Y-90619D01*
X-225668Y-90604D01*
X-225674Y-89142D01*
X-227483Y-88661D01*
X-227488Y-88661D01*
X-227494Y-88657D01*
X-227502Y-88647D01*
X-227508Y-88635D01*
X-227507Y-88630D01*
X-227506Y-88621D01*
X-227502Y-88610D01*
X-227494Y-88599D01*
X-227089Y-88287D01*
X-227076Y-88281D01*
X-227059Y-88272D01*
X-227037Y-88267D01*
X-227013Y-88261D01*
X-226985Y-88260D01*
X-226955Y-88266D01*
X-225675Y-88604D01*
X-225678Y-87280D01*
X-225677Y-87276D01*
X-225676Y-87266D01*
X-225674Y-87253D01*
X-225669Y-87232D01*
X-225664Y-87212D01*
X-225652Y-87190D01*
X-225638Y-87171D01*
X-225617Y-87150D01*
X-225217Y-86841D01*
X-225207Y-86838D01*
X-225197Y-86835D01*
X-225181Y-86839D01*
D02*
G37*
G36*
X-227636Y-88742D02*
X-227625Y-88751D01*
X-227613Y-88762D01*
X-227366Y-89081D01*
X-227364Y-89083D01*
X-227362Y-89086D01*
X-227358Y-89103D01*
X-227358Y-89124D01*
X-227364Y-89133D01*
X-227375Y-89145D01*
X-228359Y-89905D01*
X-227972Y-90406D01*
X-227188Y-89801D01*
X-227171Y-89796D01*
X-227159Y-89795D01*
X-227150Y-89796D01*
X-227139Y-89805D01*
X-227127Y-89816D01*
X-226882Y-90132D01*
X-226880Y-90135D01*
X-226878Y-90138D01*
X-226873Y-90155D01*
X-226871Y-90178D01*
X-226877Y-90187D01*
X-226888Y-90199D01*
X-227667Y-90801D01*
X-227284Y-91297D01*
X-226202Y-90461D01*
X-226192Y-90457D01*
X-226182Y-90454D01*
X-226166Y-90458D01*
X-226164Y-90461D01*
X-226156Y-90467D01*
X-226152Y-90477D01*
X-226150Y-90491D01*
X-226146Y-90969D01*
X-226146Y-90973D01*
X-226147Y-90982D01*
X-226149Y-90996D01*
X-226156Y-91014D01*
X-226164Y-91036D01*
X-226176Y-91058D01*
X-226190Y-91077D01*
X-226211Y-91098D01*
X-227346Y-91974D01*
X-227353Y-91975D01*
X-227365Y-91981D01*
X-227377Y-91982D01*
X-227382Y-91981D01*
X-227389Y-91978D01*
X-227397Y-91972D01*
X-227408Y-91963D01*
X-229033Y-89858D01*
X-229035Y-89855D01*
X-229039Y-89846D01*
X-229042Y-89836D01*
X-229043Y-89824D01*
X-229042Y-89819D01*
X-229041Y-89810D01*
X-229035Y-89802D01*
X-229027Y-89791D01*
X-227674Y-88747D01*
X-227657Y-88742D01*
X-227645Y-88741D01*
X-227636Y-88742D01*
D02*
G37*
G36*
X-230188Y-90729D02*
X-230176Y-90740D01*
X-228827Y-92487D01*
X-227952Y-91812D01*
X-227942Y-91808D01*
X-227932Y-91805D01*
X-227916Y-91809D01*
X-227914Y-91812D01*
X-227906Y-91818D01*
X-227900Y-91825D01*
X-227897Y-91840D01*
X-227898Y-92321D01*
X-227899Y-92326D01*
X-227900Y-92335D01*
X-227902Y-92349D01*
X-227906Y-92365D01*
X-227913Y-92387D01*
X-227923Y-92407D01*
X-227940Y-92428D01*
X-227959Y-92447D01*
X-228888Y-93164D01*
X-228895Y-93166D01*
X-228908Y-93171D01*
X-228920Y-93172D01*
X-228924Y-93171D01*
X-228931Y-93168D01*
X-228939Y-93163D01*
X-228950Y-93154D01*
X-230575Y-91048D01*
X-230577Y-91046D01*
X-230581Y-91036D01*
X-230584Y-91026D01*
X-230585Y-91014D01*
X-230585Y-91010D01*
X-230581Y-91003D01*
X-230575Y-90995D01*
X-230567Y-90984D01*
X-230237Y-90729D01*
X-230220Y-90725D01*
X-230197Y-90723D01*
X-230188Y-90729D01*
D02*
G37*
G36*
X-231051Y-91366D02*
X-231047Y-91367D01*
X-231040Y-91370D01*
X-231031Y-91375D01*
X-231021Y-91384D01*
X-230668Y-91841D01*
X-230666Y-91843D01*
X-230662Y-91849D01*
X-230656Y-91856D01*
X-230651Y-91869D01*
X-230638Y-91901D01*
X-230634Y-91939D01*
X-230630Y-92963D01*
X-229217Y-93340D01*
X-229212Y-93340D01*
X-229204Y-93346D01*
X-229196Y-93356D01*
X-229190Y-93369D01*
X-229191Y-93373D01*
X-229192Y-93378D01*
X-229195Y-93389D01*
X-229204Y-93400D01*
X-229611Y-93714D01*
X-229624Y-93720D01*
X-229641Y-93729D01*
X-229663Y-93734D01*
X-229687Y-93740D01*
X-229713Y-93739D01*
X-229740Y-93735D01*
X-231109Y-93374D01*
X-231115Y-93371D01*
X-231128Y-93365D01*
X-231140Y-93349D01*
X-231144Y-93339D01*
X-231145Y-93328D01*
X-231151Y-92052D01*
X-232065Y-92758D01*
X-230714Y-94508D01*
X-230712Y-94510D01*
X-230710Y-94513D01*
X-230705Y-94530D01*
X-230705Y-94542D01*
X-230709Y-94553D01*
X-230717Y-94564D01*
X-230728Y-94576D01*
X-231052Y-94827D01*
X-231060Y-94828D01*
X-231072Y-94834D01*
X-231084Y-94834D01*
X-231088Y-94834D01*
X-231095Y-94831D01*
X-231104Y-94825D01*
X-231114Y-94816D01*
X-232740Y-92711D01*
X-232742Y-92708D01*
X-232745Y-92698D01*
X-232749Y-92689D01*
X-232749Y-92677D01*
X-232749Y-92672D01*
X-232748Y-92663D01*
X-232742Y-92654D01*
X-232733Y-92644D01*
X-231085Y-91371D01*
X-231075Y-91368D01*
X-231065Y-91364D01*
X-231051Y-91366D01*
D02*
G37*
G36*
X-233089Y-92951D02*
X-233078Y-92959D01*
X-233065Y-92971D01*
X-232819Y-93290D01*
X-232817Y-93292D01*
X-232815Y-93295D01*
X-232810Y-93312D01*
X-232810Y-93333D01*
X-232816Y-93342D01*
X-232827Y-93354D01*
X-233811Y-94114D01*
X-233424Y-94615D01*
X-232640Y-94010D01*
X-232623Y-94005D01*
X-232611Y-94004D01*
X-232602Y-94005D01*
X-232592Y-94014D01*
X-232579Y-94025D01*
X-232334Y-94341D01*
X-232332Y-94344D01*
X-232330Y-94346D01*
X-232326Y-94363D01*
X-232324Y-94387D01*
X-232330Y-94396D01*
X-232341Y-94408D01*
X-233120Y-95010D01*
X-232737Y-95505D01*
X-231654Y-94670D01*
X-231644Y-94666D01*
X-231635Y-94663D01*
X-231619Y-94667D01*
X-231617Y-94670D01*
X-231608Y-94676D01*
X-231605Y-94686D01*
X-231602Y-94700D01*
X-231598Y-95177D01*
X-231598Y-95182D01*
X-231600Y-95191D01*
X-231602Y-95205D01*
X-231609Y-95223D01*
X-231616Y-95245D01*
X-231628Y-95267D01*
X-231642Y-95286D01*
X-231664Y-95307D01*
X-232798Y-96183D01*
X-232805Y-96184D01*
X-232818Y-96190D01*
X-232830Y-96190D01*
X-232834Y-96190D01*
X-232841Y-96187D01*
X-232850Y-96181D01*
X-232860Y-96172D01*
X-234486Y-94067D01*
X-234488Y-94064D01*
X-234491Y-94054D01*
X-234494Y-94045D01*
X-234495Y-94033D01*
X-234495Y-94028D01*
X-234493Y-94019D01*
X-234488Y-94010D01*
X-234479Y-94000D01*
X-233127Y-92956D01*
X-233110Y-92951D01*
X-233098Y-92950D01*
X-233089Y-92951D01*
D02*
G37*
G36*
X-234958Y-94394D02*
X-234947Y-94402D01*
X-234935Y-94414D01*
X-234582Y-94871D01*
X-234580Y-94873D01*
X-234576Y-94878D01*
X-234570Y-94886D01*
X-234565Y-94898D01*
X-234552Y-94930D01*
X-234548Y-94968D01*
X-234546Y-95792D01*
X-233748Y-96004D01*
X-233746Y-96007D01*
X-233739Y-96006D01*
X-233730Y-96011D01*
X-233717Y-96018D01*
X-233691Y-96035D01*
X-233662Y-96062D01*
X-233309Y-96519D01*
X-233307Y-96522D01*
X-233305Y-96524D01*
X-233300Y-96541D01*
X-233301Y-96562D01*
X-233307Y-96571D01*
X-233318Y-96584D01*
X-234966Y-97856D01*
X-234974Y-97858D01*
X-234986Y-97863D01*
X-234998Y-97864D01*
X-235002Y-97863D01*
X-235009Y-97860D01*
X-235018Y-97854D01*
X-235028Y-97846D01*
X-236654Y-95740D01*
X-236656Y-95738D01*
X-236659Y-95728D01*
X-236662Y-95718D01*
X-236663Y-95706D01*
X-236663Y-95702D01*
X-236662Y-95693D01*
X-236656Y-95684D01*
X-236647Y-95673D01*
X-234996Y-94399D01*
X-234979Y-94394D01*
X-234967Y-94393D01*
X-234958Y-94394D01*
D02*
G37*
G36*
X-238524Y-97176D02*
X-238495Y-97182D01*
X-235281Y-98033D01*
X-235277Y-98034D01*
X-235268Y-98040D01*
X-235260Y-98045D01*
X-235254Y-98058D01*
X-235255Y-98062D01*
X-235255Y-98067D01*
X-235259Y-98078D01*
X-235270Y-98091D01*
X-235678Y-98405D01*
X-235690Y-98411D01*
X-235708Y-98420D01*
X-235729Y-98425D01*
X-235753Y-98431D01*
X-235779Y-98430D01*
X-235807Y-98426D01*
X-238053Y-97836D01*
X-236918Y-99305D01*
X-236916Y-99308D01*
X-236914Y-99310D01*
X-236910Y-99327D01*
X-236909Y-99339D01*
X-236910Y-99348D01*
X-236918Y-99359D01*
X-236929Y-99371D01*
X-237236Y-99608D01*
X-237248Y-99613D01*
X-237266Y-99623D01*
X-237287Y-99627D01*
X-237311Y-99633D01*
X-237337Y-99632D01*
X-237365Y-99629D01*
X-239605Y-99034D01*
X-238471Y-100504D01*
X-238469Y-100506D01*
X-238467Y-100509D01*
X-238462Y-100526D01*
X-238461Y-100538D01*
X-238465Y-100549D01*
X-238474Y-100559D01*
X-238485Y-100572D01*
X-238809Y-100823D01*
X-238816Y-100824D01*
X-238829Y-100829D01*
X-238840Y-100830D01*
X-238845Y-100830D01*
X-238852Y-100827D01*
X-238860Y-100821D01*
X-238871Y-100812D01*
X-240496Y-98707D01*
X-240498Y-98704D01*
X-240502Y-98694D01*
X-240505Y-98685D01*
X-240506Y-98673D01*
X-240505Y-98668D01*
X-240504Y-98659D01*
X-240498Y-98650D01*
X-240490Y-98640D01*
X-240184Y-98403D01*
X-240171Y-98398D01*
X-240154Y-98388D01*
X-240132Y-98384D01*
X-240108Y-98378D01*
X-240080Y-98377D01*
X-240050Y-98383D01*
X-237804Y-98974D01*
X-238938Y-97504D01*
X-238941Y-97501D01*
X-238943Y-97499D01*
X-238949Y-97479D01*
X-238949Y-97458D01*
X-238943Y-97450D01*
X-238932Y-97437D01*
X-238626Y-97201D01*
X-238613Y-97195D01*
X-238596Y-97186D01*
X-238574Y-97181D01*
X-238550Y-97175D01*
X-238524Y-97176D01*
D02*
G37*
G36*
X-240958Y-99042D02*
X-240946Y-99053D01*
X-239320Y-101159D01*
X-239318Y-101162D01*
X-239316Y-101164D01*
X-239311Y-101181D01*
X-239310Y-101193D01*
X-239314Y-101204D01*
X-239323Y-101215D01*
X-239334Y-101227D01*
X-239658Y-101478D01*
X-239665Y-101479D01*
X-239678Y-101485D01*
X-239689Y-101486D01*
X-239694Y-101485D01*
X-239701Y-101482D01*
X-239709Y-101476D01*
X-239720Y-101468D01*
X-241345Y-99362D01*
X-241347Y-99359D01*
X-241351Y-99350D01*
X-241354Y-99340D01*
X-241355Y-99328D01*
X-241354Y-99323D01*
X-241353Y-99314D01*
X-241347Y-99306D01*
X-241339Y-99295D01*
X-241009Y-99041D01*
X-240992Y-99036D01*
X-240981Y-99035D01*
X-240969Y-99034D01*
X-240958Y-99042D01*
D02*
G37*
G36*
X-241607Y-99527D02*
X-241605Y-99530D01*
X-241599Y-99533D01*
X-241591Y-99543D01*
X-241585Y-99556D01*
X-241583Y-101223D01*
X-239973Y-101655D01*
X-239969Y-101655D01*
X-239960Y-101661D01*
X-239951Y-101667D01*
X-239946Y-101680D01*
X-239947Y-101684D01*
X-239947Y-101689D01*
X-239951Y-101700D01*
X-239962Y-101713D01*
X-240367Y-102025D01*
X-240379Y-102031D01*
X-240397Y-102040D01*
X-240419Y-102044D01*
X-240443Y-102050D01*
X-240471Y-102051D01*
X-240498Y-102048D01*
X-242064Y-101636D01*
X-242070Y-101633D01*
X-242081Y-101625D01*
X-242093Y-101609D01*
X-242099Y-101601D01*
X-242100Y-101589D01*
X-242104Y-99968D01*
X-242103Y-99964D01*
X-242102Y-99954D01*
X-242100Y-99941D01*
X-242095Y-99920D01*
X-242088Y-99898D01*
X-242076Y-99876D01*
X-242061Y-99857D01*
X-242040Y-99836D01*
X-241643Y-99529D01*
X-241633Y-99526D01*
X-241623Y-99523D01*
X-241607Y-99527D01*
D02*
G37*
G36*
X-243033Y-100644D02*
X-243020Y-100655D01*
X-241395Y-102761D01*
X-241393Y-102763D01*
X-241391Y-102766D01*
X-241386Y-102783D01*
X-241385Y-102794D01*
X-241389Y-102806D01*
X-241397Y-102816D01*
X-241408Y-102829D01*
X-241733Y-103079D01*
X-241740Y-103081D01*
X-241752Y-103086D01*
X-241764Y-103087D01*
X-241769Y-103086D01*
X-241775Y-103083D01*
X-241784Y-103077D01*
X-241794Y-103069D01*
X-243420Y-100963D01*
X-243422Y-100961D01*
X-243425Y-100951D01*
X-243429Y-100941D01*
X-243429Y-100929D01*
X-243429Y-100925D01*
X-243428Y-100916D01*
X-243422Y-100907D01*
X-243414Y-100896D01*
X-243084Y-100642D01*
X-243067Y-100637D01*
X-243055Y-100636D01*
X-243043Y-100635D01*
X-243033Y-100644D01*
D02*
G37*
G36*
X-211610Y-81401D02*
X-211605Y-81401D01*
X-211596Y-81402D01*
X-211587Y-81408D01*
X-211577Y-81416D01*
X-211224Y-81874D01*
X-211222Y-81876D01*
X-211218Y-81881D01*
X-211214Y-81891D01*
X-211206Y-81901D01*
X-211197Y-81935D01*
X-211192Y-81952D01*
X-211192Y-81973D01*
X-211186Y-83903D01*
X-210264Y-83192D01*
X-210254Y-83188D01*
X-210244Y-83185D01*
X-210231Y-83187D01*
X-210226Y-83188D01*
X-210217Y-83189D01*
X-210208Y-83195D01*
X-210198Y-83203D01*
X-209951Y-83522D01*
X-209949Y-83525D01*
X-209948Y-83532D01*
X-209942Y-83544D01*
X-209944Y-83558D01*
X-209945Y-83563D01*
X-209948Y-83569D01*
X-209954Y-83578D01*
X-209962Y-83589D01*
X-211255Y-84587D01*
X-211262Y-84588D01*
X-211275Y-84594D01*
X-211286Y-84594D01*
X-211291Y-84594D01*
X-211298Y-84591D01*
X-211306Y-84585D01*
X-211317Y-84576D01*
X-211670Y-84119D01*
X-211672Y-84117D01*
X-211676Y-84112D01*
X-211679Y-84102D01*
X-211689Y-84089D01*
X-211699Y-84060D01*
X-211704Y-84022D01*
X-211712Y-82089D01*
X-212634Y-82800D01*
X-212641Y-82802D01*
X-212654Y-82807D01*
X-212665Y-82808D01*
X-212670Y-82807D01*
X-212677Y-82804D01*
X-212685Y-82798D01*
X-212696Y-82790D01*
X-212942Y-82471D01*
X-212944Y-82468D01*
X-212948Y-82458D01*
X-212951Y-82449D01*
X-212952Y-82437D01*
X-212951Y-82432D01*
X-212950Y-82423D01*
X-212944Y-82414D01*
X-212936Y-82404D01*
X-211643Y-81406D01*
X-211633Y-81402D01*
X-211624Y-81399D01*
X-211610Y-81401D01*
D02*
G37*
G36*
X-213291Y-82711D02*
X-213281Y-82719D01*
X-213268Y-82731D01*
X-213021Y-83050D01*
X-213019Y-83052D01*
X-213018Y-83055D01*
X-213013Y-83072D01*
X-213013Y-83093D01*
X-213019Y-83102D01*
X-213030Y-83114D01*
X-214014Y-83874D01*
X-213627Y-84375D01*
X-212843Y-83770D01*
X-212826Y-83765D01*
X-212814Y-83764D01*
X-212805Y-83765D01*
X-212794Y-83774D01*
X-212782Y-83785D01*
X-212537Y-84101D01*
X-212535Y-84104D01*
X-212533Y-84106D01*
X-212528Y-84123D01*
X-212527Y-84147D01*
X-212532Y-84156D01*
X-212544Y-84168D01*
X-213322Y-84770D01*
X-212940Y-85265D01*
X-211857Y-84430D01*
X-211847Y-84426D01*
X-211837Y-84423D01*
X-211822Y-84427D01*
X-211820Y-84430D01*
X-211811Y-84436D01*
X-211807Y-84446D01*
X-211805Y-84460D01*
X-211801Y-84937D01*
X-211801Y-84942D01*
X-211802Y-84951D01*
X-211804Y-84965D01*
X-211811Y-84983D01*
X-211819Y-85005D01*
X-211831Y-85027D01*
X-211845Y-85046D01*
X-211866Y-85067D01*
X-213001Y-85943D01*
X-213008Y-85944D01*
X-213021Y-85950D01*
X-213032Y-85950D01*
X-213037Y-85950D01*
X-213044Y-85947D01*
X-213052Y-85941D01*
X-213063Y-85932D01*
X-214688Y-83827D01*
X-214690Y-83824D01*
X-214694Y-83814D01*
X-214697Y-83805D01*
X-214698Y-83793D01*
X-214697Y-83788D01*
X-214696Y-83779D01*
X-214690Y-83770D01*
X-214682Y-83760D01*
X-213329Y-82716D01*
X-213312Y-82711D01*
X-213300Y-82710D01*
X-213291Y-82711D01*
D02*
G37*
G36*
X-215175Y-84152D02*
X-215170Y-84153D01*
X-215161Y-84154D01*
X-215152Y-84160D01*
X-215142Y-84168D01*
X-214091Y-85529D01*
X-214089Y-85532D01*
X-214085Y-85537D01*
X-214079Y-85544D01*
X-214069Y-85557D01*
X-214060Y-85575D01*
X-214046Y-85593D01*
X-214019Y-85639D01*
X-213989Y-85694D01*
X-213962Y-85756D01*
X-213933Y-85825D01*
X-213910Y-85898D01*
X-213908Y-85901D01*
X-213906Y-85908D01*
X-213905Y-85920D01*
X-213903Y-85934D01*
X-213896Y-85970D01*
X-213888Y-86023D01*
X-213880Y-86082D01*
X-213877Y-86150D01*
X-213876Y-86221D01*
X-213881Y-86295D01*
X-213882Y-86304D01*
X-213885Y-86327D01*
X-213893Y-86366D01*
X-213904Y-86416D01*
X-213920Y-86470D01*
X-213940Y-86535D01*
X-213965Y-86600D01*
X-213999Y-86668D01*
X-214002Y-86670D01*
X-214005Y-86676D01*
X-214011Y-86685D01*
X-214017Y-86698D01*
X-214026Y-86713D01*
X-214038Y-86731D01*
X-214069Y-86776D01*
X-214106Y-86825D01*
X-214150Y-86875D01*
X-214204Y-86929D01*
X-214262Y-86983D01*
X-214291Y-87005D01*
X-214308Y-87014D01*
X-214326Y-87028D01*
X-214374Y-87057D01*
X-214428Y-87090D01*
X-214492Y-87119D01*
X-214564Y-87149D01*
X-214637Y-87173D01*
X-214640Y-87175D01*
X-214647Y-87176D01*
X-214659Y-87177D01*
X-214673Y-87180D01*
X-214714Y-87186D01*
X-214766Y-87194D01*
X-214828Y-87200D01*
X-214896Y-87203D01*
X-214971Y-87202D01*
X-215047Y-87195D01*
X-215049Y-87192D01*
X-215056Y-87194D01*
X-215081Y-87188D01*
X-215120Y-87181D01*
X-215172Y-87167D01*
X-215231Y-87150D01*
X-215298Y-87127D01*
X-215367Y-87098D01*
X-215435Y-87063D01*
X-215437Y-87060D01*
X-215443Y-87057D01*
X-215452Y-87051D01*
X-215465Y-87045D01*
X-215482Y-87033D01*
X-215501Y-87019D01*
X-215542Y-86988D01*
X-215593Y-86949D01*
X-215647Y-86900D01*
X-215701Y-86846D01*
X-215754Y-86783D01*
X-216790Y-85441D01*
X-216792Y-85439D01*
X-216796Y-85429D01*
X-216799Y-85419D01*
X-216800Y-85407D01*
X-216799Y-85403D01*
X-216798Y-85393D01*
X-216792Y-85385D01*
X-216784Y-85374D01*
X-216462Y-85125D01*
X-216452Y-85122D01*
X-216442Y-85119D01*
X-216429Y-85120D01*
X-216424Y-85121D01*
X-216415Y-85122D01*
X-216406Y-85128D01*
X-216396Y-85136D01*
X-215355Y-86484D01*
X-215353Y-86487D01*
X-215343Y-86500D01*
X-215329Y-86513D01*
X-215313Y-86534D01*
X-215287Y-86556D01*
X-215262Y-86578D01*
X-215235Y-86602D01*
X-215202Y-86623D01*
X-215198Y-86624D01*
X-215187Y-86632D01*
X-215170Y-86639D01*
X-215148Y-86651D01*
X-215119Y-86666D01*
X-215086Y-86678D01*
X-215016Y-86698D01*
X-215011Y-86699D01*
X-214997Y-86701D01*
X-214979Y-86703D01*
X-214956Y-86706D01*
X-214926Y-86708D01*
X-214891Y-86710D01*
X-214818Y-86703D01*
X-214813Y-86703D01*
X-214801Y-86698D01*
X-214779Y-86694D01*
X-214757Y-86685D01*
X-214727Y-86675D01*
X-214696Y-86662D01*
X-214663Y-86646D01*
X-214628Y-86627D01*
X-214612Y-86615D01*
X-214589Y-86601D01*
X-214568Y-86581D01*
X-214540Y-86559D01*
X-214512Y-86529D01*
X-214483Y-86498D01*
X-214459Y-86464D01*
X-214459Y-86459D01*
X-214448Y-86446D01*
X-214438Y-86427D01*
X-214426Y-86400D01*
X-214415Y-86371D01*
X-214399Y-86338D01*
X-214380Y-86261D01*
X-214379Y-86256D01*
X-214377Y-86243D01*
X-214374Y-86220D01*
X-214375Y-86191D01*
X-214373Y-86157D01*
X-214376Y-86121D01*
X-214380Y-86083D01*
X-214389Y-86040D01*
X-214388Y-86036D01*
X-214395Y-86021D01*
X-214400Y-85999D01*
X-214410Y-85970D01*
X-214425Y-85940D01*
X-214439Y-85905D01*
X-214462Y-85869D01*
X-214486Y-85834D01*
X-215536Y-84473D01*
X-215538Y-84470D01*
X-215542Y-84461D01*
X-215545Y-84451D01*
X-215546Y-84439D01*
X-215545Y-84434D01*
X-215544Y-84425D01*
X-215536Y-84415D01*
X-215527Y-84404D01*
X-215208Y-84158D01*
X-215198Y-84154D01*
X-215188Y-84151D01*
X-215175Y-84152D01*
D02*
G37*
G36*
X-217409Y-86217D02*
X-217312Y-86225D01*
X-217305Y-86228D01*
X-217290Y-86233D01*
X-217281Y-86238D01*
X-217275Y-86246D01*
X-217272Y-86256D01*
X-217271Y-86272D01*
X-217270Y-86682D01*
X-217271Y-86686D01*
X-217272Y-86696D01*
X-217276Y-86707D01*
X-217285Y-86722D01*
X-217287Y-86724D01*
X-217297Y-86727D01*
X-217309Y-86728D01*
X-217325Y-86729D01*
X-217327Y-86726D01*
X-217335Y-86727D01*
X-217358Y-86724D01*
X-217394Y-86720D01*
X-217443Y-86716D01*
X-217499Y-86713D01*
X-217564Y-86714D01*
X-217635Y-86719D01*
X-217705Y-86731D01*
X-217707Y-86733D01*
X-217712Y-86733D01*
X-217724Y-86733D01*
X-217736Y-86739D01*
X-217775Y-86748D01*
X-217822Y-86768D01*
X-217876Y-86789D01*
X-217936Y-86818D01*
X-217996Y-86853D01*
X-218058Y-86896D01*
X-218084Y-86916D01*
X-218108Y-86939D01*
X-218140Y-86972D01*
X-218178Y-87014D01*
X-218215Y-87063D01*
X-218252Y-87117D01*
X-218286Y-87176D01*
X-218288Y-87177D01*
X-218289Y-87182D01*
X-218298Y-87202D01*
X-218312Y-87238D01*
X-218329Y-87280D01*
X-218345Y-87329D01*
X-218362Y-87388D01*
X-218375Y-87452D01*
X-218383Y-87516D01*
X-218384Y-87525D01*
X-218385Y-87546D01*
X-218387Y-87581D01*
X-218386Y-87626D01*
X-218384Y-87682D01*
X-218375Y-87742D01*
X-218367Y-87806D01*
X-218350Y-87876D01*
X-218348Y-87878D01*
X-218349Y-87883D01*
X-218345Y-87893D01*
X-218340Y-87905D01*
X-218328Y-87942D01*
X-218308Y-87984D01*
X-218284Y-88036D01*
X-218256Y-88094D01*
X-218219Y-88152D01*
X-218178Y-88211D01*
X-218176Y-88214D01*
X-218172Y-88219D01*
X-218166Y-88227D01*
X-218158Y-88237D01*
X-218145Y-88248D01*
X-218133Y-88264D01*
X-218098Y-88299D01*
X-218059Y-88339D01*
X-218010Y-88380D01*
X-217955Y-88420D01*
X-217896Y-88458D01*
X-217894Y-88460D01*
X-217890Y-88461D01*
X-217881Y-88467D01*
X-217868Y-88473D01*
X-217835Y-88489D01*
X-217793Y-88506D01*
X-217739Y-88527D01*
X-217681Y-88549D01*
X-217618Y-88562D01*
X-217552Y-88577D01*
X-217543Y-88578D01*
X-217522Y-88579D01*
X-217485Y-88583D01*
X-217440Y-88582D01*
X-217386Y-88582D01*
X-217325Y-88581D01*
X-217261Y-88572D01*
X-217196Y-88560D01*
X-217194Y-88558D01*
X-217189Y-88558D01*
X-217179Y-88555D01*
X-217167Y-88550D01*
X-217133Y-88540D01*
X-217089Y-88522D01*
X-217039Y-88500D01*
X-216984Y-88475D01*
X-216928Y-88440D01*
X-216872Y-88400D01*
X-216851Y-88384D01*
X-216830Y-88364D01*
X-216803Y-88335D01*
X-216773Y-88303D01*
X-216740Y-88265D01*
X-216706Y-88223D01*
X-216675Y-88178D01*
X-216672Y-88176D01*
X-216672Y-88171D01*
X-216663Y-88156D01*
X-216650Y-88130D01*
X-216631Y-88095D01*
X-216614Y-88052D01*
X-216597Y-88006D01*
X-216578Y-87954D01*
X-216564Y-87902D01*
X-216561Y-87896D01*
X-216559Y-87877D01*
X-216553Y-87848D01*
X-216548Y-87811D01*
X-216542Y-87765D01*
X-216540Y-87713D01*
X-216540Y-87660D01*
X-216542Y-87603D01*
X-216544Y-87596D01*
X-216546Y-87577D01*
X-216549Y-87546D01*
X-216553Y-87508D01*
X-216564Y-87463D01*
X-216577Y-87414D01*
X-216593Y-87361D01*
X-216614Y-87306D01*
X-217224Y-87777D01*
X-217231Y-87779D01*
X-217241Y-87782D01*
X-217255Y-87780D01*
X-217257Y-87778D01*
X-217264Y-87775D01*
X-217272Y-87764D01*
X-217277Y-87752D01*
X-217304Y-87304D01*
X-217303Y-87300D01*
X-217302Y-87290D01*
X-217302Y-87274D01*
X-217297Y-87254D01*
X-217290Y-87231D01*
X-217279Y-87207D01*
X-217263Y-87186D01*
X-217241Y-87165D01*
X-216504Y-86596D01*
X-216502Y-86598D01*
X-216493Y-86604D01*
X-216485Y-86614D01*
X-216473Y-86625D01*
X-216441Y-86655D01*
X-216411Y-86690D01*
X-216409Y-86692D01*
X-216405Y-86697D01*
X-216394Y-86706D01*
X-216384Y-86719D01*
X-216358Y-86752D01*
X-216328Y-86791D01*
X-216326Y-86794D01*
X-216320Y-86802D01*
X-216310Y-86815D01*
X-216301Y-86832D01*
X-216284Y-86853D01*
X-216267Y-86881D01*
X-216248Y-86912D01*
X-216231Y-86944D01*
X-216189Y-87020D01*
X-216146Y-87107D01*
X-216110Y-87203D01*
X-216078Y-87303D01*
X-216076Y-87305D01*
X-216077Y-87315D01*
X-216073Y-87332D01*
X-216068Y-87349D01*
X-216064Y-87375D01*
X-216058Y-87404D01*
X-216046Y-87473D01*
X-216040Y-87556D01*
X-216034Y-87650D01*
X-216037Y-87748D01*
X-216046Y-87850D01*
X-216046Y-87854D01*
X-216047Y-87863D01*
X-216049Y-87877D01*
X-216052Y-87896D01*
X-216057Y-87921D01*
X-216065Y-87948D01*
X-216072Y-87982D01*
X-216079Y-88016D01*
X-216105Y-88095D01*
X-216133Y-88182D01*
X-216173Y-88275D01*
X-216222Y-88367D01*
X-216225Y-88369D01*
X-216231Y-88378D01*
X-216237Y-88391D01*
X-216248Y-88408D01*
X-216263Y-88427D01*
X-216280Y-88453D01*
X-216300Y-88481D01*
X-216322Y-88511D01*
X-216348Y-88543D01*
X-216375Y-88577D01*
X-216441Y-88648D01*
X-216516Y-88722D01*
X-216599Y-88791D01*
X-216623Y-88809D01*
X-216640Y-88818D01*
X-216661Y-88834D01*
X-216689Y-88852D01*
X-216717Y-88869D01*
X-216750Y-88891D01*
X-216826Y-88933D01*
X-216910Y-88973D01*
X-217006Y-89010D01*
X-217106Y-89041D01*
X-217109Y-89043D01*
X-217118Y-89042D01*
X-217135Y-89047D01*
X-217152Y-89052D01*
X-217178Y-89055D01*
X-217207Y-89061D01*
X-217274Y-89071D01*
X-217356Y-89077D01*
X-217448Y-89082D01*
X-217544Y-89081D01*
X-217646Y-89072D01*
X-217650Y-89072D01*
X-217660Y-89071D01*
X-217673Y-89069D01*
X-217694Y-89064D01*
X-217714Y-89059D01*
X-217744Y-89053D01*
X-217776Y-89044D01*
X-217812Y-89035D01*
X-217890Y-89008D01*
X-217975Y-88979D01*
X-218068Y-88939D01*
X-218160Y-88889D01*
X-218162Y-88887D01*
X-218171Y-88881D01*
X-218184Y-88875D01*
X-218201Y-88863D01*
X-218222Y-88846D01*
X-218248Y-88829D01*
X-218276Y-88809D01*
X-218306Y-88786D01*
X-218338Y-88761D01*
X-218373Y-88731D01*
X-218445Y-88666D01*
X-218519Y-88591D01*
X-218590Y-88504D01*
X-218592Y-88502D01*
X-218598Y-88494D01*
X-218608Y-88481D01*
X-218619Y-88461D01*
X-218635Y-88440D01*
X-218653Y-88412D01*
X-218670Y-88384D01*
X-218692Y-88351D01*
X-218736Y-88273D01*
X-218778Y-88185D01*
X-218815Y-88090D01*
X-218846Y-87989D01*
X-218848Y-87987D01*
X-218849Y-87975D01*
X-218852Y-87961D01*
X-218857Y-87944D01*
X-218861Y-87918D01*
X-218866Y-87889D01*
X-218878Y-87819D01*
X-218889Y-87736D01*
X-218893Y-87644D01*
X-218893Y-87549D01*
X-218884Y-87447D01*
X-218883Y-87442D01*
X-218882Y-87433D01*
X-218881Y-87419D01*
X-218878Y-87401D01*
X-218873Y-87376D01*
X-218864Y-87349D01*
X-218858Y-87315D01*
X-218851Y-87280D01*
X-218825Y-87202D01*
X-218797Y-87114D01*
X-218759Y-87023D01*
X-218710Y-86931D01*
X-218708Y-86929D01*
X-218702Y-86921D01*
X-218695Y-86908D01*
X-218684Y-86890D01*
X-218672Y-86869D01*
X-218652Y-86845D01*
X-218632Y-86818D01*
X-218610Y-86788D01*
X-218585Y-86756D01*
X-218557Y-86722D01*
X-218492Y-86651D01*
X-218417Y-86576D01*
X-218333Y-86508D01*
X-218309Y-86489D01*
X-218292Y-86480D01*
X-218271Y-86464D01*
X-218246Y-86449D01*
X-218218Y-86431D01*
X-218183Y-86412D01*
X-218110Y-86373D01*
X-218025Y-86332D01*
X-217934Y-86295D01*
X-217836Y-86265D01*
X-217834Y-86263D01*
X-217827Y-86262D01*
X-217810Y-86257D01*
X-217791Y-86255D01*
X-217766Y-86248D01*
X-217740Y-86245D01*
X-217671Y-86233D01*
X-217592Y-86222D01*
X-217505Y-86217D01*
X-217409Y-86217D01*
D02*
G37*
G36*
X-219769Y-87728D02*
X-219757Y-87739D01*
X-218131Y-89845D01*
X-218129Y-89847D01*
X-218127Y-89850D01*
X-218122Y-89867D01*
X-218121Y-89879D01*
X-218125Y-89890D01*
X-218134Y-89901D01*
X-218145Y-89913D01*
X-218469Y-90164D01*
X-218476Y-90165D01*
X-218489Y-90171D01*
X-218500Y-90171D01*
X-218505Y-90171D01*
X-218512Y-90168D01*
X-218520Y-90162D01*
X-218531Y-90153D01*
X-220156Y-88048D01*
X-220158Y-88045D01*
X-220162Y-88035D01*
X-220165Y-88026D01*
X-220166Y-88014D01*
X-220165Y-88009D01*
X-220164Y-88000D01*
X-220159Y-87991D01*
X-220150Y-87981D01*
X-219820Y-87726D01*
X-219803Y-87721D01*
X-219792Y-87721D01*
X-219780Y-87720D01*
X-219769Y-87728D01*
D02*
G37*
G36*
X-220632Y-88365D02*
X-220628Y-88366D01*
X-220621Y-88369D01*
X-220612Y-88375D01*
X-220602Y-88383D01*
X-220249Y-88840D01*
X-220247Y-88843D01*
X-220243Y-88848D01*
X-220237Y-88856D01*
X-220232Y-88868D01*
X-220219Y-88900D01*
X-220215Y-88938D01*
X-220211Y-89963D01*
X-218798Y-90339D01*
X-218793Y-90339D01*
X-218785Y-90345D01*
X-218777Y-90356D01*
X-218771Y-90368D01*
X-218772Y-90373D01*
X-218773Y-90377D01*
X-218776Y-90389D01*
X-218785Y-90399D01*
X-219192Y-90714D01*
X-219205Y-90719D01*
X-219222Y-90729D01*
X-219244Y-90733D01*
X-219268Y-90739D01*
X-219294Y-90738D01*
X-219321Y-90735D01*
X-220690Y-90374D01*
X-220696Y-90371D01*
X-220709Y-90364D01*
X-220721Y-90349D01*
X-220725Y-90339D01*
X-220726Y-90327D01*
X-220732Y-89052D01*
X-221646Y-89757D01*
X-220295Y-91507D01*
X-220293Y-91510D01*
X-220291Y-91512D01*
X-220286Y-91529D01*
X-220286Y-91541D01*
X-220289Y-91552D01*
X-220298Y-91563D01*
X-220309Y-91576D01*
X-220633Y-91826D01*
X-220640Y-91827D01*
X-220653Y-91833D01*
X-220665Y-91834D01*
X-220669Y-91833D01*
X-220676Y-91830D01*
X-220685Y-91824D01*
X-220695Y-91816D01*
X-222321Y-89710D01*
X-222323Y-89707D01*
X-222326Y-89698D01*
X-222329Y-89688D01*
X-222330Y-89676D01*
X-222330Y-89671D01*
X-222328Y-89662D01*
X-222323Y-89654D01*
X-222314Y-89643D01*
X-220666Y-88370D01*
X-220656Y-88367D01*
X-220646Y-88364D01*
X-220632Y-88365D01*
D02*
G37*
G36*
X-222892Y-90516D02*
X-222795Y-90524D01*
X-222790Y-90524D01*
X-222781Y-90525D01*
X-222767Y-90527D01*
X-222751Y-90532D01*
X-222728Y-90535D01*
X-222699Y-90541D01*
X-222635Y-90554D01*
X-222558Y-90577D01*
X-222476Y-90605D01*
X-222386Y-90639D01*
X-222296Y-90681D01*
X-222294Y-90684D01*
X-222287Y-90687D01*
X-222274Y-90694D01*
X-222257Y-90705D01*
X-222235Y-90717D01*
X-222211Y-90732D01*
X-222183Y-90752D01*
X-222156Y-90772D01*
X-222089Y-90820D01*
X-222020Y-90878D01*
X-221949Y-90948D01*
X-221882Y-91025D01*
X-221880Y-91027D01*
X-221874Y-91035D01*
X-221864Y-91048D01*
X-221852Y-91064D01*
X-221838Y-91086D01*
X-221820Y-91110D01*
X-221801Y-91140D01*
X-221781Y-91171D01*
X-221740Y-91246D01*
X-221699Y-91331D01*
X-221662Y-91422D01*
X-221630Y-91522D01*
X-221628Y-91525D01*
X-221629Y-91534D01*
X-221622Y-91549D01*
X-221620Y-91568D01*
X-221616Y-91594D01*
X-221610Y-91623D01*
X-221600Y-91690D01*
X-221595Y-91773D01*
X-221590Y-91864D01*
X-221591Y-91960D01*
X-221599Y-92062D01*
X-221600Y-92067D01*
X-221601Y-92076D01*
X-221603Y-92089D01*
X-221605Y-92108D01*
X-221613Y-92130D01*
X-221619Y-92160D01*
X-221627Y-92191D01*
X-221634Y-92226D01*
X-221659Y-92307D01*
X-221688Y-92392D01*
X-221726Y-92483D01*
X-221773Y-92577D01*
X-221776Y-92579D01*
X-221779Y-92586D01*
X-221788Y-92601D01*
X-221799Y-92618D01*
X-221812Y-92640D01*
X-221828Y-92661D01*
X-221848Y-92689D01*
X-221871Y-92719D01*
X-221894Y-92754D01*
X-221922Y-92787D01*
X-221984Y-92857D01*
X-222057Y-92929D01*
X-222138Y-92996D01*
X-222810Y-93515D01*
X-222817Y-93516D01*
X-222830Y-93522D01*
X-222842Y-93523D01*
X-222846Y-93522D01*
X-222853Y-93519D01*
X-222862Y-93513D01*
X-222872Y-93505D01*
X-224498Y-91399D01*
X-224500Y-91396D01*
X-224503Y-91386D01*
X-224506Y-91377D01*
X-224507Y-91365D01*
X-224507Y-91360D01*
X-224505Y-91351D01*
X-224500Y-91343D01*
X-224491Y-91332D01*
X-223759Y-90767D01*
X-223739Y-90755D01*
X-223713Y-90740D01*
X-223686Y-90722D01*
X-223655Y-90703D01*
X-223582Y-90663D01*
X-223500Y-90625D01*
X-223409Y-90587D01*
X-223314Y-90560D01*
X-223311Y-90558D01*
X-223304Y-90556D01*
X-223290Y-90553D01*
X-223268Y-90549D01*
X-223247Y-90545D01*
X-223218Y-90539D01*
X-223151Y-90529D01*
X-223070Y-90521D01*
X-222983Y-90516D01*
X-222892Y-90516D01*
D02*
G37*
G36*
X-225086Y-92177D02*
X-224985Y-92185D01*
X-224980Y-92186D01*
X-224971Y-92187D01*
X-224957Y-92189D01*
X-224937Y-92194D01*
X-224914Y-92197D01*
X-224887Y-92205D01*
X-224852Y-92211D01*
X-224816Y-92221D01*
X-224738Y-92247D01*
X-224650Y-92275D01*
X-224557Y-92315D01*
X-224465Y-92364D01*
X-224463Y-92367D01*
X-224454Y-92373D01*
X-224441Y-92379D01*
X-224424Y-92391D01*
X-224402Y-92403D01*
X-224377Y-92420D01*
X-224349Y-92440D01*
X-224319Y-92462D01*
X-224287Y-92488D01*
X-224251Y-92518D01*
X-224182Y-92581D01*
X-224108Y-92656D01*
X-224039Y-92739D01*
X-224037Y-92742D01*
X-224031Y-92750D01*
X-224021Y-92763D01*
X-224011Y-92780D01*
X-223996Y-92806D01*
X-223978Y-92829D01*
X-223961Y-92862D01*
X-223941Y-92892D01*
X-223900Y-92972D01*
X-223860Y-93057D01*
X-223821Y-93156D01*
X-223792Y-93257D01*
X-223790Y-93260D01*
X-223791Y-93269D01*
X-223786Y-93286D01*
X-223782Y-93303D01*
X-223778Y-93330D01*
X-223772Y-93358D01*
X-223760Y-93428D01*
X-223755Y-93510D01*
X-223748Y-93605D01*
X-223751Y-93702D01*
X-223760Y-93804D01*
X-223760Y-93809D01*
X-223761Y-93818D01*
X-223763Y-93832D01*
X-223765Y-93850D01*
X-223773Y-93873D01*
X-223779Y-93902D01*
X-223788Y-93934D01*
X-223795Y-93968D01*
X-223819Y-94049D01*
X-223849Y-94134D01*
X-223886Y-94225D01*
X-223936Y-94317D01*
X-223938Y-94319D01*
X-223944Y-94328D01*
X-223950Y-94341D01*
X-223962Y-94358D01*
X-223974Y-94380D01*
X-223993Y-94403D01*
X-224013Y-94431D01*
X-224036Y-94461D01*
X-224059Y-94495D01*
X-224087Y-94529D01*
X-224152Y-94600D01*
X-224227Y-94675D01*
X-224311Y-94744D01*
X-224334Y-94762D01*
X-224352Y-94771D01*
X-224372Y-94787D01*
X-224400Y-94805D01*
X-224428Y-94822D01*
X-224462Y-94843D01*
X-224537Y-94885D01*
X-224622Y-94926D01*
X-224718Y-94962D01*
X-224818Y-94994D01*
X-224820Y-94996D01*
X-224830Y-94995D01*
X-224847Y-95000D01*
X-224863Y-95004D01*
X-224890Y-95008D01*
X-224918Y-95014D01*
X-224988Y-95026D01*
X-225070Y-95032D01*
X-225162Y-95036D01*
X-225258Y-95035D01*
X-225360Y-95027D01*
X-225364Y-95026D01*
X-225371Y-95023D01*
X-225385Y-95021D01*
X-225405Y-95016D01*
X-225428Y-95014D01*
X-225458Y-95007D01*
X-225489Y-94999D01*
X-225523Y-94987D01*
X-225604Y-94963D01*
X-225689Y-94933D01*
X-225780Y-94891D01*
X-225871Y-94842D01*
X-225873Y-94839D01*
X-225882Y-94834D01*
X-225895Y-94827D01*
X-225912Y-94816D01*
X-225934Y-94799D01*
X-225959Y-94782D01*
X-225987Y-94762D01*
X-226017Y-94739D01*
X-226049Y-94714D01*
X-226085Y-94683D01*
X-226156Y-94618D01*
X-226231Y-94543D01*
X-226301Y-94457D01*
X-226303Y-94454D01*
X-226309Y-94446D01*
X-226319Y-94433D01*
X-226331Y-94413D01*
X-226347Y-94393D01*
X-226364Y-94365D01*
X-226382Y-94337D01*
X-226403Y-94304D01*
X-226447Y-94225D01*
X-226489Y-94138D01*
X-226526Y-94042D01*
X-226558Y-93942D01*
X-226560Y-93940D01*
X-226560Y-93928D01*
X-226563Y-93913D01*
X-226568Y-93896D01*
X-226572Y-93870D01*
X-226577Y-93841D01*
X-226590Y-93772D01*
X-226600Y-93689D01*
X-226605Y-93597D01*
X-226604Y-93501D01*
X-226595Y-93400D01*
X-226595Y-93395D01*
X-226594Y-93386D01*
X-226592Y-93372D01*
X-226589Y-93353D01*
X-226584Y-93328D01*
X-226576Y-93301D01*
X-226572Y-93269D01*
X-226562Y-93233D01*
X-226538Y-93157D01*
X-226511Y-93069D01*
X-226473Y-92978D01*
X-226424Y-92886D01*
X-226421Y-92884D01*
X-226416Y-92875D01*
X-226409Y-92862D01*
X-226398Y-92845D01*
X-226386Y-92823D01*
X-226366Y-92800D01*
X-226346Y-92772D01*
X-226324Y-92742D01*
X-226296Y-92708D01*
X-226268Y-92675D01*
X-226203Y-92603D01*
X-226128Y-92529D01*
X-226044Y-92460D01*
X-226021Y-92442D01*
X-226003Y-92433D01*
X-225978Y-92417D01*
X-225955Y-92399D01*
X-225922Y-92382D01*
X-225891Y-92363D01*
X-225811Y-92322D01*
X-225727Y-92281D01*
X-225631Y-92244D01*
X-225529Y-92216D01*
X-225526Y-92213D01*
X-225514Y-92213D01*
X-225500Y-92210D01*
X-225483Y-92205D01*
X-225457Y-92201D01*
X-225428Y-92196D01*
X-225359Y-92184D01*
X-225276Y-92178D01*
X-225184Y-92173D01*
X-225086Y-92177D01*
D02*
G37*
G36*
X-227497Y-93665D02*
X-227492Y-93665D01*
X-227486Y-93668D01*
X-227477Y-93674D01*
X-227467Y-93682D01*
X-227114Y-94139D01*
X-227112Y-94142D01*
X-227108Y-94147D01*
X-227102Y-94155D01*
X-227097Y-94168D01*
X-227084Y-94200D01*
X-227080Y-94237D01*
X-227076Y-95262D01*
X-225663Y-95638D01*
X-225658Y-95639D01*
X-225650Y-95644D01*
X-225642Y-95655D01*
X-225636Y-95667D01*
X-225637Y-95672D01*
X-225637Y-95676D01*
X-225641Y-95688D01*
X-225650Y-95698D01*
X-226057Y-96013D01*
X-226070Y-96018D01*
X-226087Y-96028D01*
X-226109Y-96032D01*
X-226133Y-96038D01*
X-226159Y-96037D01*
X-226186Y-96034D01*
X-227554Y-95673D01*
X-227561Y-95670D01*
X-227574Y-95663D01*
X-227586Y-95648D01*
X-227590Y-95638D01*
X-227591Y-95626D01*
X-227597Y-94351D01*
X-228511Y-95056D01*
X-227160Y-96806D01*
X-227158Y-96809D01*
X-227156Y-96812D01*
X-227151Y-96829D01*
X-227151Y-96840D01*
X-227154Y-96852D01*
X-227163Y-96862D01*
X-227174Y-96875D01*
X-227498Y-97125D01*
X-227505Y-97127D01*
X-227518Y-97132D01*
X-227530Y-97133D01*
X-227534Y-97132D01*
X-227541Y-97129D01*
X-227550Y-97123D01*
X-227560Y-97115D01*
X-229186Y-95009D01*
X-229187Y-95007D01*
X-229191Y-94997D01*
X-229194Y-94987D01*
X-229195Y-94975D01*
X-229195Y-94971D01*
X-229193Y-94962D01*
X-229188Y-94953D01*
X-229179Y-94942D01*
X-227531Y-93670D01*
X-227521Y-93666D01*
X-227511Y-93663D01*
X-227497Y-93665D01*
D02*
G37*
G36*
X-230536Y-96014D02*
X-230524Y-96013D01*
X-230513Y-96022D01*
X-230501Y-96033D01*
X-228875Y-98138D01*
X-228873Y-98141D01*
X-228871Y-98144D01*
X-228866Y-98161D01*
X-228865Y-98172D01*
X-228867Y-98182D01*
X-228875Y-98192D01*
X-228886Y-98205D01*
X-229192Y-98441D01*
X-229205Y-98447D01*
X-229222Y-98456D01*
X-229244Y-98460D01*
X-229268Y-98467D01*
X-229294Y-98466D01*
X-229321Y-98462D01*
X-231562Y-97867D01*
X-230428Y-99337D01*
X-230426Y-99339D01*
X-230424Y-99342D01*
X-230419Y-99359D01*
X-230418Y-99371D01*
X-230422Y-99382D01*
X-230430Y-99393D01*
X-230441Y-99405D01*
X-230766Y-99656D01*
X-230773Y-99657D01*
X-230785Y-99663D01*
X-230797Y-99664D01*
X-230802Y-99663D01*
X-230808Y-99660D01*
X-230817Y-99654D01*
X-230828Y-99646D01*
X-232453Y-97540D01*
X-232455Y-97537D01*
X-232458Y-97527D01*
X-232462Y-97518D01*
X-232463Y-97506D01*
X-232462Y-97501D01*
X-232461Y-97492D01*
X-232455Y-97483D01*
X-232447Y-97473D01*
X-232140Y-97236D01*
X-232128Y-97231D01*
X-232110Y-97221D01*
X-232089Y-97217D01*
X-232065Y-97211D01*
X-232036Y-97210D01*
X-232007Y-97216D01*
X-229761Y-97807D01*
X-230895Y-96337D01*
X-230897Y-96335D01*
X-230899Y-96332D01*
X-230906Y-96313D01*
X-230906Y-96292D01*
X-230900Y-96283D01*
X-230889Y-96270D01*
X-230564Y-96020D01*
X-230545Y-96013D01*
X-230536Y-96014D01*
D02*
G37*
G36*
X-234297Y-98984D02*
X-231081Y-99833D01*
X-231079Y-99835D01*
X-231070Y-99841D01*
X-231064Y-99849D01*
X-231059Y-99861D01*
X-231059Y-99866D01*
X-231060Y-99871D01*
X-231064Y-99882D01*
X-231075Y-99894D01*
X-231480Y-100207D01*
X-231492Y-100213D01*
X-231510Y-100222D01*
X-231531Y-100226D01*
X-231556Y-100232D01*
X-231584Y-100233D01*
X-231611Y-100230D01*
X-232695Y-99943D01*
X-232691Y-101064D01*
X-232692Y-101068D01*
X-232693Y-101077D01*
X-232695Y-101091D01*
X-232702Y-101109D01*
X-232710Y-101131D01*
X-232722Y-101153D01*
X-232736Y-101172D01*
X-232757Y-101193D01*
X-233056Y-101424D01*
X-233063Y-101425D01*
X-233075Y-101430D01*
X-233087Y-101431D01*
X-233092Y-101431D01*
X-233098Y-101427D01*
X-233107Y-101422D01*
X-233118Y-101413D01*
X-234743Y-99308D01*
X-234745Y-99305D01*
X-234749Y-99295D01*
X-234752Y-99286D01*
X-234753Y-99274D01*
X-234752Y-99269D01*
X-234751Y-99260D01*
X-234745Y-99251D01*
X-234737Y-99241D01*
X-234430Y-99004D01*
X-234418Y-98999D01*
X-234400Y-98989D01*
X-234379Y-98985D01*
X-234355Y-98979D01*
X-234326Y-98978D01*
X-234297Y-98984D01*
D02*
G37*
G36*
X-235826Y-100513D02*
X-235719Y-100529D01*
X-235714Y-100530D01*
X-235707Y-100533D01*
X-235697Y-100541D01*
X-235689Y-100552D01*
X-235687Y-100554D01*
X-235685Y-100561D01*
X-235680Y-100574D01*
X-235682Y-100587D01*
X-235768Y-100986D01*
X-235769Y-100990D01*
X-235772Y-100997D01*
X-235780Y-101007D01*
X-235789Y-101018D01*
X-235791Y-101020D01*
X-235799Y-101022D01*
X-235813Y-101024D01*
X-235827Y-101023D01*
X-235829Y-101020D01*
X-235836Y-101021D01*
X-235861Y-101016D01*
X-235898Y-101011D01*
X-235946Y-101007D01*
X-236007Y-101004D01*
X-236072Y-101005D01*
X-236140Y-101008D01*
X-236214Y-101019D01*
X-236217Y-101021D01*
X-236222Y-101021D01*
X-236233Y-101022D01*
X-236246Y-101027D01*
X-236263Y-101032D01*
X-236284Y-101036D01*
X-236331Y-101056D01*
X-236385Y-101077D01*
X-236445Y-101107D01*
X-236509Y-101143D01*
X-236570Y-101186D01*
X-236583Y-101196D01*
X-236594Y-101209D01*
X-236618Y-101232D01*
X-236651Y-101265D01*
X-236689Y-101307D01*
X-236725Y-101356D01*
X-236763Y-101409D01*
X-236796Y-101468D01*
X-236799Y-101470D01*
X-236799Y-101475D01*
X-236809Y-101495D01*
X-236825Y-101528D01*
X-236842Y-101570D01*
X-236858Y-101620D01*
X-236875Y-101678D01*
X-236887Y-101742D01*
X-236896Y-101806D01*
X-236897Y-101815D01*
X-236897Y-101837D01*
X-236899Y-101871D01*
X-236896Y-101918D01*
X-236896Y-101972D01*
X-236887Y-102032D01*
X-236877Y-102099D01*
X-236862Y-102166D01*
X-236860Y-102169D01*
X-236861Y-102173D01*
X-236858Y-102183D01*
X-236852Y-102195D01*
X-236841Y-102232D01*
X-236820Y-102274D01*
X-236797Y-102327D01*
X-236769Y-102384D01*
X-236732Y-102442D01*
X-236690Y-102501D01*
X-236688Y-102504D01*
X-236684Y-102509D01*
X-236679Y-102517D01*
X-236670Y-102527D01*
X-236656Y-102541D01*
X-236644Y-102557D01*
X-236609Y-102592D01*
X-236569Y-102632D01*
X-236521Y-102673D01*
X-236465Y-102713D01*
X-236407Y-102751D01*
X-236405Y-102753D01*
X-236400Y-102754D01*
X-236392Y-102760D01*
X-236379Y-102766D01*
X-236345Y-102782D01*
X-236303Y-102799D01*
X-236250Y-102820D01*
X-236192Y-102842D01*
X-236128Y-102855D01*
X-236062Y-102870D01*
X-236053Y-102871D01*
X-236032Y-102872D01*
X-235997Y-102874D01*
X-235950Y-102875D01*
X-235897Y-102875D01*
X-235838Y-102871D01*
X-235773Y-102863D01*
X-235709Y-102850D01*
X-235706Y-102848D01*
X-235702Y-102849D01*
X-235692Y-102845D01*
X-235679Y-102840D01*
X-235645Y-102830D01*
X-235601Y-102812D01*
X-235552Y-102791D01*
X-235497Y-102765D01*
X-235441Y-102730D01*
X-235384Y-102691D01*
X-235369Y-102679D01*
X-235360Y-102668D01*
X-235345Y-102656D01*
X-235331Y-102641D01*
X-235296Y-102606D01*
X-235258Y-102564D01*
X-235219Y-102513D01*
X-235179Y-102457D01*
X-235145Y-102394D01*
X-235142Y-102392D01*
X-235142Y-102387D01*
X-235138Y-102376D01*
X-235132Y-102363D01*
X-235118Y-102328D01*
X-235103Y-102283D01*
X-235084Y-102227D01*
X-235071Y-102163D01*
X-235060Y-102096D01*
X-235053Y-102025D01*
X-235052Y-102020D01*
X-235051Y-102011D01*
X-235045Y-102002D01*
X-235037Y-101992D01*
X-235027Y-101984D01*
X-235017Y-101980D01*
X-235000Y-101980D01*
X-234594Y-101997D01*
X-234589Y-101998D01*
X-234582Y-102001D01*
X-234571Y-102005D01*
X-234560Y-102013D01*
X-234559Y-102016D01*
X-234554Y-102021D01*
X-234549Y-102033D01*
X-234548Y-102045D01*
X-234549Y-102050D01*
X-234550Y-102059D01*
X-234550Y-102076D01*
X-234555Y-102096D01*
X-234558Y-102123D01*
X-234562Y-102156D01*
X-234569Y-102190D01*
X-234577Y-102229D01*
X-234595Y-102318D01*
X-234624Y-102414D01*
X-234662Y-102515D01*
X-234708Y-102616D01*
X-234711Y-102618D01*
X-234715Y-102629D01*
X-234723Y-102640D01*
X-234735Y-102662D01*
X-234750Y-102686D01*
X-234767Y-102712D01*
X-234790Y-102742D01*
X-234810Y-102774D01*
X-234841Y-102810D01*
X-234869Y-102848D01*
X-234938Y-102926D01*
X-235018Y-103004D01*
X-235112Y-103081D01*
X-235135Y-103099D01*
X-235153Y-103109D01*
X-235174Y-103125D01*
X-235202Y-103142D01*
X-235229Y-103160D01*
X-235263Y-103181D01*
X-235338Y-103223D01*
X-235423Y-103263D01*
X-235519Y-103300D01*
X-235619Y-103332D01*
X-235621Y-103334D01*
X-235630Y-103332D01*
X-235648Y-103337D01*
X-235665Y-103342D01*
X-235691Y-103346D01*
X-235719Y-103351D01*
X-235786Y-103361D01*
X-235869Y-103367D01*
X-235961Y-103372D01*
X-236056Y-103371D01*
X-236158Y-103363D01*
X-236163Y-103362D01*
X-236172Y-103361D01*
X-236186Y-103359D01*
X-236206Y-103354D01*
X-236227Y-103349D01*
X-236256Y-103343D01*
X-236288Y-103334D01*
X-236324Y-103325D01*
X-236403Y-103299D01*
X-236488Y-103269D01*
X-236581Y-103229D01*
X-236672Y-103180D01*
X-236674Y-103177D01*
X-236683Y-103171D01*
X-236696Y-103165D01*
X-236714Y-103153D01*
X-236735Y-103137D01*
X-236761Y-103119D01*
X-236789Y-103099D01*
X-236818Y-103077D01*
X-236850Y-103051D01*
X-236886Y-103021D01*
X-236957Y-102956D01*
X-237032Y-102881D01*
X-237102Y-102795D01*
X-237104Y-102792D01*
X-237110Y-102784D01*
X-237120Y-102771D01*
X-237132Y-102751D01*
X-237148Y-102730D01*
X-237165Y-102702D01*
X-237183Y-102674D01*
X-237204Y-102641D01*
X-237248Y-102563D01*
X-237291Y-102476D01*
X-237327Y-102380D01*
X-237359Y-102280D01*
X-237361Y-102277D01*
X-237362Y-102266D01*
X-237365Y-102251D01*
X-237369Y-102234D01*
X-237373Y-102208D01*
X-237379Y-102179D01*
X-237391Y-102110D01*
X-237399Y-102029D01*
X-237406Y-101935D01*
X-237405Y-101839D01*
X-237397Y-101737D01*
X-237396Y-101733D01*
X-237395Y-101723D01*
X-237393Y-101710D01*
X-237391Y-101691D01*
X-237385Y-101666D01*
X-237377Y-101639D01*
X-237370Y-101605D01*
X-237363Y-101571D01*
X-237337Y-101492D01*
X-237309Y-101405D01*
X-237272Y-101314D01*
X-237223Y-101222D01*
X-237220Y-101220D01*
X-237214Y-101211D01*
X-237208Y-101198D01*
X-237196Y-101181D01*
X-237184Y-101159D01*
X-237165Y-101136D01*
X-237145Y-101108D01*
X-237122Y-101078D01*
X-237097Y-101046D01*
X-237069Y-101012D01*
X-237004Y-100941D01*
X-236929Y-100867D01*
X-236845Y-100798D01*
X-236819Y-100778D01*
X-236799Y-100766D01*
X-236776Y-100753D01*
X-236749Y-100735D01*
X-236715Y-100714D01*
X-236680Y-100695D01*
X-236597Y-100652D01*
X-236506Y-100610D01*
X-236404Y-100569D01*
X-236298Y-100541D01*
X-236295Y-100539D01*
X-236283Y-100538D01*
X-236269Y-100535D01*
X-236247Y-100531D01*
X-236221Y-100528D01*
X-236191Y-100524D01*
X-236157Y-100519D01*
X-236117Y-100513D01*
X-236029Y-100508D01*
X-235931Y-100506D01*
X-235826Y-100513D01*
D02*
G37*
G36*
X-235202Y-99641D02*
X-235190Y-99652D01*
X-233564Y-101758D01*
X-233562Y-101761D01*
X-233560Y-101763D01*
X-233555Y-101780D01*
X-233555Y-101792D01*
X-233558Y-101803D01*
X-233567Y-101814D01*
X-233578Y-101827D01*
X-233902Y-102077D01*
X-233909Y-102078D01*
X-233922Y-102084D01*
X-233934Y-102085D01*
X-233938Y-102084D01*
X-233945Y-102081D01*
X-233953Y-102075D01*
X-233964Y-102067D01*
X-235590Y-99961D01*
X-235592Y-99958D01*
X-235595Y-99949D01*
X-235598Y-99939D01*
X-235599Y-99927D01*
X-235598Y-99923D01*
X-235597Y-99913D01*
X-235592Y-99905D01*
X-235583Y-99894D01*
X-235253Y-99639D01*
X-235237Y-99635D01*
X-235225Y-99634D01*
X-235213Y-99633D01*
X-235202Y-99641D01*
D02*
G37*
%LPC*%
G36*
X-186167Y-46969D02*
X-186184Y-46982D01*
D01*
X-186167Y-46969D01*
D02*
G37*
G36*
X-184769Y-46608D02*
X-184943Y-46616D01*
X-185105Y-46630D01*
X-185238Y-46649D01*
X-185296Y-46659D01*
X-185339Y-46667D01*
X-185383Y-46675D01*
X-185412Y-46681D01*
X-185426Y-46683D01*
X-185431Y-46687D01*
X-185621Y-46740D01*
X-185805Y-46812D01*
X-185970Y-46887D01*
X-186117Y-46964D01*
X-186179Y-47003D01*
X-186235Y-47037D01*
X-186286Y-47067D01*
X-186327Y-47089D01*
X-187806Y-48200D01*
X-187823Y-48221D01*
X-187835Y-48239D01*
X-187837Y-48257D01*
X-187839Y-48266D01*
X-187837Y-48290D01*
X-187831Y-48309D01*
X-187824Y-48329D01*
X-184625Y-52588D01*
X-184604Y-52605D01*
X-184587Y-52617D01*
X-184573Y-52623D01*
X-184564Y-52624D01*
X-184541Y-52623D01*
X-184516Y-52613D01*
X-184501Y-52610D01*
X-183143Y-51589D01*
X-182979Y-51458D01*
X-182832Y-51315D01*
X-182705Y-51178D01*
X-182649Y-51111D01*
X-182602Y-51043D01*
X-182556Y-50984D01*
X-182515Y-50929D01*
X-182481Y-50887D01*
X-182456Y-50844D01*
X-182432Y-50810D01*
X-182414Y-50779D01*
X-182408Y-50766D01*
X-182402Y-50762D01*
X-182306Y-50574D01*
X-182228Y-50393D01*
X-182167Y-50224D01*
X-182116Y-50063D01*
X-182101Y-49995D01*
X-182083Y-49931D01*
X-182070Y-49872D01*
X-182054Y-49828D01*
X-182049Y-49791D01*
X-182045Y-49764D01*
X-182042Y-49745D01*
X-182041Y-49736D01*
X-182022Y-49533D01*
X-182018Y-49341D01*
X-182025Y-49157D01*
X-182034Y-48992D01*
X-182052Y-48858D01*
X-182063Y-48801D01*
X-182070Y-48748D01*
X-182073Y-48710D01*
X-182088Y-48680D01*
X-182085Y-48662D01*
X-182089Y-48656D01*
X-182150Y-48456D01*
X-182222Y-48272D01*
X-182301Y-48101D01*
X-182382Y-47949D01*
X-182421Y-47888D01*
X-182459Y-47826D01*
X-182494Y-47779D01*
X-182520Y-47733D01*
X-182579Y-47654D01*
X-182712Y-47500D01*
X-182851Y-47358D01*
X-182989Y-47240D01*
X-183120Y-47142D01*
X-183176Y-47101D01*
X-183231Y-47060D01*
X-183278Y-47030D01*
X-183321Y-47005D01*
X-183355Y-46982D01*
X-183382Y-46969D01*
X-183395Y-46962D01*
X-183399Y-46957D01*
X-183579Y-46870D01*
X-183756Y-46799D01*
X-183921Y-46742D01*
X-184073Y-46692D01*
X-184201Y-46665D01*
X-184260Y-46652D01*
X-184306Y-46645D01*
X-184337Y-46636D01*
X-184365Y-46632D01*
X-184383Y-46630D01*
X-184392Y-46628D01*
X-184586Y-46610D01*
X-184769Y-46608D01*
D02*
G37*
G36*
X-194153Y-52969D02*
X-194162Y-52976D01*
D01*
X-194153Y-52969D01*
D02*
G37*
G36*
X-188813Y-48957D02*
X-188833Y-48963D01*
X-188852Y-48970D01*
X-192183Y-51472D01*
X-192200Y-51493D01*
X-192212Y-51510D01*
X-192214Y-51529D01*
X-192216Y-51538D01*
X-192214Y-51561D01*
X-192208Y-51581D01*
X-192201Y-51601D01*
X-189002Y-55860D01*
X-188980Y-55877D01*
X-188963Y-55888D01*
X-188950Y-55895D01*
X-188941Y-55896D01*
X-188918Y-55895D01*
X-188893Y-55884D01*
X-188878Y-55882D01*
X-188223Y-55389D01*
X-188200Y-55364D01*
X-188183Y-55343D01*
X-188175Y-55321D01*
X-188177Y-55297D01*
X-188186Y-55263D01*
X-188190Y-55258D01*
X-188194Y-55253D01*
X-190850Y-51718D01*
X-189003Y-50331D01*
X-189024Y-52881D01*
X-189022Y-52905D01*
X-189016Y-52925D01*
X-188992Y-52956D01*
X-188966Y-52969D01*
X-188953Y-52976D01*
X-186226Y-53733D01*
X-186171Y-53741D01*
X-186119Y-53743D01*
X-186071Y-53732D01*
X-186028Y-53724D01*
X-185992Y-53705D01*
X-185967Y-53695D01*
X-185144Y-53076D01*
X-185127Y-53055D01*
X-185119Y-53033D01*
X-185118Y-53024D01*
X-185116Y-53014D01*
X-185127Y-52990D01*
X-185143Y-52969D01*
X-185160Y-52957D01*
X-185169Y-52956D01*
X-187985Y-52167D01*
X-187966Y-50117D01*
X-187974Y-50041D01*
X-187997Y-49977D01*
X-188008Y-49952D01*
X-188020Y-49936D01*
X-188028Y-49926D01*
X-188032Y-49921D01*
X-188725Y-48998D01*
X-188746Y-48981D01*
X-188763Y-48969D01*
X-188776Y-48962D01*
X-188785Y-48961D01*
X-188813Y-48957D01*
D02*
G37*
G36*
X-195968Y-54439D02*
X-196025Y-54440D01*
X-196073Y-54452D01*
X-196116Y-54460D01*
X-196152Y-54479D01*
X-196177Y-54489D01*
X-196795Y-54954D01*
X-196813Y-54975D01*
X-196824Y-54992D01*
X-196827Y-55010D01*
X-196828Y-55020D01*
X-196827Y-55043D01*
X-196820Y-55063D01*
X-196814Y-55083D01*
X-193614Y-59341D01*
X-193593Y-59359D01*
X-193576Y-59370D01*
X-193563Y-59377D01*
X-193554Y-59378D01*
X-193530Y-59377D01*
X-193505Y-59366D01*
X-193491Y-59364D01*
X-192888Y-58911D01*
X-192844Y-58870D01*
X-192816Y-58832D01*
X-192791Y-58788D01*
X-192775Y-58744D01*
X-192761Y-58708D01*
X-192757Y-58681D01*
X-192754Y-58662D01*
X-192753Y-58653D01*
X-192730Y-56412D01*
X-190571Y-57014D01*
X-190516Y-57022D01*
X-190460Y-57020D01*
X-190411Y-57009D01*
X-190368Y-57001D01*
X-190332Y-56982D01*
X-190307Y-56972D01*
X-189489Y-56357D01*
X-189467Y-56332D01*
X-189459Y-56310D01*
X-189458Y-56301D01*
X-189456Y-56292D01*
X-189467Y-56267D01*
X-189479Y-56251D01*
X-189496Y-56239D01*
X-189500Y-56234D01*
X-195909Y-54452D01*
X-195968Y-54439D01*
D02*
G37*
G36*
X-198198Y-56615D02*
X-198382Y-56622D01*
X-198547Y-56631D01*
X-198686Y-56653D01*
X-198744Y-56664D01*
X-198796Y-56670D01*
X-198830Y-56680D01*
X-198859Y-56685D01*
X-198883Y-56686D01*
X-198888Y-56690D01*
X-199093Y-56745D01*
X-199285Y-56817D01*
X-199456Y-56895D01*
X-199617Y-56976D01*
X-199679Y-57014D01*
X-199744Y-57047D01*
X-199792Y-57082D01*
X-199843Y-57112D01*
X-199878Y-57131D01*
X-199925Y-57166D01*
X-200095Y-57301D01*
X-200247Y-57448D01*
X-200379Y-57589D01*
X-200435Y-57656D01*
X-200492Y-57723D01*
X-200538Y-57782D01*
X-200578Y-57837D01*
X-200618Y-57883D01*
X-200642Y-57926D01*
X-200666Y-57960D01*
X-200679Y-57987D01*
X-200691Y-58004D01*
X-200696Y-58008D01*
X-200797Y-58190D01*
X-200874Y-58371D01*
X-200932Y-58546D01*
X-200982Y-58698D01*
X-201001Y-58770D01*
X-201010Y-58834D01*
X-201027Y-58888D01*
X-201039Y-58938D01*
X-201045Y-58975D01*
X-201048Y-59002D01*
X-201051Y-59021D01*
X-201052Y-59030D01*
X-201072Y-59233D01*
X-201076Y-59425D01*
X-201069Y-59609D01*
X-201050Y-59775D01*
X-201028Y-59914D01*
X-201017Y-59972D01*
X-201011Y-60024D01*
X-201002Y-60059D01*
X-200996Y-60087D01*
X-200995Y-60111D01*
X-200991Y-60116D01*
X-200931Y-60317D01*
X-200859Y-60510D01*
X-200777Y-60685D01*
X-200691Y-60843D01*
X-200649Y-60910D01*
X-200615Y-60966D01*
X-200581Y-61023D01*
X-200549Y-61064D01*
X-200527Y-61105D01*
X-200492Y-61152D01*
X-200352Y-61327D01*
X-200205Y-61479D01*
X-200065Y-61611D01*
X-199994Y-61673D01*
X-199931Y-61724D01*
X-199872Y-61770D01*
X-199817Y-61810D01*
X-199766Y-61846D01*
X-199723Y-61880D01*
X-199689Y-61904D01*
X-199663Y-61917D01*
X-199646Y-61928D01*
X-199642Y-61934D01*
X-199460Y-62034D01*
X-199280Y-62121D01*
X-199111Y-62182D01*
X-198949Y-62234D01*
X-198882Y-62257D01*
X-198819Y-62275D01*
X-198760Y-62288D01*
X-198714Y-62295D01*
X-198674Y-62305D01*
X-198646Y-62309D01*
X-198633Y-62316D01*
X-198624Y-62317D01*
X-198420Y-62337D01*
X-198229Y-62340D01*
X-198045Y-62334D01*
X-197880Y-62325D01*
X-197741Y-62302D01*
X-197683Y-62292D01*
X-197631Y-62285D01*
X-197596Y-62276D01*
X-197562Y-62266D01*
X-197544Y-62269D01*
X-197539Y-62265D01*
X-197338Y-62205D01*
X-197145Y-62134D01*
X-196975Y-62055D01*
X-196823Y-61973D01*
X-196756Y-61931D01*
X-196699Y-61897D01*
X-196643Y-61863D01*
X-196601Y-61831D01*
X-196566Y-61813D01*
X-196518Y-61778D01*
X-196349Y-61642D01*
X-196197Y-61495D01*
X-196065Y-61355D01*
X-196008Y-61288D01*
X-195961Y-61220D01*
X-195915Y-61160D01*
X-195875Y-61105D01*
X-195835Y-61059D01*
X-195810Y-61016D01*
X-195787Y-60982D01*
X-195774Y-60956D01*
X-195762Y-60939D01*
X-195757Y-60935D01*
X-195656Y-60752D01*
X-195579Y-60571D01*
X-195517Y-60402D01*
X-195466Y-60240D01*
X-195452Y-60172D01*
X-195433Y-60109D01*
X-195420Y-60050D01*
X-195405Y-60005D01*
X-195399Y-59969D01*
X-195396Y-59941D01*
X-195393Y-59923D01*
X-195392Y-59914D01*
X-195372Y-59710D01*
X-195363Y-59515D01*
X-195374Y-59326D01*
X-195383Y-59161D01*
X-195405Y-59021D01*
X-195416Y-58964D01*
X-195423Y-58911D01*
X-195432Y-58877D01*
X-195441Y-58843D01*
X-195438Y-58825D01*
X-195442Y-58819D01*
X-195498Y-58615D01*
X-195573Y-58417D01*
X-195651Y-58246D01*
X-195732Y-58085D01*
X-195770Y-58023D01*
X-195802Y-57958D01*
X-195838Y-57911D01*
X-195868Y-57859D01*
X-195887Y-57824D01*
X-195922Y-57777D01*
X-196057Y-57608D01*
X-196204Y-57456D01*
X-196341Y-57328D01*
X-196412Y-57267D01*
X-196475Y-57216D01*
X-196534Y-57170D01*
X-196589Y-57129D01*
X-196640Y-57094D01*
X-196684Y-57069D01*
X-196718Y-57045D01*
X-196744Y-57032D01*
X-196761Y-57020D01*
X-196765Y-57015D01*
X-196947Y-56914D01*
X-197133Y-56832D01*
X-197307Y-56774D01*
X-197463Y-56719D01*
X-197535Y-56700D01*
X-197604Y-56685D01*
X-197657Y-56668D01*
X-197703Y-56662D01*
X-197744Y-56651D01*
X-197772Y-56647D01*
X-197790Y-56645D01*
X-197799Y-56643D01*
X-198003Y-56624D01*
X-198198Y-56615D01*
D02*
G37*
G36*
X-209893Y-64794D02*
X-209900Y-64799D01*
D01*
X-209893Y-64794D01*
D02*
G37*
G36*
X-202874Y-59554D02*
X-202898Y-59555D01*
X-202932Y-59564D01*
X-206268Y-62070D01*
X-206285Y-62091D01*
X-206296Y-62108D01*
X-206299Y-62127D01*
X-206300Y-62136D01*
X-206299Y-62160D01*
X-206293Y-62179D01*
X-206286Y-62199D01*
X-203086Y-66458D01*
X-203065Y-66475D01*
X-203048Y-66486D01*
X-203035Y-66493D01*
X-203026Y-66494D01*
X-203002Y-66493D01*
X-202977Y-66482D01*
X-202963Y-66480D01*
X-199633Y-63978D01*
X-199610Y-63953D01*
X-199599Y-63936D01*
X-199597Y-63894D01*
X-199606Y-63860D01*
X-200308Y-62926D01*
X-200366Y-62871D01*
X-200417Y-62836D01*
X-200443Y-62823D01*
X-200460Y-62811D01*
X-200475Y-62813D01*
X-200479Y-62808D01*
X-202069Y-62362D01*
X-202051Y-60715D01*
X-202059Y-60639D01*
X-202082Y-60575D01*
X-202093Y-60550D01*
X-202810Y-59596D01*
X-202835Y-59573D01*
X-202856Y-59556D01*
X-202874Y-59554D01*
D02*
G37*
G36*
X-209034Y-64165D02*
X-209074Y-64178D01*
X-209729Y-64671D01*
X-209752Y-64696D01*
X-209763Y-64713D01*
X-209765Y-64755D01*
X-209751Y-64794D01*
X-209747Y-64799D01*
X-209743Y-64805D01*
X-207513Y-67773D01*
X-211989Y-66533D01*
X-212049Y-66520D01*
X-212105Y-66521D01*
X-212154Y-66533D01*
X-212197Y-66541D01*
X-212232Y-66559D01*
X-212257Y-66570D01*
X-212876Y-67035D01*
X-212893Y-67056D01*
X-212905Y-67073D01*
X-212908Y-67091D01*
X-212909Y-67101D01*
X-212907Y-67124D01*
X-212901Y-67144D01*
X-212894Y-67164D01*
X-209695Y-71422D01*
X-209674Y-71439D01*
X-209657Y-71451D01*
X-209644Y-71458D01*
X-209634Y-71459D01*
X-209611Y-71458D01*
X-209586Y-71447D01*
X-209571Y-71445D01*
X-208916Y-70952D01*
X-208893Y-70927D01*
X-208876Y-70906D01*
X-208869Y-70884D01*
X-208870Y-70860D01*
X-208879Y-70826D01*
X-208883Y-70821D01*
X-208887Y-70815D01*
X-211117Y-67847D01*
X-206651Y-69095D01*
X-206596Y-69103D01*
X-206545Y-69105D01*
X-206497Y-69094D01*
X-206453Y-69086D01*
X-206418Y-69067D01*
X-206393Y-69057D01*
X-205774Y-68592D01*
X-205752Y-68567D01*
X-205735Y-68546D01*
X-205732Y-68528D01*
X-205734Y-68504D01*
X-205743Y-68470D01*
X-208946Y-64206D01*
X-208971Y-64183D01*
X-208992Y-64166D01*
X-209016Y-64168D01*
X-209034Y-64165D01*
D02*
G37*
G36*
X-213844Y-67811D02*
X-213867Y-67813D01*
X-213891Y-67814D01*
X-213925Y-67823D01*
X-214591Y-68323D01*
X-214608Y-68344D01*
X-214620Y-68362D01*
X-214622Y-68380D01*
X-214624Y-68389D01*
X-214622Y-68413D01*
X-214616Y-68432D01*
X-214609Y-68452D01*
X-211410Y-72711D01*
X-211389Y-72728D01*
X-211372Y-72740D01*
X-211359Y-72746D01*
X-211349Y-72747D01*
X-211326Y-72746D01*
X-211301Y-72736D01*
X-211286Y-72733D01*
X-210631Y-72241D01*
X-210609Y-72215D01*
X-210592Y-72195D01*
X-210584Y-72172D01*
X-210585Y-72149D01*
X-210594Y-72114D01*
X-213798Y-67851D01*
X-213823Y-67828D01*
X-213844Y-67811D01*
D02*
G37*
G36*
X-221201Y-73289D02*
X-221213Y-73299D01*
D01*
X-221201Y-73289D01*
D02*
G37*
G36*
X-221912Y-73823D02*
X-221936Y-73842D01*
D01*
X-221912Y-73823D01*
D02*
G37*
G36*
X-218384Y-71280D02*
X-218441Y-71281D01*
X-218489Y-71293D01*
X-218532Y-71301D01*
X-218568Y-71319D01*
X-218593Y-71330D01*
X-219212Y-71795D01*
X-219229Y-71816D01*
X-219240Y-71833D01*
X-219243Y-71851D01*
X-219245Y-71860D01*
X-219243Y-71884D01*
X-219237Y-71904D01*
X-219230Y-71924D01*
X-216031Y-76182D01*
X-216009Y-76199D01*
X-215992Y-76211D01*
X-215979Y-76218D01*
X-215970Y-76219D01*
X-215947Y-76218D01*
X-215921Y-76207D01*
X-215907Y-76204D01*
X-215304Y-75751D01*
X-215261Y-75711D01*
X-215232Y-75673D01*
X-215207Y-75629D01*
X-215191Y-75585D01*
X-215177Y-75549D01*
X-215173Y-75522D01*
X-215170Y-75503D01*
X-215169Y-75494D01*
X-215146Y-73253D01*
X-212987Y-73855D01*
X-212932Y-73863D01*
X-212876Y-73861D01*
X-212827Y-73849D01*
X-212784Y-73842D01*
X-212749Y-73823D01*
X-212723Y-73813D01*
X-211905Y-73198D01*
X-211883Y-73173D01*
X-211875Y-73151D01*
X-211874Y-73141D01*
X-211873Y-73132D01*
X-211883Y-73107D01*
X-211895Y-73092D01*
X-211912Y-73080D01*
X-211916Y-73075D01*
X-218325Y-71293D01*
X-218384Y-71280D01*
D02*
G37*
G36*
X-220216Y-72566D02*
X-220255Y-72579D01*
X-220864Y-73036D01*
X-220907Y-73077D01*
X-220936Y-73115D01*
X-220961Y-73158D01*
X-220976Y-73203D01*
X-220987Y-73243D01*
X-220991Y-73271D01*
X-220993Y-73289D01*
X-220995Y-73299D01*
X-221050Y-77943D01*
X-223280Y-74975D01*
X-223305Y-74952D01*
X-223326Y-74935D01*
X-223350Y-74937D01*
X-223368Y-74934D01*
X-223408Y-74947D01*
X-224016Y-75404D01*
X-224054Y-75441D01*
X-224088Y-75483D01*
X-224108Y-75522D01*
X-224123Y-75567D01*
X-224134Y-75608D01*
X-224138Y-75635D01*
X-224140Y-75654D01*
X-224142Y-75663D01*
X-224210Y-82311D01*
X-224204Y-82340D01*
X-224181Y-82371D01*
X-224172Y-82372D01*
X-224144Y-82376D01*
X-224119Y-82366D01*
X-224105Y-82363D01*
X-223302Y-81760D01*
X-223259Y-81719D01*
X-223230Y-81682D01*
X-223205Y-81638D01*
X-223190Y-81594D01*
X-223175Y-81558D01*
X-223171Y-81530D01*
X-223169Y-81512D01*
X-223167Y-81503D01*
X-223112Y-76859D01*
X-220882Y-79827D01*
X-220857Y-79849D01*
X-220840Y-79861D01*
X-220798Y-79862D01*
X-220764Y-79853D01*
X-220155Y-79396D01*
X-220112Y-79355D01*
X-220083Y-79317D01*
X-220058Y-79274D01*
X-220043Y-79229D01*
X-220028Y-79194D01*
X-220024Y-79166D01*
X-220022Y-79148D01*
X-220021Y-79139D01*
X-219970Y-74498D01*
X-217740Y-77467D01*
X-217715Y-77489D01*
X-217698Y-77501D01*
X-217651Y-77498D01*
X-217617Y-77489D01*
X-216956Y-76992D01*
X-216934Y-76968D01*
X-216917Y-76947D01*
X-216914Y-76928D01*
X-216915Y-76905D01*
X-216925Y-76871D01*
X-220128Y-72606D01*
X-220153Y-72584D01*
X-220174Y-72567D01*
X-220198Y-72569D01*
X-220216Y-72566D01*
D02*
G37*
G36*
X-232347Y-81669D02*
X-232346Y-81670D01*
D01*
X-232347Y-81669D01*
D02*
G37*
G36*
X-234009Y-83017D02*
X-234007Y-83020D01*
D01*
X-234009Y-83017D01*
D02*
G37*
G36*
X-229486Y-79547D02*
X-229510Y-79548D01*
X-229544Y-79557D01*
X-232277Y-81610D01*
X-232294Y-81631D01*
X-232305Y-81648D01*
X-232308Y-81667D01*
X-232309Y-81676D01*
X-232308Y-81699D01*
X-232301Y-81719D01*
X-232295Y-81739D01*
X-229095Y-85997D01*
X-229074Y-86014D01*
X-229057Y-86026D01*
X-229044Y-86033D01*
X-229035Y-86034D01*
X-229011Y-86033D01*
X-228986Y-86022D01*
X-228972Y-86020D01*
X-226680Y-84298D01*
X-226637Y-84257D01*
X-226608Y-84219D01*
X-226583Y-84176D01*
X-226567Y-84131D01*
X-226553Y-84096D01*
X-226549Y-84068D01*
X-226546Y-84050D01*
X-226545Y-84040D01*
X-226540Y-83085D01*
X-226546Y-83056D01*
X-226552Y-83037D01*
X-226569Y-83025D01*
X-226573Y-83020D01*
X-226605Y-83011D01*
X-226624Y-83017D01*
X-226644Y-83024D01*
X-228831Y-84667D01*
X-229584Y-83665D01*
X-228010Y-82483D01*
X-227988Y-82458D01*
X-227976Y-82441D01*
X-227979Y-82394D01*
X-227988Y-82360D01*
X-227992Y-82354D01*
X-227996Y-82349D01*
X-228477Y-81709D01*
X-228502Y-81687D01*
X-228523Y-81670D01*
X-228541Y-81667D01*
X-228565Y-81669D01*
X-228599Y-81678D01*
X-230183Y-82868D01*
X-230943Y-81856D01*
X-228956Y-80362D01*
X-228933Y-80337D01*
X-228921Y-80320D01*
X-228920Y-80278D01*
X-228929Y-80244D01*
X-228933Y-80239D01*
X-228937Y-80234D01*
X-229422Y-79589D01*
X-229447Y-79566D01*
X-229468Y-79549D01*
X-229486Y-79547D01*
D02*
G37*
G36*
X-233239Y-82382D02*
X-233262Y-82384D01*
X-233286Y-82385D01*
X-233320Y-82394D01*
X-233986Y-82895D01*
X-234003Y-82916D01*
X-234015Y-82933D01*
X-234018Y-82951D01*
X-234019Y-82960D01*
X-234018Y-82984D01*
X-234011Y-83004D01*
X-234004Y-83023D01*
X-230805Y-87282D01*
X-230784Y-87299D01*
X-230767Y-87311D01*
X-230754Y-87317D01*
X-230745Y-87319D01*
X-230721Y-87317D01*
X-230696Y-87307D01*
X-230682Y-87304D01*
X-230026Y-86812D01*
X-230004Y-86787D01*
X-229987Y-86766D01*
X-229979Y-86743D01*
X-229980Y-86720D01*
X-229989Y-86686D01*
X-233193Y-82422D01*
X-233218Y-82399D01*
X-233239Y-82382D01*
D02*
G37*
G36*
X-234752Y-83470D02*
X-234772Y-83477D01*
X-234791Y-83483D01*
X-238122Y-85985D01*
X-238139Y-86006D01*
X-238151Y-86023D01*
X-238153Y-86042D01*
X-238155Y-86051D01*
X-238153Y-86075D01*
X-238147Y-86094D01*
X-238140Y-86114D01*
X-234941Y-90373D01*
X-234920Y-90390D01*
X-234902Y-90401D01*
X-234889Y-90408D01*
X-234880Y-90409D01*
X-234857Y-90408D01*
X-234832Y-90397D01*
X-234817Y-90395D01*
X-234162Y-89902D01*
X-234139Y-89877D01*
X-234122Y-89856D01*
X-234114Y-89834D01*
X-234116Y-89810D01*
X-234125Y-89776D01*
X-234129Y-89771D01*
X-234133Y-89766D01*
X-236789Y-86231D01*
X-234942Y-84844D01*
X-234967Y-87323D01*
X-234961Y-87352D01*
X-234951Y-87377D01*
X-234934Y-87389D01*
X-234930Y-87394D01*
X-234902Y-87398D01*
X-234883Y-87392D01*
X-234863Y-87385D01*
X-234055Y-86778D01*
X-234012Y-86738D01*
X-233983Y-86699D01*
X-233958Y-86656D01*
X-233943Y-86611D01*
X-233933Y-86580D01*
X-233929Y-86553D01*
X-233927Y-86534D01*
X-233926Y-86525D01*
X-233905Y-84630D01*
X-233913Y-84554D01*
X-233936Y-84490D01*
X-233947Y-84465D01*
X-234664Y-83511D01*
X-234685Y-83494D01*
X-234702Y-83482D01*
X-234715Y-83475D01*
X-234724Y-83474D01*
X-234752Y-83470D01*
D02*
G37*
G36*
X-244835Y-91051D02*
X-244834Y-91052D01*
D01*
X-244835Y-91051D01*
D02*
G37*
G36*
X-240478Y-87829D02*
X-240525Y-87832D01*
X-240559Y-87841D01*
X-241225Y-88341D01*
X-241242Y-88362D01*
X-241254Y-88380D01*
X-241261Y-88393D01*
X-241262Y-88402D01*
X-241261Y-88425D01*
X-241254Y-88445D01*
X-241248Y-88465D01*
X-238048Y-92724D01*
X-238027Y-92741D01*
X-238010Y-92752D01*
X-237997Y-92759D01*
X-237988Y-92760D01*
X-237964Y-92759D01*
X-237939Y-92748D01*
X-237925Y-92746D01*
X-236047Y-91335D01*
X-236009Y-91298D01*
X-235975Y-91256D01*
X-235955Y-91217D01*
X-235940Y-91172D01*
X-235930Y-91141D01*
X-235927Y-91113D01*
X-235924Y-91095D01*
X-235923Y-91086D01*
X-235908Y-90123D01*
X-235913Y-90094D01*
X-235925Y-90078D01*
X-235942Y-90066D01*
X-235946Y-90061D01*
X-235977Y-90052D01*
X-235997Y-90059D01*
X-236017Y-90065D01*
X-237784Y-91393D01*
X-240436Y-87863D01*
X-240461Y-87841D01*
X-240478Y-87829D01*
D02*
G37*
G36*
X-241974Y-88929D02*
X-241998Y-88930D01*
X-242032Y-88939D01*
X-244764Y-90992D01*
X-244781Y-91013D01*
X-244793Y-91030D01*
X-244796Y-91048D01*
X-244797Y-91058D01*
X-244796Y-91081D01*
X-244789Y-91101D01*
X-244782Y-91121D01*
X-241583Y-95379D01*
X-241562Y-95396D01*
X-241545Y-95408D01*
X-241532Y-95415D01*
X-241523Y-95416D01*
X-241499Y-95415D01*
X-241474Y-95404D01*
X-241460Y-95402D01*
X-239168Y-93680D01*
X-239124Y-93639D01*
X-239096Y-93601D01*
X-239071Y-93558D01*
X-239055Y-93513D01*
X-239041Y-93477D01*
X-239037Y-93450D01*
X-239034Y-93432D01*
X-239033Y-93422D01*
X-239028Y-92467D01*
X-239034Y-92438D01*
X-239040Y-92419D01*
X-239057Y-92407D01*
X-239061Y-92402D01*
X-239093Y-92392D01*
X-239112Y-92399D01*
X-239132Y-92406D01*
X-241319Y-94049D01*
X-242072Y-93047D01*
X-240498Y-91865D01*
X-240476Y-91840D01*
X-240464Y-91823D01*
X-240467Y-91776D01*
X-240476Y-91742D01*
X-240480Y-91736D01*
X-240484Y-91731D01*
X-240965Y-91091D01*
X-240990Y-91069D01*
X-241011Y-91052D01*
X-241029Y-91049D01*
X-241053Y-91051D01*
X-241087Y-91060D01*
X-242671Y-92250D01*
X-243431Y-91238D01*
X-241443Y-89744D01*
X-241421Y-89719D01*
X-241409Y-89702D01*
X-241408Y-89660D01*
X-241417Y-89626D01*
X-241421Y-89621D01*
X-241425Y-89616D01*
X-241910Y-88971D01*
X-241935Y-88948D01*
X-241956Y-88931D01*
X-241974Y-88929D01*
D02*
G37*
G36*
X-245339Y-91440D02*
X-245358Y-91446D01*
X-245378Y-91453D01*
X-246180Y-92056D01*
X-246224Y-92097D01*
X-246252Y-92135D01*
X-246277Y-92178D01*
X-246293Y-92223D01*
X-246304Y-92263D01*
X-246307Y-92291D01*
X-246310Y-92309D01*
X-246311Y-92318D01*
X-246345Y-95560D01*
X-246344Y-95584D01*
X-246332Y-95600D01*
X-246309Y-95631D01*
X-246288Y-95648D01*
X-246274Y-95655D01*
X-243155Y-96519D01*
X-243100Y-96527D01*
X-243044Y-96526D01*
X-242995Y-96514D01*
X-242952Y-96506D01*
X-242916Y-96488D01*
X-242892Y-96477D01*
X-242073Y-95863D01*
X-242051Y-95838D01*
X-242043Y-95815D01*
X-242042Y-95806D01*
X-242041Y-95797D01*
X-242051Y-95772D01*
X-242068Y-95760D01*
X-242085Y-95748D01*
X-242094Y-95747D01*
X-245302Y-94842D01*
X-245264Y-91507D01*
X-245274Y-91482D01*
X-245290Y-91461D01*
X-245303Y-91454D01*
X-245307Y-91449D01*
X-245339Y-91440D01*
D02*
G37*
G36*
X-248207Y-93628D02*
X-248231Y-93629D01*
X-248255Y-93631D01*
X-248289Y-93640D01*
X-248955Y-94140D01*
X-248972Y-94161D01*
X-248984Y-94178D01*
X-248986Y-94197D01*
X-248988Y-94206D01*
X-248986Y-94230D01*
X-248980Y-94249D01*
X-248973Y-94269D01*
X-245774Y-98528D01*
X-245753Y-98545D01*
X-245736Y-98557D01*
X-245722Y-98563D01*
X-245713Y-98564D01*
X-245690Y-98563D01*
X-245665Y-98553D01*
X-245650Y-98550D01*
X-244995Y-98057D01*
X-244972Y-98032D01*
X-244955Y-98011D01*
X-244948Y-97989D01*
X-244949Y-97965D01*
X-244958Y-97931D01*
X-244962Y-97926D01*
X-244966Y-97921D01*
X-248162Y-93667D01*
X-248186Y-93645D01*
X-248207Y-93628D01*
D02*
G37*
%LPD*%
G36*
X-184625Y-47607D02*
X-184555Y-47613D01*
X-184519Y-47618D01*
X-184500Y-47620D01*
X-184377Y-47643D01*
X-184259Y-47669D01*
X-184147Y-47708D01*
X-184054Y-47745D01*
X-183975Y-47784D01*
X-183914Y-47811D01*
X-183874Y-47831D01*
X-183865Y-47832D01*
X-183861Y-47838D01*
X-183754Y-47905D01*
X-183656Y-47979D01*
X-183564Y-48058D01*
X-183495Y-48129D01*
X-183429Y-48194D01*
X-183381Y-48248D01*
X-183365Y-48269D01*
X-183353Y-48285D01*
X-183349Y-48290D01*
X-183345Y-48295D01*
X-183268Y-48409D01*
X-183203Y-48517D01*
X-183153Y-48627D01*
X-183110Y-48717D01*
X-183076Y-48807D01*
X-183061Y-48870D01*
X-183051Y-48895D01*
X-183044Y-48914D01*
X-183045Y-48923D01*
X-183042Y-48929D01*
X-183017Y-49049D01*
X-183006Y-49173D01*
X-182999Y-49291D01*
X-182999Y-49389D01*
X-182998Y-49478D01*
X-183007Y-49543D01*
X-183008Y-49585D01*
X-183011Y-49603D01*
X-183033Y-49726D01*
X-183063Y-49839D01*
X-183102Y-49951D01*
X-183139Y-50044D01*
X-183178Y-50123D01*
X-183206Y-50184D01*
X-183226Y-50224D01*
X-183227Y-50233D01*
X-183232Y-50237D01*
X-183299Y-50345D01*
X-183373Y-50442D01*
X-183452Y-50533D01*
X-183523Y-50603D01*
X-183589Y-50669D01*
X-183642Y-50717D01*
X-184361Y-51257D01*
X-186473Y-48446D01*
X-185801Y-47942D01*
X-185693Y-47868D01*
X-185585Y-47804D01*
X-185475Y-47754D01*
X-185380Y-47716D01*
X-185297Y-47685D01*
X-185228Y-47667D01*
X-185209Y-47660D01*
X-185189Y-47654D01*
X-185180Y-47655D01*
X-185175Y-47651D01*
X-185049Y-47622D01*
X-184925Y-47612D01*
X-184812Y-47609D01*
X-184709Y-47605D01*
X-184625Y-47607D01*
D02*
G37*
G36*
X-193761Y-56121D02*
X-193772Y-57450D01*
X-195037Y-55766D01*
X-193761Y-56121D01*
D02*
G37*
G36*
X-198240Y-57607D02*
X-198156Y-57609D01*
X-198083Y-57620D01*
X-198041Y-57621D01*
X-198023Y-57624D01*
X-197890Y-57647D01*
X-197764Y-57684D01*
X-197647Y-57719D01*
X-197541Y-57762D01*
X-197457Y-57798D01*
X-197391Y-57831D01*
X-197365Y-57844D01*
X-197348Y-57855D01*
X-197339Y-57857D01*
X-197335Y-57862D01*
X-197214Y-57935D01*
X-197109Y-58021D01*
X-197013Y-58104D01*
X-196931Y-58182D01*
X-196861Y-58253D01*
X-196837Y-58284D01*
X-196812Y-58306D01*
X-196797Y-58327D01*
X-196785Y-58343D01*
X-196777Y-58353D01*
X-196773Y-58359D01*
X-196692Y-58478D01*
X-196619Y-58596D01*
X-196560Y-58707D01*
X-196514Y-58812D01*
X-196480Y-58902D01*
X-196458Y-58975D01*
X-196447Y-59000D01*
X-196441Y-59020D01*
X-196442Y-59029D01*
X-196438Y-59034D01*
X-196410Y-59169D01*
X-196387Y-59299D01*
X-196376Y-59422D01*
X-196372Y-59526D01*
X-196372Y-59624D01*
X-196377Y-59694D01*
X-196378Y-59736D01*
X-196381Y-59754D01*
X-196405Y-59887D01*
X-196432Y-60014D01*
X-196467Y-60131D01*
X-196505Y-60233D01*
X-196541Y-60317D01*
X-196564Y-60384D01*
X-196581Y-60405D01*
X-196589Y-60428D01*
X-196590Y-60437D01*
X-196596Y-60441D01*
X-196664Y-60558D01*
X-196740Y-60664D01*
X-196813Y-60752D01*
X-196890Y-60834D01*
X-196956Y-60900D01*
X-197004Y-60945D01*
X-197021Y-60966D01*
X-197053Y-60989D01*
X-197167Y-61067D01*
X-197280Y-61135D01*
X-197395Y-61189D01*
X-197495Y-61231D01*
X-197579Y-61261D01*
X-197647Y-61280D01*
X-197672Y-61290D01*
X-197692Y-61297D01*
X-197701Y-61296D01*
X-197706Y-61300D01*
X-197836Y-61323D01*
X-197965Y-61338D01*
X-198087Y-61339D01*
X-198194Y-61338D01*
X-198283Y-61339D01*
X-198357Y-61329D01*
X-198399Y-61328D01*
X-198417Y-61325D01*
X-198548Y-61292D01*
X-198676Y-61265D01*
X-198791Y-61221D01*
X-198898Y-61177D01*
X-198981Y-61142D01*
X-199047Y-61109D01*
X-199073Y-61096D01*
X-199091Y-61084D01*
X-199100Y-61083D01*
X-199104Y-61078D01*
X-199219Y-61000D01*
X-199329Y-60919D01*
X-199425Y-60835D01*
X-199503Y-60754D01*
X-199572Y-60683D01*
X-199596Y-60652D01*
X-199621Y-60629D01*
X-199637Y-60609D01*
X-199648Y-60593D01*
X-199656Y-60582D01*
X-199660Y-60577D01*
X-199742Y-60458D01*
X-199814Y-60340D01*
X-199868Y-60224D01*
X-199914Y-60119D01*
X-199953Y-60034D01*
X-199976Y-59961D01*
X-199986Y-59936D01*
X-199993Y-59916D01*
X-199992Y-59907D01*
X-199995Y-59902D01*
X-200023Y-59767D01*
X-200042Y-59633D01*
X-200057Y-59513D01*
X-200056Y-59406D01*
X-200061Y-59311D01*
X-200056Y-59242D01*
X-200055Y-59200D01*
X-200052Y-59181D01*
X-200034Y-59053D01*
X-200007Y-58925D01*
X-199971Y-58809D01*
X-199939Y-58710D01*
X-199903Y-58626D01*
X-199871Y-58561D01*
X-199851Y-58521D01*
X-199850Y-58512D01*
X-199844Y-58508D01*
X-199776Y-58391D01*
X-199700Y-58285D01*
X-199626Y-58188D01*
X-199548Y-58105D01*
X-199483Y-58039D01*
X-199434Y-57995D01*
X-199412Y-57970D01*
X-199386Y-57950D01*
X-199272Y-57873D01*
X-199160Y-57814D01*
X-199054Y-57758D01*
X-198949Y-57712D01*
X-198861Y-57687D01*
X-198797Y-57664D01*
X-198768Y-57658D01*
X-198748Y-57652D01*
X-198739Y-57653D01*
X-198734Y-57649D01*
X-198604Y-57626D01*
X-198475Y-57611D01*
X-198348Y-57606D01*
X-198240Y-57607D01*
D02*
G37*
G36*
X-203108Y-63077D02*
X-203106Y-63100D01*
X-203094Y-63116D01*
X-203071Y-63147D01*
X-203050Y-63164D01*
X-203037Y-63171D01*
X-200981Y-63744D01*
X-202822Y-65127D01*
X-204934Y-62316D01*
X-203094Y-60933D01*
X-203108Y-63077D01*
D02*
G37*
G36*
X-216177Y-72961D02*
X-216188Y-74291D01*
X-217453Y-72607D01*
X-216177Y-72961D01*
D02*
G37*
%LPC*%
G36*
X-221069Y-94521D02*
X-220425Y-95354D01*
X-220429Y-94690D01*
X-221069Y-94521D01*
D02*
G37*
G36*
X-209996Y-76178D02*
X-209352Y-77011D01*
X-209356Y-76346D01*
X-209996Y-76178D01*
D02*
G37*
G36*
X-216129Y-80912D02*
X-215485Y-81745D01*
X-215489Y-81081D01*
X-216129Y-80912D01*
D02*
G37*
G36*
X-235068Y-95084D02*
X-235979Y-95787D01*
X-234905Y-97179D01*
X-233994Y-96476D01*
X-235025Y-96202D01*
X-235031Y-96199D01*
X-235042Y-96191D01*
X-235054Y-96175D01*
X-235060Y-96168D01*
X-235061Y-96156D01*
X-235068Y-95084D01*
D02*
G37*
G36*
X-222947Y-91014D02*
X-222998Y-91017D01*
X-223055Y-91019D01*
X-223116Y-91025D01*
X-223179Y-91040D01*
X-223182Y-91042D01*
X-223186Y-91041D01*
X-223196Y-91045D01*
X-223206Y-91048D01*
X-223240Y-91058D01*
X-223282Y-91074D01*
X-223329Y-91093D01*
X-223383Y-91119D01*
X-223437Y-91152D01*
X-223491Y-91189D01*
X-223823Y-91446D01*
X-222749Y-92838D01*
X-222393Y-92563D01*
X-222367Y-92538D01*
X-222334Y-92505D01*
X-222299Y-92470D01*
X-222261Y-92423D01*
X-222224Y-92374D01*
X-222191Y-92320D01*
X-222189Y-92318D01*
X-222188Y-92313D01*
X-222178Y-92294D01*
X-222165Y-92263D01*
X-222146Y-92223D01*
X-222128Y-92176D01*
X-222109Y-92120D01*
X-222095Y-92063D01*
X-222085Y-92002D01*
X-222084Y-91992D01*
X-222083Y-91971D01*
X-222079Y-91939D01*
X-222080Y-91895D01*
X-222081Y-91846D01*
X-222085Y-91787D01*
X-222091Y-91725D01*
X-222105Y-91665D01*
X-222107Y-91662D01*
X-222106Y-91658D01*
X-222109Y-91648D01*
X-222115Y-91635D01*
X-222122Y-91604D01*
X-222140Y-91560D01*
X-222162Y-91515D01*
X-222188Y-91460D01*
X-222221Y-91407D01*
X-222260Y-91350D01*
X-222262Y-91347D01*
X-222264Y-91345D01*
X-222270Y-91337D01*
X-222278Y-91327D01*
X-222303Y-91300D01*
X-222336Y-91268D01*
X-222372Y-91233D01*
X-222418Y-91194D01*
X-222467Y-91157D01*
X-222521Y-91125D01*
X-222523Y-91122D01*
X-222528Y-91122D01*
X-222548Y-91112D01*
X-222579Y-91099D01*
X-222618Y-91079D01*
X-222665Y-91062D01*
X-222721Y-91043D01*
X-222780Y-91031D01*
X-222842Y-91020D01*
X-222851Y-91019D01*
X-222870Y-91017D01*
X-222905Y-91015D01*
X-222947Y-91014D01*
D02*
G37*
G36*
X-225199Y-92670D02*
X-225253Y-92670D01*
X-225316Y-92673D01*
X-225380Y-92681D01*
X-225445Y-92694D01*
X-225448Y-92696D01*
X-225452Y-92695D01*
X-225462Y-92699D01*
X-225477Y-92702D01*
X-225509Y-92714D01*
X-225552Y-92727D01*
X-225605Y-92751D01*
X-225657Y-92779D01*
X-225713Y-92809D01*
X-225769Y-92849D01*
X-225782Y-92859D01*
X-225793Y-92871D01*
X-225817Y-92894D01*
X-225850Y-92927D01*
X-225888Y-92969D01*
X-225924Y-93018D01*
X-225962Y-93072D01*
X-225995Y-93131D01*
X-225997Y-93133D01*
X-225998Y-93137D01*
X-226008Y-93157D01*
X-226024Y-93190D01*
X-226041Y-93232D01*
X-226057Y-93282D01*
X-226073Y-93340D01*
X-226086Y-93404D01*
X-226095Y-93469D01*
X-226096Y-93478D01*
X-226096Y-93499D01*
X-226098Y-93534D01*
X-226095Y-93581D01*
X-226095Y-93635D01*
X-226086Y-93694D01*
X-226076Y-93761D01*
X-226061Y-93828D01*
X-226059Y-93831D01*
X-226060Y-93836D01*
X-226057Y-93845D01*
X-226051Y-93858D01*
X-226039Y-93894D01*
X-226019Y-93937D01*
X-225995Y-93989D01*
X-225968Y-94046D01*
X-225931Y-94105D01*
X-225889Y-94164D01*
X-225887Y-94166D01*
X-225883Y-94172D01*
X-225877Y-94179D01*
X-225869Y-94190D01*
X-225857Y-94201D01*
X-225845Y-94216D01*
X-225810Y-94251D01*
X-225770Y-94291D01*
X-225722Y-94333D01*
X-225666Y-94373D01*
X-225608Y-94411D01*
X-225606Y-94413D01*
X-225601Y-94414D01*
X-225593Y-94419D01*
X-225579Y-94426D01*
X-225546Y-94442D01*
X-225504Y-94459D01*
X-225451Y-94480D01*
X-225393Y-94501D01*
X-225329Y-94514D01*
X-225263Y-94530D01*
X-225254Y-94531D01*
X-225233Y-94531D01*
X-225196Y-94536D01*
X-225151Y-94535D01*
X-225098Y-94535D01*
X-225037Y-94533D01*
X-224972Y-94525D01*
X-224908Y-94512D01*
X-224905Y-94510D01*
X-224901Y-94511D01*
X-224891Y-94507D01*
X-224878Y-94502D01*
X-224844Y-94492D01*
X-224802Y-94477D01*
X-224753Y-94455D01*
X-224696Y-94427D01*
X-224640Y-94393D01*
X-224583Y-94353D01*
X-224568Y-94341D01*
X-224559Y-94330D01*
X-224535Y-94308D01*
X-224503Y-94274D01*
X-224465Y-94233D01*
X-224429Y-94188D01*
X-224391Y-94134D01*
X-224358Y-94076D01*
X-224356Y-94074D01*
X-224355Y-94069D01*
X-224351Y-94058D01*
X-224343Y-94047D01*
X-224331Y-94014D01*
X-224314Y-93971D01*
X-224296Y-93920D01*
X-224279Y-93861D01*
X-224266Y-93797D01*
X-224255Y-93731D01*
X-224254Y-93722D01*
X-224254Y-93701D01*
X-224252Y-93666D01*
X-224252Y-93617D01*
X-224255Y-93565D01*
X-224261Y-93503D01*
X-224274Y-93439D01*
X-224289Y-93371D01*
X-224290Y-93369D01*
X-224290Y-93364D01*
X-224293Y-93354D01*
X-224299Y-93342D01*
X-224310Y-93305D01*
X-224328Y-93261D01*
X-224352Y-93209D01*
X-224382Y-93154D01*
X-224419Y-93095D01*
X-224460Y-93036D01*
X-224462Y-93033D01*
X-224466Y-93028D01*
X-224472Y-93020D01*
X-224481Y-93010D01*
X-224493Y-92999D01*
X-224505Y-92983D01*
X-224540Y-92948D01*
X-224582Y-92910D01*
X-224631Y-92869D01*
X-224684Y-92827D01*
X-224745Y-92791D01*
X-224747Y-92789D01*
X-224751Y-92788D01*
X-224760Y-92782D01*
X-224773Y-92776D01*
X-224806Y-92760D01*
X-224848Y-92743D01*
X-224902Y-92722D01*
X-224960Y-92705D01*
X-225024Y-92687D01*
X-225090Y-92677D01*
X-225099Y-92675D01*
X-225120Y-92675D01*
X-225157Y-92670D01*
X-225199Y-92670D01*
D02*
G37*
G36*
X-233852Y-99635D02*
X-233209Y-100469D01*
X-233212Y-99804D01*
X-233852Y-99635D01*
D02*
G37*
%LPD*%
D10*
X63646Y-199311D02*
X62907Y-198885D01*
Y-199737D01*
X63646Y-199311D01*
X-211669Y-295622D02*
X-212407Y-295196D01*
Y-296049D01*
X-211669Y-295622D01*
X-216535Y-275965D02*
X-217274Y-275538D01*
Y-276391D01*
X-216535Y-275965D01*
Y-137028D02*
X-217274Y-136601D01*
Y-137454D01*
X-216535Y-137028D01*
X-216988Y-206496D02*
X-217726Y-206070D01*
Y-206922D01*
X-216988Y-206496D01*
X36034Y-335729D02*
X35296Y-335302D01*
Y-336155D01*
X36034Y-335729D01*
X-98248Y-204921D02*
X-98986Y-204495D01*
Y-205347D01*
X-98248Y-204921D01*
X60924Y-74783D02*
X60186Y-74356D01*
Y-75209D01*
X60924Y-74783D01*
D11*
X17598Y-62756D02*
X17992D01*
X10923Y-331039D02*
X10529D01*
X10923D01*
X-6203Y-339701D02*
X6002D01*
X-6203Y-328677D02*
X6002D01*
X62205Y-218504D02*
Y-175197D01*
Y-235827D02*
X88583D01*
X62205D02*
Y-228346D01*
X88583Y-235827D02*
Y-228346D01*
Y-165354D02*
Y-157874D01*
X62205Y-165354D02*
Y-157874D01*
X88583D01*
Y-218504D02*
Y-175197D01*
D12*
X-76342Y-192520D02*
Y-193307D01*
Y-192520D01*
X51441Y-185531D02*
X56854D01*
X40122Y-203150D02*
Y-190551D01*
X51441Y-208169D02*
X56854D01*
Y-201969D01*
Y-191732D02*
Y-185531D01*
X-230215Y-296684D02*
X-226957Y-292361D01*
X-233017Y-308745D02*
X-222956Y-316326D01*
X-212135Y-310308D02*
X-208877Y-305984D01*
X-213829Y-302253D02*
X-208877Y-305984D01*
X-226957Y-292361D02*
X-222004Y-296092D01*
X-2690Y-220739D02*
Y-192393D01*
X-11351D02*
X-2690D01*
X-11351Y-220739D02*
X-2690D01*
X-31036D02*
X-22375D01*
X-31036Y-192393D02*
X-22375D01*
X-31036Y-220739D02*
Y-192393D01*
X11176Y-117968D02*
Y-114228D01*
X22672D01*
Y-117968D02*
Y-114228D01*
X11176Y-117968D02*
X22672D01*
X11019Y-122693D02*
Y-119346D01*
X-28937Y-169765D02*
X-25197D01*
X-28937D02*
Y-158269D01*
X-25197D01*
Y-169765D02*
Y-158269D01*
X-23819Y-169922D02*
X-20473D01*
X27554Y-78050D02*
X37051D01*
X27554Y-71309D02*
X37051D01*
X815Y-94203D02*
Y-84336D01*
X7926Y-94203D02*
Y-84336D01*
X-8674Y-94203D02*
Y-84336D01*
X-1563Y-94203D02*
Y-84336D01*
X27184Y-61128D02*
X37051D01*
X27184Y-68239D02*
X37051D01*
X-160288Y-93538D02*
Y-77372D01*
X-150027Y-93538D02*
Y-77372D01*
X-79509Y-186223D02*
Y-176545D01*
X-86431Y-186223D02*
Y-176545D01*
X-65252Y-186041D02*
Y-176545D01*
X-71992Y-186041D02*
Y-176545D01*
X-64788Y-186041D02*
Y-176545D01*
X-58047Y-186041D02*
Y-176545D01*
X-72417Y-186412D02*
Y-176545D01*
X-79158Y-186412D02*
Y-176545D01*
X-75642Y-136087D02*
X-65775D01*
X-75642Y-129346D02*
X-65775D01*
X-184055Y-68465D02*
X-169488D01*
Y-146181D02*
Y-68465D01*
X-202953Y-146181D02*
X-169488D01*
X-202953D02*
Y-76142D01*
X-184055Y-247520D02*
X-169488D01*
Y-325236D02*
Y-247520D01*
X-202953Y-325236D02*
X-169488D01*
X-202953D02*
Y-255197D01*
X-223425Y-253819D02*
Y-247618D01*
Y-285020D02*
Y-278819D01*
X-228839Y-285020D02*
X-223425D01*
X-240158Y-280000D02*
Y-252638D01*
X-228839Y-247618D02*
X-223425D01*
X-228839Y-108681D02*
X-223425D01*
X-240158Y-141063D02*
Y-113701D01*
X-228839Y-146083D02*
X-223425D01*
Y-139882D01*
Y-114882D02*
Y-108681D01*
X-229291Y-178150D02*
X-223878D01*
X-240610Y-210531D02*
Y-183169D01*
X-229291Y-215551D02*
X-223878D01*
Y-209350D01*
Y-184350D02*
Y-178150D01*
X-202953Y-234705D02*
Y-164665D01*
Y-234705D02*
X-169488D01*
Y-156988D01*
X-184055D02*
X-169488D01*
X-29553Y-246376D02*
Y-236879D01*
X-22812Y-246376D02*
Y-236879D01*
X-32087Y-249803D02*
X-29331D01*
Y-261299D02*
Y-249803D01*
X-32087Y-261299D02*
X-29331D01*
X-32087D02*
Y-249803D01*
X-37402Y-249449D02*
X-33465D01*
X-30439Y-246341D02*
Y-236663D01*
X-37376Y-246341D02*
Y-236663D01*
X-44173Y-244646D02*
X-40630D01*
X-154168Y-175261D02*
X-139601D01*
Y-213450D02*
Y-175261D01*
X-154168Y-213450D02*
X-139601D01*
X-154168D02*
Y-175261D01*
X-161353Y-175458D02*
X-155546D01*
X40168Y-330512D02*
X48928D01*
X22156D02*
X30916D01*
X48928D02*
Y-307678D01*
X22156Y-330512D02*
Y-307678D01*
X26093Y-303741D02*
X30424D01*
X40660D02*
X44991D01*
X48928Y-307678D01*
X22156D02*
X26093Y-303741D01*
X-87060Y-158162D02*
X-77193D01*
X-87060Y-151421D02*
X-77193D01*
X-126093Y-248646D02*
X-116226D01*
X-126093Y-241905D02*
X-116226D01*
X-126262Y-240323D02*
X-116395D01*
X-126262Y-233582D02*
X-116395D01*
X-83162Y-241197D02*
X-73295D01*
X-83162Y-247937D02*
X-73295D01*
X-83217Y-232952D02*
X-73350D01*
X-83217Y-239693D02*
X-73350D01*
X-235981Y-168091D02*
X-226115D01*
X-235981Y-160980D02*
X-226115D01*
X-235981Y-234983D02*
X-226115D01*
X-235981Y-227872D02*
X-226115D01*
X-89291Y-197736D02*
Y-194390D01*
X-96575Y-192717D02*
X-94213D01*
X-101496Y-197736D02*
Y-194390D01*
X-110722Y-211092D02*
Y-201414D01*
X-103761Y-211092D02*
Y-201414D01*
X-120424Y-210888D02*
Y-201021D01*
X-127535Y-210888D02*
Y-201021D01*
X-103761Y-188936D02*
Y-179258D01*
X-110722Y-188936D02*
Y-179258D01*
X-120794Y-188542D02*
Y-179046D01*
X-127535Y-188542D02*
Y-179046D01*
X-31090Y-313949D02*
Y-297783D01*
X-41351Y-313949D02*
Y-297783D01*
X-51523Y-313949D02*
Y-297783D01*
X-61784Y-313949D02*
Y-297783D01*
X-72783Y-313949D02*
Y-297783D01*
X-83044Y-313949D02*
Y-297783D01*
X-118359Y-313949D02*
Y-297783D01*
X-108098Y-313949D02*
Y-297783D01*
X-139737Y-313949D02*
Y-297783D01*
X-129476Y-313949D02*
Y-297783D01*
X-150421Y-313949D02*
Y-297783D01*
X-160681Y-313949D02*
Y-297783D01*
X-128913Y-138004D02*
Y-128137D01*
X-135654Y-138004D02*
Y-128137D01*
X-149030Y-150468D02*
X-139163D01*
X-149030Y-157209D02*
X-139163D01*
X-13713Y-233319D02*
X-4216D01*
X-13713Y-226578D02*
X-4216D01*
X-13953Y-226747D02*
X-4086D01*
X-13953Y-220006D02*
X-4086D01*
X3856Y-252859D02*
Y-242992D01*
X-3255Y-252859D02*
Y-242992D01*
X-13551Y-252804D02*
Y-242937D01*
X-20292Y-252804D02*
Y-242937D01*
X-59208Y-230595D02*
Y-220728D01*
X-66319Y-230595D02*
Y-220728D01*
X-48322Y-230548D02*
Y-220681D01*
X-55433Y-230548D02*
Y-220681D01*
X-4809Y-252711D02*
Y-243033D01*
X-11771Y-252711D02*
Y-243033D01*
X-27527Y-189744D02*
Y-180247D01*
X-34268Y-189744D02*
Y-180247D01*
X-18669Y-189744D02*
Y-180247D01*
X-25409Y-189744D02*
Y-180247D01*
X-9653Y-189744D02*
Y-180247D01*
X-16394Y-189744D02*
Y-180247D01*
X-834Y-189744D02*
Y-180247D01*
X-7575Y-189744D02*
Y-180247D01*
X-38500Y-236493D02*
Y-226815D01*
X-45438Y-236493D02*
Y-226815D01*
X-117492Y-93538D02*
Y-77372D01*
X-107232Y-93538D02*
Y-77372D01*
X-138556Y-93538D02*
Y-77372D01*
X-128295Y-93538D02*
Y-77372D01*
X55118Y-303346D02*
Y-242323D01*
X108858Y-303346D02*
Y-242323D01*
X55118D02*
X108858D01*
X55118Y-303346D02*
X108858D01*
X54449Y-151102D02*
Y-90079D01*
X108189Y-151102D02*
Y-90079D01*
X54449D02*
X108189D01*
X54449Y-151102D02*
X108189D01*
X-10418Y-76677D02*
Y-67181D01*
X-3677Y-76677D02*
Y-67181D01*
X-12071Y-56885D02*
Y-47388D01*
X-5331Y-56885D02*
Y-47388D01*
X-72377Y-93538D02*
Y-77372D01*
X-82637Y-93538D02*
Y-77372D01*
X-51169Y-93538D02*
Y-77372D01*
X-61430Y-93538D02*
Y-77372D01*
X-29948Y-93538D02*
Y-77372D01*
X-40209Y-93538D02*
Y-77372D01*
X9121Y-56885D02*
Y-47018D01*
X2010Y-56885D02*
Y-47018D01*
X23201Y-56885D02*
Y-47018D01*
X16090Y-56885D02*
Y-47018D01*
X11659Y-82300D02*
X21412D01*
X11659Y-75378D02*
X21412D01*
X108268Y-84428D02*
Y-45452D01*
X62992Y-84428D02*
X108268D01*
X62992D02*
Y-84416D01*
Y-84428D02*
Y-45452D01*
X108268D01*
X-253801Y-152566D02*
X-252317Y-151081D01*
X-253059Y-151823D01*
X-250833Y-154050D01*
X-249348Y-152566D02*
X-251575Y-150339D01*
X-250462Y-149226D01*
X-249720D01*
X-248977Y-149968D01*
X-248977Y-150710D01*
X-250091Y-151823D01*
X-253801Y-215164D02*
X-252317Y-213680D01*
X-253059Y-214422D01*
X-250833Y-216648D01*
X-249348Y-215164D02*
X-251575Y-212938D01*
X-250462Y-211824D01*
X-249720D01*
X-248977Y-212566D01*
X-248977Y-213309D01*
X-250091Y-214422D01*
X-253801Y-277762D02*
X-252317Y-276278D01*
X-253059Y-277020D01*
X-250833Y-279247D01*
X-249348Y-277762D02*
X-251575Y-275536D01*
X-250462Y-274423D01*
X-249720D01*
X-248977Y-275165D01*
X-248977Y-275907D01*
X-250091Y-277020D01*
X-216011Y-133466D02*
X-218110D01*
Y-135040D01*
X-217061Y-134515D01*
X-216536D01*
X-216011Y-135040D01*
Y-136089D01*
X-216536Y-136614D01*
X-217585D01*
X-218110Y-136089D01*
X-214962Y-133466D02*
Y-135565D01*
X-213912Y-136614D01*
X-212863Y-135565D01*
Y-133466D01*
X-218110Y-128872D02*
X-217585Y-128348D01*
X-216536D01*
X-216011Y-128872D01*
Y-129397D01*
X-216536Y-129922D01*
X-217061D01*
X-216536D01*
X-216011Y-130447D01*
Y-130971D01*
X-216536Y-131496D01*
X-217585D01*
X-218110Y-130971D01*
X-214962Y-128348D02*
Y-130447D01*
X-213912Y-131496D01*
X-212863Y-130447D01*
Y-128348D01*
X-211813Y-128872D02*
X-211288Y-128348D01*
X-210239D01*
X-209714Y-128872D01*
Y-129397D01*
X-210239Y-129922D01*
X-210764D01*
X-210239D01*
X-209714Y-130447D01*
Y-130971D01*
X-210239Y-131496D01*
X-211288D01*
X-211813Y-130971D01*
X-216011Y-123754D02*
X-216536Y-123229D01*
X-217585D01*
X-218110Y-123754D01*
Y-124279D01*
X-217585Y-124804D01*
X-216536D01*
X-216011Y-125328D01*
Y-125853D01*
X-216536Y-126378D01*
X-217585D01*
X-218110Y-125853D01*
X-214962Y-123229D02*
Y-126378D01*
X-213387D01*
X-212863Y-125853D01*
Y-123754D01*
X-213387Y-123229D01*
X-214962D01*
X-211813Y-126378D02*
Y-124279D01*
X-210764Y-123229D01*
X-209714Y-124279D01*
Y-126378D01*
Y-124804D01*
X-211813D01*
X-216011Y-119030D02*
X-216536Y-118505D01*
X-217585D01*
X-218110Y-119030D01*
Y-119554D01*
X-217585Y-120079D01*
X-216536D01*
X-216011Y-120604D01*
Y-121129D01*
X-216536Y-121653D01*
X-217585D01*
X-218110Y-121129D01*
X-212863Y-119030D02*
X-213387Y-118505D01*
X-214437D01*
X-214962Y-119030D01*
Y-121129D01*
X-214437Y-121653D01*
X-213387D01*
X-212863Y-121129D01*
X-211813Y-118505D02*
Y-121653D01*
X-209714D01*
X-215814Y-114305D02*
X-216339Y-113780D01*
X-217389D01*
X-217913Y-114305D01*
Y-116404D01*
X-217389Y-116929D01*
X-216339D01*
X-215814Y-116404D01*
Y-115355D01*
X-216864D01*
X-214765Y-116929D02*
Y-113780D01*
X-212666Y-116929D01*
Y-113780D01*
X-211616D02*
Y-116929D01*
X-210042D01*
X-209517Y-116404D01*
Y-114305D01*
X-210042Y-113780D01*
X-211616D01*
X95925Y-270340D02*
Y-276244D01*
Y-270340D02*
X99580D01*
X95925Y-273151D02*
X98174D01*
X93256Y-118096D02*
Y-124000D01*
Y-118096D02*
X95505Y-124000D01*
X97754Y-118096D02*
X95505Y-124000D01*
X97754Y-118096D02*
Y-124000D01*
X37795Y-193702D02*
Y-191603D01*
X36220D01*
Y-192652D01*
Y-191603D01*
X34646D01*
Y-194751D02*
X36745D01*
X37795Y-195801D01*
X36745Y-196850D01*
X34646D01*
X36220D01*
Y-194751D01*
X34646Y-197900D02*
X37795D01*
X34646Y-199999D01*
X37795D01*
X34646Y-201048D02*
Y-202098D01*
Y-201573D01*
X37795D01*
X37270Y-201048D01*
X-214492Y-318128D02*
X-215755Y-319804D01*
X-214498Y-320752D01*
X-213866Y-319914D01*
X-214498Y-320752D01*
X-213240Y-321699D01*
X-211345Y-319185D02*
X-213022Y-317921D01*
X-213228Y-316452D01*
X-211758Y-316245D01*
X-210082Y-317508D01*
X-211339Y-316561D01*
X-212603Y-318237D01*
X-209451Y-316670D02*
X-211965Y-314775D01*
X-208187Y-314994D01*
X-210702Y-313099D01*
X-206292Y-312479D02*
X-207556Y-314156D01*
X-207969Y-311216D01*
X-208388Y-310900D01*
X-209123Y-311003D01*
X-209754Y-311842D01*
X-209651Y-312576D01*
X-255657Y-145162D02*
X-253430Y-147389D01*
X-251946Y-145905D01*
X-253430Y-142936D02*
X-251204Y-145162D01*
X-250091Y-144049D01*
X-250091Y-143307D01*
X-251575Y-141823D01*
X-252317D01*
X-253430Y-142936D01*
X-250091Y-139596D02*
X-250833Y-140339D01*
X-250833Y-141081D01*
X-249348Y-142565D01*
X-248606D01*
X-247864Y-141823D01*
X-247864Y-141081D01*
X-249348Y-139596D01*
X-250091D01*
X-252272Y-266974D02*
X-253756Y-268459D01*
X-252643Y-269572D01*
X-252272Y-268459D01*
X-251901Y-268088D01*
X-251158D01*
X-250416Y-268830D01*
X-250416Y-269572D01*
X-251158Y-270314D01*
X-251901D01*
X-251530Y-266232D02*
X-250045Y-267717D01*
X-248561D01*
Y-266232D01*
X-250045Y-264748D01*
X-255286Y-208132D02*
X-255286Y-207390D01*
X-254543Y-206648D01*
X-253801D01*
X-253430Y-207019D01*
Y-207761D01*
X-253801Y-208132D01*
X-253430Y-207761D01*
X-252688Y-207761D01*
X-252317Y-208132D01*
X-252317Y-208874D01*
X-253059Y-209616D01*
X-253801D01*
X-253430Y-205534D02*
X-251946Y-207019D01*
X-250462D01*
Y-205534D01*
X-251946Y-204050D01*
X-250833Y-203679D02*
X-250833Y-202937D01*
X-250091Y-202195D01*
X-249348D01*
X-248977Y-202566D01*
Y-203308D01*
X-249348Y-203679D01*
X-248977Y-203308D01*
X-248235Y-203308D01*
X-247864Y-203679D01*
X-247864Y-204421D01*
X-248606Y-205163D01*
X-249348D01*
D13*
X-34741Y-143489D02*
X-35381Y-142849D01*
X-36020Y-143489D01*
X-35381Y-144128D01*
X-34741Y-143489D01*
D14*
X-256299Y-126046D02*
X-247244Y-116991D01*
X-256299Y-143887D02*
X-247244Y-134832D01*
X-256299Y-161728D02*
X-247244Y-152673D01*
X-256299Y-179569D02*
X-247244Y-170514D01*
X-256299Y-197410D02*
X-247244Y-188355D01*
X-256299Y-215251D02*
X-247244Y-206196D01*
X-256299Y-233092D02*
X-247244Y-224037D01*
X-256299Y-250933D02*
X-247244Y-241877D01*
X-256299Y-268773D02*
X-247244Y-259718D01*
X-256299Y-286614D02*
X-247244Y-277559D01*
X-216535Y-137402D02*
X-210236D01*
X-216929Y-117717D02*
X-210236D01*
X-220472Y-137402D02*
X-216535D01*
X-217323Y-117717D02*
X-216929D01*
X-220079Y-132283D02*
X-210236D01*
X-220079Y-127559D02*
X-210236D01*
X-220079Y-122441D02*
X-210236D01*
X-220079Y-117717D02*
X-217323D01*
X-215354Y-227028D02*
X-184055D01*
X-215354Y-211437D02*
X-184055D01*
X-215354Y-195846D02*
X-184055D01*
X-215695Y-180256D02*
X-184055D01*
X-215748Y-166142D02*
X-183858D01*
X-256299Y-117126D02*
X-247244Y-108071D01*
X-256299Y-134967D02*
X-247244Y-125912D01*
X-256299Y-152808D02*
X-247244Y-143753D01*
X-256299Y-170649D02*
X-247244Y-161593D01*
X-256299Y-188489D02*
X-247244Y-179434D01*
X-256299Y-206330D02*
X-247244Y-197275D01*
X-256299Y-224171D02*
X-247244Y-215116D01*
X-256299Y-242012D02*
X-247244Y-232957D01*
X-256299Y-259853D02*
X-247244Y-250798D01*
X-256299Y-277694D02*
X-247244Y-268639D01*
X-255906Y-107874D02*
X-247244D01*
X-246850Y-108268D01*
Y-286614D02*
Y-108268D01*
X-255906Y-286614D02*
X-246850D01*
X-20965Y-232815D02*
X-20374Y-233366D01*
X-100000Y-338583D02*
X-92126D01*
X-100000Y-75197D02*
X-95276D01*
X-99606Y-55118D02*
X-95276D01*
X-100000Y-65354D02*
X-95276D01*
X-100000Y-328740D02*
X-92126D01*
X-99606Y-318504D02*
X-92126D01*
X-156298Y-252363D02*
X-155248D01*
X-155773D01*
Y-255511D01*
X-156298D01*
X-155248D01*
X-151575Y-252888D02*
X-152100Y-252363D01*
X-153149D01*
X-153674Y-252888D01*
Y-254987D01*
X-153149Y-255511D01*
X-152100D01*
X-151575Y-254987D01*
X-150525Y-252888D02*
X-150001Y-252363D01*
X-148951D01*
X-148426Y-252888D01*
Y-253412D01*
X-148951Y-253937D01*
X-148426Y-254462D01*
Y-254987D01*
X-148951Y-255511D01*
X-150001D01*
X-150525Y-254987D01*
Y-254462D01*
X-150001Y-253937D01*
X-150525Y-253412D01*
Y-252888D01*
X-150001Y-253937D02*
X-148951D01*
X-110629Y-256693D02*
X-109579D01*
X-110104D01*
Y-259842D01*
X-110629D01*
X-109579D01*
X-105906Y-257218D02*
X-106430Y-256693D01*
X-107480D01*
X-108005Y-257218D01*
Y-259317D01*
X-107480Y-259842D01*
X-106430D01*
X-105906Y-259317D01*
X-104856D02*
X-104332Y-259842D01*
X-103282D01*
X-102757Y-259317D01*
Y-257218D01*
X-103282Y-256693D01*
X-104332D01*
X-104856Y-257218D01*
Y-257743D01*
X-104332Y-258268D01*
X-102757D01*
X96012Y-176591D02*
X96668Y-177246D01*
Y-178558D01*
X96012Y-179214D01*
X93388D01*
X92732Y-178558D01*
Y-177246D01*
X93388Y-176591D01*
X96012D01*
X92732Y-183150D02*
Y-180526D01*
X95356Y-183150D01*
X96012D01*
X96668Y-182494D01*
Y-181182D01*
X96012Y-180526D01*
Y-184462D02*
X96668Y-185118D01*
Y-186430D01*
X96012Y-187086D01*
X95356D01*
X94700Y-186430D01*
X94044Y-187086D01*
X93388D01*
X92732Y-186430D01*
Y-185118D01*
X93388Y-184462D01*
X94044D01*
X94700Y-185118D01*
X95356Y-184462D01*
X96012D01*
X94700Y-185118D02*
Y-186430D01*
X96668Y-188398D02*
Y-191022D01*
X96012D01*
X93388Y-188398D01*
X92732D01*
X96012Y-192333D02*
X96668Y-192990D01*
Y-194301D01*
X96012Y-194957D01*
X93388D01*
X92732Y-194301D01*
Y-192990D01*
X93388Y-192333D01*
X96012D01*
Y-196269D02*
X96668Y-196925D01*
Y-198237D01*
X96012Y-198893D01*
X95356D01*
X94700Y-198237D01*
Y-197581D01*
Y-198237D01*
X94044Y-198893D01*
X93388D01*
X92732Y-198237D01*
Y-196925D01*
X93388Y-196269D01*
X96668Y-202829D02*
Y-200205D01*
X94700D01*
X95356Y-201517D01*
Y-202173D01*
X94700Y-202829D01*
X93388D01*
X92732Y-202173D01*
Y-200861D01*
X93388Y-200205D01*
X92732Y-204141D02*
X93388D01*
Y-204797D01*
X92732D01*
Y-204141D01*
X96668Y-211356D02*
X92732D01*
Y-213980D01*
X96668Y-217916D02*
Y-215292D01*
X94700D01*
Y-216604D01*
Y-215292D01*
X92732D01*
X-215929Y-175248D02*
X-215273Y-174592D01*
X-213961D01*
X-213305Y-175248D01*
Y-175904D01*
X-213961Y-176560D01*
X-214617D01*
X-213961D01*
X-213305Y-177216D01*
Y-177872D01*
X-213961Y-178528D01*
X-215273D01*
X-215929Y-177872D01*
X-211993Y-174592D02*
Y-177216D01*
X-210682Y-178528D01*
X-209370Y-177216D01*
Y-174592D01*
X-208058Y-175248D02*
X-207402Y-174592D01*
X-206090D01*
X-205434Y-175248D01*
Y-175904D01*
X-206090Y-176560D01*
X-206746D01*
X-206090D01*
X-205434Y-177216D01*
Y-177872D01*
X-206090Y-178528D01*
X-207402D01*
X-208058Y-177872D01*
X-14354Y-350575D02*
Y-345655D01*
X-11895D01*
X-11075Y-346475D01*
Y-348115D01*
X-11895Y-348935D01*
X-14354D01*
X-12714D02*
X-11075Y-350575D01*
X-6975D02*
X-8615D01*
X-9435Y-349755D01*
Y-348115D01*
X-8615Y-347295D01*
X-6975D01*
X-6155Y-348115D01*
Y-348935D01*
X-9435D01*
X-4515Y-347295D02*
X-2875Y-350575D01*
X-1235Y-347295D01*
X5324Y-350575D02*
X6964D01*
X6144D01*
Y-345655D01*
X5324Y-346475D01*
X9424Y-350575D02*
Y-349755D01*
X10244D01*
Y-350575D01*
X9424D01*
X13524Y-346475D02*
X14344Y-345655D01*
X15984D01*
X16804Y-346475D01*
Y-349755D01*
X15984Y-350575D01*
X14344D01*
X13524Y-349755D01*
Y-346475D01*
X-212518Y-229578D02*
X-213174Y-228923D01*
X-214486D01*
X-215142Y-229578D01*
Y-232202D01*
X-214486Y-232858D01*
X-213174D01*
X-212518Y-232202D01*
Y-230890D01*
X-213830D01*
X-211206Y-232858D02*
Y-228923D01*
X-208582Y-232858D01*
Y-228923D01*
X-207270D02*
Y-232858D01*
X-205302D01*
X-204646Y-232202D01*
Y-229578D01*
X-205302Y-228923D01*
X-207270D01*
X-212912Y-213830D02*
X-213568Y-213175D01*
X-214879D01*
X-215535Y-213830D01*
Y-214486D01*
X-214879Y-215142D01*
X-213568D01*
X-212912Y-215798D01*
Y-216454D01*
X-213568Y-217110D01*
X-214879D01*
X-215535Y-216454D01*
X-208976Y-213830D02*
X-209632Y-213175D01*
X-210944D01*
X-211600Y-213830D01*
Y-216454D01*
X-210944Y-217110D01*
X-209632D01*
X-208976Y-216454D01*
X-207664Y-213175D02*
Y-217110D01*
X-205040D01*
X-212912Y-199264D02*
X-213568Y-198608D01*
X-214879D01*
X-215535Y-199264D01*
Y-199919D01*
X-214879Y-200575D01*
X-213568D01*
X-212912Y-201231D01*
Y-201887D01*
X-213568Y-202543D01*
X-214879D01*
X-215535Y-201887D01*
X-211600Y-198608D02*
Y-202543D01*
X-209632D01*
X-208976Y-201887D01*
Y-199264D01*
X-209632Y-198608D01*
X-211600D01*
X-207664Y-202543D02*
Y-199919D01*
X-206352Y-198608D01*
X-205040Y-199919D01*
Y-202543D01*
Y-200575D01*
X-207664D01*
X-212912Y-160419D02*
X-215535D01*
Y-162387D01*
X-214224Y-161731D01*
X-213568D01*
X-212912Y-162387D01*
Y-163698D01*
X-213568Y-164354D01*
X-214879D01*
X-215535Y-163698D01*
X-211600Y-160419D02*
Y-163042D01*
X-210288Y-164354D01*
X-208976Y-163042D01*
Y-160419D01*
X-87715Y-337059D02*
X-88371Y-336403D01*
X-89683D01*
X-90339Y-337059D01*
Y-337715D01*
X-89683Y-338371D01*
X-88371D01*
X-87715Y-339027D01*
Y-339683D01*
X-88371Y-340339D01*
X-89683D01*
X-90339Y-339683D01*
Y-327348D02*
Y-329972D01*
X-89027Y-331283D01*
X-87715Y-329972D01*
Y-327348D01*
X-86403Y-329316D02*
X-83779D01*
X-85091Y-328004D02*
Y-330627D01*
X-87715Y-316980D02*
X-88371Y-316324D01*
X-89683D01*
X-90339Y-316980D01*
Y-319604D01*
X-89683Y-320260D01*
X-88371D01*
X-87715Y-319604D01*
Y-318292D01*
X-89027D01*
X-86403Y-320260D02*
Y-316324D01*
X-83779Y-320260D01*
Y-316324D01*
X-82467D02*
Y-320260D01*
X-80499D01*
X-79843Y-319604D01*
Y-316980D01*
X-80499Y-316324D01*
X-82467D01*
X-91258Y-53988D02*
X-91914Y-53332D01*
X-93226D01*
X-93882Y-53988D01*
Y-54644D01*
X-93226Y-55300D01*
X-91914D01*
X-91258Y-55956D01*
Y-56612D01*
X-91914Y-57268D01*
X-93226D01*
X-93882Y-56612D01*
Y-63568D02*
Y-66192D01*
X-92570Y-67504D01*
X-91258Y-66192D01*
Y-63568D01*
X-89946Y-65536D02*
X-87322D01*
X-88634Y-64224D02*
Y-66848D01*
X-91258Y-73673D02*
X-91914Y-73017D01*
X-93226D01*
X-93882Y-73673D01*
Y-76297D01*
X-93226Y-76953D01*
X-91914D01*
X-91258Y-76297D01*
Y-74985D01*
X-92570D01*
X-89946Y-76953D02*
Y-73017D01*
X-87322Y-76953D01*
Y-73017D01*
X-86010D02*
Y-76953D01*
X-84043D01*
X-83387Y-76297D01*
Y-73673D01*
X-84043Y-73017D01*
X-86010D01*
X44438Y-45851D02*
X42339D01*
Y-47426D01*
X43388D01*
X42339D01*
Y-49000D01*
X47586D02*
X45487D01*
X47586Y-46901D01*
Y-46376D01*
X47061Y-45851D01*
X46012D01*
X45487Y-46376D01*
X48636Y-47426D02*
X50735D01*
X53359Y-49000D02*
Y-45851D01*
X51784Y-47426D01*
X53883D01*
X-29789Y-152756D02*
Y-155905D01*
X-28215D01*
X-27690Y-155380D01*
Y-153281D01*
X-28215Y-152756D01*
X-29789D01*
X-24542Y-155905D02*
X-26641D01*
X-24542Y-153806D01*
Y-153281D01*
X-25066Y-152756D01*
X-26116D01*
X-26641Y-153281D01*
X14830Y-103937D02*
Y-107086D01*
X16404D01*
X16929Y-106561D01*
Y-104462D01*
X16404Y-103937D01*
X14830D01*
X17979Y-107086D02*
X19028D01*
X18503D01*
Y-103937D01*
X17979Y-104462D01*
X71451Y-307622D02*
Y-309721D01*
X72500Y-310770D01*
X73550Y-309721D01*
Y-307622D01*
X76698Y-308146D02*
X76174Y-307622D01*
X75124D01*
X74599Y-308146D01*
Y-310245D01*
X75124Y-310770D01*
X76174D01*
X76698Y-310245D01*
X79847Y-308146D02*
X79322Y-307622D01*
X78273D01*
X77748Y-308146D01*
Y-310245D01*
X78273Y-310770D01*
X79322D01*
X79847Y-310245D01*
X80896Y-311295D02*
X82995D01*
X84045Y-307622D02*
X86144D01*
X85095D01*
Y-310770D01*
X87194D02*
Y-307622D01*
X88768D01*
X89293Y-308146D01*
Y-309196D01*
X88768Y-309721D01*
X87194D01*
X34132Y-340729D02*
X33448Y-340441D01*
X32476Y-340837D01*
X32188Y-341521D01*
X32980Y-343465D01*
X33664Y-343753D01*
X34636Y-343357D01*
X34924Y-342673D01*
X34528Y-341701D01*
X33556Y-342097D01*
X36094Y-342763D02*
X34906Y-339847D01*
X38038Y-341971D01*
X36850Y-339055D01*
X37822Y-338659D02*
X39010Y-341575D01*
X40468Y-340981D01*
X40756Y-340297D01*
X39964Y-338353D01*
X39280Y-338065D01*
X37822Y-338659D01*
X42124Y-340873D02*
X44068Y-340081D01*
X43654Y-336283D02*
X45598Y-335491D01*
X44626Y-335887D01*
X45814Y-338803D01*
X47758Y-338011D02*
X46570Y-335095D01*
X48028Y-334502D01*
X48712Y-334789D01*
X49108Y-335761D01*
X48820Y-336445D01*
X47362Y-337039D01*
X-239236Y-287796D02*
X-240285D01*
X-239760D01*
Y-290420D01*
X-240285Y-290944D01*
X-240810D01*
X-241335Y-290420D01*
X-236087Y-290944D02*
X-238186D01*
X-236087Y-288845D01*
Y-288320D01*
X-236612Y-287796D01*
X-237661D01*
X-238186Y-288320D01*
X-235038D02*
X-234513Y-287796D01*
X-233463D01*
X-232939Y-288320D01*
Y-290420D01*
X-233463Y-290944D01*
X-234513D01*
X-235038Y-290420D01*
Y-288320D01*
X-231889Y-289370D02*
X-229790D01*
X-228740Y-288320D02*
X-228216Y-287796D01*
X-227166D01*
X-226641Y-288320D01*
Y-290420D01*
X-227166Y-290944D01*
X-228216D01*
X-228740Y-290420D01*
Y-288320D01*
X-225592Y-290944D02*
Y-290420D01*
X-225067D01*
Y-290944D01*
X-225592D01*
X-222968D02*
X-221919D01*
X-222443D01*
Y-287796D01*
X-222968Y-288320D01*
X-220344Y-290944D02*
Y-288845D01*
X-219295Y-287796D01*
X-218245Y-288845D01*
Y-290944D01*
Y-289370D01*
X-220344D01*
X-238711Y-149213D02*
X-239760D01*
X-239236D01*
Y-151837D01*
X-239760Y-152362D01*
X-240285D01*
X-240810Y-151837D01*
X-237661Y-152362D02*
X-236612D01*
X-237137D01*
Y-149213D01*
X-237661Y-149738D01*
X-235038D02*
X-234513Y-149213D01*
X-233463D01*
X-232939Y-149738D01*
Y-150263D01*
X-233463Y-150787D01*
X-232939Y-151312D01*
Y-151837D01*
X-233463Y-152362D01*
X-234513D01*
X-235038Y-151837D01*
Y-151312D01*
X-234513Y-150787D01*
X-235038Y-150263D01*
Y-149738D01*
X-234513Y-150787D02*
X-233463D01*
X-231889D02*
X-229790D01*
X-228740Y-149738D02*
X-228216Y-149213D01*
X-227166D01*
X-226641Y-149738D01*
Y-151837D01*
X-227166Y-152362D01*
X-228216D01*
X-228740Y-151837D01*
Y-149738D01*
X-225592Y-152362D02*
Y-151837D01*
X-225067D01*
Y-152362D01*
X-225592D01*
X-222968D02*
X-221919D01*
X-222443D01*
Y-149213D01*
X-222968Y-149738D01*
X-220344Y-152362D02*
Y-150263D01*
X-219295Y-149213D01*
X-218245Y-150263D01*
Y-152362D01*
Y-150787D01*
X-220344D01*
X-238711Y-218504D02*
X-239760D01*
X-239236D01*
Y-221128D01*
X-239760Y-221653D01*
X-240285D01*
X-240810Y-221128D01*
X-237661Y-221653D02*
X-236612D01*
X-237137D01*
Y-218504D01*
X-237661Y-219029D01*
X-235038Y-221128D02*
X-234513Y-221653D01*
X-233463D01*
X-232939Y-221128D01*
Y-219029D01*
X-233463Y-218504D01*
X-234513D01*
X-235038Y-219029D01*
Y-219554D01*
X-234513Y-220079D01*
X-232939D01*
X-231889D02*
X-229790D01*
X-228740Y-219029D02*
X-228216Y-218504D01*
X-227166D01*
X-226641Y-219029D01*
Y-221128D01*
X-227166Y-221653D01*
X-228216D01*
X-228740Y-221128D01*
Y-219029D01*
X-225592Y-221653D02*
Y-221128D01*
X-225067D01*
Y-221653D01*
X-225592D01*
X-222968D02*
X-221919D01*
X-222443D01*
Y-218504D01*
X-222968Y-219029D01*
X-220344Y-221653D02*
Y-219554D01*
X-219295Y-218504D01*
X-218245Y-219554D01*
Y-221653D01*
Y-220079D01*
X-220344D01*
X-52624Y-245669D02*
Y-242520D01*
X-51050D01*
X-50525Y-243045D01*
Y-244094D01*
X-51050Y-244619D01*
X-52624D01*
X-51574D02*
X-50525Y-245669D01*
X-49475Y-243045D02*
X-48950Y-242520D01*
X-47901D01*
X-47376Y-243045D01*
Y-243570D01*
X-47901Y-244094D01*
X-48426D01*
X-47901D01*
X-47376Y-244619D01*
Y-245144D01*
X-47901Y-245669D01*
X-48950D01*
X-49475Y-245144D01*
X-52493Y-258267D02*
Y-255119D01*
X-50919D01*
X-50394Y-255643D01*
Y-256693D01*
X-50919Y-257218D01*
X-52493D01*
X-51443D02*
X-50394Y-258267D01*
X-49344D02*
X-48295D01*
X-48819D01*
Y-255119D01*
X-49344Y-255643D01*
X-13775Y-326180D02*
Y-320276D01*
X-10823D01*
X-9839Y-321260D01*
Y-323228D01*
X-10823Y-324212D01*
X-13775D01*
X-4920Y-320276D02*
X-6887D01*
X-7871Y-321260D01*
Y-325196D01*
X-6887Y-326180D01*
X-4920D01*
X-3936Y-325196D01*
Y-321260D01*
X-4920Y-320276D01*
X-1968D02*
Y-326180D01*
X0Y-324212D01*
X1968Y-326180D01*
Y-320276D01*
X7871D02*
X3936D01*
Y-326180D01*
X7871D01*
X3936Y-323228D02*
X5904D01*
X9839Y-326180D02*
Y-320276D01*
X12791D01*
X13775Y-321260D01*
Y-323228D01*
X12791Y-324212D01*
X9839D01*
X11807D02*
X13775Y-326180D01*
X-34251Y-263386D02*
X-33201D01*
X-33726D01*
Y-266535D01*
X-34251D01*
X-33201D01*
X-29528Y-263911D02*
X-30053Y-263386D01*
X-31102D01*
X-31627Y-263911D01*
Y-266010D01*
X-31102Y-266535D01*
X-30053D01*
X-29528Y-266010D01*
X-26379Y-266535D02*
X-28478D01*
X-26379Y-264436D01*
Y-263911D01*
X-26904Y-263386D01*
X-27953D01*
X-28478Y-263911D01*
X-200918Y-330708D02*
Y-327559D01*
X-199344D01*
X-198819Y-328084D01*
Y-329134D01*
X-199344Y-329659D01*
X-200918D01*
X-197769Y-327559D02*
X-196720D01*
X-197245D01*
Y-330708D01*
X-197769D01*
X-196720D01*
X54690Y-316746D02*
X54165Y-316221D01*
X53115D01*
X52591Y-316746D01*
Y-318845D01*
X53115Y-319370D01*
X54165D01*
X54690Y-318845D01*
X55739Y-319370D02*
X56789D01*
X56264D01*
Y-316221D01*
X55739Y-316746D01*
X60462Y-316221D02*
X59413Y-316746D01*
X58363Y-317796D01*
Y-318845D01*
X58888Y-319370D01*
X59937D01*
X60462Y-318845D01*
Y-318320D01*
X59937Y-317796D01*
X58363D01*
X-58792Y-349213D02*
X-60891D01*
Y-350787D01*
X-59842D01*
X-60891D01*
Y-352362D01*
X-57742D02*
Y-349213D01*
X-56168D01*
X-55643Y-349738D01*
Y-350787D01*
X-56168Y-351312D01*
X-57742D01*
X-56693D02*
X-55643Y-352362D01*
X-52495D02*
X-54594D01*
X-52495Y-350263D01*
Y-349738D01*
X-53020Y-349213D01*
X-54069D01*
X-54594Y-349738D01*
X-19684Y-231101D02*
Y-230052D01*
Y-230576D01*
X-16536D01*
Y-231101D01*
Y-230052D01*
X-19160Y-226378D02*
X-19684Y-226903D01*
Y-227953D01*
X-19160Y-228477D01*
X-17061D01*
X-16536Y-227953D01*
Y-226903D01*
X-17061Y-226378D01*
X-19160Y-225329D02*
X-19684Y-224804D01*
Y-223754D01*
X-19160Y-223230D01*
X-18635D01*
X-18110Y-223754D01*
Y-224279D01*
Y-223754D01*
X-17585Y-223230D01*
X-17061D01*
X-16536Y-223754D01*
Y-224804D01*
X-17061Y-225329D01*
X-159422Y-295787D02*
Y-292638D01*
X-157847D01*
X-157322Y-293163D01*
Y-294213D01*
X-157847Y-294737D01*
X-159422D01*
X-158372D02*
X-157322Y-295787D01*
X-156273D02*
X-155223D01*
X-155748D01*
Y-292638D01*
X-156273Y-293163D01*
X-152075Y-295787D02*
Y-292638D01*
X-153649Y-294213D01*
X-151550D01*
X-138463Y-295925D02*
Y-292776D01*
X-136889D01*
X-136364Y-293301D01*
Y-294350D01*
X-136889Y-294875D01*
X-138463D01*
X-137414D02*
X-136364Y-295925D01*
X-135315D02*
X-134265D01*
X-134790D01*
Y-292776D01*
X-135315Y-293301D01*
X-132691D02*
X-132166Y-292776D01*
X-131117D01*
X-130592Y-293301D01*
Y-293826D01*
X-131117Y-294350D01*
X-131641D01*
X-131117D01*
X-130592Y-294875D01*
Y-295400D01*
X-131117Y-295925D01*
X-132166D01*
X-132691Y-295400D01*
X-117431Y-295787D02*
Y-292638D01*
X-115857D01*
X-115332Y-293163D01*
Y-294213D01*
X-115857Y-294737D01*
X-117431D01*
X-116382D02*
X-115332Y-295787D01*
X-114283D02*
X-113233D01*
X-113758D01*
Y-292638D01*
X-114283Y-293163D01*
X-109560Y-295787D02*
X-111659D01*
X-109560Y-293688D01*
Y-293163D01*
X-110084Y-292638D01*
X-111134D01*
X-111659Y-293163D01*
X-81364Y-295686D02*
Y-292537D01*
X-79789D01*
X-79265Y-293062D01*
Y-294112D01*
X-79789Y-294636D01*
X-81364D01*
X-80314D02*
X-79265Y-295686D01*
X-78215D02*
X-77166D01*
X-77690D01*
Y-292537D01*
X-78215Y-293062D01*
X-75591Y-295686D02*
X-74542D01*
X-75067D01*
Y-292537D01*
X-75591Y-293062D01*
X-60865Y-295866D02*
Y-292717D01*
X-59291D01*
X-58766Y-293242D01*
Y-294291D01*
X-59291Y-294816D01*
X-60865D01*
X-59815D02*
X-58766Y-295866D01*
X-57716D02*
X-56667D01*
X-57191D01*
Y-292717D01*
X-57716Y-293242D01*
X-55093D02*
X-54568Y-292717D01*
X-53518D01*
X-52993Y-293242D01*
Y-295341D01*
X-53518Y-295866D01*
X-54568D01*
X-55093Y-295341D01*
Y-293242D01*
X-38490Y-295708D02*
Y-292560D01*
X-36916D01*
X-36391Y-293084D01*
Y-294134D01*
X-36916Y-294659D01*
X-38490D01*
X-37440D02*
X-36391Y-295708D01*
X-35341Y-295183D02*
X-34817Y-295708D01*
X-33767D01*
X-33242Y-295183D01*
Y-293084D01*
X-33767Y-292560D01*
X-34817D01*
X-35341Y-293084D01*
Y-293609D01*
X-34817Y-294134D01*
X-33242D01*
X-79658Y-40945D02*
X-81757D01*
Y-42520D01*
X-80708D01*
X-81757D01*
Y-44094D01*
X-78609Y-40945D02*
Y-44094D01*
X-76509D01*
X-75460Y-41470D02*
X-74935Y-40945D01*
X-73886D01*
X-73361Y-41470D01*
Y-41995D01*
X-73886Y-42520D01*
X-74410D01*
X-73886D01*
X-73361Y-43044D01*
Y-43569D01*
X-73886Y-44094D01*
X-74935D01*
X-75460Y-43569D01*
X-138844Y-352362D02*
Y-349213D01*
X-137269D01*
X-136745Y-349738D01*
Y-350787D01*
X-137269Y-351312D01*
X-138844D01*
X-137794D02*
X-136745Y-352362D01*
X-135695D02*
Y-349213D01*
X-134121D01*
X-133596Y-349738D01*
Y-350787D01*
X-134121Y-351312D01*
X-135695D01*
X-134646D02*
X-133596Y-352362D01*
X-130448D02*
X-132547D01*
X-130448Y-350263D01*
Y-349738D01*
X-130972Y-349213D01*
X-132022D01*
X-132547Y-349738D01*
X-138844Y-44094D02*
Y-40945D01*
X-137269D01*
X-136745Y-41470D01*
Y-42520D01*
X-137269Y-43044D01*
X-138844D01*
X-137794D02*
X-136745Y-44094D01*
X-135695Y-40945D02*
Y-44094D01*
X-133596D01*
X-130448D02*
X-132547D01*
X-130448Y-41995D01*
Y-41470D01*
X-130972Y-40945D01*
X-132022D01*
X-132547Y-41470D01*
X-58792Y-40945D02*
X-60891D01*
Y-42520D01*
X-59842D01*
X-60891D01*
Y-44094D01*
X-57742Y-40945D02*
Y-44094D01*
X-55643D01*
X-52495D02*
X-54594D01*
X-52495Y-41995D01*
Y-41470D01*
X-53020Y-40945D01*
X-54069D01*
X-54594Y-41470D01*
X-116665Y-352362D02*
Y-349213D01*
X-115091D01*
X-114566Y-349738D01*
Y-350787D01*
X-115091Y-351312D01*
X-116665D01*
X-115616D02*
X-114566Y-352362D01*
X-113517D02*
Y-349213D01*
X-111943D01*
X-111418Y-349738D01*
Y-350787D01*
X-111943Y-351312D01*
X-113517D01*
X-112467D02*
X-111418Y-352362D01*
X-110368D02*
X-109319D01*
X-109844D01*
Y-349213D01*
X-110368Y-349738D01*
X-37401Y-349213D02*
X-39500D01*
Y-350787D01*
X-38451D01*
X-39500D01*
Y-352362D01*
X-36351D02*
Y-349213D01*
X-34777D01*
X-34253Y-349738D01*
Y-350787D01*
X-34777Y-351312D01*
X-36351D01*
X-35302D02*
X-34253Y-352362D01*
X-33203D02*
X-32153D01*
X-32678D01*
Y-349213D01*
X-33203Y-349738D01*
X-116665Y-44094D02*
Y-40945D01*
X-115091D01*
X-114566Y-41470D01*
Y-42520D01*
X-115091Y-43044D01*
X-116665D01*
X-115616D02*
X-114566Y-44094D01*
X-113517Y-40945D02*
Y-44094D01*
X-111418D01*
X-110368D02*
X-109319D01*
X-109844D01*
Y-40945D01*
X-110368Y-41470D01*
X-37007Y-40945D02*
X-39106D01*
Y-42520D01*
X-38057D01*
X-39106D01*
Y-44094D01*
X-35958Y-40945D02*
Y-44094D01*
X-33859D01*
X-32809D02*
X-31760D01*
X-32285D01*
Y-40945D01*
X-32809Y-41470D01*
X28574Y-60003D02*
Y-56854D01*
X30148D01*
X30673Y-57379D01*
Y-58428D01*
X30148Y-58953D01*
X28574D01*
X29623D02*
X30673Y-60003D01*
X31722D02*
X32772D01*
X32247D01*
Y-56854D01*
X31722Y-57379D01*
X34346D02*
X34871Y-56854D01*
X35921D01*
X36445Y-57379D01*
Y-57904D01*
X35921Y-58428D01*
X36445Y-58953D01*
Y-59478D01*
X35921Y-60003D01*
X34871D01*
X34346Y-59478D01*
Y-58953D01*
X34871Y-58428D01*
X34346Y-57904D01*
Y-57379D01*
X34871Y-58428D02*
X35921D01*
X100525Y-236615D02*
X99476D01*
X100001D01*
Y-239239D01*
X99476Y-239763D01*
X98951D01*
X98427Y-239239D01*
X101575Y-239763D02*
X102625D01*
X102100D01*
Y-236615D01*
X101575Y-237139D01*
X105773Y-239763D02*
Y-236615D01*
X104199Y-238189D01*
X106298D01*
X99738Y-153544D02*
X98689D01*
X99213D01*
Y-156168D01*
X98689Y-156692D01*
X98164D01*
X97639Y-156168D01*
X100788Y-156692D02*
X101837D01*
X101312D01*
Y-153544D01*
X100788Y-154069D01*
X103411D02*
X103936Y-153544D01*
X104986D01*
X105510Y-154069D01*
Y-154593D01*
X104986Y-155118D01*
X104461D01*
X104986D01*
X105510Y-155643D01*
Y-156168D01*
X104986Y-156692D01*
X103936D01*
X103411Y-156168D01*
X94488Y-162205D02*
Y-160106D01*
X92913D01*
Y-161155D01*
Y-160106D01*
X91339D01*
Y-163254D02*
Y-164304D01*
Y-163779D01*
X94488D01*
X93963Y-163254D01*
X-79658Y-349213D02*
X-81757D01*
Y-350787D01*
X-80708D01*
X-81757D01*
Y-352362D01*
X-78609D02*
Y-349213D01*
X-77034D01*
X-76509Y-349738D01*
Y-350787D01*
X-77034Y-351312D01*
X-78609D01*
X-77559D02*
X-76509Y-352362D01*
X-75460Y-349738D02*
X-74935Y-349213D01*
X-73886D01*
X-73361Y-349738D01*
Y-350263D01*
X-73886Y-350787D01*
X-74410D01*
X-73886D01*
X-73361Y-351312D01*
Y-351837D01*
X-73886Y-352362D01*
X-74935D01*
X-75460Y-351837D01*
X-97660Y-184481D02*
Y-187105D01*
X-97135Y-187630D01*
X-96086D01*
X-95561Y-187105D01*
Y-184481D01*
X-94511Y-187630D02*
X-93462D01*
X-93987D01*
Y-184481D01*
X-94511Y-185006D01*
X-157742Y-98959D02*
Y-95810D01*
X-156168D01*
X-155643Y-96335D01*
Y-97384D01*
X-156168Y-97909D01*
X-157742D01*
X-156692D02*
X-155643Y-98959D01*
X-154593Y-96335D02*
X-154069Y-95810D01*
X-153019D01*
X-152494Y-96335D01*
Y-96860D01*
X-153019Y-97384D01*
X-152494Y-97909D01*
Y-98434D01*
X-153019Y-98959D01*
X-154069D01*
X-154593Y-98434D01*
Y-97909D01*
X-154069Y-97384D01*
X-154593Y-96860D01*
Y-96335D01*
X-154069Y-97384D02*
X-153019D01*
X-136088Y-99195D02*
Y-96046D01*
X-134514D01*
X-133989Y-96571D01*
Y-97621D01*
X-134514Y-98145D01*
X-136088D01*
X-135039D02*
X-133989Y-99195D01*
X-132940Y-96046D02*
X-130841D01*
Y-96571D01*
X-132940Y-98670D01*
Y-99195D01*
X-18371Y-90551D02*
Y-87402D01*
X-16797D01*
X-16272Y-87927D01*
Y-88976D01*
X-16797Y-89501D01*
X-18371D01*
X-17322D02*
X-16272Y-90551D01*
X-13124D02*
X-15223D01*
X-13124Y-88452D01*
Y-87927D01*
X-13648Y-87402D01*
X-14698D01*
X-15223Y-87927D01*
X-10500Y-90551D02*
Y-87402D01*
X-12074Y-88976D01*
X-9975D01*
X920Y-99212D02*
Y-96064D01*
X2494D01*
X3019Y-96588D01*
Y-97638D01*
X2494Y-98163D01*
X920D01*
X1970D02*
X3019Y-99212D01*
X6168D02*
X4069D01*
X6168Y-97113D01*
Y-96588D01*
X5643Y-96064D01*
X4593D01*
X4069Y-96588D01*
X9316Y-99212D02*
X7217D01*
X9316Y-97113D01*
Y-96588D01*
X8792Y-96064D01*
X7742D01*
X7217Y-96588D01*
X-114829Y-99392D02*
Y-96243D01*
X-113254D01*
X-112730Y-96768D01*
Y-97817D01*
X-113254Y-98342D01*
X-114829D01*
X-113779D02*
X-112730Y-99392D01*
X-109581Y-96243D02*
X-110630Y-96768D01*
X-111680Y-97817D01*
Y-98867D01*
X-111155Y-99392D01*
X-110106D01*
X-109581Y-98867D01*
Y-98342D01*
X-110106Y-97817D01*
X-111680D01*
X-80013Y-98582D02*
Y-95434D01*
X-78438D01*
X-77913Y-95958D01*
Y-97008D01*
X-78438Y-97533D01*
X-80013D01*
X-78963D02*
X-77913Y-98582D01*
X-74765Y-95434D02*
X-76864D01*
Y-97008D01*
X-75814Y-96483D01*
X-75290D01*
X-74765Y-97008D01*
Y-98057D01*
X-75290Y-98582D01*
X-76339D01*
X-76864Y-98057D01*
X1296Y-45275D02*
Y-42127D01*
X2870D01*
X3395Y-42651D01*
Y-43701D01*
X2870Y-44225D01*
X1296D01*
X2346D02*
X3395Y-45275D01*
X6544D02*
X4445D01*
X6544Y-43176D01*
Y-42651D01*
X6019Y-42127D01*
X4970D01*
X4445Y-42651D01*
X9692Y-42127D02*
X7593D01*
Y-43701D01*
X8643Y-43176D01*
X9168D01*
X9692Y-43701D01*
Y-44750D01*
X9168Y-45275D01*
X8118D01*
X7593Y-44750D01*
X15881Y-45275D02*
Y-42127D01*
X17455D01*
X17980Y-42651D01*
Y-43701D01*
X17455Y-44225D01*
X15881D01*
X16930D02*
X17980Y-45275D01*
X21128D02*
X19029D01*
X21128Y-43176D01*
Y-42651D01*
X20604Y-42127D01*
X19554D01*
X19029Y-42651D01*
X22178D02*
X22703Y-42127D01*
X23752D01*
X24277Y-42651D01*
Y-43176D01*
X23752Y-43701D01*
X23227D01*
X23752D01*
X24277Y-44225D01*
Y-44750D01*
X23752Y-45275D01*
X22703D01*
X22178Y-44750D01*
X-235544Y-159772D02*
Y-156623D01*
X-233970D01*
X-233445Y-157148D01*
Y-158197D01*
X-233970Y-158722D01*
X-235544D01*
X-234494D02*
X-233445Y-159772D01*
X-230296D02*
X-232395D01*
X-230296Y-157673D01*
Y-157148D01*
X-230821Y-156623D01*
X-231871D01*
X-232395Y-157148D01*
X-229247Y-156623D02*
X-227148D01*
Y-157148D01*
X-229247Y-159247D01*
Y-159772D01*
X-234757Y-239642D02*
Y-236493D01*
X-233182D01*
X-232658Y-237018D01*
Y-238068D01*
X-233182Y-238593D01*
X-234757D01*
X-233707D02*
X-232658Y-239642D01*
X-229509D02*
X-231608D01*
X-229509Y-237543D01*
Y-237018D01*
X-230034Y-236493D01*
X-231083D01*
X-231608Y-237018D01*
X-226360Y-236493D02*
X-227410Y-237018D01*
X-228459Y-238068D01*
Y-239117D01*
X-227935Y-239642D01*
X-226885D01*
X-226360Y-239117D01*
Y-238593D01*
X-226885Y-238068D01*
X-228459D01*
X-58726Y-99094D02*
Y-95945D01*
X-57152D01*
X-56627Y-96470D01*
Y-97520D01*
X-57152Y-98044D01*
X-58726D01*
X-57677D02*
X-56627Y-99094D01*
X-54003D02*
Y-95945D01*
X-55578Y-97520D01*
X-53478D01*
X-37663Y-98486D02*
Y-95338D01*
X-36089D01*
X-35564Y-95863D01*
Y-96912D01*
X-36089Y-97437D01*
X-37663D01*
X-36614D02*
X-35564Y-98486D01*
X-32416D02*
X-34515D01*
X-32416Y-96387D01*
Y-95863D01*
X-32940Y-95338D01*
X-33990D01*
X-34515Y-95863D01*
X-127295Y-216535D02*
Y-213386D01*
X-125721D01*
X-125196Y-213911D01*
Y-214961D01*
X-125721Y-215485D01*
X-127295D01*
X-126246D02*
X-125196Y-216535D01*
X-122048D02*
X-124147D01*
X-122048Y-214436D01*
Y-213911D01*
X-122573Y-213386D01*
X-123622D01*
X-124147Y-213911D01*
X-120998Y-216535D02*
X-119949D01*
X-120474D01*
Y-213386D01*
X-120998Y-213911D01*
X-46062Y-224409D02*
Y-221260D01*
X-44487D01*
X-43963Y-221785D01*
Y-222835D01*
X-44487Y-223359D01*
X-46062D01*
X-45012D02*
X-43963Y-224409D01*
X-42913D02*
X-41864D01*
X-42388D01*
Y-221260D01*
X-42913Y-221785D01*
X-40289Y-221260D02*
X-38190D01*
Y-221785D01*
X-40289Y-223884D01*
Y-224409D01*
X-22046Y-238189D02*
Y-235040D01*
X-20472D01*
X-19947Y-235565D01*
Y-236614D01*
X-20472Y-237139D01*
X-22046D01*
X-20996D02*
X-19947Y-238189D01*
X-18897D02*
X-17848D01*
X-18373D01*
Y-235040D01*
X-18897Y-235565D01*
X-14175Y-235040D02*
X-16274D01*
Y-236614D01*
X-15224Y-236089D01*
X-14699D01*
X-14175Y-236614D01*
Y-237664D01*
X-14699Y-238189D01*
X-15749D01*
X-16274Y-237664D01*
X-3148Y-231496D02*
Y-228347D01*
X-1574D01*
X-1049Y-228872D01*
Y-229921D01*
X-1574Y-230446D01*
X-3148D01*
X-2099D02*
X-1049Y-231496D01*
X0D02*
X1050D01*
X525D01*
Y-228347D01*
X0Y-228872D01*
X4723Y-228347D02*
X3674Y-228872D01*
X2624Y-229921D01*
Y-230971D01*
X3149Y-231496D01*
X4198D01*
X4723Y-230971D01*
Y-230446D01*
X4198Y-229921D01*
X2624D01*
X92652Y-44094D02*
Y-40945D01*
X94226D01*
X94751Y-41470D01*
Y-42520D01*
X94226Y-43044D01*
X92652D01*
X97899Y-44094D02*
X95800D01*
X97899Y-41995D01*
Y-41470D01*
X97375Y-40945D01*
X96325D01*
X95800Y-41470D01*
X-37138Y-205906D02*
Y-209055D01*
X-35039D01*
X-33990D02*
X-32940D01*
X-33465D01*
Y-205906D01*
X-33990Y-206431D01*
X-160104Y-352362D02*
Y-349213D01*
X-158529D01*
X-158005Y-349738D01*
Y-350787D01*
X-158529Y-351312D01*
X-160104D01*
X-159054D02*
X-158005Y-352362D01*
X-156955D02*
Y-349213D01*
X-155381D01*
X-154856Y-349738D01*
Y-350787D01*
X-155381Y-351312D01*
X-156955D01*
X-155905D02*
X-154856Y-352362D01*
X-153806Y-349738D02*
X-153282Y-349213D01*
X-152232D01*
X-151707Y-349738D01*
Y-350263D01*
X-152232Y-350787D01*
X-152757D01*
X-152232D01*
X-151707Y-351312D01*
Y-351837D01*
X-152232Y-352362D01*
X-153282D01*
X-153806Y-351837D01*
X-159710Y-44094D02*
Y-40945D01*
X-158136D01*
X-157611Y-41470D01*
Y-42520D01*
X-158136Y-43044D01*
X-159710D01*
X-158660D02*
X-157611Y-44094D01*
X-156561Y-40945D02*
Y-44094D01*
X-154462D01*
X-153413Y-41470D02*
X-152888Y-40945D01*
X-151839D01*
X-151314Y-41470D01*
Y-41995D01*
X-151839Y-42520D01*
X-152363D01*
X-151839D01*
X-151314Y-43044D01*
Y-43569D01*
X-151839Y-44094D01*
X-152888D01*
X-153413Y-43569D01*
X-200260Y-149213D02*
X-201310D01*
X-200785D01*
Y-151837D01*
X-201310Y-152362D01*
X-201835D01*
X-202359Y-151837D01*
X-199211Y-152362D02*
X-198161D01*
X-198686D01*
Y-149213D01*
X-199211Y-149738D01*
X-194488Y-149213D02*
X-196587D01*
Y-150787D01*
X-195537Y-150263D01*
X-195013D01*
X-194488Y-150787D01*
Y-151837D01*
X-195013Y-152362D01*
X-196062D01*
X-196587Y-151837D01*
X-193438Y-150787D02*
X-191339D01*
X-188191Y-149213D02*
X-189240Y-149738D01*
X-190290Y-150787D01*
Y-151837D01*
X-189765Y-152362D01*
X-188716D01*
X-188191Y-151837D01*
Y-151312D01*
X-188716Y-150787D01*
X-190290D01*
X-187141Y-152362D02*
Y-150263D01*
X-186092Y-149213D01*
X-185042Y-150263D01*
Y-152362D01*
Y-150787D01*
X-187141D01*
X-200260Y-237402D02*
X-201310D01*
X-200785D01*
Y-240026D01*
X-201310Y-240551D01*
X-201835D01*
X-202359Y-240026D01*
X-199211Y-240551D02*
X-198161D01*
X-198686D01*
Y-237402D01*
X-199211Y-237927D01*
X-194488Y-237402D02*
X-195537Y-237927D01*
X-196587Y-238976D01*
Y-240026D01*
X-196062Y-240551D01*
X-195013D01*
X-194488Y-240026D01*
Y-239501D01*
X-195013Y-238976D01*
X-196587D01*
X-193438D02*
X-191339D01*
X-188191Y-237402D02*
X-189240Y-237927D01*
X-190290Y-238976D01*
Y-240026D01*
X-189765Y-240551D01*
X-188716D01*
X-188191Y-240026D01*
Y-239501D01*
X-188716Y-238976D01*
X-190290D01*
X-187141Y-240551D02*
Y-238452D01*
X-186092Y-237402D01*
X-185042Y-238452D01*
Y-240551D01*
Y-238976D01*
X-187141D01*
X-112597Y-148819D02*
X-111548D01*
X-112072D01*
Y-151968D01*
X-112597D01*
X-111548D01*
X-107874Y-149344D02*
X-108399Y-148819D01*
X-109449D01*
X-109973Y-149344D01*
Y-151443D01*
X-109449Y-151968D01*
X-108399D01*
X-107874Y-151443D01*
X-104726Y-148819D02*
X-105775Y-149344D01*
X-106825Y-150394D01*
Y-151443D01*
X-106300Y-151968D01*
X-105250D01*
X-104726Y-151443D01*
Y-150918D01*
X-105250Y-150394D01*
X-106825D01*
X-53936Y-149607D02*
X-52886D01*
X-53411D01*
Y-152755D01*
X-53936D01*
X-52886D01*
X-49213Y-150132D02*
X-49738Y-149607D01*
X-50787D01*
X-51312Y-150132D01*
Y-152231D01*
X-50787Y-152755D01*
X-49738D01*
X-49213Y-152231D01*
X-46064Y-149607D02*
X-48163D01*
Y-151181D01*
X-47114Y-150656D01*
X-46589D01*
X-46064Y-151181D01*
Y-152231D01*
X-46589Y-152755D01*
X-47638D01*
X-48163Y-152231D01*
X1707Y-60630D02*
X2757D01*
X2232D01*
Y-63779D01*
X1707D01*
X2757D01*
X6430Y-61155D02*
X5905Y-60630D01*
X4856D01*
X4331Y-61155D01*
Y-63254D01*
X4856Y-63779D01*
X5905D01*
X6430Y-63254D01*
X7480Y-63779D02*
X8529D01*
X8004D01*
Y-60630D01*
X7480Y-61155D01*
X-72833Y-203938D02*
X-71784D01*
X-72309D01*
Y-207086D01*
X-72833D01*
X-71784D01*
X-68111Y-204462D02*
X-68635Y-203938D01*
X-69685D01*
X-70210Y-204462D01*
Y-206561D01*
X-69685Y-207086D01*
X-68635D01*
X-68111Y-206561D01*
X-67061Y-203938D02*
X-64962D01*
Y-204462D01*
X-67061Y-206561D01*
Y-207086D01*
X-150786Y-215355D02*
X-149737D01*
X-150261D01*
Y-218503D01*
X-150786D01*
X-149737D01*
X-146063Y-215880D02*
X-146588Y-215355D01*
X-147637D01*
X-148162Y-215880D01*
Y-217979D01*
X-147637Y-218503D01*
X-146588D01*
X-146063Y-217979D01*
X-143439Y-218503D02*
Y-215355D01*
X-145014Y-216929D01*
X-142915D01*
X-146981Y-145801D02*
X-147506Y-145276D01*
X-148555D01*
X-149080Y-145801D01*
Y-147900D01*
X-148555Y-148425D01*
X-147506D01*
X-146981Y-147900D01*
X-143832Y-148425D02*
X-145931D01*
X-143832Y-146326D01*
Y-145801D01*
X-144357Y-145276D01*
X-145407D01*
X-145931Y-145801D01*
X-142783D02*
X-142258Y-145276D01*
X-141209D01*
X-140684Y-145801D01*
Y-147900D01*
X-141209Y-148425D01*
X-142258D01*
X-142783Y-147900D01*
Y-145801D01*
X-79264Y-250132D02*
X-79789Y-249607D01*
X-80839D01*
X-81363Y-250132D01*
Y-252231D01*
X-80839Y-252755D01*
X-79789D01*
X-79264Y-252231D01*
X-76116Y-252755D02*
X-78215D01*
X-76116Y-250656D01*
Y-250132D01*
X-76641Y-249607D01*
X-77690D01*
X-78215Y-250132D01*
X-75066Y-252231D02*
X-74541Y-252755D01*
X-73492D01*
X-72967Y-252231D01*
Y-250132D01*
X-73492Y-249607D01*
X-74541D01*
X-75066Y-250132D01*
Y-250656D01*
X-74541Y-251181D01*
X-72967D01*
X-124540Y-133202D02*
X-125065Y-132678D01*
X-126114D01*
X-126639Y-133202D01*
Y-135301D01*
X-126114Y-135826D01*
X-125065D01*
X-124540Y-135301D01*
X-121391Y-135826D02*
X-123491D01*
X-121391Y-133727D01*
Y-133202D01*
X-121916Y-132678D01*
X-122966D01*
X-123491Y-133202D01*
X-120342D02*
X-119817Y-132678D01*
X-118768D01*
X-118243Y-133202D01*
Y-133727D01*
X-118768Y-134252D01*
X-119292D01*
X-118768D01*
X-118243Y-134777D01*
Y-135301D01*
X-118768Y-135826D01*
X-119817D01*
X-120342Y-135301D01*
X-79921Y-228872D02*
X-80445Y-228347D01*
X-81495D01*
X-82020Y-228872D01*
Y-230971D01*
X-81495Y-231496D01*
X-80445D01*
X-79921Y-230971D01*
X-78871Y-228872D02*
X-78347Y-228347D01*
X-77297D01*
X-76772Y-228872D01*
Y-229397D01*
X-77297Y-229921D01*
X-77822D01*
X-77297D01*
X-76772Y-230446D01*
Y-230971D01*
X-77297Y-231496D01*
X-78347D01*
X-78871Y-230971D01*
X-75723Y-231496D02*
X-74673D01*
X-75198D01*
Y-228347D01*
X-75723Y-228872D01*
X-122965Y-229265D02*
X-123490Y-228741D01*
X-124539D01*
X-125064Y-229265D01*
Y-231364D01*
X-124539Y-231889D01*
X-123490D01*
X-122965Y-231364D01*
X-119817Y-231889D02*
X-121916D01*
X-119817Y-229790D01*
Y-229265D01*
X-120341Y-228741D01*
X-121391D01*
X-121916Y-229265D01*
X-118767Y-228741D02*
X-116668D01*
Y-229265D01*
X-118767Y-231364D01*
Y-231889D01*
X-72703Y-121785D02*
X-73228Y-121260D01*
X-74277D01*
X-74802Y-121785D01*
Y-123884D01*
X-74277Y-124409D01*
X-73228D01*
X-72703Y-123884D01*
X-71653Y-124409D02*
X-70604D01*
X-71128D01*
Y-121260D01*
X-71653Y-121785D01*
X-69029D02*
X-68505Y-121260D01*
X-67455D01*
X-66930Y-121785D01*
Y-122310D01*
X-67455Y-122835D01*
X-66930Y-123359D01*
Y-123884D01*
X-67455Y-124409D01*
X-68505D01*
X-69029Y-123884D01*
Y-123359D01*
X-68505Y-122835D01*
X-69029Y-122310D01*
Y-121785D01*
X-68505Y-122835D02*
X-67455D01*
X-122965Y-250919D02*
X-123490Y-250394D01*
X-124539D01*
X-125064Y-250919D01*
Y-253018D01*
X-124539Y-253543D01*
X-123490D01*
X-122965Y-253018D01*
X-121916Y-250919D02*
X-121391Y-250394D01*
X-120341D01*
X-119817Y-250919D01*
Y-251444D01*
X-120341Y-251969D01*
X-120866D01*
X-120341D01*
X-119817Y-252493D01*
Y-253018D01*
X-120341Y-253543D01*
X-121391D01*
X-121916Y-253018D01*
X-118767Y-250919D02*
X-118242Y-250394D01*
X-117193D01*
X-116668Y-250919D01*
Y-253018D01*
X-117193Y-253543D01*
X-118242D01*
X-118767Y-253018D01*
Y-250919D01*
X-95515Y-153809D02*
X-96039Y-153284D01*
X-97089D01*
X-97614Y-153809D01*
Y-155908D01*
X-97089Y-156433D01*
X-96039D01*
X-95515Y-155908D01*
X-92366Y-156433D02*
X-94465D01*
X-92366Y-154333D01*
Y-153809D01*
X-92891Y-153284D01*
X-93940D01*
X-94465Y-153809D01*
X-89217Y-156433D02*
X-91316D01*
X-89217Y-154333D01*
Y-153809D01*
X-89742Y-153284D01*
X-90792D01*
X-91316Y-153809D01*
X-109317Y-174147D02*
X-109842Y-173623D01*
X-110891D01*
X-111416Y-174147D01*
Y-176246D01*
X-110891Y-176771D01*
X-109842D01*
X-109317Y-176246D01*
X-108267Y-176771D02*
X-107218D01*
X-107743D01*
Y-173623D01*
X-108267Y-174147D01*
X-105644Y-176246D02*
X-105119Y-176771D01*
X-104069D01*
X-103545Y-176246D01*
Y-174147D01*
X-104069Y-173623D01*
X-105119D01*
X-105644Y-174147D01*
Y-174672D01*
X-105119Y-175197D01*
X-103545D01*
X15617Y-85171D02*
X15092Y-84646D01*
X14043D01*
X13518Y-85171D01*
Y-87270D01*
X14043Y-87795D01*
X15092D01*
X15617Y-87270D01*
X18241Y-87795D02*
Y-84646D01*
X16667Y-86221D01*
X18766D01*
X-8530Y-61943D02*
X-9054Y-61418D01*
X-10104D01*
X-10629Y-61943D01*
Y-64042D01*
X-10104Y-64566D01*
X-9054D01*
X-8530Y-64042D01*
X-7480Y-64566D02*
X-6431D01*
X-6955D01*
Y-61418D01*
X-7480Y-61943D01*
X-2757Y-64566D02*
X-4856D01*
X-2757Y-62467D01*
Y-61943D01*
X-3282Y-61418D01*
X-4332D01*
X-4856Y-61943D01*
X-9973Y-42651D02*
X-10498Y-42127D01*
X-11548D01*
X-12072Y-42651D01*
Y-44750D01*
X-11548Y-45275D01*
X-10498D01*
X-9973Y-44750D01*
X-8924Y-45275D02*
X-7874D01*
X-8399D01*
Y-42127D01*
X-8924Y-42651D01*
X-6300Y-45275D02*
X-5250D01*
X-5775D01*
Y-42127D01*
X-6300Y-42651D01*
X-109055Y-196195D02*
X-109579Y-195670D01*
X-110629D01*
X-111154Y-196195D01*
Y-198294D01*
X-110629Y-198818D01*
X-109579D01*
X-109055Y-198294D01*
X-105906Y-198818D02*
X-108005D01*
X-105906Y-196719D01*
Y-196195D01*
X-106431Y-195670D01*
X-107480D01*
X-108005Y-196195D01*
X-104857Y-198818D02*
X-103807D01*
X-104332D01*
Y-195670D01*
X-104857Y-196195D01*
X30650Y-81110D02*
X30125Y-80585D01*
X29075D01*
X28550Y-81110D01*
Y-83209D01*
X29075Y-83734D01*
X30125D01*
X30650Y-83209D01*
X31699Y-83734D02*
X32749D01*
X32224D01*
Y-80585D01*
X31699Y-81110D01*
X34323D02*
X34848Y-80585D01*
X35897D01*
X36422Y-81110D01*
Y-83209D01*
X35897Y-83734D01*
X34848D01*
X34323Y-83209D01*
Y-81110D01*
X-53805Y-232415D02*
X-54330Y-231890D01*
X-55379D01*
X-55904Y-232415D01*
Y-234514D01*
X-55379Y-235039D01*
X-54330D01*
X-53805Y-234514D01*
X-52756Y-235039D02*
X-51706D01*
X-52231D01*
Y-231890D01*
X-52756Y-232415D01*
X-48033Y-231890D02*
X-50132D01*
Y-233465D01*
X-49082Y-232940D01*
X-48557D01*
X-48033Y-233465D01*
Y-234514D01*
X-48557Y-235039D01*
X-49607D01*
X-50132Y-234514D01*
X-64041Y-232415D02*
X-64566Y-231890D01*
X-65616D01*
X-66141Y-232415D01*
Y-234514D01*
X-65616Y-235039D01*
X-64566D01*
X-64041Y-234514D01*
X-62992Y-235039D02*
X-61942D01*
X-62467D01*
Y-231890D01*
X-62992Y-232415D01*
X-58794Y-235039D02*
Y-231890D01*
X-60368Y-233465D01*
X-58269D01*
X-63516Y-166273D02*
X-64041Y-165749D01*
X-65091D01*
X-65615Y-166273D01*
Y-168372D01*
X-65091Y-168897D01*
X-64041D01*
X-63516Y-168372D01*
X-60368Y-168897D02*
X-62467D01*
X-60368Y-166798D01*
Y-166273D01*
X-60893Y-165749D01*
X-61942D01*
X-62467Y-166273D01*
X-57744Y-168897D02*
Y-165749D01*
X-59318Y-167323D01*
X-57219D01*
X-125852Y-173754D02*
X-126377Y-173229D01*
X-127427D01*
X-127952Y-173754D01*
Y-175853D01*
X-127427Y-176377D01*
X-126377D01*
X-125852Y-175853D01*
X-124803Y-176377D02*
X-123753D01*
X-124278D01*
Y-173229D01*
X-124803Y-173754D01*
X-122179Y-173229D02*
X-120080D01*
Y-173754D01*
X-122179Y-175853D01*
Y-176377D01*
X-9843Y-235565D02*
X-10367Y-235040D01*
X-11417D01*
X-11942Y-235565D01*
Y-237664D01*
X-11417Y-238189D01*
X-10367D01*
X-9843Y-237664D01*
X-8793Y-238189D02*
X-7744D01*
X-8268D01*
Y-235040D01*
X-8793Y-235565D01*
X-70957Y-171507D02*
X-71481Y-170982D01*
X-72531D01*
X-73056Y-171507D01*
Y-173606D01*
X-72531Y-174131D01*
X-71481D01*
X-70957Y-173606D01*
X-67808Y-174131D02*
X-69907D01*
X-67808Y-172032D01*
Y-171507D01*
X-68333Y-170982D01*
X-69382D01*
X-69907Y-171507D01*
X-64659Y-170982D02*
X-66759D01*
Y-172556D01*
X-65709Y-172032D01*
X-65184D01*
X-64659Y-172556D01*
Y-173606D01*
X-65184Y-174131D01*
X-66234D01*
X-66759Y-173606D01*
X-77690Y-166273D02*
X-78214Y-165749D01*
X-79264D01*
X-79789Y-166273D01*
Y-168372D01*
X-79264Y-168897D01*
X-78214D01*
X-77690Y-168372D01*
X-74541Y-168897D02*
X-76640D01*
X-74541Y-166798D01*
Y-166273D01*
X-75066Y-165749D01*
X-76115D01*
X-76640Y-166273D01*
X-71392Y-165749D02*
X-72442Y-166273D01*
X-73492Y-167323D01*
Y-168372D01*
X-72967Y-168897D01*
X-71917D01*
X-71392Y-168372D01*
Y-167848D01*
X-71917Y-167323D01*
X-73492D01*
X7743Y-247376D02*
X7218Y-246851D01*
X6169D01*
X5644Y-247376D01*
Y-249475D01*
X6169Y-249999D01*
X7218D01*
X7743Y-249475D01*
X10892Y-246851D02*
X8793D01*
Y-248425D01*
X9842Y-247900D01*
X10367D01*
X10892Y-248425D01*
Y-249475D01*
X10367Y-249999D01*
X9317D01*
X8793Y-249475D01*
X-8793Y-255250D02*
X-9317Y-254725D01*
X-10367D01*
X-10892Y-255250D01*
Y-257349D01*
X-10367Y-257874D01*
X-9317D01*
X-8793Y-257349D01*
X-7743Y-255250D02*
X-7218Y-254725D01*
X-6169D01*
X-5644Y-255250D01*
Y-255774D01*
X-6169Y-256299D01*
X-6693D01*
X-6169D01*
X-5644Y-256824D01*
Y-257349D01*
X-6169Y-257874D01*
X-7218D01*
X-7743Y-257349D01*
X-17060Y-255250D02*
X-17585Y-254725D01*
X-18634D01*
X-19159Y-255250D01*
Y-257349D01*
X-18634Y-257874D01*
X-17585D01*
X-17060Y-257349D01*
X-13912Y-257874D02*
X-16011D01*
X-13912Y-255774D01*
Y-255250D01*
X-14436Y-254725D01*
X-15486D01*
X-16011Y-255250D01*
X-85170Y-171688D02*
X-85695Y-171164D01*
X-86744D01*
X-87269Y-171688D01*
Y-173787D01*
X-86744Y-174312D01*
X-85695D01*
X-85170Y-173787D01*
X-82021Y-174312D02*
X-84120D01*
X-82021Y-172213D01*
Y-171688D01*
X-82546Y-171164D01*
X-83596D01*
X-84120Y-171688D01*
X-80972D02*
X-80447Y-171164D01*
X-79397D01*
X-78873Y-171688D01*
Y-172213D01*
X-79397Y-172738D01*
X-78873Y-173263D01*
Y-173787D01*
X-79397Y-174312D01*
X-80447D01*
X-80972Y-173787D01*
Y-173263D01*
X-80447Y-172738D01*
X-80972Y-172213D01*
Y-171688D01*
X-80447Y-172738D02*
X-79397D01*
X-919Y-222355D02*
X-1444Y-221830D01*
X-2493D01*
X-3018Y-222355D01*
Y-224454D01*
X-2493Y-224979D01*
X-1444D01*
X-919Y-224454D01*
X131Y-224979D02*
X1180D01*
X655D01*
Y-221830D01*
X131Y-222355D01*
X2755D02*
X3279Y-221830D01*
X4329D01*
X4854Y-222355D01*
Y-222880D01*
X4329Y-223405D01*
X3804D01*
X4329D01*
X4854Y-223930D01*
Y-224454D01*
X4329Y-224979D01*
X3279D01*
X2755Y-224454D01*
X-31475Y-176198D02*
X-31999Y-175674D01*
X-33049D01*
X-33574Y-176198D01*
Y-178298D01*
X-33049Y-178822D01*
X-31999D01*
X-31475Y-178298D01*
X-30425D02*
X-29901Y-178822D01*
X-28851D01*
X-28326Y-178298D01*
Y-176198D01*
X-28851Y-175674D01*
X-29901D01*
X-30425Y-176198D01*
Y-176723D01*
X-29901Y-177248D01*
X-28326D01*
X-22813Y-176198D02*
X-23338Y-175674D01*
X-24388D01*
X-24912Y-176198D01*
Y-178298D01*
X-24388Y-178822D01*
X-23338D01*
X-22813Y-178298D01*
X-21764Y-176198D02*
X-21239Y-175674D01*
X-20189D01*
X-19665Y-176198D01*
Y-176723D01*
X-20189Y-177248D01*
X-19665Y-177773D01*
Y-178298D01*
X-20189Y-178822D01*
X-21239D01*
X-21764Y-178298D01*
Y-177773D01*
X-21239Y-177248D01*
X-21764Y-176723D01*
Y-176198D01*
X-21239Y-177248D02*
X-20189D01*
X-12971Y-176198D02*
X-13496Y-175674D01*
X-14545D01*
X-15070Y-176198D01*
Y-178298D01*
X-14545Y-178822D01*
X-13496D01*
X-12971Y-178298D01*
X-11921Y-175674D02*
X-9822D01*
Y-176198D01*
X-11921Y-178298D01*
Y-178822D01*
X-5097Y-176198D02*
X-5622Y-175674D01*
X-6671D01*
X-7196Y-176198D01*
Y-178298D01*
X-6671Y-178822D01*
X-5622D01*
X-5097Y-178298D01*
X-1948Y-175674D02*
X-2998Y-176198D01*
X-4047Y-177248D01*
Y-178298D01*
X-3523Y-178822D01*
X-2473D01*
X-1948Y-178298D01*
Y-177773D01*
X-2473Y-177248D01*
X-4047D01*
D15*
X96063Y-287206D02*
X99999D01*
X93622Y-134962D02*
X97558D01*
X95590Y-132994D02*
Y-136929D01*
X96260Y-257088D02*
X100196D01*
X98228Y-255120D02*
Y-259055D01*
X93228Y-106418D02*
X97164D01*
M02*
