**ABCDEFGHIJKLMNOPQRSTUVWXYZabcdefghijklmnopqrstuvwxyz**************************
**PARASOLID !"#$%&'()*+,-./:;<=>?@[\]^_`{|}~0123456789**************************
**PART1;
MC=AMD64;
MC_MODEL=Intel64 Family 6 Model 186 Stepping 2, GenuineIntel;
MC_ID=unknown;
OS=Windows_NT;
OS_RELEASE=unknown;
FRU=CAD Exchanger 3.23.0 (cadexchanger.com);
APPL=unknown;
SITE=unknown;
USER=unknown;
FORMAT=text;
GUISE=transmit;
KEY=0805L002YR_0805L002YR;
FILE=0805L002YR_0805L002YR.x_t;
DATE=Sat May  4 21:51:29 2024;
**PART2;
SCH=SCH_1200000_12103;
USFLD_SIZE=0;
**PART3;
**END_OF_HEADER*****************************************************************
T51 : TRANSMIT FILE created by modeller version 120000017 SCH_1200000_121030 12
 1 236 0 2 0 0 0 0 1000.0 1.0e-08 0 0 0 1 0 1 1 11 13 19 17 8 18 16 70 2 0 1 0 0
 4 1 20 0 3 3 1 T74 20 3 1 0 4 0 0 0 0 0 0 0 0 0 0 0 0 0 0 0 0 0 0 0 81 1 4 7 5
 12 0 0 113 0 7 80 1 5 0 6 8001 0 0 0 0 3 5 0 0 0 FFFFTFTFFFFFFF2 79 15 6 SDL/TY
SA_COLOUR83 3 7 0.666666984558106 0.705882012844086 0.764706015586853 19 8 1 0 1
 10 0 9 V13 9 2 0 1 0 0 0 0 8 12 19 10 3 0 1 0 8 11 S13 11 4 0 1 0 12 0 0 10 0 1
4 12 5 4 1.0e-08 111 0 14 11 13 -0 0 111 0 9 50 13 6 0 12 112 0 0 +-2.500122e-05
 -6.250000200000001e-04 0.0 1.499759782661858e-32 6.123233995736766e-17 1.0 1.0
 -2.449293598294707e-16 0.0 15 14 8 0 15 12 0 17 15 0 14 23 107 16 20 18 0 0 +18
 16 9 0 174 0 21 17 ?1 29 17 10 0 16 22 0 -8.253925492620002e-04 -0.00136500002
 4.531193156845207e-20 16 18 11 0 ?15 0 26 19 0 0 1 30 19 12 0 18 27 0 0 +7.7539
01092619997e-04 -0.00136500002 4.531193156845207e-20 -1.0 2.449293598294707e-16
 0.0 17 20 0 173 119 174 21 15 18 0 116 -18 21 13 0 107 16 24 22 ?1 29 22 14 0 2
1 25 17 7.753901092619997e-04 -0.00136500002 4.531193156845207e-20 17 23 0 14 29
 15 24 28 26 0 0 -18 24 15 0 34 21 30 25 ?1 29 25 16 0 24 31 22 -8.2539254926200
02e-04 -0.00137500002 4.592425496802574e-20 16 26 17 0 ?28 18 32 27 0 0 1 30 27
 18 0 26 33 19 0 +-8.253925492620002e-04 -0.00137500002 4.592425496802574e-20 2.
449293598294707e-16 1.0 -6.123233995736766e-17 17 28 0 182 177 191 16 23 26 0 15
 +17 29 0 14 35 23 30 34 32 0 301 -18 30 19 0 40 24 36 31 ?1 29 31 20 0 30 37 25
 -0.001125392549262 -0.00137500002 4.592425496802574e-20 16 32 21 0 ?34 26 38 33
 0 0 1 30 33 22 0 32 39 27 0 +-0.001125392549262 -0.00137500002 4.59242549680257
4e-20 1.0 -2.449293598294707e-16 0.0 17 34 0 300 194 301 24 29 32 0 191 +17 35 0
 14 41 29 36 40 38 0 46 -18 36 23 0 35 30 42 37 ?1 29 37 24 0 36 43 31 -0.001125
392549262 -8.250000199999997e-04 1.224646799147353e-20 16 38 25 0 ?40 32 44 39 0
 0 1 30 39 26 0 38 45 33 0 +-0.001125392549262 -8.250000199999997e-04 1.22464679
9147353e-20 -2.449293598294707e-16 -1.0 6.123233995736766e-17 17 40 0 332 304 33
3 30 35 38 0 29 +17 41 0 14 47 35 42 46 44 0 342 -18 42 27 0 52 36 48 43 ?1 29 4
3 28 0 42 49 37 -0.001125392549262 -4.250000199999997e-04 -1.224646799147353e-20
 16 44 29 0 ?46 38 50 45 0 0 1 31 45 30 0 44 51 39 0 +-0.001125392549262 -6.2500
00199999998e-04 0.0 -1.499759782661858e-32 -6.123233995736766e-17 -1.0 2.4492935
98294707e-16 1.0 -6.123233995736766e-17 2.0e-04 17 46 0 341 336 342 36 41 44 0 3
33 +17 47 0 14 53 41 48 52 50 0 0 -18 48 31 0 213 42 54 49 ?1 29 49 32 0 48 55 4
3 -0.001125392549262 1.249999800000003e-04 -4.592425496802574e-20 16 50 33 0 ?52
 44 56 51 0 0 1 30 51 34 0 50 57 45 0 +-0.001125392549262 1.249999800000003e-04
 -4.592425496802574e-20 -2.449293598294707e-16 -1.0 6.123233995736766e-17 17 52
 0 350 345 213 42 47 50 0 41 +17 53 0 14 59 47 54 58 56 0 0 -18 54 35 0 202 48 6
0 55 ?1 29 55 36 0 54 61 49 -8.253925492619999e-04 1.249999800000003e-04 -4.5924
25496802574e-20 16 56 37 0 ?58 50 62 57 0 0 1 30 57 38 0 56 63 51 0 +-8.25392549
2619999e-04 1.249999800000003e-04 -4.592425496802574e-20 -1.0 2.449293598294707e
-16 0.0 17 58 0 207 208 202 48 53 56 0 47 +17 59 0 14 65 53 60 64 62 0 0 +18 60
 39 0 195 54 66 61 ?1 29 61 40 0 60 67 55 -8.253925492619999e-04 1.1499998000000
02e-04 -4.531193156845207e-20 16 62 41 0 ?59 56 68 63 0 0 1 30 63 42 0 62 69 57
 0 +-8.253925492619999e-04 1.249999800000003e-04 -4.592425496802574e-20 -2.44929
3598294707e-16 -1.0 6.123233995736766e-17 17 64 0 182 199 195 54 59 62 0 53 -17
 65 0 14 71 59 66 70 68 0 143 +18 66 43 0 76 60 72 67 ?1 29 67 44 0 66 73 61 7.7
53901092620001e-04 1.149999799999998e-04 -4.531193156845207e-20 16 68 45 0 ?65 6
2 74 69 0 0 1 30 69 46 0 68 75 63 0 +-8.253925492619999e-04 1.149999800000002e-0
4 -4.531193156845207e-20 1.0 -2.449293598294707e-16 0.0 17 70 0 355 198 143 60 6
5 68 0 59 -17 71 0 14 77 65 72 76 74 0 134 -18 72 47 0 82 66 78 73 ?1 29 73 48 0
 72 79 67 7.753901092620001e-04 1.249999799999998e-04 -4.592425496802574e-20 16
 74 49 0 ?76 68 80 75 0 0 1 30 75 50 0 74 81 69 0 +7.753901092620001e-04 1.24999
9799999998e-04 -4.592425496802574e-20 -2.449293598294707e-16 -1.0 6.123233995736
766e-17 17 76 0 115 138 134 66 71 74 0 65 +17 77 0 14 83 71 78 82 80 0 229 -18 7
8 51 0 88 72 84 79 ?1 29 79 52 0 78 85 73 0.001075390109262 1.249999799999998e-0
4 -4.592425496802574e-20 16 80 53 0 ?82 74 86 81 0 0 1 30 81 54 0 80 87 75 0 +0.
001075390109262 1.249999799999998e-04 -4.592425496802574e-20 -1.0 2.449293598294
707e-16 0.0 17 82 0 222 137 229 72 77 80 0 71 +17 83 0 14 89 77 84 88 86 0 322 -
18 84 55 0 94 78 90 85 ?1 29 85 56 0 84 91 79 0.001075390109262 -4.2500002000000
02e-04 -1.224646799147353e-20 16 86 57 0 ?88 80 92 87 0 0 1 30 87 58 0 86 93 81
 0 +0.001075390109262 -4.250000200000002e-04 -1.224646799147353e-20 2.4492935982
94707e-16 1.0 -6.123233995736766e-17 17 88 0 327 232 322 78 83 86 0 77 +17 89 0
 14 95 83 90 94 92 0 313 -18 90 59 0 100 84 96 91 ?1 29 91 60 0 90 97 85 0.00107
5390109262 -8.250000200000002e-04 1.224646799147353e-20 16 92 61 0 ?94 86 98 93
 0 0 1 31 93 62 0 92 99 87 0 +0.001075390109262 -6.250000200000002e-04 0.0 -1.49
9759782661858e-32 -6.123233995736766e-17 -1.0 -2.449293598294707e-16 -1.0 6.1232
33995736766e-17 2.0e-04 17 94 0 318 319 313 84 89 92 0 83 +17 95 0 14 101 89 96
 100 98 0 295 -18 96 63 0 106 90 102 97 ?1 29 97 64 0 96 103 91 0.00107539010926
2 -0.00137500002 4.592425496802574e-20 16 98 65 0 ?100 92 104 99 0 0 1 30 99 66
 0 98 105 93 0 +0.001075390109262 -0.00137500002 4.592425496802574e-20 2.4492935
98294707e-16 1.0 -6.123233995736766e-17 17 100 0 309 310 295 90 95 98 0 89 +17 1
01 0 14 107 95 102 106 104 0 127 -18 102 67 0 110 96 120 103 ?1 29 103 68 0 102
 121 97 7.753901092619997e-04 -0.00137500002 4.592425496802574e-20 16 104 69 0 ?
106 98 108 105 0 0 1 30 105 70 0 104 109 99 0 +7.753901092619997e-04 -0.00137500
002 4.592425496802574e-20 1.0 -2.449293598294707e-16 0.0 17 106 0 291 292 127 96
 101 104 0 95 +17 107 0 14 15 101 21 110 108 0 20 +16 108 71 0 ?107 104 117 109
 0 0 1 30 109 72 0 108 118 105 0 +7.753901092619997e-04 -0.00137500002 4.5924254
96802574e-20 2.449293598294707e-16 1.0 -6.123233995736766e-17 17 110 0 115 122 1
16 102 107 108 0 101 -14 111 73 113 1.0e-08 148 12 115 11 112 -0 0 148 12 9 50 1
12 74 0 111 149 13 0 +7.753901092619997e-04 -0.00137500002 0.00125 1.0 -2.449293
598294707e-16 0.0 2.449293598294707e-16 1.0 -6.123233995736766e-17 81 1 113 75 5
 111 0 0 150 4 114 83 3 114 0.666666984558106 0.705882012844086 0.76470601558685
3 15 115 76 0 116 111 0 17 116 0 115 110 144 21 119 117 0 0 +16 117 77 0 ?116 10
8 125 118 0 0 1 30 118 78 0 117 126 109 0 +7.753901092619997e-04 -0.00136500002
 0.00124 -1.499759782661858e-32 -6.123233995736766e-17 -1.0 17 119 0 173 168 20
 120 116 117 0 165 -18 120 79 0 144 102 123 121 ?1 29 121 80 0 120 124 103 7.753
901092619997e-04 -0.00136500002 0.00124 17 122 0 115 128 110 123 127 125 0 270 -
18 123 81 0 133 120 129 124 ?1 29 124 82 0 123 130 121 7.753901092619997e-04 -0.
00137500002 0.00125 16 125 83 0 ?127 117 131 126 0 0 1 30 126 84 0 125 132 118 0
 +7.753901092619997e-04 -0.00137500002 0.00125 -1.499759782661858e-32 -6.1232339
95736766e-17 -1.0 17 127 0 291 106 270 102 122 125 0 0 +17 128 0 115 134 122 129
 133 131 0 0 +18 129 85 0 137 123 139 130 ?1 29 130 86 0 129 140 124 7.753901092
620001e-04 1.249999799999999e-04 0.00125 16 131 87 0 ?128 125 135 132 0 0 1 30 1
32 88 0 131 136 126 0 +7.753901092619997e-04 -0.00137500002 0.00125 2.4492935982
94707e-16 1.0 -6.123233995736766e-17 17 133 0 264 265 228 123 128 131 0 122 -17
 134 0 115 76 128 72 137 135 0 0 -16 135 89 0 ?137 131 141 136 0 0 1 30 136 90 0
 135 142 132 0 +7.753901092620001e-04 1.249999799999998e-04 -4.592425496802574e-
20 1.499759782661858e-32 6.123233995736766e-17 1.0 17 137 0 222 223 82 129 134 1
35 0 228 +17 138 0 115 144 76 139 143 141 0 0 -18 139 91 0 158 129 154 140 ?1 29
 140 92 0 139 155 130 7.753901092620001e-04 1.149999799999999e-04 0.00124 16 141
 93 0 ?143 135 145 142 0 0 1 30 142 94 0 141 146 136 0 +7.753901092620001e-04 1.
149999799999999e-04 0.00124 -1.499759782661858e-32 -6.123233995736766e-17 -1.0 1
7 143 0 355 70 158 66 138 141 0 0 +17 144 0 115 116 138 120 147 145 0 119 -16 14
5 95 0 ?147 141 156 146 0 0 1 30 146 96 0 145 157 142 0 +7.753901092619997e-04 -
0.00136500002 0.00124 2.449293598294707e-16 1.0 -6.123233995736766e-17 17 147 0
 152 153 165 139 144 145 0 138 +14 148 97 150 1.0e-08 169 111 152 11 149 +0 0 16
9 111 9 50 149 98 0 148 170 112 0 +-2.500122e-05 -6.2500002e-04 0.00124 1.499759
782661858e-32 6.123233995736766e-17 1.0 1.0 -2.449293598294707e-16 0.0 81 1 150
 99 5 148 0 0 171 113 151 83 3 151 0.0 0.0 0.0 15 152 100 0 147 148 0 17 153 0 1
52 159 147 154 158 156 0 198 -18 154 101 0 153 139 160 155 ?1 29 155 102 0 154 1
61 140 -8.253925492619999e-04 1.149999800000002e-04 0.00124 16 156 103 0 ?158 14
5 162 157 0 0 1 30 157 104 0 156 163 146 0 +-8.253925492619999e-04 1.14999980000
0002e-04 0.00124 1.0 -2.449293598294707e-16 0.0 17 158 0 355 143 198 139 153 156
 0 147 +17 159 0 152 165 153 160 164 162 0 0 +18 160 105 0 177 154 184 161 ?1 29
 161 106 0 160 185 155 -8.253925492620002e-04 -0.00136500002 0.00124 16 162 107
 0 ?159 156 166 163 0 0 1 30 163 108 0 162 167 157 0 +-8.253925492619999e-04 1.1
49999800000002e-04 0.00124 -2.449293598294707e-16 -1.0 6.123233995736766e-17 17
 164 0 182 195 177 154 159 162 0 0 -17 165 0 152 147 159 120 168 166 0 0 +16 166
 109 0 ?165 162 175 167 0 0 1 30 167 110 0 166 176 163 0 +-8.253925492620002e-04
 -0.00136500002 0.00124 1.0 -2.449293598294707e-16 0.0 17 168 0 173 174 119 160
 165 166 0 159 -14 169 111 171 1.0e-08 178 148 173 11 170 -0 0 178 148 9 50 170
 112 0 169 179 149 0 +7.753901092619997e-04 -0.00136500002 0.00124 2.44929359829
4707e-16 1.0 -6.123233995736766e-17 -1.0 2.449293598294707e-16 0.0 81 1 171 113
 5 169 0 0 180 150 172 83 3 172 0.0 0.0 0.0 15 173 114 0 119 169 0 17 174 0 173
 20 168 16 177 175 0 28 +16 175 115 0 ?174 166 186 176 0 0 1 30 176 116 0 175 18
7 167 0 +-8.253925492620002e-04 -0.00136500002 0.00124 -1.499759782661858e-32 -6
.123233995736766e-17 -1.0 17 177 0 182 164 28 160 174 175 0 168 -14 178 117 180
 1.0e-08 203 169 182 11 179 -0 0 203 169 9 50 179 118 0 178 204 170 0 +-8.253925
492619999e-04 1.249999800000003e-04 0.00125 -1.0 2.449293598294707e-16 0.0 -2.44
9293598294707e-16 -1.0 6.123233995736766e-17 81 1 180 119 5 178 0 0 205 171 181
 83 3 181 0.666666984558106 0.705882012844086 0.764706015586853 15 182 120 0 183
 178 0 17 183 0 182 191 199 184 188 186 0 256 -18 184 121 0 194 160 189 185 ?1 2
9 185 122 0 184 190 161 -8.253925492620002e-04 -0.00137500002 0.00125 16 186 123
 0 ?188 175 192 187 0 0 1 30 187 124 0 186 193 176 0 +-8.253925492620002e-04 -0.
00137500002 0.00125 2.449293598294707e-16 1.0 -6.123233995736766e-17 17 188 0 23
7 217 256 189 183 186 0 214 +18 189 125 0 199 184 209 190 ?1 29 190 126 0 189 21
0 185 -8.253925492619999e-04 1.249999800000003e-04 0.00125 17 191 0 182 28 183 2
4 194 192 0 23 -16 192 127 0 ?194 186 196 193 0 0 1 30 193 128 0 192 197 187 0 +
-8.253925492620002e-04 -0.00137500002 4.592425496802574e-20 1.499759782661858e-3
2 6.123233995736766e-17 1.0 17 194 0 300 259 34 184 191 192 0 183 +17 195 0 182
 64 164 60 198 196 0 70 +16 196 129 0 ?195 192 200 197 0 0 1 30 197 130 0 196 20
1 193 0 +-8.253925492619999e-04 1.149999800000002e-04 0.00124 -1.499759782661858
e-32 -6.123233995736766e-17 -1.0 17 198 0 355 158 70 154 195 196 0 164 -17 199 0
 182 183 64 189 202 200 0 188 -16 200 131 0 ?202 196 211 201 0 0 1 30 201 132 0
 200 212 197 0 +-8.253925492619999e-04 1.249999800000003e-04 0.00125 -1.49975978
2661858e-32 -6.123233995736766e-17 -1.0 17 202 0 207 58 214 54 199 200 0 64 +14
 203 133 205 1.0e-08 218 178 207 11 204 +0 0 218 178 9 50 204 134 0 203 219 179
 0 +0.001075390109262 1.249999799999998e-04 -4.592425496802575e-20 2.44929359829
4707e-16 1.0 -6.123233995736766e-17 -1.0 2.449293598294707e-16 0.0 81 1 205 135
 5 203 0 0 220 180 206 83 3 206 0.666666984558106 0.705882012844086 0.7647060155
86853 15 207 136 0 58 203 0 17 208 0 207 214 58 209 213 211 0 243 +18 209 137 0
 217 189 224 210 ?1 29 210 138 0 209 225 190 -0.001125392549262 1.24999980000000
3e-04 0.00125 16 211 139 0 ?208 200 215 212 0 0 1 30 212 140 0 211 216 201 0 +-0
.001125392549262 1.249999800000003e-04 -4.592425496802574e-20 1.499759782661858e
-32 6.123233995736766e-17 1.0 17 213 0 350 52 243 48 208 211 0 58 -17 214 0 207
 202 208 189 217 215 0 0 -16 215 141 0 ?217 211 226 216 0 0 1 30 216 142 0 215 2
27 212 0 +-8.253925492619999e-04 1.249999800000003e-04 0.00125 -1.0 2.4492935982
94707e-16 0.0 17 217 0 237 238 188 209 214 215 0 208 +14 218 143 220 1.0e-08 233
 203 222 11 219 +0 0 233 203 9 50 219 144 0 218 234 204 0 +0.001075390109262 1.2
49999799999998e-04 -4.592425496802575e-20 2.449293598294707e-16 1.0 -6.123233995
736766e-17 -1.0 2.449293598294707e-16 0.0 81 1 220 145 5 218 0 0 235 205 221 83
 3 221 0.666666984558106 0.705882012844086 0.764706015586853 15 222 146 0 223 21
8 0 17 223 0 222 229 137 224 228 226 0 283 -18 224 147 0 232 209 239 225 ?1 29 2
25 148 0 224 240 210 0.001075390109262 1.249999799999998e-04 0.00125 16 226 149
 0 ?228 215 230 227 0 0 1 30 227 150 0 226 231 216 0 +0.001075390109262 1.249999
799999998e-04 0.00125 -1.0 2.449293598294707e-16 0.0 17 228 0 264 133 283 129 22
3 226 0 128 +17 229 0 222 82 223 78 232 230 0 0 -16 230 151 0 ?232 226 241 231 0
 0 1 30 231 152 0 230 242 227 0 +0.001075390109262 1.249999799999998e-04 -4.5924
25496802574e-20 1.499759782661858e-32 6.123233995736766e-17 1.0 17 232 0 327 286
 88 224 229 230 0 223 +14 233 153 235 1.0e-08 260 218 237 11 234 +0 0 260 218 9
 50 234 154 0 233 261 219 0 +-2.500122e-05 -6.2500002e-04 0.00125 1.499759782661
858e-32 6.123233995736766e-17 1.0 1.0 -2.449293598294707e-16 0.0 81 1 235 155 5
 233 0 0 262 220 236 83 3 236 0.666666984558106 0.705882012844086 0.764706015586
853 15 237 156 0 217 233 0 17 238 0 237 244 217 239 243 241 0 345 +18 239 157 0
 249 224 245 240 ?1 29 240 158 0 239 246 225 -0.001125392549262 -4.2500001999999
96e-04 0.00125 16 241 159 0 ?238 230 247 242 0 0 1 30 242 160 0 241 248 231 0 +-
0.001125392549262 1.249999800000003e-04 0.00125 -2.449293598294707e-16 -1.0 6.12
3233995736766e-17 17 243 0 350 213 345 209 238 241 0 0 -17 244 0 237 250 238 245
 249 247 0 336 +18 245 161 0 255 239 251 246 ?1 29 246 162 0 245 252 240 -0.0011
25392549262 -8.250000199999995e-04 0.00125 16 247 163 0 ?244 241 253 248 0 0 1 3
1 248 164 0 247 254 242 0 +-0.001125392549262 -6.250000199999997e-04 0.00125 -1.
499759782661858e-32 -6.123233995736766e-17 -1.0 2.449293598294707e-16 1.0 -6.123
233995736766e-17 2.0e-04 17 249 0 341 342 336 239 244 247 0 238 -17 250 0 237 25
6 244 251 255 253 0 304 +18 251 165 0 259 245 266 252 ?1 29 252 166 0 251 267 24
6 -0.001125392549262 -0.00137500002 0.00125 16 253 167 0 ?250 247 257 254 0 0 1
 30 254 168 0 253 258 248 0 +-0.001125392549262 -8.250000199999995e-04 0.00125 -
2.449293598294707e-16 -1.0 6.123233995736766e-17 17 255 0 332 333 304 245 250 25
3 0 244 -17 256 0 237 188 250 184 259 257 0 0 +16 257 169 0 ?256 253 268 258 0 0
 1 30 258 170 0 257 269 254 0 +-0.001125392549262 -0.00137500002 0.00125 1.0 -2.
449293598294707e-16 0.0 17 259 0 300 301 194 251 256 257 0 250 -14 260 171 262 1
.0e-08 287 233 264 11 261 +0 0 287 233 9 50 261 172 0 260 288 234 0 +-2.500122e-
05 -6.2500002e-04 0.00125 1.499759782661858e-32 6.123233995736766e-17 1.0 1.0 -2
.449293598294707e-16 0.0 81 1 262 173 5 260 0 0 289 235 263 83 3 263 0.666666984
558106 0.705882012844086 0.764706015586853 15 264 174 0 265 260 0 17 265 0 264 2
71 133 266 270 268 0 276 +18 266 175 0 292 251 272 267 ?1 29 267 176 0 266 273 2
52 0.001075390109262 -0.00137500002 0.00125 16 268 177 0 ?265 257 274 269 0 0 1
 30 269 178 0 268 275 258 0 +7.753901092619997e-04 -0.00137500002 0.00125 1.0 -2
.449293598294707e-16 0.0 17 270 0 291 127 292 123 265 268 0 0 -17 271 0 264 277
 265 272 276 274 0 0 +18 272 179 0 310 266 278 273 ?1 29 273 180 0 272 279 267 0
.001075390109262 -8.250000200000001e-04 0.00125 16 274 181 0 ?271 268 280 275 0
 0 1 30 275 182 0 274 281 269 0 +0.001075390109262 -0.00137500002 0.00125 2.4492
93598294707e-16 1.0 -6.123233995736766e-17 17 276 0 309 295 310 266 271 274 0 0
 -17 277 0 264 283 271 278 282 280 0 0 +18 278 183 0 319 272 0 279 ?1 29 279 184
 0 278 0 273 0.001075390109262 -4.250000200000001e-04 0.00125 16 280 185 0 ?277
 274 284 281 0 0 1 31 281 186 0 280 285 275 0 +0.001075390109262 -6.250000200000
002e-04 0.00125 -1.499759782661858e-32 -6.123233995736766e-17 -1.0 -2.4492935982
94707e-16 -1.0 6.123233995736766e-17 2.0e-04 17 282 0 318 313 319 272 277 280 0
 271 -17 283 0 264 228 277 224 286 284 0 0 +16 284 187 0 ?283 280 293 285 0 0 1
 30 285 188 0 284 294 281 0 +0.001075390109262 -4.250000200000001e-04 0.00125 2.
449293598294707e-16 1.0 -6.123233995736766e-17 17 286 0 327 322 232 278 283 284
 0 277 -14 287 189 289 1.0e-08 296 260 291 11 288 +0 0 296 260 9 50 288 190 0 28
7 297 261 0 +-0.001125392549262 -0.00137500002 4.592425496802575e-20 -2.44929359
8294707e-16 -1.0 6.123233995736766e-17 1.0 -2.449293598294707e-16 0.0 81 1 289 1
91 5 287 0 0 298 262 290 83 3 290 0.666666984558106 0.705882012844086 0.76470601
5586853 15 291 192 0 106 287 0 17 292 0 291 270 106 266 295 293 0 265 +16 293 19
3 0 ?292 284 302 294 0 0 1 30 294 194 0 293 303 285 0 +0.001075390109262 -0.0013
7500002 4.592425496802574e-20 1.499759782661858e-32 6.123233995736766e-17 1.0 17
 295 0 309 100 276 96 292 293 0 0 -14 296 195 298 1.0e-08 305 287 300 11 297 +0
 0 305 287 9 50 297 196 0 296 306 288 0 +-0.001125392549262 -0.00137500002 4.592
425496802575e-20 -2.449293598294707e-16 -1.0 6.123233995736766e-17 1.0 -2.449293
598294707e-16 0.0 81 1 298 197 5 296 0 0 307 289 299 83 3 299 0.666666984558106
 0.705882012844086 0.764706015586853 15 300 198 0 259 296 0 17 301 0 300 34 259
 30 304 302 0 0 -16 302 199 0 ?304 293 311 303 0 0 1 30 303 200 0 302 312 294 0
 +-0.001125392549262 -0.00137500002 4.592425496802574e-20 1.499759782661858e-32
 6.123233995736766e-17 1.0 17 304 0 332 255 40 251 301 302 0 0 +14 305 201 307 1
.0e-08 314 296 309 11 306 +0 0 314 296 9 50 306 202 0 305 315 297 0 +0.001075390
109262 -0.00137500002 4.592425496802575e-20 1.0 -2.449293598294707e-16 0.0 2.449
293598294707e-16 1.0 -6.123233995736766e-17 81 1 307 203 5 305 0 0 316 298 308 8
3 3 308 0.666666984558106 0.705882012844086 0.764706015586853 15 309 204 0 310 3
05 0 17 310 0 309 276 100 272 313 311 0 282 +16 311 205 0 ?310 302 320 312 0 0 1
 30 312 206 0 311 321 303 0 +0.001075390109262 -8.250000200000002e-04 1.22464679
9147353e-20 1.499759782661858e-32 6.123233995736766e-17 1.0 17 313 0 318 94 282
 90 310 311 0 0 -14 314 207 316 1.0e-08 323 305 318 11 315 -0 0 323 305 9 51 315
 208 0 314 324 306 0 +0.001075390109262 -6.250000200000002e-04 0.0 1.49975978266
1858e-32 6.123233995736766e-17 1.0 2.0e-04 1.0 -2.449293598294707e-16 0.0 81 1 3
16 209 5 314 0 0 325 307 317 83 3 317 0.666666984558106 0.705882012844086 0.7647
06015586853 15 318 210 0 319 314 0 17 319 0 318 282 94 278 322 320 0 286 +16 320
 211 0 ?319 311 334 321 0 0 1 30 321 212 0 320 335 312 0 +0.001075390109262 -4.2
50000200000002e-04 -1.224646799147353e-20 1.499759782661858e-32 6.12323399573676
6e-17 1.0 17 322 0 327 88 286 84 319 320 0 0 -14 323 213 325 1.0e-08 328 314 327
 11 324 +0 0 328 314 9 50 324 214 0 323 329 315 0 +0.001075390109262 -4.25000020
0000002e-04 -1.224646799147353e-20 1.0 -2.449293598294707e-16 0.0 2.449293598294
707e-16 1.0 -6.123233995736766e-17 81 1 325 215 5 323 0 0 330 316 326 83 3 326 0
.666666984558106 0.705882012844086 0.764706015586853 15 327 216 0 232 323 0 14 3
28 217 330 1.0e-08 337 323 332 11 329 +0 0 337 323 9 50 329 218 0 328 338 324 0
 +-0.001125392549262 -8.250000199999997e-04 1.224646799147353e-20 -1.0 2.4492935
98294707e-16 0.0 -2.449293598294707e-16 -1.0 6.123233995736766e-17 81 1 330 219
 5 328 0 0 339 325 331 83 3 331 0.666666984558106 0.705882012844086 0.7647060155
86853 15 332 220 0 304 328 0 17 333 0 332 40 255 36 336 334 0 0 -16 334 221 0 ?3
36 320 343 335 0 0 1 30 335 222 0 334 344 321 0 +-0.001125392549262 -8.250000199
999997e-04 1.224646799147353e-20 1.499759782661858e-32 6.123233995736766e-17 1.0
 17 336 0 341 249 46 245 333 334 0 0 +14 337 223 339 1.0e-08 346 328 341 11 338
 -0 0 346 328 9 51 338 224 0 337 347 329 0 +-0.001125392549262 -6.25000019999999
8e-04 0.0 1.499759782661858e-32 6.123233995736766e-17 1.0 2.0e-04 1.0 -2.4492935
98294707e-16 0.0 81 1 339 225 5 337 0 0 348 330 340 83 3 340 0.666666984558106 0
.705882012844086 0.764706015586853 15 341 226 0 336 337 0 17 342 0 341 46 249 42
 345 343 0 0 -16 343 227 0 ?345 334 0 344 0 0 1 30 344 228 0 343 0 335 0 +-0.001
125392549262 -4.250000199999997e-04 -1.224646799147353e-20 1.499759782661858e-32
 6.123233995736766e-17 1.0 17 345 0 350 243 52 239 342 343 0 0 +14 346 229 348 1
.0e-08 351 337 350 11 347 +0 0 351 337 9 50 347 230 0 346 352 338 0 +-0.00112539
2549262 1.249999800000003e-04 -4.592425496802575e-20 -1.0 2.449293598294707e-16
 0.0 -2.449293598294707e-16 -1.0 6.123233995736766e-17 81 1 348 231 5 346 0 0 35
3 339 349 83 3 349 0.666666984558106 0.705882012844086 0.764706015586853 15 350
 232 0 345 346 0 14 351 233 353 1.0e-08 0 346 355 11 352 -0 0 0 346 9 50 352 234
 0 351 0 347 0 +-8.253925492619999e-04 1.149999800000002e-04 0.00124 -2.44929359
8294707e-16 -1.0 6.123233995736766e-17 1.0 -2.449293598294707e-16 0.0 81 1 353 2
35 5 351 0 0 0 348 354 83 3 354 0.0 0.0 0.0 15 355 236 0 198 351 0 1 0 
