**ABCDEFGHIJKLMNOPQRSTUVWXYZabcdefghijklmnopqrstuvwxyz**************************
**PARASOLID !"#$%&'()*+,-./:;<=>?@[\]^_`{|}~0123456789**************************
**PART1;
MC=AMD64;
MC_MODEL=Intel64 Family 6 Model 186 Stepping 2, GenuineIntel;
MC_ID=unknown;
OS=Windows_NT;
OS_RELEASE=unknown;
FRU=CAD Exchanger 3.23.0 (cadexchanger.com);
APPL=unknown;
SITE=unknown;
USER=unknown;
FORMAT=text;
GUISE=transmit;
KEY=3587TR_3587TR;
FILE=3587TR_3587TR.x_t;
DATE=Sat May  4 21:51:43 2024;
**PART2;
SCH=SCH_1200000_12103;
USFLD_SIZE=0;
**PART3;
**END_OF_HEADER*****************************************************************
T51 : TRANSMIT FILE created by modeller version 120000017 SCH_1200000_121030 74
 5 1 5 0 2 105 206 307 408 12 2 68 0 3 0 0 0 0 1000.0 1.0e-08 0 0 0 1 0 1 1 12 1
4 20 18 9 19 17 70 3 0 2 0 0 4 1 20 0 4 4 1 T74 20 4 1 0 5 0 0 0 0 0 0 0 0 0 0 0
 0 0 0 0 0 0 0 0 81 1 5 7 6 13 0 0 42 0 8 80 1 6 0 7 8001 0 0 0 0 3 5 0 0 0 FFFF
TFTFFFFFFF2 79 15 7 SDL/TYSA_COLOUR83 3 8 0.300000011920929 0.300000011920929 0.
300000011920929 19 9 1 0 2 11 0 10 V13 10 2 0 2 0 0 0 0 9 13 19 11 3 0 2 0 9 12
 S13 12 4 0 2 0 13 0 0 11 0 14 13 5 5 1.0e-08 40 0 15 12 14 +0 0 40 0 10 50 14 6
 0 13 41 0 0 +-0.0099 0.00335 1.0e-04 2.449293598294707e-16 1.0 0.0 1.0 -2.44929
3598294707e-16 0.0 15 15 8 0 16 13 0 17 16 0 15 24 36 17 21 19 0 29 +18 17 9 0 1
6 0 22 18 ?2 29 18 10 0 17 23 0 -0.0099 0.00335 0.0075 16 19 11 0 ?16 0 27 20 0
 0 2 30 20 12 0 19 28 0 0 +-0.0099 0.00335 1.0e-04 0.0 0.0 1.0 17 21 0 86 91 87
 22 16 19 0 36 -18 22 13 0 21 17 25 23 ?2 29 23 14 0 22 26 18 -0.0099 0.00335 1.
0e-04 17 24 0 15 30 16 25 29 27 0 50 +18 25 15 0 24 22 31 26 ?2 29 26 16 0 25 32
 23 0.0099 0.00335 0.0075 16 27 17 0 ?24 19 33 28 0 0 2 30 28 18 0 27 34 20 0 +-
0.0099 0.00335 0.0075 1.0 -2.449293598294707e-16 0.0 17 29 0 104 90 50 17 24 27
 0 87 -17 30 0 15 36 24 31 35 33 0 0 -18 31 19 0 39 25 46 32 ?2 29 32 20 0 31 47
 26 0.0099 0.00335 1.0e-04 16 33 21 0 ?35 27 37 34 0 0 2 30 34 22 0 33 38 28 0 +
0.0099 0.00335 1.0e-04 0.0 0.0 1.0 17 35 0 44 45 57 25 30 33 0 0 +17 36 0 15 16
 30 22 39 37 0 94 -16 37 23 0 ?39 33 48 38 0 0 2 30 38 24 0 37 49 34 0 +-0.0099
 0.00335 1.0e-04 1.0 -2.449293598294707e-16 0.0 17 39 0 99 60 94 31 36 37 0 57 +
14 40 25 42 1.0e-08 61 13 44 12 41 +0 0 61 13 10 50 41 26 0 40 62 14 0 +0.0099 0
.00335 1.0e-04 1.0 -2.449293598294707e-16 0.0 -2.449293598294707e-16 -1.0 0.0 81
 1 42 27 6 40 0 0 63 5 43 83 3 43 0.300000011920929 0.300000011920929 0.30000001
1920929 15 44 28 0 35 40 0 17 45 0 44 51 35 46 50 48 0 71 +18 46 29 0 45 31 52 4
7 ?2 29 47 30 0 46 53 32 0.0099 -0.00335 0.0075 16 48 31 0 ?45 37 54 49 0 0 2 30
 49 32 0 48 55 38 0 +0.0099 0.00335 0.0075 -2.449293598294707e-16 -1.0 0.0 17 50
 0 104 29 71 25 45 48 0 35 -17 51 0 44 57 45 52 56 54 0 0 -18 52 33 0 60 46 67 5
3 ?2 29 53 34 0 52 68 47 0.0099 -0.00335 1.0e-04 16 54 35 0 ?56 48 58 55 0 0 2 3
0 55 36 0 54 59 49 0 +0.0099 -0.00335 1.0e-04 0.0 0.0 1.0 17 56 0 65 66 78 46 51
 54 0 0 +17 57 0 44 35 51 31 60 58 0 30 -16 58 37 0 ?60 54 69 59 0 0 2 30 59 38
 0 58 70 55 0 +0.0099 0.00335 1.0e-04 -2.449293598294707e-16 -1.0 0.0 17 60 0 99
 81 39 52 57 58 0 78 +14 61 39 63 1.0e-08 82 40 65 12 62 +0 0 82 40 10 50 62 40
 0 61 83 41 0 +0.0099 -0.00335 1.0e-04 -2.449293598294707e-16 -1.0 0.0 -1.0 2.44
9293598294707e-16 0.0 81 1 63 41 6 61 0 0 84 42 64 83 3 64 0.300000011920929 0.3
00000011920929 0.300000011920929 15 65 42 0 56 61 0 17 66 0 65 72 56 67 71 69 0
 77 +18 67 43 0 66 52 73 68 ?2 29 68 44 0 67 74 53 -0.0099 -0.00335 0.0075 16 69
 45 0 ?66 58 75 70 0 0 2 30 70 46 0 69 76 59 0 +0.0099 -0.00335 0.0075 -1.0 2.44
9293598294707e-16 0.0 17 71 0 104 50 90 46 66 69 0 56 -17 72 0 65 78 66 73 77 75
 0 91 -18 73 47 0 81 67 0 74 ?2 29 74 48 0 73 0 68 -0.0099 -0.00335 1.0e-04 16 7
5 49 0 ?77 69 79 76 0 0 2 30 76 50 0 75 80 70 0 +-0.0099 -0.00335 1.0e-04 0.0 0.
0 1.0 17 77 0 86 87 91 67 72 75 0 90 +17 78 0 65 56 72 52 81 79 0 51 -16 79 51 0
 ?81 75 88 80 0 0 2 30 80 52 0 79 89 76 0 +0.0099 -0.00335 1.0e-04 -1.0 2.449293
598294707e-16 0.0 17 81 0 99 94 60 73 78 79 0 72 +14 82 53 84 1.0e-08 95 61 86 1
2 83 +0 0 95 61 10 50 83 54 0 82 96 62 0 +-0.0099 -0.00335 1.0e-04 -1.0 2.449293
598294707e-16 0.0 2.449293598294707e-16 1.0 0.0 81 1 84 55 6 82 0 0 97 63 85 83
 3 85 0.300000011920929 0.300000011920929 0.300000011920929 15 86 56 0 77 82 0 1
7 87 0 86 21 77 17 90 88 0 0 +16 88 57 0 ?87 79 92 89 0 0 2 30 89 58 0 88 93 80
 0 +-0.0099 -0.00335 0.0075 2.449293598294707e-16 1.0 0.0 17 90 0 104 71 29 67 8
7 88 0 0 -17 91 0 86 77 21 73 94 92 0 0 -16 92 59 0 ?94 88 0 93 0 0 2 30 93 60 0
 92 0 89 0 +-0.0099 -0.00335 1.0e-04 2.449293598294707e-16 1.0 0.0 17 94 0 99 39
 81 22 91 92 0 0 +14 95 61 97 1.0e-08 100 82 99 12 96 +0 0 100 82 10 50 96 62 0
 95 101 83 0 +0.0 0.0 1.0e-04 0.0 0.0 -1.0 -1.0 2.449293598294707e-16 0.0 81 1 9
7 63 6 95 0 0 102 84 98 83 3 98 0.300000011920929 0.300000011920929 0.3000000119
20929 15 99 64 0 39 95 0 14 100 65 102 1.0e-08 0 95 104 12 101 -0 0 0 95 10 50 1
01 66 0 100 0 96 0 +0.0 0.0 0.0075 0.0 0.0 -1.0 -1.0 2.449293598294707e-16 0.0 8
1 1 102 67 6 100 0 0 0 97 103 83 3 103 0.300000011920929 0.300000011920929 0.300
000011920929 15 104 68 0 90 100 0 12 105 68 0 106 0 0 0 0 1000.0 1.0e-08 0 0 0 1
 0 1 1 113 115 121 119 110 120 118 70 106 0 105 0 0 4 1 20 0 107 107 1 T74 20 10
7 1 0 108 0 0 0 0 0 0 0 0 0 0 0 0 0 0 0 0 0 0 0 81 1 108 7 6 114 0 0 143 0 109 8
3 3 109 0.734000027179718 0.773000001907349 0.796999990940094 19 110 1 0 105 112
 0 111 V13 111 2 0 105 0 0 0 0 110 114 19 112 3 0 105 0 110 113 S13 113 4 0 105
 0 114 0 0 112 0 14 114 5 108 1.0e-08 141 0 116 113 115 -0 0 141 0 111 50 115 6
 0 114 142 0 0 +-0.00739 -0.00424 0.0 1.0 -2.449293598294707e-16 0.0 0.0 0.0 1.0
 15 116 8 0 117 114 0 17 117 0 116 125 137 118 122 120 0 195 +18 118 9 0 130 0 1
23 119 ?105 29 119 10 0 118 124 0 -0.00739 -0.00176 1.0e-04 16 120 11 0 ?117 0 1
28 121 0 0 105 30 121 12 0 120 129 0 0 +-0.00739 -0.00424 1.0e-04 2.449293598294
707e-16 1.0 0.0 17 122 0 205 178 195 123 117 120 0 175 -18 123 13 0 137 118 126
 124 ?105 29 124 14 0 123 127 119 -0.00739 -0.00424 1.0e-04 17 125 0 116 131 117
 126 130 128 0 188 -18 126 15 0 136 123 132 127 ?105 29 127 16 0 126 133 124 -0.
00739 -0.00176 0.0 16 128 17 0 ?130 120 134 129 0 0 105 30 129 18 0 128 135 121
 0 +-0.00739 -0.00176 0.0 0.0 0.0 1.0 17 130 0 187 192 188 118 125 128 0 117 +17
 131 0 116 137 125 132 136 134 0 182 -18 132 19 0 140 126 147 133 ?105 29 133 20
 0 132 148 127 -0.00739 -0.00424 0.0 16 134 21 0 ?136 128 138 135 0 0 105 30 135
 22 0 134 139 129 0 +-0.00739 -0.00424 0.0 2.449293598294707e-16 1.0 0.0 17 136
 0 200 191 182 126 131 134 0 125 +17 137 0 116 117 131 123 140 138 0 122 +16 138
 23 0 ?137 134 149 139 0 0 105 30 139 24 0 138 150 135 0 +-0.00739 -0.00424 0.0
 0.0 0.0 1.0 17 140 0 174 179 175 132 137 138 0 131 -14 141 25 143 1.0e-08 170 1
14 145 113 142 +0 0 170 114 111 50 142 26 0 141 171 115 0 +-0.00611 -0.00424 0.0
 1.0 -2.449293598294707e-16 0.0 0.0 0.0 1.0 81 1 143 27 6 141 0 0 172 108 144 83
 3 144 0.734000027179718 0.773000001907349 0.796999990940094 15 145 28 0 146 141
 0 17 146 0 145 154 166 147 151 149 0 159 -18 147 29 0 146 132 152 148 ?105 29 1
48 30 0 147 153 133 -0.00611 -0.00424 0.0 16 149 31 0 ?151 138 157 150 0 0 105 3
0 150 32 0 149 158 139 0 +-0.00611 -0.00424 0.0 0.0 0.0 1.0 17 151 0 174 175 179
 152 146 149 0 166 +18 152 33 0 151 147 155 153 ?105 29 153 34 0 152 156 148 -0.
00611 -0.00424 1.0e-04 17 154 0 145 160 146 155 159 157 0 165 +18 155 35 0 154 1
52 161 156 ?105 29 156 36 0 155 162 153 -0.00611 -0.00176 0.0 16 157 37 0 ?154 1
49 163 158 0 0 105 30 158 38 0 157 164 150 0 +-0.00611 -0.00424 0.0 2.4492935982
94707e-16 1.0 0.0 17 159 0 200 182 191 147 154 157 0 179 -17 160 0 145 166 154 1
61 165 163 0 169 +18 161 39 0 160 155 0 162 ?105 29 162 40 0 161 0 156 -0.00611
 -0.00176 1.0e-04 16 163 41 0 ?160 157 167 164 0 0 105 30 164 42 0 163 168 158 0
 +-0.00611 -0.00176 0.0 0.0 0.0 1.0 17 165 0 187 188 192 155 160 163 0 191 -17 1
66 0 145 146 160 152 169 167 0 178 -16 167 43 0 ?169 163 176 168 0 0 105 30 168
 44 0 167 177 164 0 +-0.00611 -0.00424 1.0e-04 2.449293598294707e-16 1.0 0.0 17
 169 0 205 195 178 161 166 167 0 192 +14 170 45 172 1.0e-08 183 141 174 113 171
 -0 0 183 141 111 50 171 46 0 170 184 142 0 +-0.00739 -0.00424 0.0 2.44929359829
4707e-16 1.0 0.0 0.0 0.0 1.0 81 1 172 47 6 170 0 0 185 143 173 83 3 173 0.734000
027179718 0.773000001907349 0.796999990940094 15 174 48 0 151 170 0 17 175 0 174
 140 151 123 178 176 0 0 -16 176 49 0 ?178 167 180 177 0 0 105 30 177 50 0 176 1
81 168 0 +-0.00739 -0.00424 1.0e-04 1.0 -2.449293598294707e-16 0.0 17 178 0 205
 169 122 152 175 176 0 0 +17 179 0 174 151 140 147 182 180 0 0 +16 180 51 0 ?179
 176 189 181 0 0 105 30 181 52 0 180 190 177 0 +-0.00739 -0.00424 0.0 1.0 -2.449
293598294707e-16 0.0 17 182 0 200 136 159 132 179 180 0 0 -14 183 53 185 1.0e-08
 196 170 187 113 184 +0 0 196 170 111 50 184 54 0 183 197 171 0 +-0.00739 -0.001
76 0.0 2.449293598294707e-16 1.0 0.0 0.0 0.0 1.0 81 1 185 55 6 183 0 0 198 172 1
86 83 3 186 0.734000027179718 0.773000001907349 0.796999990940094 15 187 56 0 18
8 183 0 17 188 0 187 130 165 126 191 189 0 0 -16 189 57 0 ?191 180 193 190 0 0 1
05 30 190 58 0 189 194 181 0 +-0.00739 -0.00176 0.0 1.0 -2.449293598294707e-16 0
.0 17 191 0 200 159 136 155 188 189 0 0 +17 192 0 187 165 130 161 195 193 0 0 +1
6 193 59 0 ?192 189 0 194 0 0 105 30 194 60 0 193 0 190 0 +-0.00739 -0.00176 1.0
e-04 1.0 -2.449293598294707e-16 0.0 17 195 0 205 122 169 118 192 193 0 0 -14 196
 61 198 1.0e-08 201 183 200 113 197 -0 0 201 183 111 50 197 62 0 196 202 184 0 +
-0.00739 -0.00424 0.0 0.0 0.0 1.0 1.0 -2.449293598294707e-16 0.0 81 1 198 63 6 1
96 0 0 203 185 199 83 3 199 0.734000027179718 0.773000001907349 0.79699999094009
4 15 200 64 0 191 196 0 14 201 65 203 1.0e-08 0 196 205 113 202 +0 0 0 196 111 5
0 202 66 0 201 0 197 0 +-0.00739 -0.00424 1.0e-04 0.0 0.0 1.0 1.0 -2.44929359829
4707e-16 0.0 81 1 203 67 6 201 0 0 0 198 204 83 3 204 0.734000027179718 0.773000
001907349 0.796999990940094 15 205 68 0 122 201 0 12 206 68 0 207 0 0 0 0 1000.0
 1.0e-08 0 0 0 1 0 1 1 214 216 222 220 211 221 219 70 207 0 206 0 0 4 1 20 0 208
 208 1 T74 20 208 1 0 209 0 0 0 0 0 0 0 0 0 0 0 0 0 0 0 0 0 0 0 81 1 209 7 6 215
 0 0 244 0 210 83 3 210 0.734000027179718 0.773000001907349 0.796999990940094 19
 211 1 0 206 213 0 212 V13 212 2 0 206 0 0 0 0 211 215 19 213 3 0 206 0 211 214
 S13 214 4 0 206 0 215 0 0 213 0 14 215 5 209 1.0e-08 242 0 217 214 216 -0 0 242
 0 212 50 216 6 0 215 243 0 0 +0.00611 -0.00424 0.0 1.0 -2.449293598294707e-16 0
.0 0.0 0.0 1.0 15 217 8 0 218 215 0 17 218 0 217 226 238 219 223 221 0 296 +18 2
19 9 0 231 0 224 220 ?206 29 220 10 0 219 225 0 0.00611 -0.00176 1.0e-04 16 221
 11 0 ?218 0 229 222 0 0 206 30 222 12 0 221 230 0 0 +0.00611 -0.00424 1.0e-04 2
.449293598294707e-16 1.0 0.0 17 223 0 306 279 296 224 218 221 0 276 -18 224 13 0
 238 219 227 225 ?206 29 225 14 0 224 228 220 0.00611 -0.00424 1.0e-04 17 226 0
 217 232 218 227 231 229 0 289 -18 227 15 0 237 224 233 228 ?206 29 228 16 0 227
 234 225 0.00611 -0.00176 0.0 16 229 17 0 ?231 221 235 230 0 0 206 30 230 18 0 2
29 236 222 0 +0.00611 -0.00176 0.0 0.0 0.0 1.0 17 231 0 288 293 289 219 226 229
 0 218 +17 232 0 217 238 226 233 237 235 0 283 -18 233 19 0 241 227 248 234 ?206
 29 234 20 0 233 249 228 0.00611 -0.00424 0.0 16 235 21 0 ?237 229 239 236 0 0 2
06 30 236 22 0 235 240 230 0 +0.00611 -0.00424 0.0 2.449293598294707e-16 1.0 0.0
 17 237 0 301 292 283 227 232 235 0 226 +17 238 0 217 218 232 224 241 239 0 223
 +16 239 23 0 ?238 235 250 240 0 0 206 30 240 24 0 239 251 236 0 +0.00611 -0.004
24 0.0 0.0 0.0 1.0 17 241 0 275 280 276 233 238 239 0 232 -14 242 25 244 1.0e-08
 271 215 246 214 243 +0 0 271 215 212 50 243 26 0 242 272 216 0 +0.00739 -0.0042
4 0.0 1.0 -2.449293598294707e-16 0.0 0.0 0.0 1.0 81 1 244 27 6 242 0 0 273 209 2
45 83 3 245 0.734000027179718 0.773000001907349 0.796999990940094 15 246 28 0 24
7 242 0 17 247 0 246 255 267 248 252 250 0 260 -18 248 29 0 247 233 253 249 ?206
 29 249 30 0 248 254 234 0.00739 -0.00424 0.0 16 250 31 0 ?252 239 258 251 0 0 2
06 30 251 32 0 250 259 240 0 +0.00739 -0.00424 0.0 0.0 0.0 1.0 17 252 0 275 276
 280 253 247 250 0 267 +18 253 33 0 252 248 256 254 ?206 29 254 34 0 253 257 249
 0.00739 -0.00424 1.0e-04 17 255 0 246 261 247 256 260 258 0 266 +18 256 35 0 25
5 253 262 257 ?206 29 257 36 0 256 263 254 0.00739 -0.00176 0.0 16 258 37 0 ?255
 250 264 259 0 0 206 30 259 38 0 258 265 251 0 +0.00739 -0.00424 0.0 2.449293598
294707e-16 1.0 0.0 17 260 0 301 283 292 248 255 258 0 280 -17 261 0 246 267 255
 262 266 264 0 270 +18 262 39 0 261 256 0 263 ?206 29 263 40 0 262 0 257 0.00739
 -0.00176 1.0e-04 16 264 41 0 ?261 258 268 265 0 0 206 30 265 42 0 264 269 259 0
 +0.00739 -0.00176 0.0 0.0 0.0 1.0 17 266 0 288 289 293 256 261 264 0 292 -17 26
7 0 246 247 261 253 270 268 0 279 -16 268 43 0 ?270 264 277 269 0 0 206 30 269 4
4 0 268 278 265 0 +0.00739 -0.00424 1.0e-04 2.449293598294707e-16 1.0 0.0 17 270
 0 306 296 279 262 267 268 0 293 +14 271 45 273 1.0e-08 284 242 275 214 272 -0 0
 284 242 212 50 272 46 0 271 285 243 0 +0.00611 -0.00424 0.0 2.449293598294707e-
16 1.0 0.0 0.0 0.0 1.0 81 1 273 47 6 271 0 0 286 244 274 83 3 274 0.734000027179
718 0.773000001907349 0.796999990940094 15 275 48 0 252 271 0 17 276 0 275 241 2
52 224 279 277 0 0 -16 277 49 0 ?279 268 281 278 0 0 206 30 278 50 0 277 282 269
 0 +0.00611 -0.00424 1.0e-04 1.0 -2.449293598294707e-16 0.0 17 279 0 306 270 223
 253 276 277 0 0 +17 280 0 275 252 241 248 283 281 0 0 +16 281 51 0 ?280 277 290
 282 0 0 206 30 282 52 0 281 291 278 0 +0.00611 -0.00424 0.0 1.0 -2.449293598294
707e-16 0.0 17 283 0 301 237 260 233 280 281 0 0 -14 284 53 286 1.0e-08 297 271
 288 214 285 +0 0 297 271 212 50 285 54 0 284 298 272 0 +0.00611 -0.00176 0.0 2.
449293598294707e-16 1.0 0.0 0.0 0.0 1.0 81 1 286 55 6 284 0 0 299 273 287 83 3 2
87 0.734000027179718 0.773000001907349 0.796999990940094 15 288 56 0 289 284 0 1
7 289 0 288 231 266 227 292 290 0 0 -16 290 57 0 ?292 281 294 291 0 0 206 30 291
 58 0 290 295 282 0 +0.00611 -0.00176 0.0 1.0 -2.449293598294707e-16 0.0 17 292
 0 301 260 237 256 289 290 0 0 +17 293 0 288 266 231 262 296 294 0 0 +16 294 59
 0 ?293 290 0 295 0 0 206 30 295 60 0 294 0 291 0 +0.00611 -0.00176 1.0e-04 1.0
 -2.449293598294707e-16 0.0 17 296 0 306 223 270 219 293 294 0 0 -14 297 61 299
 1.0e-08 302 284 301 214 298 -0 0 302 284 212 50 298 62 0 297 303 285 0 +0.00611
 -0.00424 0.0 0.0 0.0 1.0 1.0 -2.449293598294707e-16 0.0 81 1 299 63 6 297 0 0 3
04 286 300 83 3 300 0.734000027179718 0.773000001907349 0.796999990940094 15 301
 64 0 292 297 0 14 302 65 304 1.0e-08 0 297 306 214 303 +0 0 0 297 212 50 303 66
 0 302 0 298 0 +0.00611 -0.00424 1.0e-04 0.0 0.0 1.0 1.0 -2.449293598294707e-16
 0.0 81 1 304 67 6 302 0 0 0 299 305 83 3 305 0.734000027179718 0.77300000190734
9 0.796999990940094 15 306 68 0 223 302 0 12 307 68 0 308 0 0 0 0 1000.0 1.0e-08
 0 0 0 1 0 1 1 315 317 323 321 312 322 320 70 308 0 307 0 0 4 1 20 0 309 309 1 T
74 20 309 1 0 310 0 0 0 0 0 0 0 0 0 0 0 0 0 0 0 0 0 0 0 81 1 310 7 6 316 0 0 345
 0 311 83 3 311 0.734000027179718 0.773000001907349 0.796999990940094 19 312 1 0
 307 314 0 313 V13 313 2 0 307 0 0 0 0 312 316 19 314 3 0 307 0 312 315 S13 315
 4 0 307 0 316 0 0 314 0 14 316 5 310 1.0e-08 343 0 318 315 317 -0 0 343 0 313 5
0 317 6 0 316 344 0 0 +0.00611 0.00176 0.0 1.0 -2.449293598294707e-16 0.0 0.0 0.
0 1.0 15 318 8 0 319 316 0 17 319 0 318 327 339 320 324 322 0 397 +18 320 9 0 33
2 0 325 321 ?307 29 321 10 0 320 326 0 0.00611 0.00424 1.0e-04 16 322 11 0 ?319
 0 330 323 0 0 307 30 323 12 0 322 331 0 0 +0.00611 0.00176 1.0e-04 2.4492935982
94707e-16 1.0 0.0 17 324 0 407 380 397 325 319 322 0 377 -18 325 13 0 339 320 32
8 326 ?307 29 326 14 0 325 329 321 0.00611 0.00176 1.0e-04 17 327 0 318 333 319
 328 332 330 0 390 -18 328 15 0 338 325 334 329 ?307 29 329 16 0 328 335 326 0.0
0611 0.00424 0.0 16 330 17 0 ?332 322 336 331 0 0 307 30 331 18 0 330 337 323 0
 +0.00611 0.00424 0.0 0.0 0.0 1.0 17 332 0 389 394 390 320 327 330 0 319 +17 333
 0 318 339 327 334 338 336 0 384 -18 334 19 0 342 328 349 335 ?307 29 335 20 0 3
34 350 329 0.00611 0.00176 0.0 16 336 21 0 ?338 330 340 337 0 0 307 30 337 22 0
 336 341 331 0 +0.00611 0.00176 0.0 2.449293598294707e-16 1.0 0.0 17 338 0 402 3
93 384 328 333 336 0 327 +17 339 0 318 319 333 325 342 340 0 324 +16 340 23 0 ?3
39 336 351 341 0 0 307 30 341 24 0 340 352 337 0 +0.00611 0.00176 0.0 0.0 0.0 1.
0 17 342 0 376 381 377 334 339 340 0 333 -14 343 25 345 1.0e-08 372 316 347 315
 344 +0 0 372 316 313 50 344 26 0 343 373 317 0 +0.00739 0.00176 0.0 1.0 -2.4492
93598294707e-16 0.0 0.0 0.0 1.0 81 1 345 27 6 343 0 0 374 310 346 83 3 346 0.734
000027179718 0.773000001907349 0.796999990940094 15 347 28 0 348 343 0 17 348 0
 347 356 368 349 353 351 0 361 -18 349 29 0 348 334 354 350 ?307 29 350 30 0 349
 355 335 0.00739 0.00176 0.0 16 351 31 0 ?353 340 359 352 0 0 307 30 352 32 0 35
1 360 341 0 +0.00739 0.00176 0.0 0.0 0.0 1.0 17 353 0 376 377 381 354 348 351 0
 368 +18 354 33 0 353 349 357 355 ?307 29 355 34 0 354 358 350 0.00739 0.00176 1
.0e-04 17 356 0 347 362 348 357 361 359 0 367 +18 357 35 0 356 354 363 358 ?307
 29 358 36 0 357 364 355 0.00739 0.00424 0.0 16 359 37 0 ?356 351 365 360 0 0 30
7 30 360 38 0 359 366 352 0 +0.00739 0.00176 0.0 2.449293598294707e-16 1.0 0.0 1
7 361 0 402 384 393 349 356 359 0 381 -17 362 0 347 368 356 363 367 365 0 371 +1
8 363 39 0 362 357 0 364 ?307 29 364 40 0 363 0 358 0.00739 0.00424 1.0e-04 16 3
65 41 0 ?362 359 369 366 0 0 307 30 366 42 0 365 370 360 0 +0.00739 0.00424 0.0
 0.0 0.0 1.0 17 367 0 389 390 394 357 362 365 0 393 -17 368 0 347 348 362 354 37
1 369 0 380 -16 369 43 0 ?371 365 378 370 0 0 307 30 370 44 0 369 379 366 0 +0.0
0739 0.00176 1.0e-04 2.449293598294707e-16 1.0 0.0 17 371 0 407 397 380 363 368
 369 0 394 +14 372 45 374 1.0e-08 385 343 376 315 373 -0 0 385 343 313 50 373 46
 0 372 386 344 0 +0.00611 0.00176 0.0 2.449293598294707e-16 1.0 0.0 0.0 0.0 1.0
 81 1 374 47 6 372 0 0 387 345 375 83 3 375 0.734000027179718 0.773000001907349
 0.796999990940094 15 376 48 0 353 372 0 17 377 0 376 342 353 325 380 378 0 0 -1
6 378 49 0 ?380 369 382 379 0 0 307 30 379 50 0 378 383 370 0 +0.00611 0.00176 1
.0e-04 1.0 -2.449293598294707e-16 0.0 17 380 0 407 371 324 354 377 378 0 0 +17 3
81 0 376 353 342 349 384 382 0 0 +16 382 51 0 ?381 378 391 383 0 0 307 30 383 52
 0 382 392 379 0 +0.00611 0.00176 0.0 1.0 -2.449293598294707e-16 0.0 17 384 0 40
2 338 361 334 381 382 0 0 -14 385 53 387 1.0e-08 398 372 389 315 386 +0 0 398 37
2 313 50 386 54 0 385 399 373 0 +0.00611 0.00424 0.0 2.449293598294707e-16 1.0 0
.0 0.0 0.0 1.0 81 1 387 55 6 385 0 0 400 374 388 83 3 388 0.734000027179718 0.77
3000001907349 0.796999990940094 15 389 56 0 390 385 0 17 390 0 389 332 367 328 3
93 391 0 0 -16 391 57 0 ?393 382 395 392 0 0 307 30 392 58 0 391 396 383 0 +0.00
611 0.00424 0.0 1.0 -2.449293598294707e-16 0.0 17 393 0 402 361 338 357 390 391
 0 0 +17 394 0 389 367 332 363 397 395 0 0 +16 395 59 0 ?394 391 0 396 0 0 307 3
0 396 60 0 395 0 392 0 +0.00611 0.00424 1.0e-04 1.0 -2.449293598294707e-16 0.0 1
7 397 0 407 324 371 320 394 395 0 0 -14 398 61 400 1.0e-08 403 385 402 315 399 -
0 0 403 385 313 50 399 62 0 398 404 386 0 +0.00611 0.00176 0.0 0.0 0.0 1.0 1.0 -
2.449293598294707e-16 0.0 81 1 400 63 6 398 0 0 405 387 401 83 3 401 0.734000027
179718 0.773000001907349 0.796999990940094 15 402 64 0 393 398 0 14 403 65 405 1
.0e-08 0 398 407 315 404 +0 0 0 398 313 50 404 66 0 403 0 399 0 +0.00611 0.00176
 1.0e-04 0.0 0.0 1.0 1.0 -2.449293598294707e-16 0.0 81 1 405 67 6 403 0 0 0 400
 406 83 3 406 0.734000027179718 0.773000001907349 0.796999990940094 15 407 68 0
 324 403 0 12 408 68 0 409 0 0 0 0 1000.0 1.0e-08 0 0 0 1 0 1 1 416 418 424 422
 413 423 421 70 409 0 408 0 0 4 1 20 0 410 410 1 T74 20 410 1 0 411 0 0 0 0 0 0
 0 0 0 0 0 0 0 0 0 0 0 0 0 81 1 411 7 6 417 0 0 446 0 412 83 3 412 0.73400002717
9718 0.773000001907349 0.796999990940094 19 413 1 0 408 415 0 414 V13 414 2 0 40
8 0 0 0 0 413 417 19 415 3 0 408 0 413 416 S13 416 4 0 408 0 417 0 0 415 0 14 41
7 5 411 1.0e-08 444 0 419 416 418 -0 0 444 0 414 50 418 6 0 417 445 0 0 +-0.0073
9 0.00176 0.0 1.0 -2.449293598294707e-16 0.0 0.0 0.0 1.0 15 419 8 0 420 417 0 17
 420 0 419 428 440 421 425 423 0 498 +18 421 9 0 433 0 426 422 ?408 29 422 10 0
 421 427 0 -0.00739 0.00424 1.0e-04 16 423 11 0 ?420 0 431 424 0 0 408 30 424 12
 0 423 432 0 0 +-0.00739 0.00176 1.0e-04 2.449293598294707e-16 1.0 0.0 17 425 0
 508 481 498 426 420 423 0 478 -18 426 13 0 440 421 429 427 ?408 29 427 14 0 426
 430 422 -0.00739 0.00176 1.0e-04 17 428 0 419 434 420 429 433 431 0 491 -18 429
 15 0 439 426 435 430 ?408 29 430 16 0 429 436 427 -0.00739 0.00424 0.0 16 431 1
7 0 ?433 423 437 432 0 0 408 30 432 18 0 431 438 424 0 +-0.00739 0.00424 0.0 0.0
 0.0 1.0 17 433 0 490 495 491 421 428 431 0 420 +17 434 0 419 440 428 435 439 43
7 0 485 -18 435 19 0 443 429 450 436 ?408 29 436 20 0 435 451 430 -0.00739 0.001
76 0.0 16 437 21 0 ?439 431 441 438 0 0 408 30 438 22 0 437 442 432 0 +-0.00739
 0.00176 0.0 2.449293598294707e-16 1.0 0.0 17 439 0 503 494 485 429 434 437 0 42
8 +17 440 0 419 420 434 426 443 441 0 425 +16 441 23 0 ?440 437 452 442 0 0 408
 30 442 24 0 441 453 438 0 +-0.00739 0.00176 0.0 0.0 0.0 1.0 17 443 0 477 482 47
8 435 440 441 0 434 -14 444 25 446 1.0e-08 473 417 448 416 445 +0 0 473 417 414
 50 445 26 0 444 474 418 0 +-0.00611 0.00176 0.0 1.0 -2.449293598294707e-16 0.0
 0.0 0.0 1.0 81 1 446 27 6 444 0 0 475 411 447 83 3 447 0.734000027179718 0.7730
00001907349 0.796999990940094 15 448 28 0 449 444 0 17 449 0 448 457 469 450 454
 452 0 462 -18 450 29 0 449 435 455 451 ?408 29 451 30 0 450 456 436 -0.00611 0.
00176 0.0 16 452 31 0 ?454 441 460 453 0 0 408 30 453 32 0 452 461 442 0 +-0.006
11 0.00176 0.0 0.0 0.0 1.0 17 454 0 477 478 482 455 449 452 0 469 +18 455 33 0 4
54 450 458 456 ?408 29 456 34 0 455 459 451 -0.00611 0.00176 1.0e-04 17 457 0 44
8 463 449 458 462 460 0 468 +18 458 35 0 457 455 464 459 ?408 29 459 36 0 458 46
5 456 -0.00611 0.00424 0.0 16 460 37 0 ?457 452 466 461 0 0 408 30 461 38 0 460
 467 453 0 +-0.00611 0.00176 0.0 2.449293598294707e-16 1.0 0.0 17 462 0 503 485
 494 450 457 460 0 482 -17 463 0 448 469 457 464 468 466 0 472 +18 464 39 0 463
 458 0 465 ?408 29 465 40 0 464 0 459 -0.00611 0.00424 1.0e-04 16 466 41 0 ?463
 460 470 467 0 0 408 30 467 42 0 466 471 461 0 +-0.00611 0.00424 0.0 0.0 0.0 1.0
 17 468 0 490 491 495 458 463 466 0 494 -17 469 0 448 449 463 455 472 470 0 481
 -16 470 43 0 ?472 466 479 471 0 0 408 30 471 44 0 470 480 467 0 +-0.00611 0.001
76 1.0e-04 2.449293598294707e-16 1.0 0.0 17 472 0 508 498 481 464 469 470 0 495
 +14 473 45 475 1.0e-08 486 444 477 416 474 -0 0 486 444 414 50 474 46 0 473 487
 445 0 +-0.00739 0.00176 0.0 2.449293598294707e-16 1.0 0.0 0.0 0.0 1.0 81 1 475
 47 6 473 0 0 488 446 476 83 3 476 0.734000027179718 0.773000001907349 0.7969999
90940094 15 477 48 0 454 473 0 17 478 0 477 443 454 426 481 479 0 0 -16 479 49 0
 ?481 470 483 480 0 0 408 30 480 50 0 479 484 471 0 +-0.00739 0.00176 1.0e-04 1.
0 -2.449293598294707e-16 0.0 17 481 0 508 472 425 455 478 479 0 0 +17 482 0 477
 454 443 450 485 483 0 0 +16 483 51 0 ?482 479 492 484 0 0 408 30 484 52 0 483 4
93 480 0 +-0.00739 0.00176 0.0 1.0 -2.449293598294707e-16 0.0 17 485 0 503 439 4
62 435 482 483 0 0 -14 486 53 488 1.0e-08 499 473 490 416 487 +0 0 499 473 414 5
0 487 54 0 486 500 474 0 +-0.00739 0.00424 0.0 2.449293598294707e-16 1.0 0.0 0.0
 0.0 1.0 81 1 488 55 6 486 0 0 501 475 489 83 3 489 0.734000027179718 0.77300000
1907349 0.796999990940094 15 490 56 0 491 486 0 17 491 0 490 433 468 429 494 492
 0 0 -16 492 57 0 ?494 483 496 493 0 0 408 30 493 58 0 492 497 484 0 +-0.00739 0
.00424 0.0 1.0 -2.449293598294707e-16 0.0 17 494 0 503 462 439 458 491 492 0 0 +
17 495 0 490 468 433 464 498 496 0 0 +16 496 59 0 ?495 492 0 497 0 0 408 30 497
 60 0 496 0 493 0 +-0.00739 0.00424 1.0e-04 1.0 -2.449293598294707e-16 0.0 17 49
8 0 508 425 472 421 495 496 0 0 -14 499 61 501 1.0e-08 504 486 503 416 500 -0 0
 504 486 414 50 500 62 0 499 505 487 0 +-0.00739 0.00176 0.0 0.0 0.0 1.0 1.0 -2.
449293598294707e-16 0.0 81 1 501 63 6 499 0 0 506 488 502 83 3 502 0.73400002717
9718 0.773000001907349 0.796999990940094 15 503 64 0 494 499 0 14 504 65 506 1.0
e-08 0 499 508 416 505 +0 0 0 499 414 50 505 66 0 504 0 500 0 +-0.00739 0.00176
 1.0e-04 0.0 0.0 1.0 1.0 -2.449293598294707e-16 0.0 81 1 506 67 6 504 0 0 0 501
 507 83 3 507 0.734000027179718 0.773000001907349 0.796999990940094 15 508 68 0
 425 504 0 1 0 
