**ABCDEFGHIJKLMNOPQRSTUVWXYZabcdefghijklmnopqrstuvwxyz**************************
**PARASOLID !"#$%&'()*+,-./:;<=>?@[\]^_`{|}~0123456789**************************
**PART1;
MC=AMD64;
MC_MODEL=Intel64 Family 6 Model 186 Stepping 2, GenuineIntel;
MC_ID=unknown;
OS=Windows_NT;
OS_RELEASE=unknown;
FRU=CAD Exchanger 3.23.0 (cadexchanger.com);
APPL=unknown;
SITE=unknown;
USER=unknown;
FORMAT=text;
GUISE=transmit;
KEY=BM05BGHSTBTLFSNN_BM05B-GHS-TBT_LF__SN__N_;
FILE=BM05BGHSTBTLFSNN_BM05B-GHS-TBT_LF__SN__N_.x_t;
DATE=Sun May  5 21:59:52 2024;
**PART2;
SCH=SCH_1200000_12103;
USFLD_SIZE=0;
**PART3;
**END_OF_HEADER*****************************************************************
T51 : TRANSMIT FILE created by modeller version 120000017 SCH_1200000_121030 74
 8 1 8 0 2 105 206 307 408 509 610 711 12 2 68 0 3 0 0 0 0 1000.0 1.0e-08 0 0 0
 1 0 1 1 12 14 20 18 9 19 17 70 3 0 2 0 0 4 1 20 0 4 4 1 T74 20 4 1 0 5 0 0 0 0
 0 0 0 0 0 0 0 0 0 0 0 0 0 0 0 81 1 5 7 6 13 0 0 42 0 8 80 1 6 0 7 8001 0 0 0 0
 3 5 0 0 0 FFFFTFTFFFFFFF2 79 15 7 SDL/TYSA_COLOUR83 3 8 0.300000011920929 0.300
000011920929 0.300000011920929 19 9 1 0 2 11 0 10 V13 10 2 0 2 0 0 0 0 9 13 19 1
1 3 0 2 0 9 12 S13 12 4 0 2 0 13 0 0 11 0 14 13 5 5 1.0e-08 40 0 15 12 14 +0 0 4
0 0 10 50 14 6 0 13 41 0 0 +-0.00425 0.001725 1.0e-04 2.449293598294707e-16 1.0
 0.0 1.0 -2.449293598294707e-16 0.0 15 15 8 0 16 13 0 17 16 0 15 24 36 17 21 19
 0 29 +18 17 9 0 16 0 22 18 ?2 29 18 10 0 17 23 0 -0.00425 0.001725 0.00415 16 1
9 11 0 ?16 0 27 20 0 0 2 30 20 12 0 19 28 0 0 +-0.00425 0.001725 1.0e-04 0.0 0.0
 1.0 17 21 0 86 91 87 22 16 19 0 36 -18 22 13 0 21 17 25 23 ?2 29 23 14 0 22 26
 18 -0.00425 0.001725 1.0e-04 17 24 0 15 30 16 25 29 27 0 35 +18 25 15 0 24 22 3
1 26 ?2 29 26 16 0 25 32 23 0.00425 0.001725 0.00415 16 27 17 0 ?24 19 33 28 0 0
 2 30 28 18 0 27 34 20 0 +-0.00425 0.001725 0.00415 1.0 -2.449293598294707e-16 0
.0 17 29 0 104 90 50 17 24 27 0 87 -17 30 0 15 36 24 31 35 33 0 57 -18 31 19 0 3
0 25 46 32 ?2 29 32 20 0 31 47 26 0.00425 0.001725 1.0e-04 16 33 21 0 ?35 27 37
 34 0 0 2 30 34 22 0 33 38 28 0 +0.00425 0.001725 1.0e-04 0.0 0.0 1.0 17 35 0 44
 45 57 25 30 33 0 50 +17 36 0 15 16 30 22 39 37 0 94 -16 37 23 0 ?39 33 48 38 0
 0 2 30 38 24 0 37 49 34 0 +-0.00425 0.001725 1.0e-04 1.0 -2.449293598294707e-16
 0.0 17 39 0 99 60 94 31 36 37 0 0 +14 40 25 42 1.0e-08 61 13 44 12 41 +0 0 61 1
3 10 50 41 26 0 40 62 14 0 +0.00425 0.001725 1.0e-04 1.0 -2.449293598294707e-16
 0.0 -2.449293598294707e-16 -1.0 0.0 81 1 42 27 6 40 0 0 63 5 43 83 3 43 0.30000
0011920929 0.300000011920929 0.300000011920929 15 44 28 0 35 40 0 17 45 0 44 51
 35 46 50 48 0 56 +18 46 29 0 71 31 52 47 ?2 29 47 30 0 46 53 32 0.00425 -0.0025
25 0.00415 16 48 31 0 ?45 37 54 49 0 0 2 30 49 32 0 48 55 38 0 +0.00425 0.001725
 0.00415 -2.449293598294707e-16 -1.0 0.0 17 50 0 104 29 71 25 45 48 0 0 -17 51 0
 44 57 45 52 56 54 0 0 -18 52 33 0 60 46 67 53 ?2 29 53 34 0 52 68 47 0.00425 -0
.002525 1.0e-04 16 54 35 0 ?56 48 58 55 0 0 2 30 55 36 0 54 59 49 0 +0.00425 -0.
002525 1.0e-04 0.0 0.0 1.0 17 56 0 65 66 78 46 51 54 0 0 +17 57 0 44 35 51 31 60
 58 0 39 -16 58 37 0 ?60 54 69 59 0 0 2 30 59 38 0 58 70 55 0 +0.00425 0.001725
 1.0e-04 -2.449293598294707e-16 -1.0 0.0 17 60 0 99 81 39 52 57 58 0 78 +14 61 3
9 63 1.0e-08 82 40 65 12 62 +0 0 82 40 10 50 62 40 0 61 83 41 0 +0.00425 -0.0025
25 1.0e-04 -2.449293598294707e-16 -1.0 0.0 -1.0 2.449293598294707e-16 0.0 81 1 6
3 41 6 61 0 0 84 42 64 83 3 64 0.300000011920929 0.300000011920929 0.30000001192
0929 15 65 42 0 56 61 0 17 66 0 65 72 56 67 71 69 0 77 +18 67 43 0 66 52 73 68 ?
2 29 68 44 0 67 74 53 -0.00425 -0.002525 0.00415 16 69 45 0 ?66 58 75 70 0 0 2 3
0 70 46 0 69 76 59 0 +0.00425 -0.002525 0.00415 -1.0 2.449293598294707e-16 0.0 1
7 71 0 104 50 90 46 66 69 0 45 -17 72 0 65 78 66 73 77 75 0 91 -18 73 47 0 81 67
 0 74 ?2 29 74 48 0 73 0 68 -0.00425 -0.002525 1.0e-04 16 75 49 0 ?77 69 79 76 0
 0 2 30 76 50 0 75 80 70 0 +-0.00425 -0.002525 1.0e-04 0.0 0.0 1.0 17 77 0 86 87
 91 67 72 75 0 90 +17 78 0 65 56 72 52 81 79 0 51 -16 79 51 0 ?81 75 88 80 0 0 2
 30 80 52 0 79 89 76 0 +0.00425 -0.002525 1.0e-04 -1.0 2.449293598294707e-16 0.0
 17 81 0 99 94 60 73 78 79 0 72 +14 82 53 84 1.0e-08 95 61 86 12 83 +0 0 95 61 1
0 50 83 54 0 82 96 62 0 +-0.00425 -0.002525 1.0e-04 -1.0 2.449293598294707e-16 0
.0 2.449293598294707e-16 1.0 0.0 81 1 84 55 6 82 0 0 97 63 85 83 3 85 0.30000001
1920929 0.300000011920929 0.300000011920929 15 86 56 0 77 82 0 17 87 0 86 21 77
 17 90 88 0 0 +16 88 57 0 ?87 79 92 89 0 0 2 30 89 58 0 88 93 80 0 +-0.00425 -0.
002525 0.00415 2.449293598294707e-16 1.0 0.0 17 90 0 104 71 29 67 87 88 0 0 -17
 91 0 86 77 21 73 94 92 0 0 -16 92 59 0 ?94 88 0 93 0 0 2 30 93 60 0 92 0 89 0 +
-0.00425 -0.002525 1.0e-04 2.449293598294707e-16 1.0 0.0 17 94 0 99 39 81 22 91
 92 0 0 +14 95 61 97 1.0e-08 100 82 99 12 96 +0 0 100 82 10 50 96 62 0 95 101 83
 0 +-9.797174393178826e-20 -4.0e-04 1.0e-04 0.0 0.0 -1.0 -1.0 2.449293598294707e
-16 0.0 81 1 97 63 6 95 0 0 102 84 98 83 3 98 0.300000011920929 0.30000001192092
9 0.300000011920929 15 99 64 0 39 95 0 14 100 65 102 1.0e-08 0 95 104 12 101 -0
 0 0 95 10 50 101 66 0 100 0 96 0 +-9.797174393178826e-20 -4.0e-04 0.00415 0.0 0
.0 -1.0 -1.0 2.449293598294707e-16 0.0 81 1 102 67 6 100 0 0 0 97 103 83 3 103 0
.300000011920929 0.300000011920929 0.300000011920929 15 104 68 0 90 100 0 12 105
 68 0 106 0 0 0 0 1000.0 1.0e-08 0 0 0 1 0 1 1 113 115 121 119 110 120 118 70 10
6 0 105 0 0 4 1 20 0 107 107 1 T74 20 107 1 0 108 0 0 0 0 0 0 0 0 0 0 0 0 0 0 0
 0 0 0 0 81 1 108 7 6 114 0 0 143 0 109 83 3 109 0.734000027179718 0.77300000190
7349 0.796999990940094 19 110 1 0 105 112 0 111 V13 111 2 0 105 0 0 0 0 110 114
 19 112 3 0 105 0 110 113 S13 113 4 0 105 0 114 0 0 112 0 14 114 5 108 1.0e-08 1
41 0 116 113 115 -0 0 141 0 111 50 115 6 0 114 142 0 0 +0.00226 0.001735 0.0 1.0
 -2.449293598294707e-16 0.0 0.0 0.0 1.0 15 116 8 0 117 114 0 17 117 0 116 125 13
7 118 122 120 0 195 +18 118 9 0 130 0 123 119 ?105 29 119 10 0 118 124 0 0.00226
 0.003315 1.0e-04 16 120 11 0 ?117 0 128 121 0 0 105 30 121 12 0 120 129 0 0 +0.
00226 0.001735 1.0e-04 2.449293598294707e-16 1.0 0.0 17 122 0 205 178 195 123 11
7 120 0 175 -18 123 13 0 137 118 126 124 ?105 29 124 14 0 123 127 119 0.00226 0.
001735 1.0e-04 17 125 0 116 131 117 126 130 128 0 188 -18 126 15 0 136 123 132 1
27 ?105 29 127 16 0 126 133 124 0.00226 0.003315 0.0 16 128 17 0 ?130 120 134 12
9 0 0 105 30 129 18 0 128 135 121 0 +0.00226 0.003315 0.0 0.0 0.0 1.0 17 130 0 1
87 192 188 118 125 128 0 117 +17 131 0 116 137 125 132 136 134 0 182 -18 132 19
 0 140 126 147 133 ?105 29 133 20 0 132 148 127 0.00226 0.001735 0.0 16 134 21 0
 ?136 128 138 135 0 0 105 30 135 22 0 134 139 129 0 +0.00226 0.001735 0.0 2.4492
93598294707e-16 1.0 0.0 17 136 0 200 191 182 126 131 134 0 125 +17 137 0 116 117
 131 123 140 138 0 122 +16 138 23 0 ?137 134 149 139 0 0 105 30 139 24 0 138 150
 135 0 +0.00226 0.001735 0.0 0.0 0.0 1.0 17 140 0 174 179 175 132 137 138 0 131
 -14 141 25 143 1.0e-08 170 114 145 113 142 +0 0 170 114 111 50 142 26 0 141 171
 115 0 +0.00274 0.001735 0.0 1.0 -2.449293598294707e-16 0.0 0.0 0.0 1.0 81 1 143
 27 6 141 0 0 172 108 144 83 3 144 0.734000027179718 0.773000001907349 0.7969999
90940094 15 145 28 0 146 141 0 17 146 0 145 154 166 147 151 149 0 179 -18 147 29
 0 146 132 152 148 ?105 29 148 30 0 147 153 133 0.00274 0.001735 0.0 16 149 31 0
 ?151 138 157 150 0 0 105 30 150 32 0 149 158 139 0 +0.00274 0.001735 0.0 0.0 0.
0 1.0 17 151 0 174 175 179 152 146 149 0 178 +18 152 33 0 166 147 155 153 ?105 2
9 153 34 0 152 156 148 0.00274 0.001735 1.0e-04 17 154 0 145 160 146 155 159 157
 0 191 +18 155 35 0 165 152 161 156 ?105 29 156 36 0 155 162 153 0.00274 0.00331
5 0.0 16 157 37 0 ?154 149 163 158 0 0 105 30 158 38 0 157 164 150 0 +0.00274 0.
001735 0.0 2.449293598294707e-16 1.0 0.0 17 159 0 200 182 191 147 154 157 0 0 -1
7 160 0 145 166 154 161 165 163 0 169 +18 161 39 0 160 155 0 162 ?105 29 162 40
 0 161 0 156 0.00274 0.003315 1.0e-04 16 163 41 0 ?160 157 167 164 0 0 105 30 16
4 42 0 163 168 158 0 +0.00274 0.003315 0.0 0.0 0.0 1.0 17 165 0 187 188 192 155
 160 163 0 154 -17 166 0 145 146 160 152 169 167 0 151 -16 167 43 0 ?169 163 176
 168 0 0 105 30 168 44 0 167 177 164 0 +0.00274 0.001735 1.0e-04 2.4492935982947
07e-16 1.0 0.0 17 169 0 205 195 178 161 166 167 0 192 +14 170 45 172 1.0e-08 183
 141 174 113 171 -0 0 183 141 111 50 171 46 0 170 184 142 0 +0.00226 0.001735 0.
0 2.449293598294707e-16 1.0 0.0 0.0 0.0 1.0 81 1 172 47 6 170 0 0 185 143 173 83
 3 173 0.734000027179718 0.773000001907349 0.796999990940094 15 174 48 0 151 170
 0 17 175 0 174 140 151 123 178 176 0 0 -16 176 49 0 ?178 167 180 177 0 0 105 30
 177 50 0 176 181 168 0 +0.00226 0.001735 1.0e-04 1.0 -2.449293598294707e-16 0.0
 17 178 0 205 169 122 152 175 176 0 0 +17 179 0 174 151 140 147 182 180 0 159 +1
6 180 51 0 ?179 176 189 181 0 0 105 30 181 52 0 180 190 177 0 +0.00226 0.001735
 0.0 1.0 -2.449293598294707e-16 0.0 17 182 0 200 136 159 132 179 180 0 0 -14 183
 53 185 1.0e-08 196 170 187 113 184 +0 0 196 170 111 50 184 54 0 183 197 171 0 +
0.00226 0.003315 0.0 2.449293598294707e-16 1.0 0.0 0.0 0.0 1.0 81 1 185 55 6 183
 0 0 198 172 186 83 3 186 0.734000027179718 0.773000001907349 0.796999990940094
 15 187 56 0 188 183 0 17 188 0 187 130 165 126 191 189 0 0 -16 189 57 0 ?191 18
0 193 190 0 0 105 30 190 58 0 189 194 181 0 +0.00226 0.003315 0.0 1.0 -2.4492935
98294707e-16 0.0 17 191 0 200 159 136 155 188 189 0 0 +17 192 0 187 165 130 161
 195 193 0 0 +16 193 59 0 ?192 189 0 194 0 0 105 30 194 60 0 193 0 190 0 +0.0022
6 0.003315 1.0e-04 1.0 -2.449293598294707e-16 0.0 17 195 0 205 122 169 118 192 1
93 0 0 -14 196 61 198 1.0e-08 201 183 200 113 197 -0 0 201 183 111 50 197 62 0 1
96 202 184 0 +0.00226 0.001735 0.0 0.0 0.0 1.0 1.0 -2.449293598294707e-16 0.0 81
 1 198 63 6 196 0 0 203 185 199 83 3 199 0.734000027179718 0.773000001907349 0.7
96999990940094 15 200 64 0 191 196 0 14 201 65 203 1.0e-08 0 196 205 113 202 +0
 0 0 196 111 50 202 66 0 201 0 197 0 +0.00226 0.001735 1.0e-04 0.0 0.0 1.0 1.0 -
2.449293598294707e-16 0.0 81 1 203 67 6 201 0 0 0 198 204 83 3 204 0.73400002717
9718 0.773000001907349 0.796999990940094 15 205 68 0 122 201 0 12 206 68 0 207 0
 0 0 0 1000.0 1.0e-08 0 0 0 1 0 1 1 214 216 222 220 211 221 219 70 207 0 206 0 0
 4 1 20 0 208 208 1 T74 20 208 1 0 209 0 0 0 0 0 0 0 0 0 0 0 0 0 0 0 0 0 0 0 81
 1 209 7 6 215 0 0 244 0 210 83 3 210 0.734000027179718 0.773000001907349 0.7969
99990940094 19 211 1 0 206 213 0 212 V13 212 2 0 206 0 0 0 0 211 215 19 213 3 0
 206 0 211 214 S13 214 4 0 206 0 215 0 0 213 0 14 215 5 209 1.0e-08 242 0 217 21
4 216 -0 0 242 0 212 50 216 6 0 215 243 0 0 +0.00101 0.001735 0.0 1.0 -2.4492935
98294707e-16 0.0 0.0 0.0 1.0 15 217 8 0 218 215 0 17 218 0 217 226 238 219 223 2
21 0 296 +18 219 9 0 231 0 224 220 ?206 29 220 10 0 219 225 0 0.00101 0.003315 1
.0e-04 16 221 11 0 ?218 0 229 222 0 0 206 30 222 12 0 221 230 0 0 +0.00101 0.001
735 1.0e-04 2.449293598294707e-16 1.0 0.0 17 223 0 306 279 296 224 218 221 0 276
 -18 224 13 0 238 219 227 225 ?206 29 225 14 0 224 228 220 0.00101 0.001735 1.0e
-04 17 226 0 217 232 218 227 231 229 0 289 -18 227 15 0 237 224 233 228 ?206 29
 228 16 0 227 234 225 0.00101 0.003315 0.0 16 229 17 0 ?231 221 235 230 0 0 206
 30 230 18 0 229 236 222 0 +0.00101 0.003315 0.0 0.0 0.0 1.0 17 231 0 288 293 28
9 219 226 229 0 218 +17 232 0 217 238 226 233 237 235 0 283 -18 233 19 0 241 227
 248 234 ?206 29 234 20 0 233 249 228 0.00101 0.001735 0.0 16 235 21 0 ?237 229
 239 236 0 0 206 30 236 22 0 235 240 230 0 +0.00101 0.001735 0.0 2.4492935982947
07e-16 1.0 0.0 17 237 0 301 292 283 227 232 235 0 226 +17 238 0 217 218 232 224
 241 239 0 223 +16 239 23 0 ?238 235 250 240 0 0 206 30 240 24 0 239 251 236 0 +
0.00101 0.001735 0.0 0.0 0.0 1.0 17 241 0 275 280 276 233 238 239 0 232 -14 242
 25 244 1.0e-08 271 215 246 214 243 +0 0 271 215 212 50 243 26 0 242 272 216 0 +
0.00149 0.001735 0.0 1.0 -2.449293598294707e-16 0.0 0.0 0.0 1.0 81 1 244 27 6 24
2 0 0 273 209 245 83 3 245 0.734000027179718 0.773000001907349 0.796999990940094
 15 246 28 0 247 242 0 17 247 0 246 255 267 248 252 250 0 260 -18 248 29 0 247 2
33 253 249 ?206 29 249 30 0 248 254 234 0.00149 0.001735 0.0 16 250 31 0 ?252 23
9 258 251 0 0 206 30 251 32 0 250 259 240 0 +0.00149 0.001735 0.0 0.0 0.0 1.0 17
 252 0 275 276 280 253 247 250 0 267 +18 253 33 0 252 248 256 254 ?206 29 254 34
 0 253 257 249 0.00149 0.001735 1.0e-04 17 255 0 246 261 247 256 260 258 0 266 +
18 256 35 0 255 253 262 257 ?206 29 257 36 0 256 263 254 0.00149 0.003315 0.0 16
 258 37 0 ?255 250 264 259 0 0 206 30 259 38 0 258 265 251 0 +0.00149 0.001735 0
.0 2.449293598294707e-16 1.0 0.0 17 260 0 301 283 292 248 255 258 0 280 -17 261
 0 246 267 255 262 266 264 0 270 +18 262 39 0 261 256 0 263 ?206 29 263 40 0 262
 0 257 0.00149 0.003315 1.0e-04 16 264 41 0 ?261 258 268 265 0 0 206 30 265 42 0
 264 269 259 0 +0.00149 0.003315 0.0 0.0 0.0 1.0 17 266 0 288 289 293 256 261 26
4 0 292 -17 267 0 246 247 261 253 270 268 0 279 -16 268 43 0 ?270 264 277 269 0
 0 206 30 269 44 0 268 278 265 0 +0.00149 0.001735 1.0e-04 2.449293598294707e-16
 1.0 0.0 17 270 0 306 296 279 262 267 268 0 293 +14 271 45 273 1.0e-08 284 242 2
75 214 272 -0 0 284 242 212 50 272 46 0 271 285 243 0 +0.00101 0.001735 0.0 2.44
9293598294707e-16 1.0 0.0 0.0 0.0 1.0 81 1 273 47 6 271 0 0 286 244 274 83 3 274
 0.734000027179718 0.773000001907349 0.796999990940094 15 275 48 0 252 271 0 17
 276 0 275 241 252 224 279 277 0 0 -16 277 49 0 ?279 268 281 278 0 0 206 30 278
 50 0 277 282 269 0 +0.00101 0.001735 1.0e-04 1.0 -2.449293598294707e-16 0.0 17
 279 0 306 270 223 253 276 277 0 0 +17 280 0 275 252 241 248 283 281 0 0 +16 281
 51 0 ?280 277 290 282 0 0 206 30 282 52 0 281 291 278 0 +0.00101 0.001735 0.0 1
.0 -2.449293598294707e-16 0.0 17 283 0 301 237 260 233 280 281 0 0 -14 284 53 28
6 1.0e-08 297 271 288 214 285 +0 0 297 271 212 50 285 54 0 284 298 272 0 +0.0010
1 0.003315 0.0 2.449293598294707e-16 1.0 0.0 0.0 0.0 1.0 81 1 286 55 6 284 0 0 2
99 273 287 83 3 287 0.734000027179718 0.773000001907349 0.796999990940094 15 288
 56 0 289 284 0 17 289 0 288 231 266 227 292 290 0 0 -16 290 57 0 ?292 281 294 2
91 0 0 206 30 291 58 0 290 295 282 0 +0.00101 0.003315 0.0 1.0 -2.44929359829470
7e-16 0.0 17 292 0 301 260 237 256 289 290 0 0 +17 293 0 288 266 231 262 296 294
 0 0 +16 294 59 0 ?293 290 0 295 0 0 206 30 295 60 0 294 0 291 0 +0.00101 0.0033
15 1.0e-04 1.0 -2.449293598294707e-16 0.0 17 296 0 306 223 270 219 293 294 0 0 -
14 297 61 299 1.0e-08 302 284 301 214 298 -0 0 302 284 212 50 298 62 0 297 303 2
85 0 +0.00101 0.001735 0.0 0.0 0.0 1.0 1.0 -2.449293598294707e-16 0.0 81 1 299 6
3 6 297 0 0 304 286 300 83 3 300 0.734000027179718 0.773000001907349 0.796999990
940094 15 301 64 0 292 297 0 14 302 65 304 1.0e-08 0 297 306 214 303 +0 0 0 297
 212 50 303 66 0 302 0 298 0 +0.00101 0.001735 1.0e-04 0.0 0.0 1.0 1.0 -2.449293
598294707e-16 0.0 81 1 304 67 6 302 0 0 0 299 305 83 3 305 0.734000027179718 0.7
73000001907349 0.796999990940094 15 306 68 0 223 302 0 12 307 68 0 308 0 0 0 0 1
000.0 1.0e-08 0 0 0 1 0 1 1 315 317 323 321 312 322 320 70 308 0 307 0 0 4 1 20
 0 309 309 1 T74 20 309 1 0 310 0 0 0 0 0 0 0 0 0 0 0 0 0 0 0 0 0 0 0 81 1 310 7
 6 316 0 0 345 0 311 83 3 311 0.734000027179718 0.773000001907349 0.796999990940
094 19 312 1 0 307 314 0 313 V13 313 2 0 307 0 0 0 0 312 316 19 314 3 0 307 0 31
2 315 S13 315 4 0 307 0 316 0 0 314 0 14 316 5 310 1.0e-08 343 0 318 315 317 -0
 0 343 0 313 50 317 6 0 316 344 0 0 +-2.399999999999996e-04 0.001735 0.0 1.0 -2.
449293598294707e-16 0.0 0.0 0.0 1.0 15 318 8 0 319 316 0 17 319 0 318 327 339 32
0 324 322 0 397 +18 320 9 0 332 0 325 321 ?307 29 321 10 0 320 326 0 -2.39999999
9999992e-04 0.003315 1.0e-04 16 322 11 0 ?319 0 330 323 0 0 307 30 323 12 0 322
 331 0 0 +-2.399999999999996e-04 0.001735 1.0e-04 2.449293598294707e-16 1.0 0.0
 17 324 0 407 380 397 325 319 322 0 377 -18 325 13 0 339 320 328 326 ?307 29 326
 14 0 325 329 321 -2.399999999999996e-04 0.001735 1.0e-04 17 327 0 318 333 319 3
28 332 330 0 390 -18 328 15 0 338 325 334 329 ?307 29 329 16 0 328 335 326 -2.39
9999999999992e-04 0.003315 0.0 16 330 17 0 ?332 322 336 331 0 0 307 30 331 18 0
 330 337 323 0 +-2.399999999999992e-04 0.003315 0.0 0.0 0.0 1.0 17 332 0 389 394
 390 320 327 330 0 319 +17 333 0 318 339 327 334 338 336 0 384 -18 334 19 0 342
 328 349 335 ?307 29 335 20 0 334 350 329 -2.399999999999996e-04 0.001735 0.0 16
 336 21 0 ?338 330 340 337 0 0 307 30 337 22 0 336 341 331 0 +-2.399999999999996
e-04 0.001735 0.0 2.449293598294707e-16 1.0 0.0 17 338 0 402 393 384 328 333 336
 0 327 +17 339 0 318 319 333 325 342 340 0 324 +16 340 23 0 ?339 336 351 341 0 0
 307 30 341 24 0 340 352 337 0 +-2.399999999999996e-04 0.001735 0.0 0.0 0.0 1.0
 17 342 0 376 381 377 334 339 340 0 333 -14 343 25 345 1.0e-08 372 316 347 315 3
44 +0 0 372 316 313 50 344 26 0 343 373 317 0 +2.400000000000004e-04 0.001735 0.
0 1.0 -2.449293598294707e-16 0.0 0.0 0.0 1.0 81 1 345 27 6 343 0 0 374 310 346 8
3 3 346 0.734000027179718 0.773000001907349 0.796999990940094 15 347 28 0 348 34
3 0 17 348 0 347 356 368 349 353 351 0 361 -18 349 29 0 348 334 354 350 ?307 29
 350 30 0 349 355 335 2.400000000000004e-04 0.001735 0.0 16 351 31 0 ?353 340 35
9 352 0 0 307 30 352 32 0 351 360 341 0 +2.400000000000004e-04 0.001735 0.0 0.0
 0.0 1.0 17 353 0 376 377 381 354 348 351 0 368 +18 354 33 0 353 349 357 355 ?30
7 29 355 34 0 354 358 350 2.400000000000004e-04 0.001735 1.0e-04 17 356 0 347 36
2 348 357 361 359 0 367 +18 357 35 0 356 354 363 358 ?307 29 358 36 0 357 364 35
5 2.400000000000008e-04 0.003315 0.0 16 359 37 0 ?356 351 365 360 0 0 307 30 360
 38 0 359 366 352 0 +2.400000000000004e-04 0.001735 0.0 2.449293598294707e-16 1.
0 0.0 17 361 0 402 384 393 349 356 359 0 381 -17 362 0 347 368 356 363 367 365 0
 371 +18 363 39 0 362 357 0 364 ?307 29 364 40 0 363 0 358 2.400000000000008e-04
 0.003315 1.0e-04 16 365 41 0 ?362 359 369 366 0 0 307 30 366 42 0 365 370 360 0
 +2.400000000000008e-04 0.003315 0.0 0.0 0.0 1.0 17 367 0 389 390 394 357 362 36
5 0 393 -17 368 0 347 348 362 354 371 369 0 380 -16 369 43 0 ?371 365 378 370 0
 0 307 30 370 44 0 369 379 366 0 +2.400000000000004e-04 0.001735 1.0e-04 2.44929
3598294707e-16 1.0 0.0 17 371 0 407 397 380 363 368 369 0 394 +14 372 45 374 1.0
e-08 385 343 376 315 373 -0 0 385 343 313 50 373 46 0 372 386 344 0 +-2.39999999
9999996e-04 0.001735 0.0 2.449293598294707e-16 1.0 0.0 0.0 0.0 1.0 81 1 374 47 6
 372 0 0 387 345 375 83 3 375 0.734000027179718 0.773000001907349 0.796999990940
094 15 376 48 0 353 372 0 17 377 0 376 342 353 325 380 378 0 0 -16 378 49 0 ?380
 369 382 379 0 0 307 30 379 50 0 378 383 370 0 +-2.399999999999996e-04 0.001735
 1.0e-04 1.0 -2.449293598294707e-16 0.0 17 380 0 407 371 324 354 377 378 0 0 +17
 381 0 376 353 342 349 384 382 0 0 +16 382 51 0 ?381 378 391 383 0 0 307 30 383
 52 0 382 392 379 0 +-2.399999999999996e-04 0.001735 0.0 1.0 -2.449293598294707e
-16 0.0 17 384 0 402 338 361 334 381 382 0 0 -14 385 53 387 1.0e-08 398 372 389
 315 386 +0 0 398 372 313 50 386 54 0 385 399 373 0 +-2.399999999999992e-04 0.00
3315 0.0 2.449293598294707e-16 1.0 0.0 0.0 0.0 1.0 81 1 387 55 6 385 0 0 400 374
 388 83 3 388 0.734000027179718 0.773000001907349 0.796999990940094 15 389 56 0
 390 385 0 17 390 0 389 332 367 328 393 391 0 0 -16 391 57 0 ?393 382 395 392 0
 0 307 30 392 58 0 391 396 383 0 +-2.399999999999992e-04 0.003315 0.0 1.0 -2.449
293598294707e-16 0.0 17 393 0 402 361 338 357 390 391 0 0 +17 394 0 389 367 332
 363 397 395 0 0 +16 395 59 0 ?394 391 0 396 0 0 307 30 396 60 0 395 0 392 0 +-2
.399999999999992e-04 0.003315 1.0e-04 1.0 -2.449293598294707e-16 0.0 17 397 0 40
7 324 371 320 394 395 0 0 -14 398 61 400 1.0e-08 403 385 402 315 399 -0 0 403 38
5 313 50 399 62 0 398 404 386 0 +-2.399999999999996e-04 0.001735 0.0 0.0 0.0 1.0
 1.0 -2.449293598294707e-16 0.0 81 1 400 63 6 398 0 0 405 387 401 83 3 401 0.734
000027179718 0.773000001907349 0.796999990940094 15 402 64 0 393 398 0 14 403 65
 405 1.0e-08 0 398 407 315 404 +0 0 0 398 313 50 404 66 0 403 0 399 0 +-2.399999
999999996e-04 0.001735 1.0e-04 0.0 0.0 1.0 1.0 -2.449293598294707e-16 0.0 81 1 4
05 67 6 403 0 0 0 400 406 83 3 406 0.734000027179718 0.773000001907349 0.7969999
90940094 15 407 68 0 324 403 0 12 408 68 0 409 0 0 0 0 1000.0 1.0e-08 0 0 0 1 0
 1 1 416 418 424 422 413 423 421 70 409 0 408 0 0 4 1 20 0 410 410 1 T74 20 410
 1 0 411 0 0 0 0 0 0 0 0 0 0 0 0 0 0 0 0 0 0 0 81 1 411 7 6 417 0 0 446 0 412 83
 3 412 0.734000027179718 0.773000001907349 0.796999990940094 19 413 1 0 408 415
 0 414 V13 414 2 0 408 0 0 0 0 413 417 19 415 3 0 408 0 413 416 S13 416 4 0 408
 0 417 0 0 415 0 14 417 5 411 1.0e-08 444 0 419 416 418 -0 0 444 0 414 50 418 6
 0 417 445 0 0 +-0.00149 0.001735 0.0 1.0 -2.449293598294707e-16 0.0 0.0 0.0 1.0
 15 419 8 0 420 417 0 17 420 0 419 428 440 421 425 423 0 433 +18 421 9 0 420 0 4
26 422 ?408 29 422 10 0 421 427 0 -0.00149 0.003315 1.0e-04 16 423 11 0 ?420 0 4
31 424 0 0 408 30 424 12 0 423 432 0 0 +-0.00149 0.001735 1.0e-04 2.449293598294
707e-16 1.0 0.0 17 425 0 508 481 498 426 420 423 0 478 -18 426 13 0 425 421 429
 427 ?408 29 427 14 0 426 430 422 -0.00149 0.001735 1.0e-04 17 428 0 419 434 420
 429 433 431 0 491 -18 429 15 0 439 426 435 430 ?408 29 430 16 0 429 436 427 -0.
00149 0.003315 0.0 16 431 17 0 ?433 423 437 432 0 0 408 30 432 18 0 431 438 424
 0 +-0.00149 0.003315 0.0 0.0 0.0 1.0 17 433 0 490 495 491 421 428 431 0 498 +17
 434 0 419 440 428 435 439 437 0 485 -18 435 19 0 434 429 450 436 ?408 29 436 20
 0 435 451 430 -0.00149 0.001735 0.0 16 437 21 0 ?439 431 441 438 0 0 408 30 438
 22 0 437 442 432 0 +-0.00149 0.001735 0.0 2.449293598294707e-16 1.0 0.0 17 439
 0 503 494 485 429 434 437 0 428 +17 440 0 419 420 434 426 443 441 0 0 +16 441 2
3 0 ?440 437 452 442 0 0 408 30 442 24 0 441 453 438 0 +-0.00149 0.001735 0.0 0.
0 0.0 1.0 17 443 0 477 482 478 435 440 441 0 0 -14 444 25 446 1.0e-08 473 417 44
8 416 445 +0 0 473 417 414 50 445 26 0 444 474 418 0 +-0.00101 0.001735 0.0 1.0
 -2.449293598294707e-16 0.0 0.0 0.0 1.0 81 1 446 27 6 444 0 0 475 411 447 83 3 4
47 0.734000027179718 0.773000001907349 0.796999990940094 15 448 28 0 449 444 0 1
7 449 0 448 457 469 450 454 452 0 462 -18 450 29 0 482 435 455 451 ?408 29 451 3
0 0 450 456 436 -0.00101 0.001735 0.0 16 452 31 0 ?454 441 460 453 0 0 408 30 45
3 32 0 452 461 442 0 +-0.00101 0.001735 0.0 0.0 0.0 1.0 17 454 0 477 478 482 455
 449 452 0 481 +18 455 33 0 469 450 458 456 ?408 29 456 34 0 455 459 451 -0.0010
1 0.001735 1.0e-04 17 457 0 448 463 449 458 462 460 0 494 +18 458 35 0 468 455 4
64 459 ?408 29 459 36 0 458 465 456 -0.00101 0.003315 0.0 16 460 37 0 ?457 452 4
66 461 0 0 408 30 461 38 0 460 467 453 0 +-0.00101 0.001735 0.0 2.44929359829470
7e-16 1.0 0.0 17 462 0 503 485 494 450 457 460 0 0 -17 463 0 448 469 457 464 468
 466 0 472 +18 464 39 0 463 458 0 465 ?408 29 465 40 0 464 0 459 -0.00101 0.0033
15 1.0e-04 16 466 41 0 ?463 460 470 467 0 0 408 30 467 42 0 466 471 461 0 +-0.00
101 0.003315 0.0 0.0 0.0 1.0 17 468 0 490 491 495 458 463 466 0 457 -17 469 0 44
8 449 463 455 472 470 0 454 -16 470 43 0 ?472 466 479 471 0 0 408 30 471 44 0 47
0 480 467 0 +-0.00101 0.001735 1.0e-04 2.449293598294707e-16 1.0 0.0 17 472 0 50
8 498 481 464 469 470 0 495 +14 473 45 475 1.0e-08 486 444 477 416 474 -0 0 486
 444 414 50 474 46 0 473 487 445 0 +-0.00149 0.001735 0.0 2.449293598294707e-16
 1.0 0.0 0.0 0.0 1.0 81 1 475 47 6 473 0 0 488 446 476 83 3 476 0.73400002717971
8 0.773000001907349 0.796999990940094 15 477 48 0 454 473 0 17 478 0 477 443 454
 426 481 479 0 440 -16 479 49 0 ?481 470 483 480 0 0 408 30 480 50 0 479 484 471
 0 +-0.00149 0.001735 1.0e-04 1.0 -2.449293598294707e-16 0.0 17 481 0 508 472 42
5 455 478 479 0 0 +17 482 0 477 454 443 450 485 483 0 449 +16 483 51 0 ?482 479
 492 484 0 0 408 30 484 52 0 483 493 480 0 +-0.00149 0.001735 0.0 1.0 -2.4492935
98294707e-16 0.0 17 485 0 503 439 462 435 482 483 0 443 -14 486 53 488 1.0e-08 4
99 473 490 416 487 +0 0 499 473 414 50 487 54 0 486 500 474 0 +-0.00149 0.003315
 0.0 2.449293598294707e-16 1.0 0.0 0.0 0.0 1.0 81 1 488 55 6 486 0 0 501 475 489
 83 3 489 0.734000027179718 0.773000001907349 0.796999990940094 15 490 56 0 491
 486 0 17 491 0 490 433 468 429 494 492 0 0 -16 492 57 0 ?494 483 496 493 0 0 40
8 30 493 58 0 492 497 484 0 +-0.00149 0.003315 0.0 1.0 -2.449293598294707e-16 0.
0 17 494 0 503 462 439 458 491 492 0 0 +17 495 0 490 468 433 464 498 496 0 0 +16
 496 59 0 ?495 492 0 497 0 0 408 30 497 60 0 496 0 493 0 +-0.00149 0.003315 1.0e
-04 1.0 -2.449293598294707e-16 0.0 17 498 0 508 425 472 421 495 496 0 0 -14 499
 61 501 1.0e-08 504 486 503 416 500 -0 0 504 486 414 50 500 62 0 499 505 487 0 +
-0.00149 0.001735 0.0 0.0 0.0 1.0 1.0 -2.449293598294707e-16 0.0 81 1 501 63 6 4
99 0 0 506 488 502 83 3 502 0.734000027179718 0.773000001907349 0.79699999094009
4 15 503 64 0 494 499 0 14 504 65 506 1.0e-08 0 499 508 416 505 +0 0 0 499 414 5
0 505 66 0 504 0 500 0 +-0.00149 0.001735 1.0e-04 0.0 0.0 1.0 1.0 -2.44929359829
4707e-16 0.0 81 1 506 67 6 504 0 0 0 501 507 83 3 507 0.734000027179718 0.773000
001907349 0.796999990940094 15 508 68 0 425 504 0 12 509 68 0 510 0 0 0 0 1000.0
 1.0e-08 0 0 0 1 0 1 1 517 519 525 523 514 524 522 70 510 0 509 0 0 4 1 20 0 511
 511 1 T74 20 511 1 0 512 0 0 0 0 0 0 0 0 0 0 0 0 0 0 0 0 0 0 0 81 1 512 7 6 518
 0 0 547 0 513 83 3 513 0.734000027179718 0.773000001907349 0.796999990940094 19
 514 1 0 509 516 0 515 V13 515 2 0 509 0 0 0 0 514 518 19 516 3 0 509 0 514 517
 S13 517 4 0 509 0 518 0 0 516 0 14 518 5 512 1.0e-08 545 0 520 517 519 -0 0 545
 0 515 50 519 6 0 518 546 0 0 +-0.00274 0.001735 0.0 1.0 -2.449293598294707e-16
 0.0 0.0 0.0 1.0 15 520 8 0 521 518 0 17 521 0 520 529 541 522 526 524 0 599 +18
 522 9 0 534 0 527 523 ?509 29 523 10 0 522 528 0 -0.00274 0.003315 1.0e-04 16 5
24 11 0 ?521 0 532 525 0 0 509 30 525 12 0 524 533 0 0 +-0.00274 0.001735 1.0e-0
4 2.449293598294707e-16 1.0 0.0 17 526 0 609 582 599 527 521 524 0 579 -18 527 1
3 0 541 522 530 528 ?509 29 528 14 0 527 531 523 -0.00274 0.001735 1.0e-04 17 52
9 0 520 535 521 530 534 532 0 592 -18 530 15 0 540 527 536 531 ?509 29 531 16 0
 530 537 528 -0.00274 0.003315 0.0 16 532 17 0 ?534 524 538 533 0 0 509 30 533 1
8 0 532 539 525 0 +-0.00274 0.003315 0.0 0.0 0.0 1.0 17 534 0 591 596 592 522 52
9 532 0 521 +17 535 0 520 541 529 536 540 538 0 586 -18 536 19 0 544 530 551 537
 ?509 29 537 20 0 536 552 531 -0.00274 0.001735 0.0 16 538 21 0 ?540 532 542 539
 0 0 509 30 539 22 0 538 543 533 0 +-0.00274 0.001735 0.0 2.449293598294707e-16
 1.0 0.0 17 540 0 604 595 586 530 535 538 0 529 +17 541 0 520 521 535 527 544 54
2 0 526 +16 542 23 0 ?541 538 553 543 0 0 509 30 543 24 0 542 554 539 0 +-0.0027
4 0.001735 0.0 0.0 0.0 1.0 17 544 0 578 583 579 536 541 542 0 535 -14 545 25 547
 1.0e-08 574 518 549 517 546 +0 0 574 518 515 50 546 26 0 545 575 519 0 +-0.0022
6 0.001735 0.0 1.0 -2.449293598294707e-16 0.0 0.0 0.0 1.0 81 1 547 27 6 545 0 0
 576 512 548 83 3 548 0.734000027179718 0.773000001907349 0.796999990940094 15 5
49 28 0 550 545 0 17 550 0 549 558 570 551 555 553 0 563 -18 551 29 0 550 536 55
6 552 ?509 29 552 30 0 551 557 537 -0.00226 0.001735 0.0 16 553 31 0 ?555 542 56
1 554 0 0 509 30 554 32 0 553 562 543 0 +-0.00226 0.001735 0.0 0.0 0.0 1.0 17 55
5 0 578 579 583 556 550 553 0 570 +18 556 33 0 555 551 559 557 ?509 29 557 34 0
 556 560 552 -0.00226 0.001735 1.0e-04 17 558 0 549 564 550 559 563 561 0 569 +1
8 559 35 0 558 556 565 560 ?509 29 560 36 0 559 566 557 -0.00226 0.003315 0.0 16
 561 37 0 ?558 553 567 562 0 0 509 30 562 38 0 561 568 554 0 +-0.00226 0.001735
 0.0 2.449293598294707e-16 1.0 0.0 17 563 0 604 586 595 551 558 561 0 583 -17 56
4 0 549 570 558 565 569 567 0 573 +18 565 39 0 564 559 0 566 ?509 29 566 40 0 56
5 0 560 -0.00226 0.003315 1.0e-04 16 567 41 0 ?564 561 571 568 0 0 509 30 568 42
 0 567 572 562 0 +-0.00226 0.003315 0.0 0.0 0.0 1.0 17 569 0 591 592 596 559 564
 567 0 595 -17 570 0 549 550 564 556 573 571 0 582 -16 571 43 0 ?573 567 580 572
 0 0 509 30 572 44 0 571 581 568 0 +-0.00226 0.001735 1.0e-04 2.449293598294707e
-16 1.0 0.0 17 573 0 609 599 582 565 570 571 0 596 +14 574 45 576 1.0e-08 587 54
5 578 517 575 -0 0 587 545 515 50 575 46 0 574 588 546 0 +-0.00274 0.001735 0.0
 2.449293598294707e-16 1.0 0.0 0.0 0.0 1.0 81 1 576 47 6 574 0 0 589 547 577 83
 3 577 0.734000027179718 0.773000001907349 0.796999990940094 15 578 48 0 555 574
 0 17 579 0 578 544 555 527 582 580 0 0 -16 580 49 0 ?582 571 584 581 0 0 509 30
 581 50 0 580 585 572 0 +-0.00274 0.001735 1.0e-04 1.0 -2.449293598294707e-16 0.
0 17 582 0 609 573 526 556 579 580 0 0 +17 583 0 578 555 544 551 586 584 0 0 +16
 584 51 0 ?583 580 593 585 0 0 509 30 585 52 0 584 594 581 0 +-0.00274 0.001735
 0.0 1.0 -2.449293598294707e-16 0.0 17 586 0 604 540 563 536 583 584 0 0 -14 587
 53 589 1.0e-08 600 574 591 517 588 +0 0 600 574 515 50 588 54 0 587 601 575 0 +
-0.00274 0.003315 0.0 2.449293598294707e-16 1.0 0.0 0.0 0.0 1.0 81 1 589 55 6 58
7 0 0 602 576 590 83 3 590 0.734000027179718 0.773000001907349 0.796999990940094
 15 591 56 0 592 587 0 17 592 0 591 534 569 530 595 593 0 0 -16 593 57 0 ?595 58
4 597 594 0 0 509 30 594 58 0 593 598 585 0 +-0.00274 0.003315 0.0 1.0 -2.449293
598294707e-16 0.0 17 595 0 604 563 540 559 592 593 0 0 +17 596 0 591 569 534 565
 599 597 0 0 +16 597 59 0 ?596 593 0 598 0 0 509 30 598 60 0 597 0 594 0 +-0.002
74 0.003315 1.0e-04 1.0 -2.449293598294707e-16 0.0 17 599 0 609 526 573 522 596
 597 0 0 -14 600 61 602 1.0e-08 605 587 604 517 601 -0 0 605 587 515 50 601 62 0
 600 606 588 0 +-0.00274 0.001735 0.0 0.0 0.0 1.0 1.0 -2.449293598294707e-16 0.0
 81 1 602 63 6 600 0 0 607 589 603 83 3 603 0.734000027179718 0.773000001907349
 0.796999990940094 15 604 64 0 595 600 0 14 605 65 607 1.0e-08 0 600 609 517 606
 +0 0 0 600 515 50 606 66 0 605 0 601 0 +-0.00274 0.001735 1.0e-04 0.0 0.0 1.0 1
.0 -2.449293598294707e-16 0.0 81 1 607 67 6 605 0 0 0 602 608 83 3 608 0.7340000
27179718 0.773000001907349 0.796999990940094 15 609 68 0 526 605 0 12 610 68 0 6
11 0 0 0 0 1000.0 1.0e-08 0 0 0 1 0 1 1 618 620 626 624 615 625 623 70 611 0 610
 0 0 4 1 20 0 612 612 1 T74 20 612 1 0 613 0 0 0 0 0 0 0 0 0 0 0 0 0 0 0 0 0 0 0
 81 1 613 7 6 619 0 0 648 0 614 83 3 614 0.734000027179718 0.773000001907349 0.7
96999990940094 19 615 1 0 610 617 0 616 V13 616 2 0 610 0 0 0 0 615 619 19 617 3
 0 610 0 615 618 S13 618 4 0 610 0 619 0 0 617 0 14 619 5 613 1.0e-08 646 0 621
 618 620 -0 0 646 0 616 50 620 6 0 619 647 0 0 +0.00395 -0.002125 0.0 1.0 -2.449
293598294707e-16 0.0 0.0 0.0 1.0 15 621 8 0 622 619 0 17 622 0 621 630 642 623 6
27 625 0 700 +18 623 9 0 635 0 628 624 ?610 29 624 10 0 623 629 0 0.00395 4.7499
9999999999e-04 1.0e-04 16 625 11 0 ?622 0 633 626 0 0 610 30 626 12 0 625 634 0
 0 +0.00395 -0.002125 1.0e-04 2.449293598294707e-16 1.0 0.0 17 627 0 710 683 700
 628 622 625 0 680 -18 628 13 0 642 623 631 629 ?610 29 629 14 0 628 632 624 0.0
0395 -0.002125 1.0e-04 17 630 0 621 636 622 631 635 633 0 693 -18 631 15 0 641 6
28 637 632 ?610 29 632 16 0 631 638 629 0.00395 4.74999999999999e-04 0.0 16 633
 17 0 ?635 625 639 634 0 0 610 30 634 18 0 633 640 626 0 +0.00395 4.749999999999
99e-04 0.0 0.0 0.0 1.0 17 635 0 692 697 693 623 630 633 0 622 +17 636 0 621 642
 630 637 641 639 0 687 -18 637 19 0 645 631 652 638 ?610 29 638 20 0 637 653 632
 0.00395 -0.002125 0.0 16 639 21 0 ?641 633 643 640 0 0 610 30 640 22 0 639 644
 634 0 +0.00395 -0.002125 0.0 2.449293598294707e-16 1.0 0.0 17 641 0 705 696 687
 631 636 639 0 630 +17 642 0 621 622 636 628 645 643 0 627 +16 643 23 0 ?642 639
 654 644 0 0 610 30 644 24 0 643 655 640 0 +0.00395 -0.002125 0.0 0.0 0.0 1.0 17
 645 0 679 684 680 637 642 643 0 636 -14 646 25 648 1.0e-08 675 619 650 618 647
 +0 0 675 619 616 50 647 26 0 646 676 620 0 +0.00475 -0.002125 0.0 1.0 -2.449293
598294707e-16 0.0 0.0 0.0 1.0 81 1 648 27 6 646 0 0 677 613 649 83 3 649 0.73400
0027179718 0.773000001907349 0.796999990940094 15 650 28 0 651 646 0 17 651 0 65
0 659 671 652 656 654 0 664 -18 652 29 0 651 637 657 653 ?610 29 653 30 0 652 65
8 638 0.00475 -0.002125 0.0 16 654 31 0 ?656 643 662 655 0 0 610 30 655 32 0 654
 663 644 0 +0.00475 -0.002125 0.0 0.0 0.0 1.0 17 656 0 679 680 684 657 651 654 0
 671 +18 657 33 0 656 652 660 658 ?610 29 658 34 0 657 661 653 0.00475 -0.002125
 1.0e-04 17 659 0 650 665 651 660 664 662 0 670 +18 660 35 0 659 657 666 661 ?61
0 29 661 36 0 660 667 658 0.00475 4.749999999999989e-04 0.0 16 662 37 0 ?659 654
 668 663 0 0 610 30 663 38 0 662 669 655 0 +0.00475 -0.002125 0.0 2.449293598294
707e-16 1.0 0.0 17 664 0 705 687 696 652 659 662 0 684 -17 665 0 650 671 659 666
 670 668 0 674 +18 666 39 0 665 660 0 667 ?610 29 667 40 0 666 0 661 0.00475 4.7
49999999999989e-04 1.0e-04 16 668 41 0 ?665 662 672 669 0 0 610 30 669 42 0 668
 673 663 0 +0.00475 4.749999999999989e-04 0.0 0.0 0.0 1.0 17 670 0 692 693 697 6
60 665 668 0 696 -17 671 0 650 651 665 657 674 672 0 683 -16 672 43 0 ?674 668 6
81 673 0 0 610 30 673 44 0 672 682 669 0 +0.00475 -0.002125 1.0e-04 2.4492935982
94707e-16 1.0 0.0 17 674 0 710 700 683 666 671 672 0 697 +14 675 45 677 1.0e-08
 688 646 679 618 676 -0 0 688 646 616 50 676 46 0 675 689 647 0 +0.00395 -0.0021
25 0.0 2.449293598294707e-16 1.0 0.0 0.0 0.0 1.0 81 1 677 47 6 675 0 0 690 648 6
78 83 3 678 0.734000027179718 0.773000001907349 0.796999990940094 15 679 48 0 65
6 675 0 17 680 0 679 645 656 628 683 681 0 0 -16 681 49 0 ?683 672 685 682 0 0 6
10 30 682 50 0 681 686 673 0 +0.00395 -0.002125 1.0e-04 1.0 -2.449293598294707e-
16 0.0 17 683 0 710 674 627 657 680 681 0 0 +17 684 0 679 656 645 652 687 685 0
 0 +16 685 51 0 ?684 681 694 686 0 0 610 30 686 52 0 685 695 682 0 +0.00395 -0.0
02125 0.0 1.0 -2.449293598294707e-16 0.0 17 687 0 705 641 664 637 684 685 0 0 -1
4 688 53 690 1.0e-08 701 675 692 618 689 +0 0 701 675 616 50 689 54 0 688 702 67
6 0 +0.00395 4.74999999999999e-04 0.0 2.449293598294707e-16 1.0 0.0 0.0 0.0 1.0
 81 1 690 55 6 688 0 0 703 677 691 83 3 691 0.734000027179718 0.773000001907349
 0.796999990940094 15 692 56 0 693 688 0 17 693 0 692 635 670 631 696 694 0 0 -1
6 694 57 0 ?696 685 698 695 0 0 610 30 695 58 0 694 699 686 0 +0.00395 4.7499999
9999999e-04 0.0 1.0 -2.449293598294707e-16 0.0 17 696 0 705 664 641 660 693 694
 0 0 +17 697 0 692 670 635 666 700 698 0 0 +16 698 59 0 ?697 694 0 699 0 0 610 3
0 699 60 0 698 0 695 0 +0.00395 4.74999999999999e-04 1.0e-04 1.0 -2.449293598294
707e-16 0.0 17 700 0 710 627 674 623 697 698 0 0 -14 701 61 703 1.0e-08 706 688
 705 618 702 -0 0 706 688 616 50 702 62 0 701 707 689 0 +0.00395 -0.002125 0.0 0
.0 0.0 1.0 1.0 -2.449293598294707e-16 0.0 81 1 703 63 6 701 0 0 708 690 704 83 3
 704 0.734000027179718 0.773000001907349 0.796999990940094 15 705 64 0 696 701 0
 14 706 65 708 1.0e-08 0 701 710 618 707 +0 0 0 701 616 50 707 66 0 706 0 702 0
 +0.00395 -0.002125 1.0e-04 0.0 0.0 1.0 1.0 -2.449293598294707e-16 0.0 81 1 708
 67 6 706 0 0 0 703 709 83 3 709 0.734000027179718 0.773000001907349 0.796999990
940094 15 710 68 0 627 706 0 12 711 68 0 712 0 0 0 0 1000.0 1.0e-08 0 0 0 1 0 1
 1 719 721 727 725 716 726 724 70 712 0 711 0 0 4 1 20 0 713 713 1 T74 20 713 1
 0 714 0 0 0 0 0 0 0 0 0 0 0 0 0 0 0 0 0 0 0 81 1 714 7 6 720 0 0 749 0 715 83 3
 715 0.734000027179718 0.773000001907349 0.796999990940094 19 716 1 0 711 718 0
 717 V13 717 2 0 711 0 0 0 0 716 720 19 718 3 0 711 0 716 719 S13 719 4 0 711 0
 720 0 0 718 0 14 720 5 714 1.0e-08 747 0 722 719 721 -0 0 747 0 717 50 721 6 0
 720 748 0 0 +-0.00475 -0.002125 0.0 1.0 -2.449293598294707e-16 0.0 0.0 0.0 1.0
 15 722 8 0 723 720 0 17 723 0 722 731 743 724 728 726 0 801 +18 724 9 0 736 0 7
29 725 ?711 29 725 10 0 724 730 0 -0.00475 4.750000000000012e-04 1.0e-04 16 726
 11 0 ?723 0 734 727 0 0 711 30 727 12 0 726 735 0 0 +-0.00475 -0.002125 1.0e-04
 2.449293598294707e-16 1.0 0.0 17 728 0 811 784 801 729 723 726 0 781 -18 729 13
 0 743 724 732 730 ?711 29 730 14 0 729 733 725 -0.00475 -0.002125 1.0e-04 17 73
1 0 722 737 723 732 736 734 0 794 -18 732 15 0 742 729 738 733 ?711 29 733 16 0
 732 739 730 -0.00475 4.750000000000012e-04 0.0 16 734 17 0 ?736 726 740 735 0 0
 711 30 735 18 0 734 741 727 0 +-0.00475 4.750000000000012e-04 0.0 0.0 0.0 1.0 1
7 736 0 793 798 794 724 731 734 0 723 +17 737 0 722 743 731 738 742 740 0 788 -1
8 738 19 0 746 732 753 739 ?711 29 739 20 0 738 754 733 -0.00475 -0.002125 0.0 1
6 740 21 0 ?742 734 744 741 0 0 711 30 741 22 0 740 745 735 0 +-0.00475 -0.00212
5 0.0 2.449293598294707e-16 1.0 0.0 17 742 0 806 797 788 732 737 740 0 731 +17 7
43 0 722 723 737 729 746 744 0 728 +16 744 23 0 ?743 740 755 745 0 0 711 30 745
 24 0 744 756 741 0 +-0.00475 -0.002125 0.0 0.0 0.0 1.0 17 746 0 780 785 781 738
 743 744 0 737 -14 747 25 749 1.0e-08 776 720 751 719 748 +0 0 776 720 717 50 74
8 26 0 747 777 721 0 +-0.00395 -0.002125 0.0 1.0 -2.449293598294707e-16 0.0 0.0
 0.0 1.0 81 1 749 27 6 747 0 0 778 714 750 83 3 750 0.734000027179718 0.77300000
1907349 0.796999990940094 15 751 28 0 752 747 0 17 752 0 751 760 772 753 757 755
 0 785 -18 753 29 0 752 738 758 754 ?711 29 754 30 0 753 759 739 -0.00395 -0.002
125 0.0 16 755 31 0 ?757 744 763 756 0 0 711 30 756 32 0 755 764 745 0 +-0.00395
 -0.002125 0.0 0.0 0.0 1.0 17 757 0 780 781 785 758 752 755 0 0 +18 758 33 0 772
 753 761 759 ?711 29 759 34 0 758 762 754 -0.00395 -0.002125 1.0e-04 17 760 0 75
1 766 752 761 765 763 0 797 +18 761 35 0 771 758 767 762 ?711 29 762 36 0 761 76
8 759 -0.00395 4.750000000000009e-04 0.0 16 763 37 0 ?760 755 769 764 0 0 711 30
 764 38 0 763 770 756 0 +-0.00395 -0.002125 0.0 2.449293598294707e-16 1.0 0.0 17
 765 0 806 788 797 753 760 763 0 0 -17 766 0 751 772 760 767 771 769 0 775 +18 7
67 39 0 766 761 0 768 ?711 29 768 40 0 767 0 762 -0.00395 4.750000000000009e-04
 1.0e-04 16 769 41 0 ?766 763 773 770 0 0 711 30 770 42 0 769 774 764 0 +-0.0039
5 4.750000000000009e-04 0.0 0.0 0.0 1.0 17 771 0 793 794 798 761 766 769 0 760 -
17 772 0 751 752 766 758 775 773 0 784 -16 773 43 0 ?775 769 782 774 0 0 711 30
 774 44 0 773 783 770 0 +-0.00395 -0.002125 1.0e-04 2.449293598294707e-16 1.0 0.
0 17 775 0 811 801 784 767 772 773 0 798 +14 776 45 778 1.0e-08 789 747 780 719
 777 -0 0 789 747 717 50 777 46 0 776 790 748 0 +-0.00475 -0.002125 0.0 2.449293
598294707e-16 1.0 0.0 0.0 0.0 1.0 81 1 778 47 6 776 0 0 791 749 779 83 3 779 0.7
34000027179718 0.773000001907349 0.796999990940094 15 780 48 0 757 776 0 17 781
 0 780 746 757 729 784 782 0 0 -16 782 49 0 ?784 773 786 783 0 0 711 30 783 50 0
 782 787 774 0 +-0.00475 -0.002125 1.0e-04 1.0 -2.449293598294707e-16 0.0 17 784
 0 811 775 728 758 781 782 0 757 +17 785 0 780 757 746 753 788 786 0 765 +16 786
 51 0 ?785 782 795 787 0 0 711 30 787 52 0 786 796 783 0 +-0.00475 -0.002125 0.0
 1.0 -2.449293598294707e-16 0.0 17 788 0 806 742 765 738 785 786 0 0 -14 789 53
 791 1.0e-08 802 776 793 719 790 +0 0 802 776 717 50 790 54 0 789 803 777 0 +-0.
00475 4.750000000000012e-04 0.0 2.449293598294707e-16 1.0 0.0 0.0 0.0 1.0 81 1 7
91 55 6 789 0 0 804 778 792 83 3 792 0.734000027179718 0.773000001907349 0.79699
9990940094 15 793 56 0 794 789 0 17 794 0 793 736 771 732 797 795 0 0 -16 795 57
 0 ?797 786 799 796 0 0 711 30 796 58 0 795 800 787 0 +-0.00475 4.75000000000001
2e-04 0.0 1.0 -2.449293598294707e-16 0.0 17 797 0 806 765 742 761 794 795 0 0 +1
7 798 0 793 771 736 767 801 799 0 0 +16 799 59 0 ?798 795 0 800 0 0 711 30 800 6
0 0 799 0 796 0 +-0.00475 4.750000000000012e-04 1.0e-04 1.0 -2.449293598294707e-
16 0.0 17 801 0 811 728 775 724 798 799 0 0 -14 802 61 804 1.0e-08 807 789 806 7
19 803 -0 0 807 789 717 50 803 62 0 802 808 790 0 +-0.00475 -0.002125 0.0 0.0 0.
0 1.0 1.0 -2.449293598294707e-16 0.0 81 1 804 63 6 802 0 0 809 791 805 83 3 805
 0.734000027179718 0.773000001907349 0.796999990940094 15 806 64 0 797 802 0 14
 807 65 809 1.0e-08 0 802 811 719 808 +0 0 0 802 717 50 808 66 0 807 0 803 0 +-0
.00475 -0.002125 1.0e-04 0.0 0.0 1.0 1.0 -2.449293598294707e-16 0.0 81 1 809 67
 6 807 0 0 0 804 810 83 3 810 0.734000027179718 0.773000001907349 0.796999990940
094 15 811 68 0 728 807 0 1 0 
